<?xml version="1.0" encoding="UTF-8" standalone="no"?>
<!-- Created with Inkscape (http://www.inkscape.org/) -->

<svg
   xmlns:dc="http://purl.org/dc/elements/1.1/"
   xmlns:cc="http://creativecommons.org/ns#"
   xmlns:rdf="http://www.w3.org/1999/02/22-rdf-syntax-ns#"
   xmlns:svg="http://www.w3.org/2000/svg"
   xmlns="http://www.w3.org/2000/svg"
   xmlns:xlink="http://www.w3.org/1999/xlink"
   xmlns:sodipodi="http://sodipodi.sourceforge.net/DTD/sodipodi-0.dtd"
   xmlns:inkscape="http://www.inkscape.org/namespaces/inkscape"
   width="297mm"
   height="210mm"
   viewBox="0 0 1052.3622 744.09448"
   id="svg2"
   version="1.1"
   inkscape:version="0.91 r13725"
   sodipodi:docname="graduate_cert.svg">
  <defs
     id="defs4">
    <linearGradient
       id="linearGradient5892"
       spreadMethod="pad"
       gradientTransform="matrix(190.60693,0,0,190.60693,-234.07121,40.419435)"
       gradientUnits="userSpaceOnUse"
       y2="0"
       x2="1"
       y1="0"
       x1="0">
      <stop
         id="stop5894"
         offset="0"
         style="stop-opacity:1;stop-color:#19e1fe" />
      <stop
         id="stop5896"
         offset="1"
         style="stop-opacity:1;stop-color:#19b5fe" />
    </linearGradient>
    <radialGradient
       inkscape:collect="always"
       xlink:href="#linearGradient5892"
       id="radialGradient6635"
       cx="158.60139"
       cy="-4.6746378"
       fx="158.60139"
       fy="-4.6746378"
       r="95.449028"
       gradientTransform="matrix(1.0300335,3.4254732,-3.4406999,1.0345698,521.59309,-385.34683)"
       gradientUnits="userSpaceOnUse" />
  </defs>
  <sodipodi:namedview
     id="base"
     pagecolor="#ffffff"
     bordercolor="#666666"
     borderopacity="1.0"
     inkscape:pageopacity="0.0"
     inkscape:pageshadow="2"
     inkscape:zoom="0.49497475"
     inkscape:cx="-130.49234"
     inkscape:cy="153.17413"
     inkscape:document-units="px"
     inkscape:current-layer="layer1"
     showgrid="false"
     showguides="true"
     inkscape:guide-bbox="true"
     inkscape:window-width="1916"
     inkscape:window-height="1036"
     inkscape:window-x="1920"
     inkscape:window-y="22"
     inkscape:window-maximized="0" />
  <metadata
     id="metadata7">
    <rdf:RDF>
      <cc:Work
         rdf:about="">
        <dc:format>image/svg+xml</dc:format>
        <dc:type
           rdf:resource="http://purl.org/dc/dcmitype/StillImage" />
        <dc:title></dc:title>
      </cc:Work>
    </rdf:RDF>
  </metadata>
  <g
     inkscape:groupmode="layer"
     id="layer2"
     inkscape:label="Layer 2"
     style="display:inline"
     sodipodi:insensitive="true">
    <rect
       style="fill:none;fill-opacity:1;stroke:#51aad4;stroke-width:2;stroke-miterlimit:4;stroke-dasharray:none;stroke-opacity:1"
       id="rect4159"
       width="993.99011"
       height="683.87329"
       x="28.284271"
       y="28.906481"
       ry="0.33939999" />
    <rect
       ry="0.33939999"
       y="19.815107"
       x="38.385796"
       height="702.05597"
       width="973.78699"
       id="rect4161"
       style="fill:none;fill-opacity:1;stroke:#51aad4;stroke-width:2;stroke-miterlimit:4;stroke-dasharray:none;stroke-opacity:1" />
  </g>
  <g
     inkscape:groupmode="layer"
     id="layer3"
     inkscape:label="Layer 3"
     style="opacity:0.33000004"
     sodipodi:insensitive="true">
    <path
       inkscape:export-ydpi="19.55286"
       inkscape:export-xdpi="19.55286"
       inkscape:export-filename="/home/bigeagle/workspace/tuna/mirror-web/static/img/logo-small.png"
       style="display:inline;fill:#bee2e9;fill-opacity:1;stroke:none"
       d="m 351.10144,297.8076 c -42.48676,12.31997 -66.02085,17.35734 -101.12663,43.98587 -24.93567,18.4102 -50.1156,49.94329 -50.1156,49.94329 0,0 39.54381,-20.22954 72.35365,-27.46221 32.8093,-7.23211 47.96778,-8.04182 58.23503,-7.19202 2.05116,-19.23604 15.40168,-42.39352 20.65355,-59.27493 z"
       id="path9214"
       inkscape:connector-curvature="0"
       sodipodi:nodetypes="cccccc" />
    <path
       inkscape:connector-curvature="0"
       id="path5880"
       style="display:inline;fill:url(#radialGradient6635);fill-opacity:1;stroke:none"
       d="m 325.04618,374.39823 c 0,156.07365 121.64639,283.71287 275.29788,293.32959 l 0,0 C 402.96573,649.78944 399.88807,510.3112 454.43604,451.45982 l 0,0 C 574.38509,322.03795 823.72669,342.02279 823.72669,163.52879 l 0,0 C 770.79617,112.12511 698.58957,80.461139 618.97796,80.461139 l 0,0 c -162.3356,0 -293.93178,131.598871 -293.93178,293.937091" />
    <path
       inkscape:export-ydpi="19.55286"
       inkscape:export-xdpi="19.55286"
       inkscape:export-filename="/home/bigeagle/workspace/tuna/mirror-web/static/img/logo-small.png"
       style="display:inline;fill:#4f9cc5;fill-opacity:1;stroke:none"
       d="m 544.33394,166.94878 c 0,0 -29.44433,34.3842 -51.72507,63.83124 -16.12622,21.31303 -44.64317,37.42359 -81.31629,50.91726 -32.78953,12.06429 -77.48966,21.22201 -77.48966,21.22201 0,0 6.71667,-29.83282 14.83662,-34.71498 21.42577,-12.88131 195.6944,-101.25553 195.6944,-101.25553 z"
       id="path9200"
       inkscape:connector-curvature="0"
       sodipodi:nodetypes="csscsc" />
    <path
       inkscape:export-ydpi="19.55286"
       inkscape:export-xdpi="19.55286"
       inkscape:export-filename="/home/bigeagle/workspace/tuna/mirror-web/static/img/logo-small.png"
       style="display:inline;fill:#bee2e9;fill-opacity:1;stroke:none"
       d="m 532.37439,385.56654 c -25.98387,26.03547 -29.33114,33.48317 -37.2697,57.96222 -10.86856,33.517 -6.03192,83.22078 -6.03192,83.22078 0,0 -11.4776,-11.06403 -20.46697,-44.00307 -6.90754,-25.30854 -5.97174,-46.25739 -5.97174,-46.25739 0,0 6.80002,-15.67037 27.68014,-31.01255 20.87958,-15.34268 42.06019,-19.90999 42.06019,-19.90999 z"
       id="path9226"
       inkscape:connector-curvature="0"
       sodipodi:nodetypes="cscscsc" />
    <path
       inkscape:export-ydpi="19.55286"
       inkscape:export-xdpi="19.55286"
       inkscape:export-filename="/home/bigeagle/workspace/tuna/mirror-web/static/img/logo-small.png"
       style="display:inline;fill:#815cb7;fill-opacity:1;stroke:none"
       d="m 717.66206,321.30483 c -0.2338,26.49994 1.40003,38.13258 -0.92868,70.1364 -2.18575,30.03763 -13.45547,53.53201 -13.45547,53.53201 0,0 0.46251,-24.17601 -3.24798,-43.7026 -3.71205,-19.52657 -26.21564,-57.35766 -26.21564,-57.35766 0,0 5.20509,-0.63889 20.16972,-7.91114 17.12597,-8.32352 23.67805,-14.69701 23.67805,-14.69701 z"
       id="path9240"
       inkscape:connector-curvature="0"
       sodipodi:nodetypes="cscscsc" />
    <ellipse
       style="display:inline;fill:#ffffff;fill-opacity:1;stroke:none"
       id="path5116"
       inkscape:export-filename="/home/bigeagle/workspace/tuna/mirror-web/static/img/logo-small.png"
       inkscape:export-xdpi="19.55286"
       inkscape:export-ydpi="19.55286"
       cx="720.31482"
       cy="158.68729"
       rx="18.021406"
       ry="17.226343" />
    <path
       inkscape:connector-curvature="0"
       id="path150-3"
       style="display:inline;fill:#815cb7;fill-opacity:1;fill-rule:nonzero;stroke:none"
       d="m 152.92412,375.8068 c 64.78821,-129.94415 123.70886,-201.79099 391.40989,-208.8896 0,0 -56.08015,61.9477 -78.79093,77.76501 -71.7909,50.00211 -208.17549,32.03172 -312.61896,131.12459" />
  </g>
  <g
     inkscape:label="Layer 1"
     inkscape:groupmode="layer"
     id="layer1"
     transform="translate(0,-308.26772)">
    <text
       xml:space="preserve"
       style="font-style:normal;font-weight:normal;font-size:69.36103058px;line-height:125%;font-family:sans-serif;letter-spacing:0px;word-spacing:0px;fill:#000000;fill-opacity:1;stroke:none;stroke-width:1px;stroke-linecap:butt;stroke-linejoin:miter;stroke-opacity:1"
       x="358.99493"
       y="489.1662"
       id="text4136"
       sodipodi:linespacing="125%"><tspan
         sodipodi:role="line"
         id="tspan4138"
         x="358.99493"
         y="489.1662"
         style="font-style:normal;font-variant:normal;font-weight:normal;font-stretch:normal;font-size:80px;line-height:125%;font-family:'Adobe Kaiti Std';-inkscape-font-specification:'Adobe Kaiti Std';letter-spacing:19.71000862px">卒業証書</tspan></text>
    <text
       xml:space="preserve"
       style="font-style:normal;font-variant:normal;font-weight:normal;font-stretch:normal;font-size:35px;line-height:125%;font-family:FZLiShu-S01;-inkscape-font-specification:FZLiShu-S01;letter-spacing:0px;word-spacing:0px;fill:#000000;fill-opacity:1;stroke:none;stroke-width:1px;stroke-linecap:butt;stroke-linejoin:miter;stroke-opacity:1"
       x="118.9529"
       y="605.5578"
       id="text4140"
       sodipodi:linespacing="125%"><tspan
         sodipodi:role="line"
         id="tspan4142"
         x="118.9529"
         y="605.5578">学生             ，性别        ，于          年      月至         年</tspan><tspan
         sodipodi:role="line"
         x="118.9529"
         y="649.3078"
         id="tspan4144">      月在本协会参与活动，表现基极，符合毕业要求，</tspan><tspan
         sodipodi:role="line"
         x="118.9529"
         y="693.0578"
         id="tspan5549">准予毕业。</tspan></text>
    <text
       xml:space="preserve"
       style="font-style:normal;font-weight:normal;font-size:40px;line-height:125%;font-family:sans-serif;letter-spacing:0px;word-spacing:0px;fill:#000000;fill-opacity:1;stroke:none;stroke-width:1px;stroke-linecap:butt;stroke-linejoin:miter;stroke-opacity:1"
       x="109.09647"
       y="549.30621"
       id="text4146"
       sodipodi:linespacing="125%"><tspan
         sodipodi:role="line"
         id="tspan4148"
         x="109.09647"
         y="549.30621" /></text>
    <text
       xml:space="preserve"
       style="font-style:normal;font-weight:normal;font-size:27.41301727px;line-height:125%;font-family:sans-serif;letter-spacing:0px;word-spacing:0px;fill:#000000;fill-opacity:1;stroke:none;stroke-width:1px;stroke-linecap:butt;stroke-linejoin:miter;stroke-opacity:1"
       x="72.168465"
       y="927.64478"
       id="text4150"
       sodipodi:linespacing="125%"><tspan
         sodipodi:role="line"
         id="tspan4152"
         x="72.168465"
         y="927.64478">清华大学 TUNA 协会</tspan></text>
    <path
       style="fill:#bd0c0c;fill-opacity:1"
       d="m 132.37761,876.40921 0,-12.14684 12.14685,0 12.14684,0 0,12.14684 0,12.14684 -12.14684,0 -12.14685,0 0,-12.14684 z m 20.82317,0 0,-8.67631 -8.67632,0 -8.67632,0 0,8.67631 0,8.67631 8.67632,0 8.67632,0 0,-8.67631 z m -13.88212,0 0,-5.20579 5.2058,0 5.20578,0 0,5.20579 0,5.20579 -5.20578,0 -5.2058,0 0,-5.20579 z m 25.45054,10.41153 0,-0.57839 0.57842,0 0.57842,0 0,0.57839 0,0.57844 -0.57842,0 -0.57842,0 0,-0.57844 z m 17.35263,0 0,-0.57839 0.57842,0 0.57842,0 0,0.57839 0,0.57844 -0.57842,0 -0.57842,0 0,-0.57844 z m 3.47053,0 0,-0.57839 0.57842,0 0.57842,0 0,0.57839 0,0.57844 -0.57842,0 -0.57842,0 0,-0.57844 z m 3.47052,0 0,-0.57839 0.57843,0 0.57842,0 0,0.57839 0,0.57844 -0.57842,0 -0.57843,0 0,-0.57844 z m 3.47053,0 0,-0.57839 0.57842,0 0.57842,0 0,0.57839 0,0.57844 -0.57842,0 -0.57842,0 0,-0.57844 z m 3.47053,0 0,-0.57839 0.57842,0 0.57842,0 0,0.57839 0,0.57844 -0.57842,0 -0.57842,0 0,-0.57844 z m 3.47053,0 0,-0.57839 0.57842,0 0.57842,0 0,0.57839 0,0.57844 -0.57842,0 -0.57842,0 0,-0.57844 z m 17.35263,0 0,-0.57839 0.57842,0 0.57843,0 0,0.57839 0,0.57844 -0.57843,0 -0.57842,0 0,-0.57844 z m 3.47053,0 0,-0.57839 0.57842,0 0.57842,0 0,0.57839 0,0.57844 -0.57842,0 -0.57842,0 0,-0.57844 z m 10.41158,0 0,-0.57839 0.57843,0 0.57842,0 0,0.57839 0,0.57844 -0.57842,0 -0.57843,0 0,-0.57844 z m 3.47053,0 0,-0.57839 0.57842,0 0.57842,0 0,0.57839 0,0.57844 -0.57842,0 -0.57842,0 0,-0.57844 z m -62.46949,-3.47052 0,-0.57839 0.57842,0 0.57843,0 0,0.57839 0,0.57843 -0.57843,0 -0.57842,0 0,-0.57843 z m 3.47053,0 0,-0.57839 0.57842,0 0.57842,0 0,0.57839 0,0.57843 -0.57842,0 -0.57842,0 0,-0.57843 z m 10.41158,0 0,-0.57839 0.57842,0 0.57842,0 0,0.57839 0,0.57843 -0.57842,0 -0.57842,0 0,-0.57843 z m 10.41158,0 0,-0.57839 0.57842,0 0.57842,0 0,0.57839 0,0.57843 -0.57842,0 -0.57842,0 0,-0.57843 z m 10.41158,0 0,-0.57839 0.57842,0 0.57843,0 0,0.57839 0,0.57843 -0.57843,0 -0.57842,0 0,-0.57843 z m 13.88211,0 0,-0.57839 0.57842,0 0.57842,0 0,0.57839 0,0.57843 -0.57842,0 -0.57842,0 0,-0.57843 z m -55.52843,-3.47048 0,-0.57844 0.57842,0 0.57842,0 0,0.57844 0,0.57839 -0.57842,0 -0.57842,0 0,-0.57839 z m 3.47053,0 0,-0.57844 0.57841,0 0.57842,0 0,0.57844 0,0.57839 -0.57842,0 -0.57841,0 0,-0.57839 z m 3.47052,0 0,-0.57844 0.57842,0 0.57843,0 0,0.57844 0,0.57839 -0.57843,0 -0.57842,0 0,-0.57839 z m 3.47053,0 0,-0.57844 0.57842,0 0.57842,0 0,0.57844 0,0.57839 -0.57842,0 -0.57842,0 0,-0.57839 z m 6.94105,0 0,-0.57844 0.57842,0 0.57842,0 0,0.57844 0,0.57839 -0.57842,0 -0.57842,0 0,-0.57839 z m 3.47053,0 0,-0.57844 0.57842,0 0.57842,0 0,0.57844 0,0.57839 -0.57842,0 -0.57842,0 0,-0.57839 z m 3.47052,0 0,-0.57844 0.57843,0 0.57842,0 0,0.57844 0,0.57839 -0.57842,0 -0.57843,0 0,-0.57839 z m 3.47053,0 0,-0.57844 0.57842,0 0.57842,0 0,0.57844 0,0.57839 -0.57842,0 -0.57842,0 0,-0.57839 z m 3.47053,0 0,-0.57844 0.57842,0 0.57842,0 0,0.57844 0,0.57839 -0.57842,0 -0.57842,0 0,-0.57839 z m 3.47053,0 0,-0.57844 0.57842,0 0.57842,0 0,0.57844 0,0.57839 -0.57842,0 -0.57842,0 0,-0.57839 z m 6.94105,0 0,-0.57844 0.57842,0 0.57843,0 0,0.57844 0,0.57839 -0.57843,0 -0.57842,0 0,-0.57839 z m 10.41158,0 0,-0.57844 0.57842,0 0.57843,0 0,0.57844 0,0.57839 -0.57843,0 -0.57842,0 0,-0.57839 z m 3.47053,0 0,-0.57844 0.57842,0 0.57842,0 0,0.57844 0,0.57839 -0.57842,0 -0.57842,0 0,-0.57839 z m 10.41158,0 0,-0.57844 0.57843,0 0.57842,0 0,0.57844 0,0.57839 -0.57842,0 -0.57843,0 0,-0.57839 z m -26.60738,-1.15683 0,-0.57844 0.57842,0 0.57843,0 0,0.57844 0,0.57839 -0.57843,0 -0.57842,0 0,-0.57839 z m -43.96,-4.04897 0,-3.47052 1.73526,0 1.73526,0 0,3.47052 0,3.47053 -1.73526,0 -1.73526,0 0,-3.47053 z m 40.48948,2.8921 0,-0.57844 -1.15684,0 -1.15685,0 0,-0.57839 0,-0.57844 -0.57842,0 -0.57842,0 0,0.57844 0,0.57839 -0.57842,0 -0.57842,0 0,-1.15683 0,-1.15683 -0.57842,0 -0.57842,0 0,-0.57843 0,-0.57843 -1.15685,0 -1.15684,0 0,-0.5784 0,-0.57843 -0.57842,0 -0.57843,0 0,-0.57843 0,-0.5784 -0.57841,0 -0.57842,0 0,-1.7353 0,-1.73522 -0.57842,0 -0.57843,0 0,0.57839 0,0.57844 -0.57841,0 -0.57842,0 0,-0.57844 0,-0.57839 -0.57843,0 -0.57842,0 0,-1.15687 0,-1.15683 -1.15684,0 -1.15685,0 0,-1.15683 0,-1.15687 -1.15684,0 -1.15684,0 0,-1.73526 0,-1.73526 -0.57842,0 -0.57842,0 0,-1.15683 0,-1.15687 -0.57843,0 -0.57842,0 0,-1.15683 0,-1.15683 -0.57841,0 -0.57843,0 0,-1.15687 0,-1.15682 -0.57842,0 -0.57842,0 0,-2.89209 0,-2.89213 -0.57842,0 -0.57842,0 0,-2.31366 0,-2.3137 -0.57842,0 -0.57842,0 0,-0.57843 0,-0.57843 0.57842,0 0.57842,0 0,-1.15683 0,-1.15683 -0.57842,0 -0.57842,0 0,-0.57844 0,-0.57843 0.57842,0 0.57842,0 0,-2.89209 0,-2.89209 -1.15684,0 -1.15685,0 0,-0.57843 0,-0.57844 -0.57842,0 -0.57841,0 0,0.57844 0,0.57843 -1.15685,0 -1.15684,0 0,0.57839 0,0.57843 -0.57843,0 -0.57842,0 0,0.57844 0,0.57839 -0.57842,0 -0.57841,0 0,-0.57839 0,-0.57844 -0.57843,0 -0.57842,0 0,-0.57843 0,-0.57839 0.57842,0 0.57843,0 0,0.57839 0,0.57843 0.57841,0 0.57842,0 0,-0.57843 0,-0.57839 0.57842,0 0.57843,0 0,-0.57843 0,-0.57844 1.15684,0 1.15685,0 0,-0.57839 0,-0.57844 -0.57843,0 -0.57842,0 0,-1.15683 0,-1.15687 0.57842,0 0.57843,0 0,1.15687 0,1.15683 0.57841,0 0.57842,0 0,0.57844 0,0.57839 1.15685,0 1.15684,0 0,-1.15683 0,-1.15683 -0.57842,0 -0.57842,0 0,-0.57843 0,-0.57844 1.15684,0 1.15684,0 0,-2.31366 0,-2.31369 -3.47053,0 -3.47052,0 0,0.57843 0,0.5784 -1.73527,0 -1.73526,0 0,0.57843 0,0.57843 -1.15684,0 -1.15684,0 0,0.5784 0,0.57843 -1.73527,0 -1.73527,0 0,0.57844 0,0.57839 0.57843,0 0.57842,0 0,0.57844 0,0.57843 -0.57842,0 -0.57843,0 0,-0.57843 0,-0.57844 -1.73525,0 -1.73527,0 0,1.15687 0,1.15683 -0.57842,0 -0.57842,0 0,1.73527 0,1.73525 -2.31368,0 -2.31369,0 0,0.57844 0,0.57839 -0.57842,0 -0.57842,0 0,-1.15683 0,-1.15682 0.57842,0 0.57842,0 0,-0.57843 0,-0.57844 0.57842,0 0.57843,0 0,-0.57839 0,-0.57844 1.73525,0 1.73527,0 0,-1.73526 0,-1.73527 -1.73527,0 -1.73525,0 0,-1.73526 0,-1.73526 2.31368,0 2.31368,0 0,-0.57843 0,-0.57839 0.57842,0 0.57842,0 0,-0.57844 0,-0.57843 0.57843,0 0.57842,0 0,-0.57844 0,-0.57839 0.57842,0 0.57841,0 0,-1.15687 0,-1.15683 1.15685,0 1.15684,0 0,-0.57844 0,-0.57839 0.57843,0 0.57842,0 0,-1.15687 0,-1.15683 0.57842,0 0.57842,0 0,0.57843 0,0.5784 0.57842,0 0.57842,0 0,-0.5784 0,-0.57843 0.57842,0 0.57843,0 0,-0.57843 0,-0.57839 1.15683,0 1.15685,0 0,-0.57843 0,-0.57844 1.15684,0 1.15685,0 0,-0.57839 0,-0.57844 1.15683,0 1.15685,0 0,-0.57843 0,-0.5784 1.15684,0 1.15684,0 0,-0.57843 0,-0.57844 1.73527,0 1.73526,0 0,-0.57839 0,-0.57844 0.57842,0 0.57842,0 0,1.15683 0,1.15687 0.57842,0 0.57842,0 0,-1.15687 0,-1.15683 1.15684,0 1.15685,0 0,-0.57843 0,-0.5784 1.73526,0 1.73526,0 0,-0.57843 0,-0.57844 0.57843,0 0.57842,0 0,-0.57839 0,-0.57843 0.57842,0 0.57841,0 0,-0.57843 0,-0.5784 0.57843,0 0.57842,0 0,-1.15686 0,-1.15684 1.73527,0 1.73526,0 0,-0.57842 0,-0.57843 0.57842,0 0.57842,0 0,-0.57841 0,-0.57842 0.57842,0 0.57842,0 0,-0.57842 0,-0.57843 1.73527,0 1.73526,0 0,-0.57842 0,-0.57842 1.15685,0 1.15683,0 0,-0.57842 0,-0.57843 -0.57842,0 -0.57841,0 0,-0.57842 0,-0.57842 0.57841,0 0.57842,0 0,0.57842 0,0.57842 1.15685,0 1.15684,0 0,-0.57842 0,-0.57842 1.73526,0 1.73527,0 0,0.57842 0,0.57842 -1.15685,0 -1.15683,0 0,0.57843 0,0.57842 -1.15685,0 -1.15684,0 0,0.57842 0,0.57842 -0.57843,0 -0.57842,0 0,0.57843 0,0.57842 1.15685,0 1.15684,0 0,-0.57842 0,-0.57843 1.15685,0 1.15683,0 0,-0.57842 0,-0.57842 1.15685,0 1.15684,0 0,0.57842 0,0.57842 0.57843,0 0.57842,0 0,-0.57842 0,-0.57842 0.57842,0 0.57842,0 0,-0.57842 0,-0.57843 -1.15684,0 -1.15685,0 0,-0.57842 0,-0.57842 1.15685,0 1.15684,0 0,-0.57842 0,-0.57843 1.15684,0 1.15684,0 0,0.57843 0,0.57842 0.57842,0 0.57842,0 0,-0.57842 0,-0.57843 0.57842,0 0.57843,0 0,1.15685 0,1.15684 1.73526,0 1.73526,0 0,0.57843 0,0.57842 0.57842,0 0.57843,0 0,-0.57842 0,-0.57843 0.57842,0 0.57842,0 0,-1.15684 0,-1.15685 0.57842,0 0.57842,0 0,0.57843 0,0.57842 1.15684,0 1.15685,0 0,0.57842 0,0.57842 -1.73527,0 -1.73526,0 0,0.57843 0,0.57842 0.57842,0 0.57842,0 0,0.57842 0,0.57842 -0.57842,0 -0.57842,0 0,-0.57842 0,-0.57842 -0.57842,0 -0.57842,0 0,0.57842 0,0.57842 -0.57843,0 -0.57842,0 0,0.57843 0,0.57842 1.15685,0 1.15684,0 0,0.57842 0,0.57841 -1.15684,0 -1.15685,0 0,0.57843 0,0.57842 1.73527,0 1.73526,0 0,-1.15685 0,-1.15683 0.57842,0 0.57842,0 0,-1.15685 0,-1.15684 0.57842,0 0.57843,0 0,0.57842 0,0.57842 2.8921,0 2.89211,0 0,0.57843 0,0.57842 0.57842,0 0.57842,0 0,-0.57842 0,-0.57843 1.15684,0 1.15684,0 0,1.15685 0,1.15683 -0.57841,0 -0.57843,0 0,-0.57841 0,-0.57842 -0.57842,0 -0.57842,0 0,0.57842 0,0.57841 -0.57842,0 -0.57842,0 0,-0.57841 0,-0.57842 -0.57843,0 -0.57841,0 0,0.57842 0,0.57841 -0.57842,0 -0.57843,0 0,0.57843 0,0.57842 0.57843,0 0.57842,0 0,0.57842 0,0.57842 -0.57842,0 -0.57843,0 0,-0.57842 0,-0.57842 -0.57842,0 -0.57842,0 0,0.57842 0,0.57842 -0.57842,0 -0.57843,0 0,-0.57842 0,-0.57842 0.57843,0 0.57842,0 0,-0.57842 0,-0.57843 0.57842,0 0.57842,0 0,-0.57841 0,-0.57842 -1.15684,0 -1.15685,0 0,0.57842 0,0.57841 -0.57842,0 -0.57841,0 0,-0.57841 0,-0.57842 -0.57843,0 -0.57842,0 0,1.73526 0,1.73526 0.57842,0 0.57843,0 0,0.57842 0,0.57844 0.57841,0 0.57842,0 0,0.5784 0,0.57843 0.57843,0 0.57842,0 0,-0.57843 0,-0.5784 2.8921,0 2.89211,0 0,1.15683 0,1.15682 -0.57842,0 -0.57842,0 0,0.57844 0,0.57843 -0.57842,0 -0.57842,0 0,-0.57843 0,-0.57844 0.57842,0 0.57842,0 0,-0.57839 0,-0.57843 -2.31368,0 -2.31369,0 0,0.57843 0,0.57839 -0.57842,0 -0.57843,0 0,0.57844 0,0.57843 0.57843,0 0.57842,0 0,0.5784 0,0.57843 0.57842,0 0.57842,0 0,-1.15683 0,-1.15687 0.57843,0 0.57842,0 0,1.15687 0,1.15683 0.57841,0 0.57843,0 0,1.15683 0,1.15687 0.57842,0 0.57842,0 0,0.5784 0,0.57843 -0.57842,0 -0.57842,0 0,1.15683 0,1.15687 -0.57843,0 -0.57841,0 0,0.57839 0,0.57843 2.31368,0 2.31368,0 0,0.57843 0,0.5784 0.57842,0 0.57843,0 0,-0.5784 0,-0.57843 0.57842,0 0.57841,0 0,-0.57843 0,-0.57839 0.57843,0 0.57842,0 0,-1.15687 0,-1.15683 0.57842,0 0.57842,0 0,-0.57843 0,-0.5784 -0.57842,0 -0.57842,0 0,-1.15687 0,-1.15683 0.57842,0 0.57842,0 0,-0.57843 0,-0.5784 -0.57842,0 -0.57842,0 0,-0.57843 0,-0.57844 0.57842,0 0.57842,0 0,0.57844 0,0.57843 0.57842,0 0.57843,0 0,0.5784 0,0.57843 0.57842,0 0.57842,0 0,0.57844 0,0.57839 -0.57842,0 -0.57842,0 0,-0.57839 0,-0.57844 -0.57843,0 -0.57842,0 0,1.15683 0,1.15687 0.57842,0 0.57843,0 0,0.5784 0,0.57843 0.57842,0 0.57842,0 0,-0.57843 0,-0.5784 0.57842,0 0.57842,0 0,-1.15687 0,-1.15683 0.57842,0 0.57842,0 0,-0.57843 0,-0.5784 -1.15684,0 -1.15684,0 0,-0.57843 0,-0.57844 -0.57842,0 -0.57842,0 0,-0.57839 0,-0.57843 -0.57843,0 -0.57842,0 0,-0.57843 0,-0.5784 0.57842,0 0.57843,0 0,0.5784 0,0.57843 0.57842,0 0.57842,0 0,-1.15683 0,-1.15686 0.57842,0 0.57842,0 0,-0.57842 0,-0.57842 -0.57842,0 -0.57842,0 0,-0.57842 0,-0.57843 -1.15684,0 -1.15685,0 0,-0.57841 0,-0.57842 -1.15684,0 -1.15685,0 0,1.73526 0,1.73526 0.57843,0 0.57842,0 0,-0.57842 0,-0.57842 1.15684,0 1.15685,0 0,0.57842 0,0.57842 -1.15685,0 -1.15684,0 0,0.57842 0,0.57844 -1.73526,0 -1.73527,0 0,-0.57844 0,-0.57842 -1.73526,0 -1.73526,0 0,-0.57842 0,-0.57842 1.73526,0 1.73526,0 0,0.57842 0,0.57842 0.57842,0 0.57843,0 0,-2.8921 0,-2.89211 -0.57843,0 -0.57842,0 0,-0.57842 0,-0.57843 0.57842,0 0.57843,0 0,-0.57842 0,-0.57842 0.57842,0 0.57841,0 0,0.57842 0,0.57842 -0.57841,0 -0.57842,0 0,0.57843 0,0.57842 0.57842,0 0.57841,0 0,0.57842 0,0.57842 1.15685,0 1.15684,0 0,0.57843 0,0.57842 1.15685,0 1.15684,0 0,0.57842 0,0.57841 0.57842,0 0.57842,0 0,0.57843 0,0.57842 1.15684,0 1.15685,0 0,0.57842 0,0.57842 0.57842,0 0.57842,0 0,0.57842 0,0.57844 0.57842,0 0.57843,0 0,0.5784 0,0.57843 1.73525,0 1.73527,0 0,0.57843 0,0.57839 -0.57843,0 -0.57842,0 0,0.57844 0,0.57843 0.57842,0 0.57843,0 0,1.15683 0,1.15683 -0.57843,0 -0.57842,0 0,0.57844 0,0.57843 -0.57842,0 -0.57842,0 0,1.73527 0,1.73526 -0.57842,0 -0.57841,0 0,1.15682 0,1.15683 -0.57843,0 -0.57842,0 0,-1.15683 0,-1.15682 -0.57842,0 -0.57842,0 0,1.73525 0,1.73527 0.57842,0 0.57842,0 0,0.57839 0,0.57844 -0.57842,0 -0.57842,0 0,-0.57844 0,-0.57839 -0.57842,0 -0.57843,0 0,0.57839 0,0.57844 -0.57842,0 -0.57842,0 0,0.57843 0,0.5784 0.57842,0 0.57842,0 0,0.57843 0,0.57844 -0.57842,0 -0.57842,0 0,-0.57844 0,-0.57843 -0.57842,0 -0.57842,0 0,1.15687 0,1.15683 -0.57842,0 -0.57842,0 0,0.57843 0,0.57844 -0.57843,0 -0.57842,0 0,0.57839 0,0.57843 -0.57842,0 -0.57842,0 0,0.57843 0,0.5784 -0.57842,0 -0.57843,0 0,0.57843 0,0.57843 -0.57841,0 -0.57842,0 0,0.5784 0,0.57843 -1.15685,0 -1.15684,0 0,1.15683 0,1.15687 -0.57842,0 -0.57842,0 0,-1.15687 0,-1.15683 -0.57842,0 -0.57842,0 0,1.15683 0,1.15687 -1.73526,0 -1.73527,0 0,0.5784 0,0.57843 -1.15685,0 -1.15683,0 0,0.57844 0,0.57839 -1.73527,0 -1.73526,0 0,0.57844 0,0.57843 -1.15684,0 -1.15685,0 0,0.57839 0,0.57843 -1.73526,0 -1.73526,0 0,0.57844 0,0.57839 -1.73527,0 -1.73526,0 0,0.57844 0,0.57843 -1.15684,0 -1.15684,0 0,0.5784 0,0.57843 -0.57842,0 -0.57843,0 0,1.15683 0,1.15687 -0.57842,0 -0.57842,0 0,-0.57844 0,-0.57843 -0.57842,0 -0.57843,0 0,0.57843 0,0.57844 -0.57842,0 -0.57841,0 0,-0.57844 0,-0.57843 -0.57843,0 -0.57842,0 0,1.15687 0,1.15683 -1.73527,0 -1.73525,0 0,0.57843 0,0.5784 0.57841,0 0.57842,0 0,0.57843 0,0.57843 -0.57842,0 -0.57841,0 0,-0.57843 0,-0.57843 -0.57843,0 -0.57842,0 0,0.57843 0,0.57843 -1.15684,0 -1.15684,0 0,0.57844 0,0.57839 -0.57842,0 -0.57843,0 0,0.57843 0,0.57844 -1.15684,0 -1.15684,0 0,1.73526 0,1.73526 -0.57842,0 -0.57842,0 0,1.15683 0,1.15683 -0.57842,0 -0.57843,0 0,1.15687 0,1.15683 -0.57842,0 -0.57842,0 0,0.57839 0,0.57843 -0.57842,0 -0.57843,0 0,2.3137 0,2.3137 -0.57841,0 -0.57842,0 0,1.73526 0,1.73527 -0.57842,0 -0.57843,0 0,0.57843 0,0.57839 1.15685,0 1.15683,0 0,0.57843 0,0.57844 -0.57841,0 -0.57842,0 0,0.57839 0,0.57844 0.57842,0 0.57841,0 0,1.15683 0,1.15687 0.57843,0 0.57842,0 0,0.57839 0,0.57844 0.57842,0 0.57842,0 0,1.15683 0,1.15686 0.57843,0 0.57842,0 0,0.5784 0,0.57843 1.15684,0 1.15684,0 0,0.57843 0,0.5784 -0.57842,0 -0.57842,0 0,0.57843 0,0.57843 1.15684,0 1.15684,0 0,0.57844 0,0.57839 1.15685,0 1.15684,0 0,0.57844 0,0.57839 1.15684,0 1.15685,0 0,0.57844 0,0.57843 -1.15685,0 -1.15684,0 0,-0.57843 z m -10.41158,-11.56841 0,-0.57843 -0.57842,0 -0.57843,0 0,0.57843 0,0.5784 0.57843,0 0.57842,0 0,-0.5784 z m -2.31368,-1.15687 0,-0.57839 -0.57843,0 -0.57842,0 0,0.57839 0,0.57844 0.57842,0 0.57843,0 0,-0.57844 z m -1.15685,-2.89208 0,-1.15687 -0.57842,0 -0.57842,0 0,1.15687 0,1.15682 0.57842,0 0.57842,0 0,-1.15682 z m -3.47053,-2.8921 0,-0.57843 -0.57842,0 -0.57842,0 0,0.57843 0,0.5784 0.57842,0 0.57842,0 0,-0.5784 z m 3.47053,0 0,-0.57843 -0.57842,0 -0.57842,0 0,-0.57843 0,-0.57844 -0.57843,0 -0.57842,0 0,0.57844 0,0.57843 0.57842,0 0.57843,0 0,0.57843 0,0.5784 0.57842,0 0.57842,0 0,-0.5784 z m 2.31368,-1.15686 0,-0.57844 -0.57841,0 -0.57842,0 0,0.57844 0,0.57843 0.57842,0 0.57841,0 0,-0.57843 z m -2.31368,-2.31366 0,-0.57844 0.57842,0 0.57843,0 0,-0.57843 0,-0.57844 -0.57843,0 -0.57842,0 0,0.57844 0,0.57843 -0.57842,0 -0.57842,0 0,0.57844 0,0.57839 0.57842,0 0.57842,0 0,-0.57839 z m -2.31369,-1.15687 0,-0.57844 -0.57841,0 -0.57843,0 0,0.57844 0,0.57843 0.57843,0 0.57841,0 0,-0.57843 z m -3.47052,-1.15687 0,-0.57839 -0.57843,0 -0.57842,0 0,-0.57843 0,-0.5784 -0.57841,0 -0.57843,0 0,0.5784 0,0.57843 0.57843,0 0.57841,0 0,0.57839 0,0.57843 0.57842,0 0.57843,0 0,-0.57843 z m 5.78421,-1.15682 0,-0.5784 0.57842,0 0.57843,0 0,0.5784 0,0.57843 1.15683,0 1.15685,0 0,-0.57843 0,-0.5784 -1.15685,0 -1.15683,0 0,-0.57843 0,-0.57844 -0.57843,0 -0.57842,0 0,0.57844 0,0.57843 -0.57842,0 -0.57842,0 0,0.5784 0,0.57843 0.57842,0 0.57842,0 0,-0.57843 z m -2.31369,-1.15683 0,-0.57844 -0.57841,0 -0.57843,0 0,0.57844 0,0.57843 0.57843,0 0.57841,0 0,-0.57843 z m -4.62737,-1.15683 0,-0.57844 -0.57841,0 -0.57843,0 0,0.57844 0,0.57839 0.57843,0 0.57841,0 0,-0.57839 z m 3.47053,-1.15687 0,-0.5784 -0.57842,0 -0.57842,0 0,0.5784 0,0.57843 0.57842,0 0.57842,0 0,-0.57843 z m 3.47053,0 0,-0.5784 -0.57842,0 -0.57842,0 0,0.5784 0,0.57843 0.57842,0 0.57842,0 0,-0.57843 z m 5.78421,0 0,-0.5784 -0.57842,0 -0.57843,0 0,0.5784 0,0.57843 0.57843,0 0.57842,0 0,-0.57843 z m -3.47053,-1.15683 0,-0.57843 -0.57841,0 -0.57842,0 0,0.57843 0,0.57843 0.57842,0 0.57841,0 0,-0.57843 z m -9.25474,-1.15683 0,-0.57843 -0.57841,0 -0.57843,0 0,0.57843 0,0.5784 0.57843,0 0.57841,0 0,-0.5784 z m 3.47053,-1.15687 0,-0.57839 -1.15684,0 -1.15684,0 0,0.57839 0,0.57844 1.15684,0 1.15684,0 0,-0.57844 z m 2.31369,0 0,-0.57839 -0.57843,0 -0.57842,0 0,0.57839 0,0.57844 0.57842,0 0.57843,0 0,-0.57844 z m 4.62737,0 0,-0.57839 -0.57842,0 -0.57843,0 0,-0.57844 0,-0.57843 -0.57841,0 -0.57842,0 0,0.57843 0,0.57844 0.57842,0 0.57841,0 0,0.57839 0,0.57844 0.57843,0 0.57842,0 0,-0.57844 z m 3.47052,0 0,-0.57839 -1.15684,0 -1.15685,0 0,0.57839 0,0.57844 1.15685,0 1.15684,0 0,-0.57844 z m 2.31369,-1.15683 0,-0.57843 -0.57842,0 -0.57842,0 0,0.57843 0,0.57844 0.57842,0 0.57842,0 0,-0.57844 z m -16.1958,-1.73526 0,-1.15686 -0.57841,0 -0.57843,0 0,1.15686 0,1.15683 0.57843,0 0.57841,0 0,-1.15683 z m 4.62737,-0.57843 0,-0.57843 -1.15684,0 -1.15684,0 0,0.57843 0,0.57843 1.15684,0 1.15684,0 0,-0.57843 z m 2.31369,0 0,-0.57843 0.57842,0 0.57843,0 0,-0.5784 0,-0.57843 -0.57843,0 -0.57842,0 0,0.57843 0,0.5784 -0.57842,0 -0.57842,0 0,0.57843 0,0.57843 0.57842,0 0.57842,0 0,-0.57843 z m 4.62736,0 0,-0.57843 -1.15683,0 -1.15685,0 0,0.57843 0,0.57843 1.15685,0 1.15683,0 0,-0.57843 z m 3.47054,0 0,-0.57843 -0.57842,0 -0.57843,0 0,0.57843 0,0.57843 0.57843,0 0.57842,0 0,-0.57843 z m 3.47052,0 0,-0.57843 -1.15684,0 -1.15684,0 0,0.57843 0,0.57843 1.15684,0 1.15684,0 0,-0.57843 z m -18.50948,-2.89209 0,-1.15687 -0.57841,0 -0.57843,0 0,1.15687 0,1.15683 0.57843,0 0.57841,0 0,-1.15683 z m 3.47053,0.57843 0,-0.57843 -0.57842,0 -0.57842,0 0,0.57843 0,0.5784 0.57842,0 0.57842,0 0,-0.5784 z m 13.88211,-0.57843 0,-1.15687 -0.57842,0 -0.57842,0 0,1.15687 0,1.15683 0.57842,0 0.57842,0 0,-1.15683 z m 2.31369,0.57843 0,-0.57843 -0.57842,0 -0.57843,0 0,0.57843 0,0.5784 0.57843,0 0.57842,0 0,-0.5784 z m -12.72527,-1.15687 0,-0.57843 0.57842,0 0.57843,0 0,-0.5784 0,-0.57843 -0.57843,0 -0.57842,0 0,0.57843 0,0.5784 -0.57842,0 -0.57842,0 0,0.57843 0,0.57844 0.57842,0 0.57842,0 0,-0.57844 z m 3.47053,0 0,-0.57843 0.57842,0 0.57841,0 0,0.57843 0,0.57844 1.15685,0 1.15684,0 0,-0.57844 0,-0.57843 0.57843,0 0.57842,0 0,-0.5784 0,-0.57843 -0.57842,0 -0.57843,0 0,0.57843 0,0.5784 -1.15684,0 -1.15685,0 0,-0.5784 0,-0.57843 -0.57841,0 -0.57842,0 0,-0.57843 0,-0.5784 -0.57842,0 -0.57843,0 0,0.5784 0,0.57843 0.57843,0 0.57842,0 0,0.57843 0,0.5784 -0.57842,0 -0.57843,0 0,0.57843 0,0.57844 0.57843,0 0.57842,0 0,-0.57844 z m 13.8821,-0.57843 0,-1.15683 -0.57842,0 -0.57841,0 0,0.57843 0,0.5784 -0.57843,0 -0.57842,0 0,0.57843 0,0.57844 1.15685,0 1.15683,0 0,-1.15687 z m -19.66632,-0.5784 0,-0.57843 -0.57841,0 -0.57843,0 0,0.57843 0,0.5784 0.57843,0 0.57841,0 0,-0.5784 z m 15.03896,0 0,-0.57843 -0.57842,0 -0.57843,0 0,0.57843 0,0.5784 0.57843,0 0.57842,0 0,-0.5784 z m 6.94105,0 0,-0.57843 -0.57842,0 -0.57842,0 0,0.57843 0,0.5784 0.57842,0 0.57842,0 0,-0.5784 z m -25.45053,-1.15686 0,-0.5784 -0.57843,0 -0.57842,0 0,-0.57843 0,-0.57844 -0.57841,0 -0.57843,0 0,0.57844 0,0.57843 0.57843,0 0.57841,0 0,0.5784 0,0.57843 0.57842,0 0.57843,0 0,-0.57843 z m 20.82316,0 0,-0.5784 -0.57842,0 -0.57842,0 0,-1.15687 0,-1.15683 0.57842,0 0.57842,0 0,-0.57843 0,-0.57839 -0.57842,0 -0.57842,0 0,0.57839 0,0.57843 -0.57842,0 -0.57842,0 0,0.57844 0,0.57839 -0.57842,0 -0.57843,0 0,0.57844 0,0.57843 1.15685,0 1.15684,0 0,0.5784 0,0.57843 0.57842,0 0.57842,0 0,-0.57843 z m -18.50948,-1.73527 0,-1.15683 -0.57842,0 -0.57842,0 0,1.15683 0,1.15687 0.57842,0 0.57842,0 0,-1.15687 z m 3.47053,0.57844 0,-0.57844 0.57842,0 0.57843,0 0,-0.57839 0,-0.57844 -0.57843,0 -0.57842,0 0,0.57844 0,0.57839 -0.57842,0 -0.57842,0 0,0.57844 0,0.57843 0.57842,0 0.57842,0 0,-0.57843 z m 6.94105,0 0,-0.57844 0.57843,0 0.57842,0 0,-0.57839 0,-0.57844 -0.57842,0 -0.57843,0 0,0.57844 0,0.57839 -1.15684,0 -1.15685,0 0,0.57844 0,0.57843 1.15685,0 1.15684,0 0,-0.57843 z m 11.56843,0 0,-0.57844 -0.57843,0 -0.57842,0 0,-0.57839 0,-0.57844 0.57842,0 0.57843,0 0,-0.57843 0,-0.57839 -0.57843,0 -0.57842,0 0,-0.57843 0,-0.57844 0.57842,0 0.57843,0 0,-0.57839 0,-0.57844 0.57842,0 0.57842,0 0,0.57844 0,0.57839 0.57842,0 0.57843,0 0,-0.57839 0,-0.57844 -0.57843,0 -0.57842,0 0,-0.57843 0,-0.5784 1.15685,0 1.15683,0 0,-0.57843 0,-0.57844 0.57843,0 0.57842,0 0,0.57844 0,0.57843 0.57842,0 0.57842,0 0,0.5784 0,0.57843 0.57843,0 0.57842,0 0,0.57844 0,0.57839 -0.57842,0 -0.57843,0 0,0.57844 0,0.57843 0.57843,0 0.57842,0 0,0.57839 0,0.57843 0.57842,0 0.57842,0 0,-0.57843 0,-0.57839 0.57842,0 0.57842,0 0,0.57839 0,0.57843 0.57842,0 0.57842,0 0,-1.73525 0,-1.73527 0.57842,0 0.57842,0 0,-0.57843 0,-0.5784 0.57842,0 0.57843,0 0,-1.15687 0,-1.15683 -0.57843,0 -0.57842,0 0,-0.57843 0,-0.5784 -0.57842,0 -0.57842,0 0,-1.15686 0,-1.15683 -0.57842,0 -0.57842,0 0,-1.73526 0,-1.73526 0.57842,0 0.57842,0 0,1.15683 0,1.15687 0.57842,0 0.57842,0 0,0.57839 0,0.57843 1.15685,0 1.15684,0 0,-0.57843 0,-0.57839 0.57842,0 0.57842,0 0,0.57839 0,0.57843 0.57842,0 0.57842,0 0,0.57843 0,0.5784 0.57842,0 0.57843,0 0,1.73526 0,1.73526 -0.57843,0 -0.57842,0 0,-0.57839 0,-0.57844 -1.15684,0 -1.15684,0 0,0.57844 0,0.57839 1.15684,0 1.15684,0 0,0.57844 0,0.57843 -1.15684,0 -1.15684,0 0,0.5784 0,0.57843 -0.57842,0 -0.57842,0 0,1.15683 0,1.15687 0.57842,0 0.57842,0 0,-1.15687 0,-1.15683 1.15684,0 1.15684,0 0,0.57844 0,0.57839 0.57842,0 0.57843,0 0,-0.57839 0,-0.57844 0.57842,0 0.57842,0 0,-0.57843 0,-0.5784 2.31368,0 2.31368,0 0,-0.57843 0,-0.57844 0.57843,0 0.57842,0 0,-1.15683 0,-1.15683 -1.15685,0 -1.15683,0 0,-0.57843 0,-0.57843 1.73526,0 1.73526,0 0,1.73526 0,1.73526 0.57843,0 0.57842,0 0,-1.73526 0,-1.73526 -0.57842,0 -0.57843,0 0,-0.5784 0,-0.57843 1.15685,0 1.15684,0 0,1.15683 0,1.15686 0.57842,0 0.57842,0 0,0.5784 0,0.57843 0.57842,0 0.57842,0 0,-0.57843 0,-0.5784 0.57843,0 0.57841,0 0,-0.57843 0,-0.57843 0.57842,0 0.57843,0 0,-0.5784 0,-0.57843 0.57842,0 0.57841,0 0,-1.15682 0,-1.15687 0.57843,0 0.57842,0 0,0.57843 0,0.57844 0.57842,0 0.57842,0 0,-0.57844 0,-0.57843 0.57842,0 0.57843,0 0,-1.15683 0,-1.15687 0.57842,0 0.57842,0 0,-0.5784 0,-0.57843 0.57842,0 0.57842,0 0,-0.57844 0,-0.57839 0.57842,0 0.57842,0 0,-1.73527 0,-1.73525 0.57843,0 0.57842,0 0,-0.57843 0,-0.57844 0.57842,0 0.57842,0 0,0.57844 0,0.57843 0.57842,0 0.57843,0 0,-0.57843 0,-0.57844 -0.57843,0 -0.57842,0 0,-1.15683 0,-1.15683 1.15685,0 1.15683,0 0,-1.15687 0,-1.15683 0.57842,0 0.57842,0 0,-0.57843 0,-0.5784 -0.57842,0 -0.57842,0 0,-0.57843 0,-0.57844 -0.57842,0 -0.57841,0 0,-0.57839 0,-0.57843 -0.57843,0 -0.57842,0 0,-0.57843 0,-0.5784 -0.57842,0 -0.57842,0 0,-0.57844 0,-0.57842 -1.15685,0 -1.15684,0 0,1.15686 0,1.15683 -0.57842,0 -0.57842,0 0,0.57843 0,0.57839 1.15684,0 1.15684,0 0,0.57844 0,0.57843 0.57843,0 0.57842,0 0,0.5784 0,0.57843 -0.57842,0 -0.57843,0 0,1.15683 0,1.15687 -0.57842,0 -0.57842,0 0,0.5784 0,0.57843 -0.57842,0 -0.57842,0 0,0.57844 0,0.57839 -0.57842,0 -0.57842,0 0,-0.57839 0,-0.57844 -0.57843,0 -0.57842,0 0,1.15683 0,1.15687 -0.57842,0 -0.57842,0 0,0.57839 0,0.57843 -0.57842,0 -0.57843,0 0,0.57843 0,0.5784 -0.57841,0 -0.57842,0 0,0.57843 0,0.57844 -0.57843,0 -0.57842,0 0,-0.57844 0,-0.57843 -2.8921,0 -2.89211,0 0,-0.5784 0,-0.57843 -0.57842,0 -0.57842,0 0,-0.57843 0,-0.57839 1.15684,0 1.15685,0 0,-1.15687 0,-1.15683 0.57841,0 0.57843,0 0,-0.57843 0,-0.5784 -0.57843,0 -0.57841,0 0,-1.15687 0,-1.15683 -0.57842,0 -0.57843,0 0,0.57844 0,0.57839 -0.57842,0 -0.57842,0 0,-0.57839 0,-0.57844 -0.57842,0 -0.57843,0 0,-0.57843 0,-0.5784 -0.57842,0 -0.57841,0 0,-0.57843 0,-0.57844 -1.15685,0 -1.15684,0 0,-0.57839 0,-0.57843 1.15684,0 1.15685,0 0,-0.57843 0,-0.5784 -0.57843,0 -0.57842,0 0,-0.57844 0,-0.57842 -0.57842,0 -0.57842,0 0,0.57842 0,0.57844 -0.57842,0 -0.57842,0 0,-0.57844 0,-0.57842 -1.15684,0 -1.15685,0 0,-0.57842 0,-0.57842 -1.15684,0 -1.15684,0 0,-0.57842 0,-0.57843 1.15684,0 1.15684,0 0,-0.57841 0,-0.57842 -1.15684,0 -1.15684,0 0,-0.57842 0,-0.57843 1.15684,0 1.15684,0 0,-0.57842 0,-0.57842 -1.73526,0 -1.73526,0 0,-0.57842 0,-0.57843 -0.57843,0 -0.57842,0 0,0.57843 0,0.57842 -0.57842,0 -0.57842,0 0,-1.15685 0,-1.15684 -1.15684,0 -1.15684,0 0,0.57842 0,0.57842 0.57842,0 0.57842,0 0,0.57843 0,0.57842 -0.57842,0 -0.57842,0 0,0.57842 0,0.57842 -0.57842,0 -0.57842,0 0,0.57843 0,0.57842 -1.15685,0 -1.15684,0 0,-0.57842 0,-0.57843 -0.57842,0 -0.57843,0 0,0.57843 0,0.57842 -0.57842,0 -0.57841,0 0,0.57842 0,0.57841 -0.57843,0 -0.57842,0 0,0.57843 0,0.57842 -0.57842,0 -0.57842,0 0,-0.57842 0,-0.57843 -1.15685,0 -1.15683,0 0,0.57843 0,0.57842 -0.57843,0 -0.57842,0 0,-1.15685 0,-1.15683 0.57842,0 0.57843,0 0,-0.57842 0,-0.57843 -0.57843,0 -0.57842,0 0,0.57843 0,0.57842 -0.57842,0 -0.57842,0 0,0.57842 0,0.57841 -1.15684,0 -1.15685,0 0,0.57843 0,0.57842 -0.57842,0 -0.57842,0 0,0.57842 0,0.57842 -0.57842,0 -0.57842,0 0,0.57842 0,0.57844 -1.15684,0 -1.15685,0 0,0.5784 0,0.57843 1.15685,0 1.15684,0 0,-0.57843 0,-0.5784 0.57842,0 0.57842,0 0,-0.57844 0,-0.57842 0.57842,0 0.57842,0 0,-0.57842 0,-0.57842 0.57843,0 0.57842,0 0,1.15684 0,1.15686 -0.57842,0 -0.57843,0 0,0.5784 0,0.57843 -0.57842,0 -0.57842,0 0,0.57843 0,0.57839 0.57842,0 0.57842,0 0,-0.57839 0,-0.57843 0.57843,0 0.57842,0 0,0.57843 0,0.57839 1.15684,0 1.15684,0 0,-0.57839 0,-0.57843 0.57842,0 0.57843,0 0,-0.57843 0,-0.5784 0.57841,0 0.57842,0 0,-1.15686 0,-1.15684 0.57842,0 0.57843,0 0,1.15684 0,1.15686 0.57842,0 0.57842,0 0,-0.57844 0,-0.57842 1.15685,0 1.15683,0 0,0.57842 0,0.57844 -0.57842,0 -0.57841,0 0,0.5784 0,0.57843 -1.73527,0 -1.73527,0 0,0.57843 0,0.57839 1.73527,0 1.73527,0 0,-0.57839 0,-0.57843 0.57841,0 0.57842,0 0,0.57843 0,0.57839 0.57843,0 0.57842,0 0,-0.57839 0,-0.57843 0.57842,0 0.57842,0 0,0.57843 0,0.57839 0.57843,0 0.57842,0 0,1.15687 0,1.15683 -0.57842,0 -0.57843,0 0,-0.57843 0,-0.5784 -1.15684,0 -1.15685,0 0,0.5784 0,0.57843 -1.73526,0 -1.73526,0 0,0.57844 0,0.57839 2.31369,0 2.31368,0 0,-0.57839 0,-0.57844 0.57842,0 0.57842,0 0,0.57844 0,0.57839 0.57843,0 0.57842,0 0,0.57844 0,0.57843 -1.15685,0 -1.15684,0 0,2.8921 0,2.89208 -0.57842,0 -0.57843,0 0,-1.73526 0,-1.73526 -0.57842,0 -0.57841,0 0,-0.57839 0,-0.57844 0.57841,0 0.57842,0 0,-0.57843 0,-0.5784 -1.15683,0 -1.15685,0 0,0.5784 0,0.57843 -0.57842,0 -0.57842,0 0,1.15683 0,1.15687 -0.57843,0 -0.57842,0 0,0.57839 0,0.57843 0.57842,0 0.57843,0 0,0.57843 0,0.5784 0.57842,0 0.57842,0 0,0.57843 0,0.57844 -0.57842,0 -0.57842,0 0,0.57839 0,0.57844 -0.57843,0 -0.57842,0 0,0.57843 0,0.5784 0.57842,0 0.57843,0 0,-0.5784 0,-0.57843 0.57842,0 0.57842,0 0,0.57843 0,0.5784 1.73526,0 1.73527,0 0,-0.5784 0,-0.57843 0.57842,0 0.57842,0 0,-0.57844 0,-0.57839 0.57843,0 0.57842,0 0,0.57839 0,0.57844 0.57842,0 0.57842,0 0,-0.57844 0,-0.57839 -0.57842,0 -0.57842,0 0,-1.15687 0,-1.15683 0.57842,0 0.57842,0 0,-0.57843 0,-0.57839 0.57842,0 0.57842,0 0,-0.57843 0,-0.57844 0.57842,0 0.57842,0 0,0.57844 0,0.57843 1.73526,0 1.73527,0 0,-1.15687 0,-1.15683 0.57842,0 0.57842,0 0,-0.57843 0,-0.5784 0.57842,0 0.57842,0 0,0.5784 0,0.57843 1.15685,0 1.15684,0 0,-0.57843 0,-0.5784 0.57842,0 0.57842,0 0,0.5784 0,0.57843 0.57842,0 0.57842,0 0,0.57844 0,0.57839 -0.57842,0 -0.57842,0 0,0.57844 0,0.57843 -0.57842,0 -0.57842,0 0,-0.57843 0,-0.57844 -1.73527,0 -1.73526,0 0,0.57844 0,0.57843 1.73526,0 1.73527,0 0,0.57839 0,0.57843 -4.62737,0 -4.62737,0 0,1.73526 0,1.73527 0.57842,0 0.57842,0 0,-1.15683 0,-1.15687 3.47053,0 3.47053,0 0,0.57843 0,0.57844 -2.89211,0 -2.89211,0 0,0.57839 0,0.57844 2.89211,0 2.89211,0 0,-0.57844 0,-0.57839 1.73526,0 1.73526,0 0,0.57839 0,0.57844 -0.57842,0 -0.57842,0 0,0.57843 0,0.5784 -0.57842,0 -0.57842,0 0,0.57843 0,0.57844 -0.57842,0 -0.57842,0 0,-0.57844 0,-0.57843 -1.73527,0 -1.73526,0 0,0.57843 0,0.57844 -0.57842,0 -0.57842,0 0,-0.57844 0,-0.57843 -0.57843,0 -0.57842,0 0,0.57843 0,0.57844 -0.57842,0 -0.57842,0 0,-0.57844 0,-0.57843 -0.57842,0 -0.57842,0 0,0.57843 0,0.57844 -0.57842,0 -0.57842,0 0,-0.57844 0,-0.57843 -1.15684,0 -1.15685,0 0,0.57843 0,0.57844 1.15685,0 1.15684,0 0,0.57839 0,0.57844 -1.15684,0 -1.15685,0 0,0.57843 0,0.57844 -0.57842,0 -0.57842,0 0,-1.15687 0,-1.15683 -0.57842,0 -0.57843,0 0,1.15683 0,1.15687 0.57843,0 0.57842,0 0,1.73525 0,1.73526 0.57842,0 0.57842,0 0,0.5784 0,0.57843 0.57843,0 0.57842,0 0,0.57844 0,0.57839 0.57842,0 0.57842,0 0,0.57844 0,0.57843 1.15684,0 1.15684,0 0,0.5784 0,0.57843 -0.57842,0 -0.57842,0 0,0.57844 0,0.57839 -0.57842,0 -0.57842,0 0,-0.57839 0,-0.57844 -0.57842,0 -0.57842,0 0,-0.57843 0,-0.5784 -0.57842,0 -0.57843,0 0,-0.57843 0,-0.57844 -0.57842,0 -0.57842,0 0,-0.57839 0,-0.57844 -0.57842,0 -0.57843,0 0,-0.57843 0,-0.5784 -0.57842,0 -0.57841,0 0,-0.57843 0,-0.57843 0.57841,0 0.57842,0 0,-0.5784 0,-0.57843 -0.57842,0 -0.57841,0 0,-0.57843 0,-0.57839 -0.57843,0 -0.57842,0 0,0.57839 0,0.57843 -0.57842,0 -0.57842,0 0,0.57843 0,0.5784 -1.15685,0 -1.15683,0 0,-0.5784 0,-0.57843 0.57841,0 0.57842,0 0,-0.57843 0,-0.57839 0.57842,0 0.57843,0 0,-0.57844 0,-0.57843 1.15684,0 1.15685,0 0,-0.57844 0,-0.57839 -1.15685,0 -1.15684,0 0,0.57839 0,0.57844 -0.57843,0 -0.57842,0 0,-0.57844 0,-0.57839 -0.57842,0 -0.57841,0 0,-0.57844 0,-0.57843 -0.57843,0 -0.57842,0 0,0.57843 0,0.57844 0.57842,0 0.57843,0 0,1.73526 0,1.73526 -0.57843,0 -0.57842,0 0,0.57843 0,0.5784 -1.15684,0 -1.15684,0 0,-0.5784 0,-0.57843 0.57842,0 0.57842,0 0,-0.57843 0,-0.57839 0.57842,0 0.57842,0 0,-0.57844 0,-0.57843 -0.57842,0 -0.57842,0 0,-0.57844 0,-0.57839 -0.57842,0 -0.57842,0 0,1.73526 0,1.73526 -0.57842,0 -0.57843,0 0,0.57843 0,0.5784 0.57843,0 0.57842,0 0,1.15686 0,1.15683 0.57842,0 0.57842,0 0,-0.57843 0,-0.5784 0.57842,0 0.57842,0 0,-0.57843 0,-0.57843 0.57842,0 0.57843,0 0,1.15686 0,1.15683 0.57841,0 0.57842,0 0,-0.57843 0,-0.5784 0.57842,0 0.57843,0 0,-0.57843 0,-0.57843 0.57842,0 0.57842,0 0,1.15686 0,1.15683 -0.57842,0 -0.57842,0 0,0.57844 0,0.57839 0.57842,0 0.57842,0 0,0.57844 0,0.57843 -0.57842,0 -0.57842,0 0,0.5784 0,0.57843 -0.57843,0 -0.57842,0 0,0.57844 0,0.57839 -0.57842,0 -0.57841,0 0,-0.57839 0,-0.57844 -0.57843,0 -0.57842,0 0,0.57844 0,0.57839 0.57842,0 0.57843,0 0,0.57844 0,0.57843 0.57841,0 0.57842,0 0,0.57839 0,0.57843 -0.57842,0 -0.57841,0 0,0.57844 0,0.57839 0.57841,0 0.57842,0 0,0.57844 0,0.57843 0.57842,0 0.57843,0 0,-0.57843 z m 6.94106,-3.47052 0,-0.57844 0.57842,0 0.57842,0 0,0.57844 0,0.57843 -0.57842,0 -0.57842,0 0,-0.57843 z m 9.25473,-2.3137 0,-0.5784 0.57842,0 0.57843,0 0,-0.57843 0,-0.57844 0.57842,0 0.57842,0 0,-1.73526 0,-1.73526 -0.57842,0 -0.57842,0 0,-0.5784 0,-0.57843 -0.57843,0 -0.57842,0 0,-0.57843 0,-0.57839 0.57842,0 0.57843,0 0,-0.57844 0,-0.57843 -1.73527,0 -1.73526,0 0,0.57843 0,0.57844 -1.15684,0 -1.15685,0 0,-1.15687 0,-1.15683 0.57842,0 0.57843,0 0,0.57839 0,0.57844 0.57842,0 0.57842,0 0,-0.57844 0,-0.57839 1.73526,0 1.73527,0 0,0.57839 0,0.57844 0.57842,0 0.57842,0 0,0.57843 0,0.57844 0.57842,0 0.57842,0 0,0.57839 0,0.57843 1.15684,0 1.15685,0 0,-0.57843 0,-0.57839 -0.57843,0 -0.57842,0 0,-0.57844 0,-0.57843 -0.57842,0 -0.57842,0 0,-1.15683 0,-1.15687 0.57842,0 0.57842,0 0,-0.5784 0,-0.57843 0.57842,0 0.57843,0 0,-0.57844 0,-0.57839 -0.57843,0 -0.57842,0 0,-0.57844 0,-0.57843 -0.57842,0 -0.57842,0 0,-1.15683 0,-1.15682 0.57842,0 0.57842,0 0,-0.57843 0,-0.57844 0.57842,0 0.57843,0 0,-0.57839 0,-0.57844 -0.57843,0 -0.57842,0 0,-0.57843 0,-0.5784 -0.57842,0 -0.57842,0 0,-0.57843 0,-0.57844 0.57842,0 0.57842,0 0,-0.57839 0,-0.57844 -1.73526,0 -1.73526,0 0,-0.57843 0,-0.5784 -0.57843,0 -0.57842,0 0,1.15683 0,1.15683 1.15685,0 1.15684,0 0,0.57844 0,0.57843 -1.15684,0 -1.15685,0 0,-0.57843 0,-0.57844 -1.15684,0 -1.15684,0 0,1.15687 0,1.15683 -0.57842,0 -0.57842,0 0,0.57844 0,0.57839 -1.15685,0 -1.15684,0 0,-0.57839 0,-0.57844 -0.57842,0 -0.57842,0 0,0.57844 0,0.57839 -0.57842,0 -0.57842,0 0,0.57844 0,0.57843 -0.57842,0 -0.57842,0 0,0.57839 0,0.57843 -0.57842,0 -0.57843,0 0,-1.73525 0,-1.73527 0.57843,0 0.57842,0 0,-0.57843 0,-0.5784 0.57842,0 0.57842,0 0,-0.57843 0,-0.57844 -0.57842,0 -0.57842,0 0,-0.57839 0,-0.57844 0.57842,0 0.57842,0 0,-1.15683 0,-1.15687 -0.57842,0 -0.57842,0 0,-0.57839 0,-0.57843 -0.57842,0 -0.57843,0 0,-0.57843 0,-0.5784 -0.57842,0 -0.57842,0 0,0.5784 0,0.57843 -0.57842,0 -0.57843,0 0,-0.57843 0,-0.5784 0.57843,0 0.57842,0 0,-0.57844 0,-0.57842 -0.57842,0 -0.57843,0 0,-0.57842 0,-0.57842 -0.57842,0 -0.57841,0 0,-0.57842 0,-0.57843 0.57841,0 0.57842,0 0,-0.57841 0,-0.57842 0.57843,0 0.57842,0 0,0.57842 0,0.57841 1.15684,0 1.15685,0 0,-0.57841 0,-0.57842 1.15684,0 1.15684,0 0,0.57842 0,0.57841 1.73526,0 1.73527,0 0,-0.57841 0,-0.57842 -1.15685,0 -1.15684,0 0,-0.57842 0,-0.57843 -0.57842,0 -0.57842,0 0,-0.57842 0,-0.57842 0.57842,0 0.57842,0 0,0.57842 0,0.57842 0.57842,0 0.57842,0 0,-0.57842 0,-0.57842 0.57842,0 0.57843,0 0,1.15684 0,1.15685 0.57842,0 0.57842,0 0,0.57842 0,0.57841 -0.57842,0 -0.57842,0 0,0.57843 0,0.57842 -1.73527,0 -1.73526,0 0,-0.57842 0,-0.57843 -1.15684,0 -1.15684,0 0,0.57843 0,0.57842 0.57842,0 0.57842,0 0,0.57842 0,0.57842 0.57842,0 0.57842,0 0,1.15686 0,1.15683 1.15684,0 1.15684,0 0,-0.57843 0,-0.5784 -0.57842,0 -0.57842,0 0,-0.57844 0,-0.57842 1.15684,0 1.15685,0 0,1.15686 0,1.15683 0.57842,0 0.57842,0 0,-1.15683 0,-1.15686 1.15684,0 1.15684,0 0,0.57842 0,0.57844 1.15685,0 1.15684,0 0,0.5784 0,0.57843 -1.15684,0 -1.15685,0 0,-0.57843 0,-0.5784 -0.57842,0 -0.57842,0 0,0.5784 0,0.57843 -0.57842,0 -0.57842,0 0,0.57843 0,0.57839 0.57842,0 0.57842,0 0,0.57844 0,0.57843 0.57842,0 0.57842,0 0,-0.57843 0,-0.57844 0.57842,0 0.57843,0 0,0.57844 0,0.57843 1.73526,0 1.73526,0 0,0.5784 0,0.57843 0.57842,0 0.57843,0 0,0.57844 0,0.57839 -0.57843,0 -0.57842,0 0,0.57844 0,0.57843 1.15685,0 1.15683,0 0,-0.57843 0,-0.57844 0.57843,0 0.57842,0 0,0.57844 0,0.57843 -0.57842,0 -0.57843,0 0,0.5784 0,0.57843 1.15685,0 1.15684,0 0,-0.57843 0,-0.5784 0.57843,0 0.57842,0 0,0.5784 0,0.57843 -0.57842,0 -0.57843,0 0,0.57844 0,0.57839 -1.15684,0 -1.15685,0 0,0.57844 0,0.57843 -1.15683,0 -1.15685,0 0,1.15682 0,1.15683 0.57842,0 0.57843,0 0,0.57843 0,0.57844 0.57841,0 0.57842,0 0,0.57839 0,0.57844 0.57843,0 0.57842,0 0,-1.15683 0,-1.15687 -0.57842,0 -0.57843,0 0,-0.5784 0,-0.57843 0.57843,0 0.57842,0 0,0.57843 0,0.5784 0.57842,0 0.57842,0 0,1.15687 0,1.15683 -0.57842,0 -0.57842,0 0,1.15683 0,1.15687 0.57842,0 0.57842,0 0,-0.57844 0,-0.57843 0.57843,0 0.57842,0 0,0.57843 0,0.57844 0.57841,0 0.57843,0 0,-0.57844 0,-0.57843 0.57842,0 0.57842,0 0,-0.5784 0,-0.57843 -1.15684,0 -1.15684,0 0,-0.57844 0,-0.57839 1.15684,0 1.15684,0 0,0.57839 0,0.57844 0.57842,0 0.57842,0 0,-0.57844 0,-0.57839 0.57843,0 0.57841,0 0,0.57839 0,0.57844 0.57842,0 0.57843,0 0,0.57843 0,0.5784 0.57842,0 0.57841,0 0,1.15687 0,1.15683 -0.57841,0 -0.57842,0 0,0.57843 0,0.57844 -1.15685,0 -1.15684,0 0,-0.57844 0,-0.57843 -0.57842,0 -0.57842,0 0,1.15687 0,1.15682 1.15684,0 1.15684,0 0,0.57843 0,0.5784 -0.57841,0 -0.57843,0 0,0.57843 0,0.57843 -0.57842,0 -0.57842,0 0,-1.15686 0,-1.15683 -0.57842,0 -0.57842,0 0,-1.15682 0,-1.15687 -0.57843,0 -0.57841,0 0,-0.57844 0,-0.57839 -0.57842,0 -0.57843,0 0,0.57839 0,0.57844 -0.57842,0 -0.57842,0 0,-0.57844 0,-0.57839 -0.57842,0 -0.57843,0 0,1.15683 0,1.15687 1.15685,0 1.15684,0 0,0.57839 0,0.57843 -1.73526,0 -1.73526,0 0,0.57843 0,0.5784 -1.15685,0 -1.15684,0 0,1.15686 0,1.15683 0.57842,0 0.57842,0 0,-0.57843 0,-0.5784 0.57842,0 0.57843,0 0,0.5784 0,0.57843 0.57841,0 0.57842,0 0,0.57844 0,0.57839 -2.31368,0 -2.31368,0 0,0.57844 0,0.57843 -0.57842,0 -0.57842,0 0,0.5784 0,0.57843 -0.57843,0 -0.57842,0 0,-0.57843 z m 3.47053,-5.78419 0,-0.57843 -0.57842,0 -0.57842,0 0,-0.57843 0,-0.57839 -0.57842,0 -0.57842,0 0,0.57839 0,0.57843 0.57842,0 0.57842,0 0,0.57843 0,0.5784 0.57842,0 0.57842,0 0,-0.5784 z m 2.31369,-3.47056 0,-0.57839 0.57841,0 0.57842,0 0,-0.57844 0,-0.57843 -0.57842,0 -0.57841,0 0,0.57843 0,0.57844 -0.57843,0 -0.57842,0 0,0.57839 0,0.57844 0.57842,0 0.57843,0 0,-0.57844 z m 6.94105,0 0,-0.57839 0.57842,0 0.57842,0 0,0.57839 0,0.57844 1.15684,0 1.15685,0 0,-1.15683 0,-1.15687 -0.57843,0 -0.57842,0 0,-0.5784 0,-0.57843 -0.57841,0 -0.57843,0 0,0.57843 0,0.5784 -0.57842,0 -0.57842,0 0,0.57843 0,0.57844 -0.57842,0 -0.57842,0 0,0.57839 0,0.57844 0.57842,0 0.57842,0 0,-0.57844 z m 1.15684,-1.15683 0,-0.57843 0.57843,0 0.57841,0 0,0.57843 0,0.57844 -0.57841,0 -0.57843,0 0,-0.57844 z m -21.98,-8.09787 0,-0.57844 0.57842,0 0.57842,0 0,-0.57843 0,-0.5784 0.57842,0 0.57842,0 0,-0.57843 0,-0.57844 0.57842,0 0.57842,0 0,1.15687 0,1.15683 0.57842,0 0.57843,0 0,-1.15683 0,-1.15687 0.57842,0 0.57842,0 0,-0.57839 0,-0.57844 0.57842,0 0.57842,0 0,-0.57843 0,-0.5784 -0.57842,0 -0.57842,0 0,-0.57843 0,-0.57844 -1.15684,0 -1.15685,0 0,1.15687 0,1.15683 -0.57842,0 -0.57842,0 0,-1.15683 0,-1.15687 -0.57842,0 -0.57842,0 0,1.15687 0,1.15683 -0.57842,0 -0.57842,0 0,0.57844 0,0.57839 0.57842,0 0.57842,0 0,0.57844 0,0.57843 -0.57842,0 -0.57842,0 0,0.5784 0,0.57843 -0.57842,0 -0.57842,0 0,0.57844 0,0.57839 0.57842,0 0.57842,0 0,-0.57839 z m 1.15684,-3.47053 0,-0.57844 0.57842,0 0.57842,0 0,0.57844 0,0.57839 -0.57842,0 -0.57842,0 0,-0.57839 z m 2.31368,0 0,-0.57844 0.57842,0 0.57843,0 0,-0.57843 0,-0.5784 0.57842,0 0.57842,0 0,0.5784 0,0.57843 -0.57842,0 -0.57842,0 0,0.57844 0,0.57839 -0.57843,0 -0.57842,0 0,-0.57839 z m -3.47052,-5.20579 0,-1.15686 -0.57842,0 -0.57842,0 0,-0.57842 0,-0.57842 -0.57842,0 -0.57843,0 0,0.57842 0,0.57842 0.57843,0 0.57842,0 0,1.15686 0,1.15683 0.57842,0 0.57842,0 0,-1.15683 z m -3.47053,-2.89212 0,-0.57843 -0.57842,0 -0.57843,0 0,0.57843 0,0.57842 0.57843,0 0.57842,0 0,-0.57842 z m 5.78421,28.92106 0,-0.57844 -1.15684,0 -1.15684,0 0,-0.57839 0,-0.57844 -0.57842,0 -0.57842,0 0,-0.57843 0,-0.5784 -0.57842,0 -0.57843,0 0,-1.73526 0,-1.73525 1.15685,0 1.15684,0 0,0.57839 0,0.57843 0.57842,0 0.57842,0 0,1.15683 0,1.15686 0.57842,0 0.57842,0 0,0.5784 0,0.57843 0.57842,0 0.57842,0 0,1.15683 0,1.15687 -0.57842,0 -0.57842,0 0,-0.57843 z m -1.15684,-2.3137 0,-0.5784 -0.57842,0 -0.57842,0 0,0.5784 0,0.57843 0.57842,0 0.57842,0 0,-0.57843 z m -1.15684,-2.31366 0,-0.57843 -0.57842,0 -0.57842,0 0,0.57843 0,0.5784 0.57842,0 0.57842,0 0,-0.5784 z m -6.94106,3.47053 0,-0.57844 1.15685,0 1.15683,0 0,0.57844 0,0.57839 -1.15683,0 -1.15685,0 0,-0.57839 z m 0,-3.47053 0,-0.57843 0.57842,0 0.57843,0 0,0.57843 0,0.5784 -0.57843,0 -0.57842,0 0,-0.5784 z m 33.54843,-3.47056 0,-0.57839 0.57842,0 0.57842,0 0,0.57839 0,0.57844 -0.57842,0 -0.57842,0 0,-0.57844 z m 0,-2.31366 0,-0.57843 -0.57842,0 -0.57843,0 0,-1.15683 0,-1.15687 0.57843,0 0.57842,0 0,1.15687 0,1.15683 0.57842,0 0.57842,0 0,0.57843 0,0.5784 -0.57842,0 -0.57842,0 0,-0.5784 z m -33.54843,-1.15687 0,-0.57839 0.57842,0 0.57843,0 0,-0.57844 0,-0.57843 -0.57843,0 -0.57842,0 0,-0.5784 0,-0.57843 -0.57842,0 -0.57842,0 0,-0.57843 0,-0.57839 0.57842,0 0.57842,0 0,-0.57843 0,-0.57844 0.57842,0 0.57843,0 0,1.73526 0,1.73526 0.57841,0 0.57842,0 0,0.57843 0,0.57844 0.57843,0 0.57842,0 0,-0.57844 0,-0.57843 0.57842,0 0.57842,0 0,0.57843 0,0.57844 -0.57842,0 -0.57842,0 0,0.57839 0,0.57844 -1.73527,0 -1.73526,0 0,-0.57844 z m 34.70527,-2.31366 0,-1.73525 0.57842,0 0.57843,0 0,1.73525 0,1.73527 -0.57843,0 -0.57842,0 0,-1.73527 z m 2.31369,0.5784 0,-1.15683 0.57842,0 0.57842,0 0,1.15683 0,1.15687 -0.57842,0 -0.57842,0 0,-1.15687 z m 0,-2.89208 0,-0.57844 0.57842,0 0.57842,0 0,-0.57839 0,-0.57844 1.15684,0 1.15685,0 0,0.57844 0,0.57839 -1.15685,0 -1.15684,0 0,0.57844 0,0.57843 -0.57842,0 -0.57842,0 0,-0.57843 z m 3.47053,-3.47053 0,-0.57844 0.57842,0 0.57842,0 0,0.57844 0,0.57843 -0.57842,0 -0.57842,0 0,-0.57843 z m 1.15684,-2.3137 0,-0.5784 0.57842,0 0.57843,0 0,0.5784 0,0.57843 -0.57843,0 -0.57842,0 0,-0.57843 z m -2.31369,-2.31366 0,-0.57843 1.15685,0 1.15684,0 0,0.57843 0,0.57839 -1.15684,0 -1.15685,0 0,-0.57839 z m -46.27369,-1.15686 0,-0.5784 0.57842,0 0.57842,0 0,-1.15686 0,-1.15684 0.57842,0 0.57842,0 0,0.57842 0,0.57842 0.57842,0 0.57843,0 0,0.57842 0,0.57844 -0.57843,0 -0.57842,0 0,0.5784 0,0.57843 -1.15684,0 -1.15684,0 0,-0.57843 z m 11.56842,31.81315 0,-1.15683 -0.57842,0 -0.57842,0 0,0.57844 0,0.57839 -0.57842,0 -0.57843,0 0,-0.57839 0,-0.57844 -0.57842,0 -0.57841,0 0,-0.57843 0,-0.57839 -0.57843,0 -0.57842,0 0,0.57839 0,0.57843 0.57842,0 0.57843,0 0,0.57844 0,0.57839 0.57841,0 0.57842,0 0,0.57844 0,0.57843 1.15685,0 1.15684,0 0,-1.15687 z m -18.50948,-1.73526 0,-0.57839 -0.57842,0 -0.57843,0 0,0.57839 0,0.57843 0.57843,0 0.57842,0 0,-0.57843 z m 4.62737,0 0,-0.57839 -0.57842,0 -0.57842,0 0,0.57839 0,0.57843 0.57842,0 0.57842,0 0,-0.57843 z m -12.72527,-1.15682 0,-0.57844 -0.57841,0 -0.57843,0 0,0.57844 0,0.57843 0.57843,0 0.57841,0 0,-0.57843 z m 2.31369,0 0,-0.57844 0.57842,0 0.57843,0 0,-0.57839 0,-0.57844 -0.57843,0 -0.57842,0 0,0.57844 0,0.57839 -0.57842,0 -0.57842,0 0,0.57844 0,0.57843 0.57842,0 0.57842,0 0,-0.57843 z m 3.47053,-0.57844 0,-1.15683 -0.57842,0 -0.57843,0 0,1.15683 0,1.15687 0.57843,0 0.57842,0 0,-1.15687 z m 19.66632,0 0,-1.15683 -0.57842,0 -0.57843,0 0,1.15683 0,1.15687 0.57843,0 0.57842,0 0,-1.15687 z m -28.92106,-0.57839 0,-0.57844 -0.57843,0 -0.57842,0 0,0.57844 0,0.57839 0.57842,0 0.57843,0 0,-0.57839 z m 13.88211,0 0,-0.57844 -0.57842,0 -0.57843,0 0,0.57844 0,0.57839 0.57843,0 0.57842,0 0,-0.57839 z m 2.31368,0 0,-0.57844 -0.57842,0 -0.57842,0 0,0.57844 0,0.57839 0.57842,0 0.57842,0 0,-0.57839 z m 2.31369,0 0,-0.57844 0.57842,0 0.57842,0 0,-1.15683 0,-1.15687 -1.15684,0 -1.15685,0 0,0.57844 0,0.57843 0.57843,0 0.57842,0 0,0.5784 0,0.57843 -0.57842,0 -0.57843,0 0,0.57844 0,0.57839 0.57843,0 0.57842,0 0,-0.57839 z m -6.94106,-1.15687 0,-0.5784 -0.57842,0 -0.57843,0 0,0.5784 0,0.57843 0.57843,0 0.57842,0 0,-0.57843 z m -2.31368,-1.73527 0,-1.15683 0.57842,0 0.57841,0 0,-0.57843 0,-0.5784 0.57843,0 0.57842,0 0,-0.57843 0,-0.57843 -0.57842,0 -0.57843,0 0,0.57843 0,0.57843 -0.57841,0 -0.57842,0 0,-0.57843 0,-0.57843 -0.57842,0 -0.57843,0 0,-0.5784 0,-0.57843 -0.57841,0 -0.57842,0 0,0.57843 0,0.5784 0.57842,0 0.57841,0 0,0.57843 0,0.57843 0.57843,0 0.57842,0 0,0.5784 0,0.57843 -0.57842,0 -0.57843,0 0,1.15683 0,1.15687 0.57843,0 0.57842,0 0,-1.15687 z m 5.78421,0.57844 0,-0.57844 0.57842,0 0.57842,0 0,-0.57839 0,-0.57844 0.57842,0 0.57842,0 0,-0.57843 0,-0.5784 -0.57842,0 -0.57842,0 0,0.5784 0,0.57843 -0.57842,0 -0.57842,0 0,0.57844 0,0.57839 -0.57842,0 -0.57842,0 0,0.57844 0,0.57843 0.57842,0 0.57842,0 0,-0.57843 z m 8.09789,0 0,-0.57844 -1.15683,0 -1.15685,0 0,0.57844 0,0.57843 1.15685,0 1.15683,0 0,-0.57843 z m -10.41158,-1.15683 0,-0.57844 -0.57842,0 -0.57842,0 0,0.57844 0,0.57839 0.57842,0 0.57842,0 0,-0.57839 z m -34.70527,-1.15687 0,-0.5784 -0.57842,0 -0.57842,0 0,0.5784 0,0.57843 0.57842,0 0.57842,0 0,-0.57843 z m 21.98001,0 0,-0.5784 -0.57843,0 -0.57842,0 0,0.5784 0,0.57843 0.57842,0 0.57843,0 0,-0.57843 z m 6.94106,0 0,-0.5784 -0.57843,0 -0.57842,0 0,0.5784 0,0.57843 0.57842,0 0.57843,0 0,-0.57843 z m -25.45054,-1.15683 0,-0.57843 0.57842,0 0.57842,0 0,-0.5784 0,-0.57843 -0.57842,0 -0.57842,0 0,0.57843 0,0.5784 -0.57842,0 -0.57843,0 0,0.57843 0,0.57843 0.57843,0 0.57842,0 0,-0.57843 z m 21.98,0 0,-0.57843 -0.57841,0 -0.57843,0 0,0.57843 0,0.57843 0.57843,0 0.57841,0 0,-0.57843 z m 11.56843,0 0,-0.57843 0.57842,0 0.57842,0 0,-0.5784 0,-0.57843 -0.57842,0 -0.57842,0 0,0.57843 0,0.5784 -0.57842,0 -0.57842,0 0,0.57843 0,0.57843 0.57842,0 0.57842,0 0,-0.57843 z m 24.29369,0 0,-0.57843 -1.15684,0 -1.15684,0 0,0.57843 0,0.57843 1.15684,0 1.15684,0 0,-0.57843 z m -60.1558,-1.15683 0,-0.57843 -0.57842,0 -0.57843,0 0,0.57843 0,0.5784 0.57843,0 0.57842,0 0,-0.5784 z m 26.60737,0 0,-0.57843 -0.57842,0 -0.57842,0 0,0.57843 0,0.5784 0.57842,0 0.57842,0 0,-0.5784 z m -17.35264,-1.15686 0,-0.57839 -0.57842,0 -0.57841,0 0,0.57839 0,0.57843 0.57841,0 0.57842,0 0,-0.57843 z m 10.41158,0 0,-0.57839 0.57842,0 0.57843,0 0,-0.57844 0,-0.57843 -1.15685,0 -1.15684,0 0,1.15687 0,1.15682 0.57843,0 0.57841,0 0,-0.57843 z m 12.72527,0 0,-0.57839 0.57842,0 0.57842,0 0,0.57839 0,0.57843 0.57843,0 0.57842,0 0,-0.57843 0,-0.57839 1.73526,0 1.73526,0 0,-0.57844 0,-0.57843 -0.57842,0 -0.57842,0 0,-0.57844 0,-0.57839 0.57842,0 0.57842,0 0,-0.57844 0,-0.57843 0.57843,0 0.57842,0 0,-0.5784 0,-0.57843 -0.57842,0 -0.57843,0 0,0.57843 0,0.5784 -0.57842,0 -0.57842,0 0,0.57843 0,0.57844 -0.57842,0 -0.57842,0 0,0.57839 0,0.57844 -0.57842,0 -0.57842,0 0,0.57843 0,0.57844 -0.57842,0 -0.57843,0 0,-0.57844 0,-0.57843 -0.57842,0 -0.57842,0 0,0.57843 0,0.57844 -1.15685,0 -1.15683,0 0,-0.57844 0,-0.57843 -0.57842,0 -0.57843,0 0,0.57843 0,0.57844 0.57843,0 0.57842,0 0,0.57839 0,0.57843 1.15683,0 1.15685,0 0,-0.57843 z m -28.92106,-1.15683 0,-0.57843 -1.15684,0 -1.15685,0 0,0.57843 0,0.57844 1.15685,0 1.15684,0 0,-0.57844 z m 3.47053,0 0,-0.57843 -0.57842,0 -0.57842,0 0,0.57843 0,0.57844 0.57842,0 0.57842,0 0,-0.57844 z m 5.78422,-0.57843 0,-1.15683 -0.57843,0 -0.57842,0 0,1.15683 0,1.15687 0.57842,0 0.57843,0 0,-1.15687 z m 4.62736,0.57843 0,-0.57843 -1.73526,0 -1.73527,0 0,0.57843 0,0.57844 1.73527,0 1.73526,0 0,-0.57844 z m 5.78421,0 0,-0.57843 0.57843,0 0.57841,0 0,-0.57844 0,-0.57839 -0.57841,0 -0.57843,0 0,-0.57844 0,-0.57843 -0.57842,0 -0.57842,0 0,0.57843 0,0.57844 0.57842,0 0.57842,0 0,0.57839 0,0.57844 -0.57842,0 -0.57842,0 0,0.57843 0,0.57844 0.57842,0 0.57842,0 0,-0.57844 z m 3.47053,-0.57843 0,-1.15683 -0.57842,0 -0.57842,0 0,1.15683 0,1.15687 0.57842,0 0.57842,0 0,-1.15687 z m -16.19579,-1.73527 0,-0.57843 -0.57843,0 -0.57842,0 0,-0.5784 0,-0.57843 -0.57842,0 -0.57841,0 0,-0.57844 0,-0.57839 -0.57843,0 -0.57842,0 0,0.57839 0,0.57844 0.57842,0 0.57843,0 0,0.57843 0,0.5784 0.57841,0 0.57842,0 0,0.57843 0,0.57844 0.57842,0 0.57843,0 0,-0.57844 z m 6.94105,0 0,-0.57843 -0.57842,0 -0.57842,0 0,0.57843 0,0.57844 0.57842,0 0.57842,0 0,-0.57844 z m 3.47053,0 0,-0.57843 -0.57843,0 -0.57842,0 0,-0.5784 0,-0.57843 0.57842,0 0.57843,0 0,-0.57844 0,-0.57839 -0.57843,0 -0.57842,0 0,0.57839 0,0.57844 -0.57841,0 -0.57843,0 0,0.57843 0,0.5784 0.57843,0 0.57841,0 0,0.57843 0,0.57844 0.57842,0 0.57843,0 0,-0.57844 z m -6.94106,-1.15683 0,-0.57843 -1.15683,0 -1.15685,0 0,0.57843 0,0.5784 1.15685,0 1.15683,0 0,-0.5784 z m 13.88212,0 0,-0.57843 0.57842,0 0.57841,0 0,-0.57844 0,-0.57839 -0.57841,0 -0.57842,0 0,0.57839 0,0.57844 -0.57843,0 -0.57842,0 0,0.57843 0,0.5784 0.57842,0 0.57843,0 0,-0.5784 z m 3.47051,0 0,-0.57843 -0.57841,0 -0.57842,0 0,0.57843 0,0.5784 0.57842,0 0.57841,0 0,-0.5784 z m -13.8821,-1.15687 0,-0.57839 -0.57842,0 -0.57842,0 0,0.57839 0,0.57844 0.57842,0 0.57842,0 0,-0.57844 z m 8.0979,0 0,-0.57839 -0.57843,0 -0.57842,0 0,0.57839 0,0.57844 0.57842,0 0.57843,0 0,-0.57844 z m 16.19579,0 0,-0.57839 0.57842,0 0.57843,0 0,-0.57844 0,-0.57843 -0.57843,0 -0.57842,0 0,0.57843 0,0.57844 -0.57842,0 -0.57842,0 0,0.57839 0,0.57844 0.57842,0 0.57842,0 0,-0.57844 z m -31.23474,-1.15683 0,-0.57843 -0.57843,0 -0.57842,0 0,0.57843 0,0.57844 0.57842,0 0.57843,0 0,-0.57844 z m 4.62737,0 0,-0.57843 0.57842,0 0.57842,0 0,-0.5784 0,-0.57843 -0.57842,0 -0.57842,0 0,0.57843 0,0.5784 -0.57842,0 -0.57843,0 0,0.57843 0,0.57844 0.57843,0 0.57842,0 0,-0.57844 z m 8.09789,-0.57843 0,-1.15683 0.57843,0 0.57841,0 0,-0.57843 0,-0.57839 -0.57841,0 -0.57843,0 0,0.57839 0,0.57843 -0.57842,0 -0.57842,0 0,-0.57843 0,-0.57839 -0.57842,0 -0.57842,0 0,0.57839 0,0.57843 0.57842,0 0.57842,0 0,1.15683 0,1.15687 0.57842,0 0.57842,0 0,-1.15687 z m 10.41158,0 0,-1.15683 0.57843,0 0.57842,0 0,-0.57843 0,-0.57839 -0.57842,0 -0.57843,0 0,0.57839 0,0.57843 -0.57842,0 -0.57842,0 0,-0.57843 0,-0.57839 -0.57842,0 -0.57843,0 0,0.57839 0,0.57843 0.57843,0 0.57842,0 0,1.15683 0,1.15687 0.57842,0 0.57842,0 0,-1.15687 z m 2.31369,0.57843 0,-0.57843 -0.57842,0 -0.57842,0 0,0.57843 0,0.57844 0.57842,0 0.57842,0 0,-0.57844 z m 4.62737,-1.15683 0,-0.57843 0.57842,0 0.57842,0 0,-0.57843 0,-0.57839 -0.57842,0 -0.57842,0 0,0.57839 0,0.57843 -0.57842,0 -0.57842,0 0,-0.57843 0,-0.57839 -0.57842,0 -0.57843,0 0,0.57839 0,0.57843 0.57843,0 0.57842,0 0,0.57843 0,0.5784 0.57842,0 0.57842,0 0,-0.5784 z m -27.76421,-1.15686 0,-0.57839 -0.57843,0 -0.57842,0 0,0.57839 0,0.57843 0.57842,0 0.57843,0 0,-0.57843 z m 16.19578,0 0,-0.57839 -0.57841,0 -0.57842,0 0,0.57839 0,0.57843 0.57842,0 0.57841,0 0,-0.57843 z m 8.0979,0 0,-0.57839 -0.57842,0 -0.57842,0 0,0.57839 0,0.57843 0.57842,0 0.57842,0 0,-0.57843 z m -21.98,-1.15682 0,-0.57844 0.57842,0 0.57842,0 0,0.57844 0,0.57843 0.57842,0 0.57842,0 0,-0.57843 0,-0.57844 -0.57842,0 -0.57842,0 0,-0.57839 0,-0.57844 -0.57842,0 -0.57842,0 0,0.57844 0,0.57839 -0.57842,0 -0.57843,0 0,0.57844 0,0.57843 0.57843,0 0.57842,0 0,-0.57843 z m 4.62736,0 0,-0.57844 -0.57841,0 -0.57843,0 0,0.57844 0,0.57843 0.57843,0 0.57841,0 0,-0.57843 z m 4.62737,-1.15683 0,-0.57844 -1.15684,0 -1.15684,0 0,0.57844 0,0.57839 1.15684,0 1.15684,0 0,-0.57839 z m 3.47054,0 0,-0.57844 -1.15685,0 -1.15684,0 0,0.57844 0,0.57839 1.15684,0 1.15685,0 0,-0.57839 z m 2.31368,0 0,-0.57844 -0.57842,0 -0.57843,0 0,0.57844 0,0.57839 0.57843,0 0.57842,0 0,-0.57839 z m 3.47052,0 0,-0.57844 -0.57842,0 -0.57842,0 0,-0.57843 0,-0.5784 0.57842,0 0.57842,0 0,-0.57843 0,-0.57844 0.57843,0 0.57842,0 0,-0.57839 0,-0.57844 -0.57842,0 -0.57843,0 0,0.57844 0,0.57839 -0.57842,0 -0.57842,0 0,0.57844 0,0.57843 -0.57842,0 -0.57843,0 0,0.5784 0,0.57843 0.57843,0 0.57842,0 0,0.57844 0,0.57839 0.57842,0 0.57842,0 0,-0.57839 z m 3.47053,-0.57844 0,-1.15683 -0.57842,0 -0.57842,0 0,0.5784 0,0.57843 -0.57842,0 -0.57842,0 0,0.57844 0,0.57839 1.15684,0 1.15684,0 0,-1.15683 z m 2.31369,0.57844 0,-0.57844 -0.57842,0 -0.57843,0 0,0.57844 0,0.57839 0.57843,0 0.57842,0 0,-0.57839 z m 2.31368,0 0,-0.57844 -0.57842,0 -0.57842,0 0,0.57844 0,0.57839 0.57842,0 0.57842,0 0,-0.57839 z m 2.31368,-0.57844 0,-1.15683 -0.57842,0 -0.57841,0 0,1.15683 0,1.15683 0.57841,0 0.57842,0 0,-1.15683 z m -23.13684,-0.57843 0,-0.5784 -0.57843,0 -0.57842,0 0,0.5784 0,0.57843 0.57842,0 0.57843,0 0,-0.57843 z m 4.62737,-1.15683 0,-0.57844 -0.57843,0 -0.57842,0 0,0.57844 0,0.57843 0.57842,0 0.57843,0 0,-0.57843 z m 2.31369,0 0,-0.57844 -0.57843,0 -0.57842,0 0,0.57844 0,0.57843 0.57842,0 0.57843,0 0,-0.57843 z m 12.72526,-1.15683 0,-1.73527 -0.57842,0 -0.57842,0 0,1.73527 0,1.73526 0.57842,0 0.57842,0 0,-1.73526 z m -2.31369,0 0,-0.57844 -0.57842,0 -0.57842,0 0,-0.57843 0,-0.5784 -0.57842,0 -0.57842,0 0,1.15683 0,1.15683 1.15684,0 1.15684,0 0,-0.57839 z m 5.78421,0 0,-0.57844 -0.57842,0 -0.57841,0 0,0.57844 0,0.57839 0.57841,0 0.57842,0 0,-0.57839 z m -12.72527,-1.15687 0,-0.5784 0.57843,0 0.57842,0 0,-0.57843 0,-0.57844 -0.57842,0 -0.57843,0 0,0.57844 0,0.57843 -0.57841,0 -0.57842,0 0,0.5784 0,0.57843 0.57842,0 0.57841,0 0,-0.57843 z m -23.13683,70.56741 0,-0.57844 0.57841,0 0.57842,0 0,0.57844 0,0.57839 -0.57842,0 -0.57841,0 0,-0.57839 z m 3.47052,0 0,-0.57844 0.57842,0 0.57843,0 0,0.57844 0,0.57839 -0.57843,0 -0.57842,0 0,-0.57839 z m 3.47053,0 0,-0.57844 0.57842,0 0.57842,0 0,0.57844 0,0.57839 -0.57842,0 -0.57842,0 0,-0.57839 z m 3.47052,0 0,-0.57844 0.57843,0 0.57841,0 0,0.57844 0,0.57839 -0.57841,0 -0.57843,0 0,-0.57839 z m 3.47053,0 0,-0.57844 0.57842,0 0.57842,0 0,0.57844 0,0.57839 -0.57842,0 -0.57842,0 0,-0.57839 z m 3.47053,0 0,-0.57844 0.57842,0 0.57842,0 0,0.57844 0,0.57839 -0.57842,0 -0.57842,0 0,-0.57839 z m 24.29369,0 0,-0.57844 0.57842,0 0.57842,0 0,0.57844 0,0.57839 -0.57842,0 -0.57842,0 0,-0.57839 z m 10.41158,0 0,-0.57844 0.57842,0 0.57842,0 0,0.57844 0,0.57839 -0.57842,0 -0.57842,0 0,-0.57839 z m 3.47053,0 0,-0.57844 0.57842,0 0.57842,0 0,0.57844 0,0.57839 -0.57842,0 -0.57842,0 0,-0.57839 z m 5.78421,-10.41158 0,-8.67635 8.67632,0 8.67632,0 0,8.67635 0,8.67631 -8.67632,0 -8.67632,0 0,-8.67631 z m 13.88211,0 0,-5.20582 -5.20579,0 -5.20579,0 0,5.20582 0,5.20579 5.20579,0 5.20579,0 0,-5.20579 z m -6.94106,0 0,-1.73526 1.73527,0 1.73526,0 0,1.73526 0,1.73527 -1.73526,0 -1.73527,0 0,-1.73527 z m -64.78317,6.94105 0,-0.57843 0.57842,0 0.57843,0 0,0.57843 0,0.5784 -0.57843,0 -0.57842,0 0,-0.5784 z m 17.35263,0 0,-0.57843 0.57843,0 0.57842,0 0,0.57843 0,0.5784 -0.57842,0 -0.57843,0 0,-0.5784 z m 10.41159,0 0,-0.57843 0.57842,0 0.57842,0 0,0.57843 0,0.5784 -0.57842,0 -0.57842,0 0,-0.5784 z m 3.47053,0 0,-0.57843 0.57841,0 0.57842,0 0,0.57843 0,0.5784 -0.57842,0 -0.57841,0 0,-0.5784 z m 3.47052,0 0,-0.57843 0.57842,0 0.57843,0 0,0.57843 0,0.5784 -0.57843,0 -0.57842,0 0,-0.5784 z m 10.41158,0 0,-0.57843 0.57842,0 0.57843,0 0,0.57843 0,0.5784 -0.57843,0 -0.57842,0 0,-0.5784 z m 3.47053,0 0,-0.57843 0.57842,0 0.57842,0 0,0.57843 0,0.5784 -0.57842,0 -0.57842,0 0,-0.5784 z m -55.52843,-3.47056 0,-0.57839 0.57842,0 0.57842,0 0,0.57839 0,0.57844 -0.57842,0 -0.57842,0 0,-0.57844 z m 3.47053,0 0,-0.57839 0.57841,0 0.57842,0 0,0.57839 0,0.57844 -0.57842,0 -0.57841,0 0,-0.57844 z m 27.76421,0 0,-0.57839 0.57842,0 0.57842,0 0,0.57839 0,0.57844 -0.57842,0 -0.57842,0 0,-0.57844 z m 6.94106,0 0,-0.57839 0.57841,0 0.57842,0 0,0.57839 0,0.57844 -0.57842,0 -0.57841,0 0,-0.57844 z m 13.8821,0 0,-0.57839 0.57842,0 0.57843,0 0,0.57839 0,0.57844 -0.57843,0 -0.57842,0 0,-0.57844 z m 3.47053,0 0,-0.57839 0.57842,0 0.57842,0 0,0.57839 0,0.57844 -0.57842,0 -0.57842,0 0,-0.57844 z m 6.94106,0 0,-0.57839 0.57841,0 0.57842,0 0,0.57839 0,0.57844 -0.57842,0 -0.57841,0 0,-0.57844 z m -67.09686,-5.20575 0,-3.47056 1.73526,0 1.73526,0 0,3.47056 0,3.47053 -1.73526,0 -1.73526,0 0,-3.47053 z m 8.0979,1.73526 0,-0.57843 0.57841,0 0.57842,0 0,0.57843 0,0.5784 -0.57842,0 -0.57841,0 0,-0.5784 z m 3.47052,0 0,-0.57843 0.57842,0 0.57843,0 0,0.57843 0,0.5784 -0.57843,0 -0.57842,0 0,-0.5784 z m 6.94105,0 0,-0.57843 0.57843,0 0.57841,0 0,0.57843 0,0.5784 -0.57841,0 -0.57843,0 0,-0.5784 z m 3.47053,0 0,-0.57843 0.57842,0 0.57842,0 0,0.57843 0,0.5784 -0.57842,0 -0.57842,0 0,-0.5784 z m 17.35264,0 0,-0.57843 0.57842,0 0.57842,0 0,0.57843 0,0.5784 -0.57842,0 -0.57842,0 0,-0.5784 z m 3.47053,0 0,-0.57843 0.57841,0 0.57842,0 0,0.57843 0,0.5784 -0.57842,0 -0.57841,0 0,-0.5784 z m 10.41158,0 0,-0.57843 0.57842,0 0.57842,0 0,0.57843 0,0.5784 -0.57842,0 -0.57842,0 0,-0.5784 z m 13.88211,0 0,-0.57843 0.57841,0 0.57842,0 0,0.57843 0,0.5784 -0.57842,0 -0.57841,0 0,-0.5784 z m -58.99896,-3.47052 0,-0.57843 0.57841,0 0.57842,0 0,0.57843 0,0.57839 -0.57842,0 -0.57841,0 0,-0.57839 z m 6.94105,0 0,-0.57843 0.57842,0 0.57842,0 0,0.57843 0,0.57839 -0.57842,0 -0.57842,0 0,-0.57839 z m 3.47052,0 0,-0.57843 0.57843,0 0.57841,0 0,0.57843 0,0.57839 -0.57841,0 -0.57843,0 0,-0.57839 z m 17.35264,0 0,-0.57843 0.57842,0 0.57842,0 0,0.57843 0,0.57839 -0.57842,0 -0.57842,0 0,-0.57839 z m 3.47053,0 0,-0.57843 0.57842,0 0.57842,0 0,0.57843 0,0.57839 -0.57842,0 -0.57842,0 0,-0.57839 z m 3.47053,0 0,-0.57843 0.57841,0 0.57842,0 0,0.57843 0,0.57839 -0.57842,0 -0.57841,0 0,-0.57839 z m 6.94105,0 0,-0.57843 0.57842,0 0.57842,0 0,0.57843 0,0.57839 -0.57842,0 -0.57842,0 0,-0.57839 z m 3.47053,0 0,-0.57843 0.57842,0 0.57842,0 0,0.57843 0,0.57839 -0.57842,0 -0.57842,0 0,-0.57839 z m 3.47052,0 0,-0.57843 0.57842,0 0.57843,0 0,0.57843 0,0.57839 -0.57843,0 -0.57842,0 0,-0.57839 z m 3.47053,0 0,-0.57843 0.57842,0 0.57842,0 0,0.57843 0,0.57839 -0.57842,0 -0.57842,0 0,-0.57839 z m 3.47053,0 0,-0.57843 0.57842,0 0.57842,0 0,0.57843 0,0.57839 -0.57842,0 -0.57842,0 0,-0.57839 z m -91.39055,-8.67636 0,-6.94104 1.73526,0 1.73527,0 0,1.73526 0,1.73526 1.73526,0 1.73526,0 0,1.73527 0,1.73525 -1.73526,0 -1.73526,0 0,3.47053 0,3.47053 -1.73527,0 -1.73526,0 0,-6.94106 z m 20.82317,5.20583 0,-1.7353 1.73525,0 1.73527,0 0,1.7353 0,1.73523 -1.73527,0 -1.73525,0 0,-1.73523 z m -12.72527,0 0,-0.57843 0.57842,0 0.57842,0 0,0.57843 0,0.5784 -0.57842,0 -0.57842,0 0,-0.5784 z m 3.47052,0 0,-0.57843 0.57843,0 0.57842,0 0,0.57843 0,0.5784 -0.57842,0 -0.57843,0 0,-0.5784 z m 13.88211,0 0,-0.57843 0.57842,0 0.57842,0 0,0.57843 0,0.5784 -0.57842,0 -0.57842,0 0,-0.5784 z m 3.47052,0 0,-0.57843 0.57843,0 0.57842,0 0,0.57843 0,0.5784 -0.57842,0 -0.57843,0 0,-0.5784 z m 6.94107,0 0,-0.57843 0.57841,0 0.57842,0 0,0.57843 0,0.5784 -0.57842,0 -0.57841,0 0,-0.5784 z m 27.76421,0 0,-0.57843 0.57842,0 0.57842,0 0,0.57843 0,0.5784 -0.57842,0 -0.57842,0 0,-0.5784 z m 10.41158,0 0,-0.57843 0.57842,0 0.57843,0 0,0.57843 0,0.5784 -0.57843,0 -0.57842,0 0,-0.5784 z m 3.47053,0 0,-0.57843 0.57842,0 0.57842,0 0,0.57843 0,0.5784 -0.57842,0 -0.57842,0 0,-0.5784 z m 3.47053,0 0,-0.57843 0.57842,0 0.57842,0 0,0.57843 0,0.5784 -0.57842,0 -0.57842,0 0,-0.5784 z m 6.94105,0 0,-0.57843 0.57842,0 0.57842,0 0,0.57843 0,0.5784 -0.57842,0 -0.57842,0 0,-0.5784 z m -21.98001,-1.15686 0,-0.57844 0.57843,0 0.57842,0 0,0.57844 0,0.57843 -0.57842,0 -0.57843,0 0,-0.57843 z m -40.48948,-2.31366 0,-0.57844 0.57842,0 0.57842,0 0,0.57844 0,0.57839 -0.57842,0 -0.57842,0 0,-0.57839 z m 6.94106,0 0,-0.57844 0.57842,0 0.57842,0 0,0.57844 0,0.57839 -0.57842,0 -0.57842,0 0,-0.57839 z m 6.94105,0 0,-0.57844 0.57842,0 0.57843,0 0,0.57844 0,0.57839 -0.57843,0 -0.57842,0 0,-0.57839 z m 3.47053,0 0,-0.57844 0.57842,0 0.57842,0 0,0.57844 0,0.57839 -0.57842,0 -0.57842,0 0,-0.57839 z m 17.35263,0 0,-0.57844 0.57842,0 0.57842,0 0,0.57844 0,0.57839 -0.57842,0 -0.57842,0 0,-0.57839 z m 3.47053,0 0,-0.57844 0.57842,0 0.57842,0 0,-0.57843 0,-0.57844 0.57842,0 0.57842,0 0,0.57844 0,0.57843 -0.57842,0 -0.57842,0 0,0.57844 0,0.57839 -0.57842,0 -0.57842,0 0,-0.57839 z m 3.47053,0 0,-0.57844 0.57842,0 0.57842,0 0,0.57844 0,0.57839 -0.57842,0 -0.57842,0 0,-0.57839 z m 3.47053,0 0,-0.57844 0.57841,0 0.57842,0 0,0.57844 0,0.57839 -0.57842,0 -0.57841,0 0,-0.57839 z m 13.8821,0 0,-0.57844 0.57842,0 0.57843,0 0,0.57844 0,0.57839 -0.57843,0 -0.57842,0 0,-0.57839 z m -63.62632,-3.47056 0,-1.73527 1.73525,0 1.73527,0 0,1.73527 0,1.73525 -1.73527,0 -1.73525,0 0,-1.73525 z m -12.72527,0 0,-0.5784 0.57842,0 0.57842,0 0,0.5784 0,0.57843 -0.57842,0 -0.57842,0 0,-0.57843 z m 3.47052,0 0,-0.5784 0.57843,0 0.57842,0 0,0.5784 0,0.57843 -0.57842,0 -0.57843,0 0,-0.57843 z m 13.88211,0 0,-0.5784 0.57842,0 0.57842,0 0,0.5784 0,0.57843 -0.57842,0 -0.57842,0 0,-0.57843 z m 10.41159,0 0,-0.5784 0.57841,0 0.57842,0 0,0.5784 0,0.57843 -0.57842,0 -0.57841,0 0,-0.57843 z m 31.23474,0 0,-0.5784 0.57842,0 0.57842,0 0,0.5784 0,0.57843 -0.57842,0 -0.57842,0 0,-0.57843 z m 6.94105,0 0,-0.5784 0.57842,0 0.57843,0 0,0.5784 0,0.57843 -0.57843,0 -0.57842,0 0,-0.57843 z m 17.35264,0 0,-0.5784 0.57842,0 0.57842,0 0,0.5784 0,0.57843 -0.57842,0 -0.57842,0 0,-0.57843 z m -26.60738,-1.73527 0,-1.15683 0.57842,0 0.57842,0 0,1.15683 0,1.15687 -0.57842,0 -0.57842,0 0,-1.15687 z m -56.68527,-1.73526 0,-0.5784 0.57842,0 0.57842,0 0,0.5784 0,0.57843 -0.57842,0 -0.57842,0 0,-0.57843 z m 3.47052,0 0,-0.5784 0.57843,0 0.57842,0 0,0.5784 0,0.57843 -0.57842,0 -0.57843,0 0,-0.57843 z m 17.35263,0 0,-0.5784 0.57843,0 0.57842,0 0,0.5784 0,0.57843 -0.57842,0 -0.57843,0 0,-0.57843 z m 6.94107,0 0,-0.5784 0.57841,0 0.57842,0 0,0.5784 0,0.57843 -0.57842,0 -0.57841,0 0,-0.57843 z m 3.47052,0 0,-0.5784 0.57842,0 0.57843,0 0,0.5784 0,0.57843 -0.57843,0 -0.57842,0 0,-0.57843 z m 31.23475,0 0,-0.5784 0.57841,0 0.57842,0 0,0.5784 0,0.57843 -0.57842,0 -0.57841,0 0,-0.57843 z m 6.94105,0 0,-0.5784 0.57842,0 0.57842,0 0,0.5784 0,0.57843 -0.57842,0 -0.57842,0 0,-0.57843 z m 6.94105,0 0,-0.5784 0.57842,0 0.57843,0 0,0.5784 0,0.57843 -0.57843,0 -0.57842,0 0,-0.57843 z m 3.47053,0 0,-0.5784 0.57842,0 0.57842,0 0,0.5784 0,0.57843 -0.57842,0 -0.57842,0 0,-0.57843 z m 13.88211,0 0,-0.5784 0.57842,0 0.57842,0 0,0.5784 0,0.57843 -0.57842,0 -0.57842,0 0,-0.57843 z m 3.47053,0 0,-0.5784 0.57842,0 0.57841,0 0,0.5784 0,0.57843 -0.57841,0 -0.57842,0 0,-0.57843 z m -39.33265,-1.15683 0,-0.57843 0.57843,0 0.57842,0 0,0.57843 0,0.57843 -0.57842,0 -0.57843,0 0,-0.57843 z m -45.11684,-2.3137 0,-1.73526 1.73525,0 1.73527,0 0,1.73526 0,1.73527 -1.73527,0 -1.73525,0 0,-1.73527 z m -9.25475,0 0,-0.57839 0.57843,0 0.57842,0 0,0.57839 0,0.57844 -0.57842,0 -0.57843,0 0,-0.57844 z m 13.88211,0 0,-0.57839 0.57842,0 0.57842,0 0,0.57839 0,0.57844 -0.57842,0 -0.57842,0 0,-0.57844 z m 6.94106,0 0,-0.57839 0.57842,0 0.57842,0 0,0.57839 0,0.57844 -0.57842,0 -0.57842,0 0,-0.57844 z m 3.47053,0 0,-0.57839 0.57841,0 0.57842,0 0,0.57839 0,0.57844 -0.57842,0 -0.57841,0 0,-0.57844 z m 31.23474,0 0,-0.57839 0.57842,0 0.57842,0 0,0.57839 0,0.57844 -0.57842,0 -0.57842,0 0,-0.57844 z m 3.47053,0 0,-0.57839 0.57841,0 0.57842,0 0,0.57839 0,0.57844 -0.57842,0 -0.57841,0 0,-0.57844 z m 3.47052,0 0,-0.57839 0.57842,0 0.57843,0 0,0.57839 0,0.57844 -0.57843,0 -0.57842,0 0,-0.57844 z m 3.47053,0 0,-0.57839 0.57842,0 0.57842,0 0,0.57839 0,0.57844 -0.57842,0 -0.57842,0 0,-0.57844 z m 3.47053,0 0,-0.57839 0.57842,0 0.57842,0 0,0.57839 0,0.57844 -0.57842,0 -0.57842,0 0,-0.57844 z m 6.94105,0 0,-0.57839 0.57842,0 0.57842,0 0,0.57839 0,0.57844 -0.57842,0 -0.57842,0 0,-0.57844 z m 3.47053,0 0,-0.57839 0.57842,0 0.57842,0 0,0.57839 0,0.57844 -0.57842,0 -0.57842,0 0,-0.57844 z m 10.41158,0 0,-0.57839 -0.57842,0 -0.57842,0 0,-1.15687 0,-1.15683 -0.57843,0 -0.57841,0 0,-1.73526 0,-1.73526 -0.57842,0 -0.57843,0 0,-1.15687 0,-1.15683 1.15685,0 1.15684,0 0,-2.3137 0,-2.31365 -0.57843,0 -0.57841,0 0,0.57839 0,0.57843 -1.15685,0 -1.15684,0 0,-0.57843 0,-0.57839 0.57842,0 0.57842,0 0,-0.57843 0,-0.57844 1.73526,0 1.73527,0 0,1.73526 0,1.73526 0.57842,0 0.57842,0 0,0.57844 0,0.57843 -0.57842,0 -0.57842,0 0,1.15683 0,1.15683 0.57842,0 0.57842,0 0,0.57843 0,0.57844 -1.15684,0 -1.15684,0 0,0.57843 0,0.5784 0.57842,0 0.57842,0 0,0.57843 0,0.5784 -0.57842,0 -0.57842,0 0,0.57843 0,0.57843 0.57842,0 0.57842,0 0,1.15683 0,1.15687 0.57842,0 0.57842,0 0,0.57839 0,0.57844 -0.57842,0 -0.57842,0 0,-0.57844 z m 3.47053,0 0,-0.57839 0.57842,0 0.57841,0 0,0.57839 0,0.57844 -0.57841,0 -0.57842,0 0,-0.57844 z m -104.11582,-3.47052 0,-0.57843 0.57842,0 0.57842,0 0,0.57843 0,0.57843 -0.57842,0 -0.57842,0 0,-0.57843 z m 6.94106,0 0,-0.57843 0.57842,0 0.57842,0 0,0.57843 0,0.57843 -0.57842,0 -0.57842,0 0,-0.57843 z m 3.47052,0 0,-0.57843 0.57843,0 0.57842,0 0,0.57843 0,0.57843 -0.57842,0 -0.57843,0 0,-0.57843 z m 3.47053,0 0,-0.57843 0.57842,0 0.57842,0 0,0.57843 0,0.57843 -0.57842,0 -0.57842,0 0,-0.57843 z m 10.41158,0 0,-0.57843 0.57842,0 0.57842,0 0,0.57843 0,0.57843 -0.57842,0 -0.57842,0 0,-0.57843 z m 6.94106,0 0,-0.57843 0.57842,0 0.57842,0 0,0.57843 0,0.57843 -0.57842,0 -0.57842,0 0,-0.57843 z m 3.47053,0 0,-0.57843 0.57841,0 0.57842,0 0,0.57843 0,0.57843 -0.57842,0 -0.57841,0 0,-0.57843 z m 41.64632,0 0,-0.57843 0.57842,0 0.57842,0 0,0.57843 0,0.57843 -0.57842,0 -0.57842,0 0,-0.57843 z m 6.94105,0 0,-0.57843 0.57842,0 0.57843,0 0,0.57843 0,0.57843 -0.57843,0 -0.57842,0 0,-0.57843 z m 6.94106,0 0,-0.57843 0.57842,0 0.57842,0 0,0.57843 0,0.57843 -0.57842,0 -0.57842,0 0,-0.57843 z m 3.47053,0 0,-0.57843 0.57841,0 0.57842,0 0,0.57843 0,0.57843 -0.57842,0 -0.57841,0 0,-0.57843 z m 10.41158,0 0,-0.57843 0.57842,0 0.57841,0 0,0.57843 0,0.57843 -0.57841,0 -0.57842,0 0,-0.57843 z m -84.44949,-3.47053 0,-1.73526 1.73525,0 1.73527,0 0,1.73526 0,1.73527 -1.73527,0 -1.73525,0 0,-1.73527 z m -12.72527,0 0,-0.57843 0.57842,0 0.57842,0 0,0.57843 0,0.57844 -0.57842,0 -0.57842,0 0,-0.57844 z m 3.47052,0 0,-0.57843 0.57843,0 0.57842,0 0,0.57843 0,0.57844 -0.57842,0 -0.57843,0 0,-0.57844 z m 6.94106,0 0,-0.57843 0.57842,0 0.57842,0 0,0.57843 0,0.57844 -0.57842,0 -0.57842,0 0,-0.57844 z m 13.88211,0 0,-0.57843 0.57842,0 0.57842,0 0,0.57843 0,0.57844 -0.57842,0 -0.57842,0 0,-0.57844 z m 3.47053,0 0,-0.57843 0.57841,0 0.57842,0 0,0.57843 0,0.57844 -0.57842,0 -0.57841,0 0,-0.57844 z m 3.47052,0 0,-0.57843 0.57842,0 0.57843,0 0,0.57843 0,0.57844 -0.57843,0 -0.57842,0 0,-0.57844 z m 45.11685,0 0,-0.57843 0.57842,0 0.57843,0 0,0.57843 0,0.57844 -0.57843,0 -0.57842,0 0,-0.57844 z m 6.94106,0 0,-0.57843 0.57842,0 0.57842,0 0,0.57843 0,0.57844 -0.57842,0 -0.57842,0 0,-0.57844 z m 3.47053,0 0,-0.57843 0.57841,0 0.57842,0 0,0.57843 0,0.57844 -0.57842,0 -0.57841,0 0,-0.57844 z m 10.41158,0 0,-0.57843 0.57842,0 0.57841,0 0,0.57843 0,0.57844 -0.57841,0 -0.57842,0 0,-0.57844 z m -76.35161,-2.89209 0,-1.15687 1.15685,0 1.15684,0 0,0.57844 0,0.57843 -0.57842,0 -0.57842,0 0,0.5784 0,0.57843 -0.57842,0 -0.57843,0 0,-1.15683 z m -27.76421,-0.57843 0,-0.57844 0.57842,0 0.57842,0 0,0.57844 0,0.57843 -0.57842,0 -0.57842,0 0,-0.57843 z m 3.47053,0 0,-0.57844 0.57842,0 0.57842,0 0,0.57844 0,0.57843 -0.57842,0 -0.57842,0 0,-0.57843 z m 28.92106,0 0,-0.57844 -0.57842,0 -0.57842,0 0,-0.57839 0,-0.57844 0.57842,0 0.57842,0 0,0.57844 0,0.57839 0.57842,0 0.57842,0 0,0.57844 0,0.57843 -0.57842,0 -0.57842,0 0,-0.57843 z m 5.78421,0 0,-0.57844 0.57842,0 0.57843,0 0,0.57844 0,0.57843 -0.57843,0 -0.57842,0 0,-0.57843 z m 55.52844,0 0,-0.57844 0.57841,0 0.57842,0 0,0.57844 0,0.57843 -0.57842,0 -0.57841,0 0,-0.57843 z m 2.31368,0 0,-0.57844 1.15684,0 1.15685,0 0,0.57844 0,0.57843 -1.15685,0 -1.15684,0 0,-0.57843 z m 8.0979,0 0,-0.57844 0.57842,0 0.57841,0 0,0.57844 0,0.57843 -0.57841,0 -0.57842,0 0,-0.57843 z m -97.17476,-3.47052 0,-0.57844 0.57842,0 0.57842,0 0,0.57844 0,0.57843 -0.57842,0 -0.57842,0 0,-0.57843 z m 6.94105,0 0,-0.57844 0.57842,0 0.57842,0 0,0.57844 0,0.57843 -0.57842,0 -0.57842,0 0,-0.57843 z m 10.41158,0 0,-0.57844 0.57842,0 0.57842,0 0,0.57844 0,0.57843 -0.57842,0 -0.57842,0 0,-0.57843 z m 79.82213,0 0,-0.57844 0.57842,0 0.57841,0 0,0.57844 0,0.57843 -0.57841,0 -0.57842,0 0,-0.57843 z m -104.11582,-3.47053 0,-0.57844 0.57842,0 0.57842,0 0,0.57844 0,0.57843 -0.57842,0 -0.57842,0 0,-0.57843 z m 3.47053,0 0,-0.57844 0.57842,0 0.57842,0 0,0.57844 0,0.57843 -0.57842,0 -0.57842,0 0,-0.57843 z m 13.88211,0 0,-0.57844 0.57842,0 0.57842,0 0,0.57844 0,0.57843 -0.57842,0 -0.57842,0 0,-0.57843 z m 86.76318,0 0,-0.57844 0.57842,0 0.57841,0 0,0.57844 0,0.57843 -0.57841,0 -0.57842,0 0,-0.57843 z m -100.64529,-3.47053 0,-0.57843 0.57842,0 0.57842,0 0,0.57843 0,0.57843 -0.57842,0 -0.57842,0 0,-0.57843 z m 10.41158,0 0,-0.57843 0.57842,0 0.57842,0 0,0.57843 0,0.57843 -0.57842,0 -0.57842,0 0,-0.57843 z m 24.29369,0 0,-0.57843 0.57842,0 0.57843,0 0,0.57843 0,0.57843 -0.57843,0 -0.57842,0 0,-0.57843 z m 3.47053,0 0,-0.57843 0.57842,0 0.57842,0 0,0.57843 0,0.57843 -0.57842,0 -0.57842,0 0,-0.57843 z m 65.94001,0 0,-0.57843 0.57842,0 0.57843,0 0,0.57843 0,0.57843 -0.57843,0 -0.57842,0 0,-0.57843 z m -107.58634,-3.47052 0,-0.57843 0.57842,0 0.57842,0 0,0.57843 0,0.57844 -0.57842,0 -0.57842,0 0,-0.57844 z m 6.94106,0 0,-0.57843 0.57842,0 0.57842,0 0,0.57843 0,0.57844 -0.57842,0 -0.57842,0 0,-0.57844 z m 3.47052,0 0,-0.57843 0.57843,0 0.57842,0 0,0.57843 0,0.57844 -0.57842,0 -0.57843,0 0,-0.57844 z m 3.47053,0 0,-0.57843 0.57842,0 0.57842,0 0,0.57843 0,0.57844 -0.57842,0 -0.57842,0 0,-0.57844 z m 3.47053,0 0,-0.57843 0.57842,0 0.57842,0 0,0.57843 0,0.57844 -0.57842,0 -0.57842,0 0,-0.57844 z m 2.31369,-3.47053 0,-1.73526 1.73525,0 1.73527,0 0,1.73526 0,1.73527 -1.73527,0 -1.73525,0 0,-1.73527 z m -16.1958,0 0,-0.57843 0.57842,0 0.57842,0 0,0.57843 0,0.5784 -0.57842,0 -0.57842,0 0,-0.5784 z m 3.47053,0 0,-0.57843 0.57842,0 0.57842,0 0,0.57843 0,0.5784 -0.57842,0 -0.57842,0 0,-0.5784 z m 3.47052,0 0,-0.57843 0.57843,0 0.57842,0 0,0.57843 0,0.5784 -0.57842,0 -0.57843,0 0,-0.5784 z m 3.47053,0 0,-0.57843 0.57842,0 0.57842,0 0,0.57843 0,0.5784 -0.57842,0 -0.57842,0 0,-0.5784 z m 104.11581,0 0,-0.57843 0.57842,0 0.57843,0 0,0.57843 0,0.5784 -0.57843,0 -0.57842,0 0,-0.5784 z m -114.52739,-3.47053 0,-0.57843 0.57842,0 0.57842,0 0,0.57843 0,0.5784 -0.57842,0 -0.57842,0 0,-0.5784 z m 10.41158,0 0,-0.57843 0.57842,0 0.57842,0 0,0.57843 0,0.5784 -0.57842,0 -0.57842,0 0,-0.5784 z m 3.47053,0 0,-0.57843 0.57842,0 0.57842,0 0,0.57843 0,0.5784 -0.57842,0 -0.57842,0 0,-0.5784 z m 6.94105,0 0,-0.57843 0.57842,0 0.57842,0 0,0.57843 0,0.5784 -0.57842,0 -0.57842,0 0,-0.5784 z m 93.70423,0 0,-0.57843 0.57842,0 0.57843,0 0,0.57843 0,0.5784 -0.57843,0 -0.57842,0 0,-0.5784 z m -98.33159,-3.47051 0,-1.73527 1.73525,0 1.73527,0 0,1.73527 0,1.73526 -1.73527,0 -1.73525,0 0,-1.73526 z m 80.97896,1.15683 0,-0.57844 1.73527,0 1.73526,0 0,-1.15683 0,-1.15683 0.57842,0 0.57841,0 0,1.15683 0,1.15683 -0.57841,0 -0.57842,0 0,0.57844 0,0.57843 -1.73526,0 -1.73527,0 0,-0.57843 z m -100.64529,-1.15683 0,-0.57844 0.57842,0 0.57842,0 0,0.57844 0,0.57839 -0.57842,0 -0.57842,0 0,-0.57839 z m 3.47053,0 0,-0.57844 0.57842,0 0.57842,0 0,0.57844 0,0.57839 -0.57842,0 -0.57842,0 0,-0.57839 z m 3.47053,0 0,-0.57844 0.57842,0 0.57842,0 0,0.57844 0,0.57839 -0.57842,0 -0.57842,0 0,-0.57839 z m 3.47052,0 0,-0.57844 0.57843,0 0.57842,0 0,0.57844 0,0.57839 -0.57842,0 -0.57843,0 0,-0.57839 z m 3.47053,0 0,-0.57844 0.57842,0 0.57842,0 0,0.57844 0,0.57839 -0.57842,0 -0.57842,0 0,-0.57839 z m 3.47053,0 0,-0.57844 0.57842,0 0.57842,0 0,0.57844 0,0.57839 -0.57842,0 -0.57842,0 0,-0.57839 z m 6.94105,0 0,-0.57844 0.57842,0 0.57842,0 0,0.57844 0,0.57839 -0.57842,0 -0.57842,0 0,-0.57839 z m 6.94106,0 0,-0.57844 0.57842,0 0.57842,0 0,0.57844 0,0.57839 -0.57842,0 -0.57842,0 0,-0.57839 z m 3.47053,0 0,-0.57844 0.57841,0 0.57842,0 0,0.57844 0,0.57839 -0.57842,0 -0.57841,0 0,-0.57839 z m 83.29264,0 0,-0.57844 0.57842,0 0.57843,0 0,0.57844 0,0.57839 -0.57843,0 -0.57842,0 0,-0.57839 z m -16.19579,-1.73527 0,-1.15687 -0.57842,0 -0.57842,0 0,-0.57839 0,-0.57844 0.57842,0 0.57842,0 0,0.57844 0,0.57839 0.57843,0 0.57841,0 0,-0.57839 0,-0.57844 0.57842,0 0.57843,0 0,0.57844 0,0.57839 -0.57843,0 -0.57842,0 0,1.15687 0,1.15683 -0.57841,0 -0.57843,0 0,-1.15683 z m -98.3316,-1.73526 0,-0.57844 0.57842,0 0.57842,0 0,0.57844 0,0.57839 -0.57842,0 -0.57842,0 0,-0.57839 z m 6.94105,0 0,-0.57844 0.57843,0 0.57842,0 0,0.57844 0,0.57839 -0.57842,0 -0.57843,0 0,-0.57839 z m 3.47053,0 0,-0.57844 0.57842,0 0.57842,0 0,0.57844 0,0.57839 -0.57842,0 -0.57842,0 0,-0.57839 z m 10.41158,0 0,-0.57844 0.57842,0 0.57842,0 0,0.57844 0,0.57839 -0.57842,0 -0.57842,0 0,-0.57839 z m 17.35264,0 0,-0.57844 0.57842,0 0.57842,0 0,0.57844 0,0.57839 -0.57842,0 -0.57842,0 0,-0.57839 z m -21.98,-3.47053 0,-1.73526 1.73525,0 1.73527,0 0,1.73526 0,1.73526 -1.73527,0 -1.73525,0 0,-1.73526 z m -12.72527,0 0,-0.57843 0.57842,0 0.57842,0 0,0.57843 0,0.57839 -0.57842,0 -0.57842,0 0,-0.57839 z m 3.47052,0 0,-0.57843 0.57843,0 0.57842,0 0,0.57843 0,0.57839 -0.57842,0 -0.57843,0 0,-0.57839 z m 13.88211,0 0,-0.57843 0.57842,0 0.57842,0 0,0.57843 0,0.57839 -0.57842,0 -0.57842,0 0,-0.57839 z m 6.94106,0 0,-0.57843 0.57842,0 0.57842,0 0,0.57843 0,0.57839 -0.57842,0 -0.57842,0 0,-0.57839 z m 3.47053,0 0,-0.57843 0.57841,0 0.57842,0 0,0.57843 0,0.57839 -0.57842,0 -0.57841,0 0,-0.57839 z m 3.47052,0 0,-0.57843 0.57842,0 0.57843,0 0,0.57843 0,0.57839 -0.57843,0 -0.57842,0 0,-0.57839 z m 6.94105,0 0,-0.57843 0.57843,0 0.57841,0 0,0.57843 0,0.57839 -0.57841,0 -0.57843,0 0,-0.57839 z m 3.47053,0 0,-0.57843 0.57842,0 0.57842,0 0,0.57843 0,0.57839 -0.57842,0 -0.57842,0 0,-0.57839 z m 3.47053,0 0,-0.57843 0.57842,0 0.57842,0 0,0.57843 0,0.57839 -0.57842,0 -0.57842,0 0,-0.57839 z m 52.05791,0 0,-0.57843 0.57842,0 0.57841,0 0,0.57843 0,0.57839 -0.57841,0 -0.57842,0 0,-0.57839 z m -104.11582,-3.47054 0,-0.57842 0.57842,0 0.57842,0 0,0.57842 0,0.57842 -0.57842,0 -0.57842,0 0,-0.57842 z m 6.94106,0 0,-0.57842 0.57842,0 0.57842,0 0,0.57842 0,0.57842 -0.57842,0 -0.57842,0 0,-0.57842 z m 6.94105,0 0,-0.57842 0.57842,0 0.57842,0 0,0.57842 0,0.57842 -0.57842,0 -0.57842,0 0,-0.57842 z m 13.8821,0 0,-0.57842 0.57843,0 0.57842,0 0,0.57842 0,0.57842 -0.57842,0 -0.57843,0 0,-0.57842 z m 3.47054,0 0,-0.57842 0.57842,0 0.57842,0 0,0.57842 0,0.57842 -0.57842,0 -0.57842,0 0,-0.57842 z m 3.47053,0 0,-0.57842 0.57841,0 0.57842,0 0,0.57842 0,0.57842 -0.57842,0 -0.57841,0 0,-0.57842 z m 17.35263,0 0,-0.57842 0.57842,0 0.57842,0 0,0.57842 0,0.57842 -0.57842,0 -0.57842,0 0,-0.57842 z m 3.47052,0 0,-0.57842 0.57843,0 0.57842,0 0,0.57842 0,0.57842 -0.57842,0 -0.57843,0 0,-0.57842 z m 62.46949,0 0,-0.57842 0.57842,0 0.57843,0 0,0.57842 0,0.57842 -0.57843,0 -0.57842,0 0,-0.57842 z m -98.33159,-3.47052 0,-1.73527 1.73525,0 1.73527,0 0,1.73527 0,1.73525 -1.73527,0 -1.73525,0 0,-1.73525 z m -19.66633,0 0,-0.57843 0.57842,0 0.57842,0 0,0.57843 0,0.57842 -0.57842,0 -0.57842,0 0,-0.57842 z m 3.47053,0 0,-0.57843 0.57842,0 0.57842,0 0,0.57843 0,0.57842 -0.57842,0 -0.57842,0 0,-0.57842 z m 6.94105,0 0,-0.57843 0.57843,0 0.57842,0 0,0.57843 0,0.57842 -0.57842,0 -0.57843,0 0,-0.57842 z m 13.88211,0 0,-0.57843 0.57842,0 0.57842,0 0,0.57843 0,0.57842 -0.57842,0 -0.57842,0 0,-0.57842 z m 6.94106,0 0,-0.57843 0.57842,0 0.57842,0 0,0.57843 0,0.57842 -0.57842,0 -0.57842,0 0,-0.57842 z m 6.94105,0 0,-0.57843 0.57842,0 0.57843,0 0,0.57843 0,0.57842 -0.57843,0 -0.57842,0 0,-0.57842 z m 6.94105,0 0,-0.57843 0.57843,0 0.57841,0 0,0.57843 0,0.57842 -0.57841,0 -0.57843,0 0,-0.57842 z m 3.47053,0 0,-0.57843 0.57842,0 0.57842,0 0,0.57843 0,0.57842 -0.57842,0 -0.57842,0 0,-0.57842 z m 6.94105,0 0,-0.57843 0.57843,0 0.57842,0 0,0.57843 0,0.57842 -0.57842,0 -0.57843,0 0,-0.57842 z m 3.47053,0 0,-0.57843 0.57842,0 0.57842,0 0,0.57843 0,0.57842 -0.57842,0 -0.57842,0 0,-0.57842 z m 35.86211,-2.31369 0,-0.57843 0.57843,0 0.57842,0 0,-0.57842 0,-0.57842 1.15684,0 1.15685,0 0,0.57842 0,0.57842 1.73526,0 1.73526,0 0,0.57843 0,0.57842 -2.31368,0 -2.31369,0 0,-0.57842 0,-0.57843 -0.57842,0 -0.57842,0 0,0.57843 0,0.57842 -0.57842,0 -0.57843,0 0,-0.57842 z m -94.86107,-1.15685 0,-0.57842 0.57842,0 0.57842,0 0,0.57842 0,0.57842 -0.57842,0 -0.57842,0 0,-0.57842 z m 10.41158,0 0,-0.57842 0.57843,0 0.57842,0 0,0.57842 0,0.57842 -0.57842,0 -0.57843,0 0,-0.57842 z m 6.94106,0 0,-0.57842 0.57842,0 0.57842,0 0,0.57842 0,0.57842 -0.57842,0 -0.57842,0 0,-0.57842 z m 6.94105,0 0,-0.57842 0.57842,0 0.57842,0 0,0.57842 0,0.57842 -0.57842,0 -0.57842,0 0,-0.57842 z m 3.47052,0 0,-0.57842 0.57843,0 0.57842,0 0,0.57842 0,0.57842 -0.57842,0 -0.57843,0 0,-0.57842 z m 6.94107,0 0,-0.57842 0.57841,0 0.57842,0 0,0.57842 0,0.57842 -0.57842,0 -0.57841,0 0,-0.57842 z m 6.94105,0 0,-0.57842 0.57842,0 0.57842,0 0,0.57842 0,0.57842 -0.57842,0 -0.57842,0 0,-0.57842 z m 3.47052,0 0,-0.57842 0.57843,0 0.57841,0 0,0.57842 0,0.57842 -0.57841,0 -0.57843,0 0,-0.57842 z m 6.94106,0 0,-0.57842 0.57842,0 0.57842,0 0,0.57842 0,0.57842 -0.57842,0 -0.57842,0 0,-0.57842 z m 6.94105,0 0,-0.57842 0.57842,0 0.57842,0 0,0.57842 0,0.57842 -0.57842,0 -0.57842,0 0,-0.57842 z m 6.94106,0 0,-0.57842 0.57842,0 0.57842,0 0,0.57842 0,0.57842 -0.57842,0 -0.57842,0 0,-0.57842 z m 41.64632,0 0,-0.57842 0.57842,0 0.57843,0 0,0.57842 0,0.57842 -0.57843,0 -0.57842,0 0,-0.57842 z m 10.41158,0 0,-0.57842 0.57842,0 0.57843,0 0,0.57842 0,0.57842 -0.57843,0 -0.57842,0 0,-0.57842 z m -32.39158,-1.15684 0,-0.57843 0.57842,0 0.57842,0 0,0.57843 0,0.57842 -0.57842,0 -0.57842,0 0,-0.57842 z m 2.31368,0 0,-0.57843 0.57842,0 0.57843,0 0,0.57843 0,0.57842 -0.57843,0 -0.57842,0 0,-0.57842 z m -78.66528,-2.31369 0,-1.73525 3.47052,0 3.47053,0 0,1.73525 0,1.73526 -3.47053,0 -3.47052,0 0,-1.73526 z m 10.41159,0 0,-1.73525 3.47052,0 3.47053,0 0,1.73525 0,1.73526 -3.47053,0 -3.47052,0 0,-1.73526 z m 93.70423,0 0,-1.73525 3.47052,0 3.47053,0 0,1.73525 0,1.73526 -3.47053,0 -3.47052,0 0,-1.73526 z m -82.13581,0 0,-0.57842 0.57842,0 0.57842,0 0,0.57842 0,0.57843 -0.57842,0 -0.57842,0 0,-0.57843 z m 3.47053,0 0,-0.57842 0.57841,0 0.57842,0 0,0.57842 0,0.57843 -0.57842,0 -0.57841,0 0,-0.57843 z m 3.47052,0 0,-0.57842 0.57842,0 0.57843,0 0,0.57842 0,0.57843 -0.57843,0 -0.57842,0 0,-0.57843 z m 3.47053,0 0,-0.57842 0.57842,0 0.57842,0 0,0.57842 0,0.57843 -0.57842,0 -0.57842,0 0,-0.57843 z m 6.94105,0 0,-0.57842 0.57842,0 0.57842,0 0,0.57842 0,0.57843 -0.57842,0 -0.57842,0 0,-0.57843 z m 3.47053,0 0,-0.57842 0.57842,0 0.57842,0 0,0.57842 0,0.57843 -0.57842,0 -0.57842,0 0,-0.57843 z m 6.94105,0 0,-0.57842 0.57842,0 0.57842,0 0,0.57842 0,0.57843 -0.57842,0 -0.57842,0 0,-0.57843 z m 6.94106,0 0,-0.57842 0.57842,0 0.57842,0 0,0.57842 0,0.57843 -0.57842,0 -0.57842,0 0,-0.57843 z m 10.41158,0 0,-0.57842 0.57842,0 0.57842,0 0,0.57842 0,0.57843 -0.57842,0 -0.57842,0 0,-0.57843 z m 3.47053,0 0,-0.57842 0.57842,0 0.57842,0 0,0.57842 0,0.57843 -0.57842,0 -0.57842,0 0,-0.57843 z m 3.47052,0 0,-0.57842 0.57842,0 0.57843,0 0,0.57842 0,0.57843 -0.57843,0 -0.57842,0 0,-0.57843 z m 3.47053,0 0,-0.57842 0.57842,0 0.57842,0 0,0.57842 0,0.57843 -0.57842,0 -0.57842,0 0,-0.57843 z m 3.47053,0 0,-0.57842 0.57842,0 0.57842,0 0,0.57842 0,0.57843 -0.57842,0 -0.57842,0 0,-0.57843 z m -58.99896,-3.47052 0,-0.57842 0.57842,0 0.57842,0 0,0.57842 0,0.57842 -0.57842,0 -0.57842,0 0,-0.57842 z m 10.41158,0 0,-0.57842 0.57842,0 0.57842,0 0,0.57842 0,0.57842 -0.57842,0 -0.57842,0 0,-0.57842 z m 10.41158,0 0,-0.57842 0.57842,0 0.57842,0 0,0.57842 0,0.57842 -0.57842,0 -0.57842,0 0,-0.57842 z m 13.88211,0 0,-0.57842 0.57842,0 0.57842,0 0,0.57842 0,0.57842 -0.57842,0 -0.57842,0 0,-0.57842 z m 6.94105,0 0,-0.57842 0.57842,0 0.57843,0 0,0.57842 0,0.57842 -0.57843,0 -0.57842,0 0,-0.57842 z m 3.47053,0 0,-0.57842 0.57842,0 0.57842,0 0,0.57842 0,0.57842 -0.57842,0 -0.57842,0 0,-0.57842 z m 13.88211,0 0,-0.57842 0.57842,0 0.57842,0 0,0.57842 0,0.57842 -0.57842,0 -0.57842,0 0,-0.57842 z m 3.47053,0 0,-0.57842 0.57841,0 0.57842,0 0,0.57842 0,0.57842 -0.57842,0 -0.57841,0 0,-0.57842 z m 3.47052,0 0,-0.57842 0.57843,0 0.57842,0 0,0.57842 0,0.57842 -0.57842,0 -0.57843,0 0,-0.57842 z m -98.3316,-13.88211 0,-12.14684 12.14685,0 12.14684,0 0,12.14684 0,12.14684 -12.14684,0 -12.14685,0 0,-12.14684 z m 20.82317,0 0,-8.67632 -8.67632,0 -8.67632,0 0,8.67632 0,8.67632 8.67632,0 8.67632,0 0,-8.67632 z m -13.88212,0 0,-5.20579 5.2058,0 5.20578,0 0,5.20579 0,5.20579 -5.20578,0 -5.2058,0 0,-5.20579 z m 20.82317,10.41158 0,-1.73526 1.73526,0 1.73526,0 0,1.73526 0,1.73526 -1.73526,0 -1.73526,0 0,-1.73526 z m 6.94105,0 0,-1.73526 1.73526,0 1.73527,0 0,1.73526 0,1.73526 -1.73527,0 -1.73526,0 0,-1.73526 z m 6.94105,0 0,-1.73526 1.73527,0 1.73526,0 0,1.73526 0,1.73526 -1.73526,0 -1.73527,0 0,-1.73526 z m 6.94106,0 0,-1.73526 1.73526,0 1.73526,0 0,1.73526 0,1.73526 -1.73526,0 -1.73526,0 0,-1.73526 z m 6.94106,0 0,-1.73526 1.73526,0 1.73525,0 0,1.73526 0,1.73526 -1.73525,0 -1.73526,0 0,-1.73526 z m 6.94105,0 0,-1.73526 1.73526,0 1.73526,0 0,1.73526 0,1.73526 -1.73526,0 -1.73526,0 0,-1.73526 z m 6.94105,0 0,-1.73526 1.73526,0 1.73527,0 0,1.73526 0,1.73526 -1.73527,0 -1.73526,0 0,-1.73526 z m 6.94105,0 0,-1.73526 1.73527,0 1.73527,0 0,1.73526 0,1.73526 -1.73527,0 -1.73527,0 0,-1.73526 z m 6.94106,0 0,-1.73526 1.73526,0 1.73527,0 0,1.73526 0,1.73526 -1.73527,0 -1.73526,0 0,-1.73526 z m 6.94106,0 0,-1.73526 1.73526,0 1.73526,0 0,1.73526 0,1.73526 -1.73526,0 -1.73526,0 0,-1.73526 z m 6.94105,0 0,-1.73526 1.73527,0 1.73526,0 0,1.73526 0,1.73526 -1.73526,0 -1.73527,0 0,-1.73526 z m 6.94105,-10.41158 0,-12.14684 12.14685,0 12.14684,0 0,12.14684 0,12.14684 -12.14684,0 -12.14685,0 0,-12.14684 z m 20.82317,0 0,-8.67632 -8.67632,0 -8.67632,0 0,8.67632 0,8.67632 8.67632,0 8.67632,0 0,-8.67632 z m -13.88211,0 0,-5.20579 5.20579,0 5.20579,0 0,5.20579 0,5.20579 -5.20579,0 -5.20579,0 0,-5.20579 z m -78.66528,6.94106 0,-0.57843 0.57842,0 0.57842,0 0,0.57843 0,0.57841 -0.57842,0 -0.57842,0 0,-0.57841 z m 3.47053,0 0,-0.57843 0.57841,0 0.57842,0 0,0.57843 0,0.57841 -0.57842,0 -0.57841,0 0,-0.57841 z m 6.94105,0 0,-0.57843 0.57842,0 0.57842,0 0,0.57843 0,0.57841 -0.57842,0 -0.57842,0 0,-0.57841 z m 3.47052,0 0,-0.57843 0.57843,0 0.57841,0 0,0.57843 0,0.57841 -0.57841,0 -0.57843,0 0,-0.57841 z m 6.94106,0 0,-0.57843 0.57842,0 0.57842,0 0,0.57843 0,0.57841 -0.57842,0 -0.57842,0 0,-0.57841 z m 6.94105,0 0,-0.57843 0.57842,0 0.57842,0 0,0.57843 0,0.57841 -0.57842,0 -0.57842,0 0,-0.57841 z m 6.94106,0 0,-0.57843 0.57842,0 0.57842,0 0,0.57843 0,0.57841 -0.57842,0 -0.57842,0 0,-0.57841 z m 3.47053,0 0,-0.57843 0.57841,0 0.57842,0 0,0.57843 0,0.57841 -0.57842,0 -0.57841,0 0,-0.57841 z m 10.41158,0 0,-0.57843 0.57842,0 0.57842,0 0,0.57843 0,0.57841 -0.57842,0 -0.57842,0 0,-0.57841 z m 6.94105,0 0,-0.57843 0.57842,0 0.57842,0 0,0.57843 0,0.57841 -0.57842,0 -0.57842,0 0,-0.57841 z m 3.47053,0 0,-0.57843 0.57842,0 0.57842,0 0,0.57843 0,0.57841 -0.57842,0 -0.57842,0 0,-0.57841 z m -55.52843,-3.47053 0,-0.57842 0.57841,0 0.57842,0 0,0.57842 0,0.57842 -0.57842,0 -0.57841,0 0,-0.57842 z m 3.47052,0 0,-0.57842 0.57842,0 0.57843,0 0,0.57842 0,0.57842 -0.57843,0 -0.57842,0 0,-0.57842 z m 6.94105,0 0,-0.57842 0.57843,0 0.57841,0 0,0.57842 0,0.57842 -0.57841,0 -0.57843,0 0,-0.57842 z m 6.94106,0 0,-0.57842 0.57842,0 0.57842,0 0,0.57842 0,0.57842 -0.57842,0 -0.57842,0 0,-0.57842 z m 6.94105,0 0,-0.57842 0.57842,0 0.57842,0 0,0.57842 0,0.57842 -0.57842,0 -0.57842,0 0,-0.57842 z m 3.47053,0 0,-0.57842 0.57842,0 0.57842,0 0,0.57842 0,0.57842 -0.57842,0 -0.57842,0 0,-0.57842 z m 3.47053,0 0,-0.57842 0.57842,0 0.57842,0 0,0.57842 0,0.57842 -0.57842,0 -0.57842,0 0,-0.57842 z m 3.47053,0 0,-0.57842 0.57841,0 0.57842,0 0,0.57842 0,0.57842 -0.57842,0 -0.57841,0 0,-0.57842 z m 6.94105,0 0,-0.57842 0.57842,0 0.57842,0 0,0.57842 0,0.57842 -0.57842,0 -0.57842,0 0,-0.57842 z m 3.47053,0 0,-0.57842 0.57842,0 0.57842,0 0,0.57842 0,0.57842 -0.57842,0 -0.57842,0 0,-0.57842 z m 6.94105,0 0,-0.57842 0.57842,0 0.57842,0 0,0.57842 0,0.57842 -0.57842,0 -0.57842,0 0,-0.57842 z m 3.47053,0 0,-0.57842 0.57842,0 0.57842,0 0,0.57842 0,0.57842 -0.57842,0 -0.57842,0 0,-0.57842 z m 6.94105,0 0,-0.57842 0.57843,0 0.57842,0 0,0.57842 0,0.57842 -0.57842,0 -0.57843,0 0,-0.57842 z m -70.56738,-5.20579 0,-3.47053 1.73526,0 1.73526,0 0,3.47053 0,3.47052 -1.73526,0 -1.73526,0 0,-3.47052 z m 4.62737,1.73526 0,-0.57842 0.57842,0 0.57842,0 0,0.57842 0,0.57842 -0.57842,0 -0.57842,0 0,-0.57842 z m 3.47053,0 0,-0.57842 0.57841,0 0.57842,0 0,0.57842 0,0.57842 -0.57842,0 -0.57841,0 0,-0.57842 z m 3.47052,0 0,-0.57842 0.57842,0 0.57843,0 0,0.57842 0,0.57842 -0.57843,0 -0.57842,0 0,-0.57842 z m 6.94105,0 0,-0.57842 0.57843,0 0.57841,0 0,0.57842 0,0.57842 -0.57841,0 -0.57843,0 0,-0.57842 z m 27.76422,0 0,-0.57842 0.57842,0 0.57843,0 0,0.57842 0,0.57842 -0.57843,0 -0.57842,0 0,-0.57842 z m 3.47053,0 0,-0.57842 0.57842,0 0.57842,0 0,0.57842 0,0.57842 -0.57842,0 -0.57842,0 0,-0.57842 z m 6.94105,0 0,-0.57842 0.57842,0 0.57843,0 0,0.57842 0,0.57842 -0.57843,0 -0.57842,0 0,-0.57842 z m 10.41159,0 0,-0.57842 0.57841,0 0.57842,0 0,0.57842 0,0.57842 -0.57842,0 -0.57841,0 0,-0.57842 z m -62.46949,-3.47053 0,-0.57842 0.57842,0 0.57842,0 0,0.57842 0,0.57842 -0.57842,0 -0.57842,0 0,-0.57842 z m 10.41158,0 0,-0.57842 0.57842,0 0.57842,0 0,0.57842 0,0.57842 -0.57842,0 -0.57842,0 0,-0.57842 z m 6.94105,0 0,-0.57842 0.57842,0 0.57842,0 0,0.57842 0,0.57842 -0.57842,0 -0.57842,0 0,-0.57842 z m 3.47053,0 0,-0.57842 0.57842,0 0.57842,0 0,0.57842 0,0.57842 -0.57842,0 -0.57842,0 0,-0.57842 z m 3.47052,0 0,-0.57842 0.57843,0 0.57842,0 0,0.57842 0,0.57842 -0.57842,0 -0.57843,0 0,-0.57842 z m 3.47053,0 0,-0.57842 0.57842,0 0.57842,0 0,0.57842 0,0.57842 -0.57842,0 -0.57842,0 0,-0.57842 z m 3.47053,0 0,-0.57842 0.57842,0 0.57842,0 0,0.57842 0,0.57842 -0.57842,0 -0.57842,0 0,-0.57842 z m 17.35264,0 0,-0.57842 0.57842,0 0.57842,0 0,0.57842 0,0.57842 -0.57842,0 -0.57842,0 0,-0.57842 z m 3.47052,0 0,-0.57842 0.57842,0 0.57843,0 0,0.57842 0,0.57842 -0.57843,0 -0.57842,0 0,-0.57842 z m -52.0579,-3.47053 0,-0.57841 0.57842,0 0.57842,0 0,0.57841 0,0.57843 -0.57842,0 -0.57842,0 0,-0.57843 z m 6.94105,0 0,-0.57841 0.57842,0 0.57843,0 0,0.57841 0,0.57843 -0.57843,0 -0.57842,0 0,-0.57843 z m 3.47053,0 0,-0.57841 0.57842,0 0.57842,0 0,0.57841 0,0.57843 -0.57842,0 -0.57842,0 0,-0.57843 z m 6.94105,0 0,-0.57841 0.57842,0 0.57842,0 0,0.57841 0,0.57843 -0.57842,0 -0.57842,0 0,-0.57843 z m 3.47053,0 0,-0.57841 0.57842,0 0.57842,0 0,0.57841 0,0.57843 -0.57842,0 -0.57842,0 0,-0.57843 z m 3.47052,0 0,-0.57841 0.57843,0 0.57842,0 0,0.57841 0,0.57843 -0.57842,0 -0.57843,0 0,-0.57843 z m 20.82317,0 0,-0.57841 0.57842,0 0.57842,0 0,0.57841 0,0.57843 -0.57842,0 -0.57842,0 0,-0.57843 z m 20.82316,0 0,-0.57841 0.57843,0 0.57842,0 0,0.57841 0,0.57843 -0.57842,0 -0.57843,0 0,-0.57843 z m -58.99896,-3.47052 0,-0.57842 0.57842,0 0.57843,0 0,0.57842 0,0.57842 -0.57843,0 -0.57842,0 0,-0.57842 z m 10.41158,0 0,-0.57842 0.57842,0 0.57842,0 0,0.57842 0,0.57842 -0.57842,0 -0.57842,0 0,-0.57842 z m 3.47053,0 0,-0.57842 0.57842,0 0.57842,0 0,0.57842 0,0.57842 -0.57842,0 -0.57842,0 0,-0.57842 z m 3.47052,0 0,-0.57842 0.57843,0 0.57842,0 0,0.57842 0,0.57842 -0.57842,0 -0.57843,0 0,-0.57842 z m 3.47053,0 0,-0.57842 0.57842,0 0.57842,0 0,0.57842 0,0.57842 -0.57842,0 -0.57842,0 0,-0.57842 z m 20.82317,0 0,-0.57842 0.57842,0 0.57842,0 0,0.57842 0,0.57842 -0.57842,0 -0.57842,0 0,-0.57842 z m 10.41158,0 0,-0.57842 0.57842,0 0.57842,0 0,0.57842 0,0.57842 -0.57842,0 -0.57842,0 0,-0.57842 z"
       id="path4284"
       inkscape:connector-curvature="0" />
    <text
       sodipodi:linespacing="125%"
       id="text4785"
       y="952.64484"
       x="873.41138"
       style="font-style:normal;font-weight:normal;font-size:27.41301727px;line-height:125%;font-family:sans-serif;letter-spacing:0px;word-spacing:0px;fill:#000000;fill-opacity:1;stroke:none;stroke-width:1px;stroke-linecap:butt;stroke-linejoin:miter;stroke-opacity:1"
       xml:space="preserve"><tspan
         y="952.64484"
         x="873.41138"
         id="tspan4787"
         sodipodi:role="line">年       月</tspan></text>
    <text
       xml:space="preserve"
       style="font-style:normal;font-weight:normal;font-size:27.41301727px;line-height:125%;font-family:sans-serif;letter-spacing:0px;word-spacing:0px;fill:#000000;fill-opacity:1;stroke:none;stroke-width:1px;stroke-linecap:butt;stroke-linejoin:miter;stroke-opacity:1"
       x="762.78986"
       y="896.21625"
       id="text4789"
       sodipodi:linespacing="125%"><tspan
         sodipodi:role="line"
         id="tspan4791"
         x="762.78986"
         y="896.21625">会长: </tspan></text>
    <text
       sodipodi:linespacing="125%"
       id="text4795"
       y="374.27646"
       x="457.20691"
       style="font-style:normal;font-weight:normal;font-size:27.41301727px;line-height:125%;font-family:sans-serif;letter-spacing:0px;word-spacing:0px;fill:#193c4b;fill-opacity:1;stroke:none;stroke-width:1px;stroke-linecap:butt;stroke-linejoin:miter;stroke-opacity:1;"
       xml:space="preserve"><tspan
         y="374.27646"
         x="457.20691"
         id="tspan4797"
         sodipodi:role="line">普通文艺协会</tspan></text>
    <text
       sodipodi:linespacing="125%"
       id="text5570"
       y="958.35907"
       x="67.882751"
       style="font-style:normal;font-weight:normal;font-size:27.41301727px;line-height:125%;font-family:sans-serif;letter-spacing:0px;word-spacing:0px;fill:#000000;fill-opacity:1;stroke:none;stroke-width:1px;stroke-linecap:butt;stroke-linejoin:miter;stroke-opacity:1"
       xml:space="preserve"><tspan
         y="958.35907"
         x="67.882751"
         id="tspan5572"
         sodipodi:role="line"
         style="font-size:20px">证书编号: <tspan
   style="fill:#cccccc;fill-opacity:1"
   id="tspan5574">然而并没有什么编号</tspan></tspan></text>
    <text
       xml:space="preserve"
       style="color:#000000;font-style:normal;font-variant:normal;font-weight:normal;font-stretch:normal;font-size:20px;line-height:125%;font-family:'Times New Roman';-inkscape-font-specification:'Times New Roman';text-indent:0;text-align:start;text-decoration:none;text-decoration-line:none;text-decoration-style:solid;text-decoration-color:#000000;letter-spacing:0px;word-spacing:0px;text-transform:none;direction:ltr;block-progression:tb;writing-mode:lr-tb;baseline-shift:baseline;text-anchor:start;white-space:normal;clip-rule:nonzero;display:inline;overflow:visible;visibility:visible;opacity:1;isolation:auto;mix-blend-mode:normal;color-interpolation:sRGB;color-interpolation-filters:linearRGB;solid-color:#000000;solid-opacity:1;fill:#193c4b;fill-opacity:1;fill-rule:nonzero;stroke:none;stroke-width:1px;stroke-linecap:butt;stroke-linejoin:miter;stroke-miterlimit:4;stroke-dasharray:none;stroke-dashoffset:0;stroke-opacity:1;color-rendering:auto;image-rendering:auto;shape-rendering:auto;text-rendering:auto;enable-background:accumulate;"
       x="67.680214"
       y="1006.9053"
       id="text4168"
       sodipodi:linespacing="125%"><tspan
         sodipodi:role="line"
         id="tspan4170"
         x="67.680214"
         y="1006.9053"
         style="font-style:normal;font-variant:normal;font-weight:normal;font-stretch:normal;font-family:monospace;-inkscape-font-specification:monospace;fill:#193c4b;fill-opacity:1;">=====================================================================&gt; 99.9%</tspan></text>
  </g>
</svg>
