<?xml version="1.0" encoding="UTF-8" standalone="no"?>
<!-- Created with Inkscape (http://www.inkscape.org/) -->

<svg
   xmlns:dc="http://purl.org/dc/elements/1.1/"
   xmlns:cc="http://creativecommons.org/ns#"
   xmlns:rdf="http://www.w3.org/1999/02/22-rdf-syntax-ns#"
   xmlns:svg="http://www.w3.org/2000/svg"
   xmlns="http://www.w3.org/2000/svg"
   xmlns:sodipodi="http://sodipodi.sourceforge.net/DTD/sodipodi-0.dtd"
   xmlns:inkscape="http://www.inkscape.org/namespaces/inkscape"
   width="345"
   height="345"
   id="svg4262"
   version="1.1"
   inkscape:version="0.91 r13725"
   sodipodi:docname="logo-dead.svg"
   inkscape:export-filename="/home/bigeagle/Dropbox/TUNA/logo-flat.png"
   inkscape:export-xdpi="15.018864"
   inkscape:export-ydpi="15.018864">
  <defs
     id="defs4264">
    <linearGradient
       id="linearGradient9182">
      <stop
         style="stop-color:#55c7ff;stop-opacity:1;"
         offset="0"
         id="stop9184" />
      <stop
         style="stop-color:#2b69ff;stop-opacity:1;"
         offset="1"
         id="stop9186" />
    </linearGradient>
  </defs>
  <sodipodi:namedview
     id="base"
     pagecolor="#ffffff"
     bordercolor="#666666"
     borderopacity="1.0"
     inkscape:pageopacity="0.0"
     inkscape:pageshadow="2"
     inkscape:zoom="0.7"
     inkscape:cx="72.861856"
     inkscape:cy="234.36472"
     inkscape:document-units="px"
     inkscape:current-layer="g4261"
     showgrid="false"
     inkscape:window-width="1916"
     inkscape:window-height="1032"
     inkscape:window-x="0"
     inkscape:window-y="22"
     inkscape:window-maximized="0"
     fit-margin-top="0"
     fit-margin-left="0"
     fit-margin-right="0"
     fit-margin-bottom="0"
     showguides="true"
     inkscape:guide-bbox="true" />
  <metadata
     id="metadata4267">
    <rdf:RDF>
      <cc:Work
         rdf:about="">
        <dc:format>image/svg+xml</dc:format>
        <dc:type
           rdf:resource="http://purl.org/dc/dcmitype/StillImage" />
        <dc:title />
      </cc:Work>
    </rdf:RDF>
  </metadata>
  <g
     inkscape:label="Layer 1"
     inkscape:groupmode="layer"
     id="layer1"
     transform="translate(-0.54368288,98.464137)">
    <g
       id="g4231"
       transform="matrix(-1,0,0,-1,352.69577,132.75437)">
      <g
         id="g4261"
         transform="matrix(0.5,0.8660254,-0.8660254,0.5,142.65093,-107.31385)">
        <path
           inkscape:export-ydpi="19.55286"
           inkscape:export-xdpi="19.55286"
           inkscape:export-filename="/home/bigeagle/workspace/tuna/mirror-web/static/img/logo-small.png"
           style="fill:#bee2e9;fill-opacity:1;stroke:none"
           d="M 89.708121,36.561229 C 73.443926,41.277394 64.43492,43.20572 50.996211,53.399294 41.450675,60.446831 31.811639,72.517902 31.811639,72.517902 c 0,0 15.137621,-7.743999 27.697432,-10.512703 12.559612,-2.768505 18.36237,-3.078464 22.292745,-2.753156 0.785199,-7.363676 5.89586,-16.228512 7.906305,-22.690814 z"
           id="path9214"
           inkscape:connector-curvature="0"
           sodipodi:nodetypes="cccccc" />
        <path
           inkscape:export-ydpi="19.55286"
           inkscape:export-xdpi="19.55286"
           inkscape:export-filename="/home/bigeagle/workspace/tuna/mirror-web/static/img/logo-small.png"
           style="fill:#19b5fe;fill-opacity:1;stroke:none"
           d="m 186.61591,-48.054865 c -9.2531,0.05382 -18.25594,1.228077 -25.79183,3.493271 -22.82827,6.862359 -37.19403,18.945987 -45.75523,26.224549 -16.578709,14.094875 -27.614075,38.729363 -32.6378,58.864756 -5.023925,20.135593 -4.241112,49.179077 3.294774,70.824799 7.535887,21.64552 27.856776,42.95338 41.527846,52.19974 17.90382,12.05751 39.81899,17.19227 60.42675,17.19227 -4.63083,-0.29202 -9.41802,-0.8047 -14.25654,-1.62235 -12.80052,-2.16334 -25.95933,-6.46091 -37.52884,-14.44869 -11.69702,-8.81779 -14.45487,-13.92445 -17.46915,-22.98542 -3.01427,-9.06098 -1.83697,-22.28319 1.49202,-30.58471 3.53211,-8.80783 15.51481,-20.761295 30.58638,-31.332401 15.07177,-10.571107 37.64283,-19.602982 59.24567,-27.657139 21.60263,-8.054157 39.65307,-19.399465 51.78537,-33.886224 11.25877,-13.4434625 11.81181,-33.076343 11.81181,-33.076343 0,0 -8.9348,-10.365996 -22.4501,-18.130127 -7.85717,-4.513844 -20.0959,-10.242012 -39.03339,-13.326854 -6.46522,-1.053064 -15.99464,-1.802946 -25.24774,-1.749127 z"
           id="path9177"
           inkscape:connector-curvature="0"
           sodipodi:nodetypes="scsssccscssssscsss" />
        <path
           inkscape:export-ydpi="19.55286"
           inkscape:export-xdpi="19.55286"
           inkscape:export-filename="/home/bigeagle/workspace/tuna/mirror-web/static/img/logo-small.png"
           style="fill:#1e8bc3;fill-opacity:1;stroke:none"
           d="m 164.30367,-15.853783 c 0,0 -10.35958,19.9239038 -21.76497,29.61357 -7.79709,6.624159 -14.4111,11.200992 -28.4498,16.366448 -12.55206,4.618294 -30.958193,8.123923 -30.958193,8.123923 0,0 3.151541,-13.47376 6.259912,-15.342685 8.201924,-4.931044 74.913051,-38.761256 74.913051,-38.761256 z"
           id="path9200"
           inkscape:connector-curvature="0"
           sodipodi:nodetypes="csscsc" />
        <path
           inkscape:export-ydpi="19.55286"
           inkscape:export-xdpi="19.55286"
           inkscape:export-filename="/home/bigeagle/workspace/tuna/mirror-web/static/img/logo-small.png"
           style="fill:#815cb7;fill-opacity:1;stroke:none"
           d="m 164.12821,-15.713653 c 0,0 -10.30209,16.01761898 -20.95928,24.5605354 C 132.51174,17.389599 114.74956,27.711941 92.013986,29.84777 69.27841,31.9834 49.74013,37.678478 36.596244,45.86539 23.452158,54.052102 13.150268,63.662833 13.150268,63.662833 c 0,0 11.367589,-22.780712 24.156375,-38.086521 C 50.09543,10.270502 72.424977,-2.227933 92.902035,-8.4167535 112.27957,-14.27309 145.1195,-14.293023 164.12821,-15.713653 Z"
           id="path9198"
           inkscape:connector-curvature="0"
           sodipodi:nodetypes="cssscssc" />
        <path
           inkscape:export-ydpi="19.55286"
           inkscape:export-xdpi="19.55286"
           inkscape:export-filename="/home/bigeagle/workspace/tuna/mirror-web/static/img/logo-small.png"
           style="fill:#bee2e9;fill-opacity:1;stroke:none"
           d="m 155.58213,74.221581 c -9.94679,9.966537 -11.22814,12.817564 -14.26708,22.188301 -4.16054,12.830518 -2.30905,31.857438 -2.30905,31.857438 0,0 -4.39369,-4.23538 -7.83489,-16.84464 -2.64425,-9.68828 -2.41229,-17.328822 -2.41229,-17.328822 0,0 3.10817,-5.367378 11.10121,-11.240459 7.99284,-5.87328 15.7221,-8.631818 15.7221,-8.631818 z"
           id="path9226"
           inkscape:connector-curvature="0"
           sodipodi:nodetypes="cscscsc" />
        <path
           inkscape:export-ydpi="19.55286"
           inkscape:export-xdpi="19.55286"
           inkscape:export-filename="/home/bigeagle/workspace/tuna/mirror-web/static/img/logo-small.png"
           style="fill:#815cb7;fill-opacity:1;stroke:none"
           d="m 228.33334,47.341832 c -0.0895,10.14434 0.53594,14.597388 -0.3555,26.848654 -0.83672,11.498592 -5.15084,20.492395 -5.15084,20.492395 0,0 0.17705,-9.254727 -1.24335,-16.729629 -1.421,-7.474903 -10.03551,-21.956878 -10.03551,-21.956878 0,0 1.99254,-0.244579 7.72109,-3.028432 6.55593,-3.186302 9.06411,-5.62611 9.06411,-5.62611 z"
           id="path9240"
           inkscape:connector-curvature="0"
           sodipodi:nodetypes="cscscsc" />
        <g
           id="g4146"
           transform="matrix(0.93480869,0.35515166,-0.35515166,0.93480869,9.0141145,-82.081365)">
          <path
             style="color:#000000;font-style:normal;font-variant:normal;font-weight:normal;font-stretch:normal;font-size:medium;line-height:normal;font-family:sans-serif;text-indent:0;text-align:start;text-decoration:none;text-decoration-line:none;text-decoration-style:solid;text-decoration-color:#000000;letter-spacing:normal;word-spacing:normal;text-transform:none;direction:ltr;block-progression:tb;writing-mode:lr-tb;baseline-shift:baseline;text-anchor:start;white-space:normal;clip-rule:nonzero;display:inline;overflow:visible;visibility:visible;opacity:1;isolation:auto;mix-blend-mode:normal;color-interpolation:sRGB;color-interpolation-filters:linearRGB;solid-color:#000000;solid-opacity:1;fill:#ffffff;fill-opacity:1;fill-rule:evenodd;stroke:none;stroke-width:4.5999999;stroke-linecap:butt;stroke-linejoin:miter;stroke-miterlimit:4;stroke-dasharray:none;stroke-dashoffset:0;stroke-opacity:1;color-rendering:auto;image-rendering:auto;shape-rendering:auto;text-rendering:auto;enable-background:accumulate"
             d="m 224.29548,-31.280379 c 3.66705,1.450542 10.16819,26.0283468 7.58578,29.5955013 -4.41389,-2.1111234 -10.36216,-25.4355283 -7.58578,-29.5955013 z"
             id="path4206"
             inkscape:connector-curvature="0"
             sodipodi:nodetypes="ccc" />
          <path
             sodipodi:nodetypes="ccc"
             inkscape:connector-curvature="0"
             id="path4210"
             d="m 213.28783,-12.722734 c 3.03117,2.522571 27.71675,-3.556523 29.60896,-7.533073 -3.96895,-2.861246 -27.28951,3.102061 -29.60896,7.533073 z"
             style="color:#000000;font-style:normal;font-variant:normal;font-weight:normal;font-stretch:normal;font-size:medium;line-height:normal;font-family:sans-serif;text-indent:0;text-align:start;text-decoration:none;text-decoration-line:none;text-decoration-style:solid;text-decoration-color:#000000;letter-spacing:normal;word-spacing:normal;text-transform:none;direction:ltr;block-progression:tb;writing-mode:lr-tb;baseline-shift:baseline;text-anchor:start;white-space:normal;clip-rule:nonzero;display:inline;overflow:visible;visibility:visible;opacity:1;isolation:auto;mix-blend-mode:normal;color-interpolation:sRGB;color-interpolation-filters:linearRGB;solid-color:#000000;solid-opacity:1;fill:#ffffff;fill-opacity:1;fill-rule:evenodd;stroke:none;stroke-width:4.5999999;stroke-linecap:butt;stroke-linejoin:miter;stroke-miterlimit:4;stroke-dasharray:none;stroke-dashoffset:0;stroke-opacity:1;color-rendering:auto;image-rendering:auto;shape-rendering:auto;text-rendering:auto;enable-background:accumulate" />
        </g>
      </g>
    </g>
  </g>
</svg>
