<?xml version="1.0" encoding="UTF-8" standalone="no"?>
<!-- Created with Inkscape (http://www.inkscape.org/) -->

<svg
   xmlns:dc="http://purl.org/dc/elements/1.1/"
   xmlns:cc="http://creativecommons.org/ns#"
   xmlns:rdf="http://www.w3.org/1999/02/22-rdf-syntax-ns#"
   xmlns:svg="http://www.w3.org/2000/svg"
   xmlns="http://www.w3.org/2000/svg"
   xmlns:xlink="http://www.w3.org/1999/xlink"
   xmlns:sodipodi="http://sodipodi.sourceforge.net/DTD/sodipodi-0.dtd"
   xmlns:inkscape="http://www.inkscape.org/namespaces/inkscape"
   width="345"
   height="345"
   id="svg4262"
   version="1.1"
   inkscape:version="0.91 r13725"
   sodipodi:docname="logo-flat.svg"
   inkscape:export-filename="/home/bigeagle/Dropbox/TUNA/logo-flat.png"
   inkscape:export-xdpi="15.018864"
   inkscape:export-ydpi="15.018864">
  <defs
     id="defs4264">
    <linearGradient
       id="linearGradient9182">
      <stop
         style="stop-color:#55c7ff;stop-opacity:1;"
         offset="0"
         id="stop9184" />
      <stop
         style="stop-color:#2b69ff;stop-opacity:1;"
         offset="1"
         id="stop9186" />
    </linearGradient>
    <linearGradient
       id="linearGradient5892"
       spreadMethod="pad"
       gradientTransform="matrix(190.60693,0,0,190.60693,-234.07121,40.419435)"
       gradientUnits="userSpaceOnUse"
       y2="0"
       x2="1"
       y1="0"
       x1="0">
      <stop
         id="stop5894"
         offset="0"
         style="stop-opacity:1;stop-color:#19e1fe" />
      <stop
         id="stop5896"
         offset="1"
         style="stop-opacity:1;stop-color:#19b5fe" />
    </linearGradient>
    <radialGradient
       fx="0"
       fy="0"
       cx="0"
       cy="0"
       r="1"
       gradientUnits="userSpaceOnUse"
       gradientTransform="matrix(153.35164,0,0,153.35164,185.94709,-313.36527)"
       spreadMethod="pad"
       id="radialGradient72-9">
      <stop
         style="stop-opacity:1;stop-color:#339dff"
         offset="0"
         id="stop74-4" />
      <stop
         style="stop-opacity:1;stop-color:#4552ff"
         offset="1"
         id="stop76-9" />
    </radialGradient>
    <radialGradient
       inkscape:collect="always"
       xlink:href="#linearGradient5892"
       id="radialGradient6635"
       cx="125.55147"
       cy="76.697083"
       fx="125.55147"
       fy="76.697083"
       r="95.449026"
       gradientTransform="matrix(0.39430333,1.3112928,-1.3171217,0.39603987,146.00191,-227.78114)"
       gradientUnits="userSpaceOnUse" />
  </defs>
  <sodipodi:namedview
     id="base"
     pagecolor="#ffffff"
     bordercolor="#666666"
     borderopacity="1.0"
     inkscape:pageopacity="0.0"
     inkscape:pageshadow="2"
     inkscape:zoom="1.4"
     inkscape:cx="121.75687"
     inkscape:cy="203.15994"
     inkscape:document-units="px"
     inkscape:current-layer="layer1"
     showgrid="false"
     inkscape:window-width="1916"
     inkscape:window-height="1036"
     inkscape:window-x="1920"
     inkscape:window-y="22"
     inkscape:window-maximized="0"
     fit-margin-top="0"
     fit-margin-left="0"
     fit-margin-right="0"
     fit-margin-bottom="0"
     showguides="false"
     inkscape:guide-bbox="true" />
  <metadata
     id="metadata4267">
    <rdf:RDF>
      <cc:Work
         rdf:about="">
        <dc:format>image/svg+xml</dc:format>
        <dc:type
           rdf:resource="http://purl.org/dc/dcmitype/StillImage" />
        <dc:title />
      </cc:Work>
    </rdf:RDF>
  </metadata>
  <g
     inkscape:label="Layer 1"
     inkscape:groupmode="layer"
     id="layer1"
     transform="translate(-0.54368288,98.464137)">
    <path
       inkscape:export-ydpi="19.55286"
       inkscape:export-xdpi="19.55286"
       inkscape:export-filename="/home/bigeagle/workspace/tuna/mirror-web/static/img/logo-small.png"
       style="fill:#bee2e9;fill-opacity:1;stroke:none"
       d="m 80.736628,33.734694 c -16.264194,4.716165 -25.2732,6.644491 -38.71191,16.838065 -9.545536,7.047537 -19.184571,19.118608 -19.184571,19.118608 0,0 15.137621,-7.743999 27.697432,-10.512703 12.559612,-2.768505 18.36237,-3.078464 22.292744,-2.753156 0.7852,-7.363676 5.89586,-16.228512 7.906305,-22.690814 z"
       id="path9214"
       inkscape:connector-curvature="0"
       sodipodi:nodetypes="cccccc" />
    <path
       inkscape:connector-curvature="0"
       id="path5880"
       style="fill:url(#radialGradient6635);fill-opacity:1;stroke:none"
       d="m 70.762511,63.054071 c 0,59.745979 46.567009,108.607079 105.385769,112.288419 l 0,0 C 100.59061,168.47556 99.412461,115.08241 120.29377,92.553731 l 0,0 C 166.21102,43.010221 261.66056,50.660551 261.66056,-17.66808 l 0,0 c -20.26214,-19.67766 -47.90328,-31.79883 -78.37911,-31.79883 l 0,0 c -62.14309,0 -112.518939,50.37688085 -112.518939,112.520981" />
    <path
       inkscape:export-ydpi="19.55286"
       inkscape:export-xdpi="19.55286"
       inkscape:export-filename="/home/bigeagle/workspace/tuna/mirror-web/static/img/logo-small.png"
       style="fill:#4f9cc5;fill-opacity:1;stroke:none"
       d="m 154.70725,-16.358889 c 0,0 -11.27147,13.1624836 -19.80068,24.435 -6.17322,8.15876 -17.08969,14.32599 -31.12839,19.491446 -12.552043,4.618294 -29.663535,8.123924 -29.663535,8.123924 0,0 2.571184,-11.420189 5.679555,-13.289114 8.201924,-4.931043 74.91305,-38.761256 74.91305,-38.761256 z"
       id="path9200"
       inkscape:connector-curvature="0"
       sodipodi:nodetypes="csscsc" />
    <path
       inkscape:export-ydpi="19.55286"
       inkscape:export-xdpi="19.55286"
       inkscape:export-filename="/home/bigeagle/workspace/tuna/mirror-web/static/img/logo-small.png"
       style="fill:#bee2e9;fill-opacity:1;stroke:none"
       d="m 150.12906,67.329374 c -9.94679,9.966537 -11.22814,12.817564 -14.26708,22.188301 -4.16055,12.830515 -2.30905,31.857435 -2.30905,31.857435 0,0 -4.3937,-4.23538 -7.83489,-16.84465 -2.64425,-9.688266 -2.28602,-17.707616 -2.28602,-17.707616 0,0 2.60309,-5.998724 10.59613,-11.871805 7.99284,-5.87328 16.10091,-7.621665 16.10091,-7.621665 z"
       id="path9226"
       inkscape:connector-curvature="0"
       sodipodi:nodetypes="cscscsc" />
    <path
       inkscape:export-ydpi="19.55286"
       inkscape:export-xdpi="19.55286"
       inkscape:export-filename="/home/bigeagle/workspace/tuna/mirror-web/static/img/logo-small.png"
       style="fill:#815cb7;fill-opacity:1;stroke:none"
       d="m 221.05835,42.729583 c -0.0895,10.14434 0.53594,14.597388 -0.3555,26.848654 -0.83672,11.498592 -5.15084,20.492395 -5.15084,20.492395 0,0 0.17705,-9.254727 -1.24335,-16.729629 -1.421,-7.474903 -10.03551,-21.956878 -10.03551,-21.956878 0,0 1.99254,-0.244579 7.72109,-3.028432 6.55593,-3.186302 9.06411,-5.62611 9.06411,-5.62611 z"
       id="path9240"
       inkscape:connector-curvature="0"
       sodipodi:nodetypes="cscscsc" />
    <ellipse
       style="fill:#ffffff;fill-opacity:1;stroke:none"
       id="path5116"
       inkscape:export-filename="/home/bigeagle/workspace/tuna/mirror-web/static/img/logo-small.png"
       inkscape:export-xdpi="19.55286"
       inkscape:export-ydpi="19.55286"
       cx="222.07385"
       cy="-19.521446"
       rx="6.8987079"
       ry="6.5943527" />
    <rect
       style="fill:#9c5cb7;fill-opacity:1;stroke:none"
       id="rect5118"
       width="212.14285"
       height="14.285717"
       x="101.38903"
       y="181.08986"
       ry="0.33939955" />
    <text
       xml:space="preserve"
       style="font-style:normal;font-variant:normal;font-weight:normal;font-stretch:normal;font-size:11px;line-height:125%;font-family:sans;-inkscape-font-specification:sans;letter-spacing:1.10000002px;word-spacing:0px;fill:#000000;fill-opacity:1;stroke:none"
       x="105.50426"
       y="191.73763"
       id="text5120"
       sodipodi:linespacing="125%"><tspan
         sodipodi:role="line"
         id="tspan5122"
         x="105.50426"
         y="191.73763"
         style="font-style:normal;font-variant:normal;font-weight:bold;font-stretch:normal;font-family:'Source Han Sans CN';-inkscape-font-specification:'Source Han Sans CN Bold';letter-spacing:0px;fill:#ffffff;fill-opacity:1">Tsinghua University TUNA Association</tspan></text>
    <path
       inkscape:connector-curvature="0"
       id="path24-1"
       style="fill:#2f4b68;fill-opacity:1;fill-rule:nonzero;stroke:none"
       d="m 167.46786,155.6163 c 0,13.67878 3.64258,18.4179 10.04028,18.4179 3.42633,0 5.9948,-0.36517 8.3817,-1.09859 l 0,0.53145 c -2.71434,0.99862 -5.85607,1.71469 -9.42622,1.71469 -5.85402,0 -19.2778,0 -19.2778,-20.13668 l 0,-43.86186 -14.46422,0 0,-9.42519 14.46422,0 0,-20.135663 10.28204,0 0,20.135663 18.42198,0 0,9.42519 -18.42198,0 0,44.43309 z" />
    <path
       inkscape:connector-curvature="0"
       id="path28-5"
       style="fill:#2f4b68;fill-opacity:1;fill-rule:nonzero;stroke:none"
       d="m 229.52618,102.77817 0,43.31103 c 0,19.85004 -4.35355,29.09164 -19.64604,29.09164 -14.79879,0 -19.64705,-9.2416 -19.64705,-29.09164 l 0,-43.31103 10.28305,0 0,41.84216 c 0,14.42342 0.68547,25.07267 9.364,25.07267 8.98149,0 9.364,-10.64925 9.364,-25.07267 l 0,-41.84216 10.28204,0 z" />
    <path
       inkscape:connector-curvature="0"
       id="path32-6"
       style="fill:#2f4b68;fill-opacity:1;fill-rule:nonzero;stroke:none"
       d="m 275.26369,129.66589 0,44.37188 -10.28101,0 0,-48.45205 c 0,-11.2878 -0.80278,-17.8069 -8.7224,-17.8069 -4.17095,0 -7.71152,3.03463 -8.72137,5.83261 l 0,60.42634 -10.28203,0 0,-65.54798 c 2.64192,-2.01153 10.35752,-6.99647 19.93164,-6.99647 18.07517,0 18.07517,11.60808 18.07517,28.17257" />
    <path
       inkscape:connector-curvature="0"
       id="path36-9"
       style="fill:#2f4b68;fill-opacity:1;fill-rule:nonzero;stroke:none"
       d="m 309.19115,134.82792 c 0,0 3.44775,-0.85684 -4.54939,-0.85684 -8.56837,0 -14.62742,5.08084 -14.62742,18.21798 0,13.70632 -0.32336,15.46386 10.38404,15.46386 8.41944,0 8.79277,-6.22023 8.79277,-15.03646 l 0,-17.78854 z m 9.262,-3.63237 0,21.42091 c 0,19.14417 -6.40588,22.5654 -18.05477,22.5654 -18.99525,0 -19.64604,1.16897 -19.64604,-22.9928 0,-23.563 18.46279,-23.41918 25.03187,-23.41918 6.42627,0 3.26414,0.71301 3.26414,0.71301 0,-13.42377 1.21385,-22.17574 -10.64926,-22.17574 -6.03049,0 -11.64073,1.91258 -14.72942,3.81496 l 0,-4.89519 c 4.49227,-3.0642 9.33645,-4.73401 15.30065,-4.73401 19.99285,0 19.48283,14.3622 19.48283,29.70264" />
    <path
       inkscape:connector-curvature="0"
       id="path150-3"
       style="fill:#815cb7;fill-opacity:1;fill-rule:nonzero;stroke:none"
       d="M 4.8730969,63.593279 C 29.674432,13.849842 52.229632,-13.653589 154.70728,-16.370985 c 0,0 -21.46784,23.7139701 -30.16167,29.768947 C 97.063604,32.539076 44.854719,25.659904 4.8730969,63.593279" />
  </g>
</svg>
