<?xml version="1.0" encoding="UTF-8" standalone="no"?>
<!-- Created with Inkscape (http://www.inkscape.org/) -->

<svg
   xmlns:dc="http://purl.org/dc/elements/1.1/"
   xmlns:cc="http://creativecommons.org/ns#"
   xmlns:rdf="http://www.w3.org/1999/02/22-rdf-syntax-ns#"
   xmlns:svg="http://www.w3.org/2000/svg"
   xmlns="http://www.w3.org/2000/svg"
   xmlns:sodipodi="http://sodipodi.sourceforge.net/DTD/sodipodi-0.dtd"
   xmlns:inkscape="http://www.inkscape.org/namespaces/inkscape"
   width="215.31882mm"
   height="227.6554mm"
   viewBox="0 0 762.94069 806.65298"
   id="svg2"
   version="1.1"
   inkscape:version="0.91 r13725"
   sodipodi:docname="QRcode.svg">
  <defs
     id="defs4" />
  <sodipodi:namedview
     id="base"
     pagecolor="#ffffff"
     bordercolor="#666666"
     borderopacity="1.0"
     inkscape:pageopacity="1"
     inkscape:pageshadow="2"
     inkscape:zoom="0.49497475"
     inkscape:cx="27.127894"
     inkscape:cy="494.60656"
     inkscape:document-units="px"
     inkscape:current-layer="layer1"
     showgrid="false"
     fit-margin-top="10"
     fit-margin-left="10"
     fit-margin-right="10"
     fit-margin-bottom="10"
     inkscape:window-width="1916"
     inkscape:window-height="1036"
     inkscape:window-x="1920"
     inkscape:window-y="22"
     inkscape:window-maximized="0" />
  <metadata
     id="metadata7">
    <rdf:RDF>
      <cc:Work
         rdf:about="">
        <dc:format>image/svg+xml</dc:format>
        <dc:type
           rdf:resource="http://purl.org/dc/dcmitype/StillImage" />
        <dc:title></dc:title>
      </cc:Work>
    </rdf:RDF>
  </metadata>
  <g
     inkscape:label="Layer 1"
     inkscape:groupmode="layer"
     id="layer1"
     transform="translate(31.154944,38.599936)">
    <g
       id="g4201"
       transform="translate(-7.8817724,465.07988)" />
    <path
       style="fill:#000000"
       d="m 4.2780983,623.44123 0,-65.46651 65.4665167,0 65.466515,0 0,65.46651 0,65.46644 -65.466515,0 -65.4665167,0 0,-65.46644 z m 112.2283117,0 0,-46.76179 -46.761795,0 -46.761798,0 0,46.76179 0,46.76172 46.761798,0 46.761795,0 0,-46.76172 z m -74.818874,0 0,-28.05707 28.057079,0 28.057077,0 0,28.05707 0,28.05709 -28.057077,0 -28.057079,0 0,-28.05709 z m 137.167934,56.11408 0,-3.11746 3.11745,0 3.11746,0 0,3.11746 0,3.11745 -3.11746,0 -3.11745,0 0,-3.11745 z m 93.52359,0 0,-3.11746 3.11746,0 3.11745,0 0,3.11746 0,3.11745 -3.11745,0 -3.11746,0 0,-3.11745 z m 18.70472,0 0,-3.11746 3.11746,0 3.11745,0 0,3.11746 0,3.11745 -3.11745,0 -3.11746,0 0,-3.11745 z m 18.70472,0 0,-3.11746 3.11746,0 3.11745,0 0,3.11746 0,3.11745 -3.11745,0 -3.11746,0 0,-3.11745 z m 18.70472,0 0,-3.11746 3.11745,0 3.11746,0 0,3.11746 0,3.11745 -3.11746,0 -3.11745,0 0,-3.11745 z m 18.70472,0 0,-3.11746 3.11745,0 3.11746,0 0,3.11746 0,3.11745 -3.11746,0 -3.11745,0 0,-3.11745 z m 18.70472,0 0,-3.11746 3.11745,0 3.11746,0 0,3.11746 0,3.11745 -3.11746,0 -3.11745,0 0,-3.11745 z m 93.5236,0 0,-3.11746 3.11746,0 3.11744,0 0,3.11746 0,3.11745 -3.11744,0 -3.11746,0 0,-3.11745 z m 18.70472,0 0,-3.11746 3.11745,0 3.11745,0 0,3.11746 0,3.11745 -3.11745,0 -3.11745,0 0,-3.11745 z m 56.11416,0 0,-3.11746 3.11745,0 3.11745,0 0,3.11746 0,3.11745 -3.11745,0 -3.11745,0 0,-3.11745 z m 18.70471,0 0,-3.11746 3.11746,0 3.11744,0 0,3.11746 0,3.11745 -3.11744,0 -3.11746,0 0,-3.11745 z m -336.68494,-18.7047 0,-3.11746 3.11745,0 3.11746,0 0,3.11746 0,3.11745 -3.11746,0 -3.11745,0 0,-3.11745 z m 18.70472,0 0,-3.11746 3.11745,0 3.11745,0 0,3.11746 0,3.11745 -3.11745,0 -3.11745,0 0,-3.11745 z m 56.11415,0 0,-3.11746 3.11746,0 3.11745,0 0,3.11746 0,3.11745 -3.11745,0 -3.11746,0 0,-3.11745 z m 56.11416,0 0,-3.11746 3.11745,0 3.11746,0 0,3.11746 0,3.11745 -3.11746,0 -3.11745,0 0,-3.11745 z m 56.11415,0 0,-3.11746 3.11746,0 3.11745,0 0,3.11746 0,3.11745 -3.11745,0 -3.11746,0 0,-3.11745 z m 74.81889,0 0,-3.11746 3.11745,0 3.11745,0 0,3.11746 0,3.11745 -3.11745,0 -3.11745,0 0,-3.11745 z m -299.27551,-18.70466 0,-3.11745 3.11745,0 3.11746,0 0,3.11745 0,3.11746 -3.11746,0 -3.11745,0 0,-3.11746 z m 18.70472,0 0,-3.11745 3.11745,0 3.11746,0 0,3.11745 0,3.11746 -3.11746,0 -3.11745,0 0,-3.11746 z m 18.70472,0 0,-3.11745 3.11745,0 3.11746,0 0,3.11745 0,3.11746 -3.11746,0 -3.11745,0 0,-3.11746 z m 18.70472,0 0,-3.11745 3.11745,0 3.11745,0 0,3.11745 0,3.11746 -3.11745,0 -3.11745,0 0,-3.11746 z m 37.40943,0 0,-3.11745 3.11746,0 3.11745,0 0,3.11745 0,3.11746 -3.11745,0 -3.11746,0 0,-3.11746 z m 18.70472,0 0,-3.11745 3.11746,0 3.11745,0 0,3.11745 0,3.11746 -3.11745,0 -3.11746,0 0,-3.11746 z m 18.70472,0 0,-3.11745 3.11746,0 3.11745,0 0,3.11745 0,3.11746 -3.11745,0 -3.11746,0 0,-3.11746 z m 18.70472,0 0,-3.11745 3.11745,0 3.11746,0 0,3.11745 0,3.11746 -3.11746,0 -3.11745,0 0,-3.11746 z m 18.70472,0 0,-3.11745 3.11745,0 3.11746,0 0,3.11745 0,3.11746 -3.11746,0 -3.11745,0 0,-3.11746 z m 18.70472,0 0,-3.11745 3.11745,0 3.11746,0 0,3.11745 0,3.11746 -3.11746,0 -3.11745,0 0,-3.11746 z m 37.40943,0 0,-3.11745 3.11746,0 3.11745,0 0,3.11745 0,3.11746 -3.11745,0 -3.11746,0 0,-3.11746 z m 56.11417,0 0,-3.11745 3.11746,0 3.11744,0 0,3.11745 0,3.11746 -3.11744,0 -3.11746,0 0,-3.11746 z m 18.70472,0 0,-3.11745 3.11745,0 3.11745,0 0,3.11745 0,3.11746 -3.11745,0 -3.11745,0 0,-3.11746 z m 56.11416,0 0,-3.11745 3.11745,0 3.11745,0 0,3.11745 0,3.11746 -3.11745,0 -3.11745,0 0,-3.11746 z m -143.40285,-6.23491 0,-3.11744 3.11744,0 3.11746,0 0,3.11744 0,3.11746 -3.11746,0 -3.11744,0 0,-3.11746 z m -236.92644,-21.82216 0,-18.70472 9.35236,0 9.35235,0 0,18.70472 0,18.70472 -9.35235,0 -9.35236,0 0,-18.70472 z m 218.22172,15.58726 0,-3.11745 -6.23491,0 -6.23491,0 0,-3.11746 0,-3.11745 -3.11746,0 -3.11744,0 0,3.11745 0,3.11746 -3.11746,0 -3.11745,0 0,-6.23491 0,-6.2349 -3.11746,0 -3.11745,0 0,-3.11746 0,-3.11745 -6.2349,0 -6.23491,0 0,-3.11745 0,-3.11746 -3.11746,0 -3.11745,0 0,-3.11745 0,-3.11745 -3.11745,0 -3.11745,0 0,-9.35236 0,-9.35236 -3.11745,0 -3.11746,0 0,3.11745 0,3.11745 -3.11745,0 -3.11746,0 0,-3.11745 0,-3.11745 -3.11745,0 -3.11745,0 0,-6.23491 0,-6.23491 -6.23491,0 -6.23491,0 0,-6.2349 0,-6.23491 -6.2349,0 -6.23491,0 0,-9.35236 0,-9.35236 -3.11745,0 -3.11746,0 0,-6.2349 0,-6.2349 -3.11745,0 -3.11745,0 0,-6.23491 0,-6.23491 -3.11745,0 -3.11746,0 0,-6.2349 0,-6.23491 -3.11745,0 -3.11746,0 0,-15.58727 0,-15.58726 -3.11745,0 -3.11745,0 0,-12.46982 0,-12.46981 -3.11745,0 -3.11745,0 0,-3.11745 0,-3.11746 3.11745,0 3.11745,0 0,-6.2349 0,-6.23491 -3.11745,0 -3.11745,0 0,-3.11745 0,-3.11746 3.11745,0 3.11745,0 0,-15.58726 0,-15.58727 -6.2349,0 -6.23491,0 0,-3.11745 0,-3.11746 -3.11746,0 -3.11744,0 0,3.11746 0,3.11745 -6.23491,0 -6.23491,0 0,3.11746 0,3.11745 -3.11746,0 -3.11744,0 0,3.11745 0,3.11745 -3.11746,0 -3.11745,0 0,-3.11745 0,-3.11745 -3.11746,0 -3.11745,0 0,-3.11745 0,-3.11746 3.11745,0 3.11746,0 0,3.11746 0,3.11745 3.11745,0 3.11746,0 0,-3.11745 0,-3.11746 3.11744,0 3.11746,0 0,-3.11745 0,-3.11746 6.23491,0 6.23491,0 0,-3.11745 0,-3.11745 -3.11746,0 -3.11745,0 0,-6.2349 0,-6.23491 3.11745,0 3.11746,0 0,6.23491 0,6.2349 3.11744,0 3.11746,0 0,3.11745 0,3.11745 6.23491,0 6.2349,0 0,-6.2349 0,-6.2349 -3.11745,0 -3.11745,0 0,-3.11746 0,-3.11745 6.2349,0 6.2349,0 0,-12.46981 0,-12.46982 -18.70471,0 -18.70472,0 0,3.11745 0,3.11746 -9.35236,0 -9.35236,0 0,3.11745 0,3.11746 -6.2349,0 -6.23491,0 0,3.11745 0,3.11746 -9.35236,0 -9.35236,0 0,3.11744 0,3.11746 3.11746,0 3.11745,0 0,3.11745 0,3.11746 -3.11745,0 -3.11746,0 0,-3.11746 0,-3.11745 -9.35236,0 -9.35236,0 0,6.23491 0,6.2349 -3.11745,0 -3.11745,0 0,9.35236 0,9.35236 -12.46981,0 -12.46981,0 0,3.11745 0,3.11745 -3.11746,0 -3.11745,0 0,-6.2349 0,-6.23491 3.11745,0 3.11746,0 0,-3.11745 0,-3.11746 3.11745,0 3.11745,0 0,-3.11745 0,-3.11745 9.35236,0 9.35236,0 0,-9.35236 0,-9.35235 -9.35236,0 -9.35236,0 0,-9.35237 0,-9.35236 12.46981,0 12.46981,0 0,-3.11745 0,-3.11745 3.11746,0 3.11745,0 0,-3.11746 0,-3.11745 3.11745,0 3.11746,0 0,-3.11746 0,-3.11745 3.11745,0 3.11745,0 0,-6.2349 0,-6.23491 6.23491,0 6.2349,0 0,-3.11746 0,-3.11745 3.11745,0 3.11746,0 0,-6.2349 0,-6.23491 3.11745,0 3.11746,0 0,3.11746 0,3.11745 3.11744,0 3.11746,0 0,-3.11745 0,-3.11746 3.11745,0 3.11746,0 0,-3.11745 0,-3.11746 6.23491,0 6.2349,0 0,-3.11744 0,-3.11746 6.23491,0 6.23491,0 0,-3.11745 0,-3.11746 6.2349,0 6.23491,0 0,-3.11745 0,-3.11746 6.2349,0 6.2349,0 0,-3.11744 0,-3.11746 9.35237,0 9.35235,0 0,-3.11745 0,-3.11746 3.11746,0 3.11745,0 0,6.23491 0,6.2349 3.11746,0 3.11745,0 0,-6.2349 0,-6.23491 6.2349,0 6.23491,0 0,-3.11745 0,-3.11746 9.35236,0 9.35236,0 0,-3.11744 0,-3.11746 3.11746,0 3.11745,0 0,-3.11745 0,-3.11746 3.11745,0 3.11745,0 0,-3.11745 0,-3.11746 3.11745,0 3.11746,0 0,-6.2349 0,-6.2349 9.35235,0 9.35237,0 0,-3.11746 0,-3.11745 3.11745,0 3.11746,0 0,-3.11745 0,-3.11745 3.11744,0 3.11746,0 0,-3.11746 0,-3.11745 9.35236,0 9.35236,0 0,-3.11746 0,-3.11745 6.23491,0 6.23491,0 0,-3.11745 0,-3.11745 -3.11746,0 -3.11745,0 0,-3.11748 0,-3.11745 3.11745,0 3.11746,0 0,3.11745 0,3.11748 6.2349,0 6.2349,0 0,-3.11748 0,-3.11745 9.35236,0 9.35237,0 0,3.11745 0,3.11748 -6.23491,0 -6.23491,0 0,3.11745 0,3.11745 -6.23491,0 -6.2349,0 0,3.11745 0,3.11746 -3.11746,0 -3.11744,0 0,3.11745 0,3.11746 6.2349,0 6.2349,0 0,-3.11746 0,-3.11745 6.23491,0 6.23491,0 0,-3.11746 0,-3.11745 6.23491,0 6.2349,0 0,3.11745 0,3.11746 3.11746,0 3.11745,0 0,-3.11746 0,-3.11745 3.11746,0 3.11745,0 0,-3.11745 0,-3.11745 -6.23491,0 -6.23491,0 0,-3.11748 0,-3.11745 6.23491,0 6.23491,0 0,-3.11746 0,-3.11745 6.2349,0 6.23491,0 0,3.11745 0,3.11746 3.11746,0 3.11745,0 0,-3.11746 0,-3.11745 3.11746,0 3.11744,0 0,6.23491 0,6.23493 9.35236,0 9.35236,0 0,3.11745 0,3.11745 3.11745,0 3.11746,0 0,-3.11745 0,-3.11745 3.11745,0 3.11746,0 0,-6.23493 0,-6.23491 3.11745,0 3.11745,0 0,3.11745 0,3.11746 6.23491,0 6.23491,0 0,3.11745 0,3.11748 -9.35237,0 -9.35235,0 0,3.11745 0,3.11745 3.11745,0 3.11745,0 0,3.11745 0,3.11746 -3.11745,0 -3.11745,0 0,-3.11746 0,-3.11745 -3.11746,0 -3.11745,0 0,3.11745 0,3.11746 -3.11746,0 -3.11745,0 0,3.11745 0,3.11746 6.23491,0 6.23491,0 0,3.11745 0,3.11745 -6.23491,0 -6.23491,0 0,3.11745 0,3.11746 9.35236,0 9.35236,0 0,-6.23491 0,-6.2349 3.11745,0 3.11746,0 0,-6.23491 0,-6.23491 3.11745,0 3.11746,0 0,3.11745 0,3.11746 15.58726,0 15.58727,0 0,3.11745 0,3.11746 3.11745,0 3.11745,0 0,-3.11746 0,-3.11745 6.2349,0 6.23491,0 0,6.23491 0,6.2349 -3.11745,0 -3.11746,0 0,-3.11745 0,-3.11745 -3.11744,0 -3.11746,0 0,3.11745 0,3.11745 -3.11745,0 -3.11745,0 0,-3.11745 0,-3.11745 -3.11746,0 -3.11745,0 0,3.11745 0,3.11745 -3.11745,0 -3.11745,0 0,3.11745 0,3.11746 3.11745,0 3.11745,0 0,3.11745 0,3.11745 -3.11745,0 -3.11745,0 0,-3.11745 0,-3.11745 -3.11746,0 -3.11745,0 0,3.11745 0,3.11745 -3.11746,0 -3.11745,0 0,-3.11745 0,-3.11745 3.11745,0 3.11746,0 0,-3.11746 0,-3.11745 3.11745,0 3.11746,0 0,-3.11745 0,-3.11745 -6.23491,0 -6.23491,0 0,3.11745 0,3.11745 -3.11745,0 -3.11745,0 0,-3.11745 0,-3.11745 -3.11746,0 -3.11745,0 0,9.35235 0,9.35236 3.11745,0 3.11746,0 0,3.11746 0,3.11744 3.11745,0 3.11745,0 0,3.11746 0,3.11745 3.11745,0 3.11746,0 0,-3.11745 0,-3.11746 15.58726,0 15.58726,0 0,6.23491 0,6.23491 -3.11744,0 -3.11746,0 0,3.11746 0,3.11744 -3.11745,0 -3.11745,0 0,-3.11744 0,-3.11746 3.11745,0 3.11745,0 0,-3.11745 0,-3.11746 -12.46981,0 -12.46981,0 0,3.11746 0,3.11745 -3.11746,0 -3.11745,0 0,3.11746 0,3.11744 3.11745,0 3.11746,0 0,3.11746 0,3.11745 3.11745,0 3.11746,0 0,-6.23491 0,-6.2349 3.11745,0 3.11745,0 0,6.2349 0,6.23491 3.11745,0 3.11746,0 0,6.23491 0,6.2349 3.11745,0 3.11745,0 0,3.11746 0,3.11745 -3.11745,0 -3.11745,0 0,6.23491 0,6.2349 -3.11746,0 -3.11745,0 0,3.11746 0,3.11745 12.46981,0 12.46981,0 0,3.11746 0,3.11745 3.11746,0 3.11745,0 0,-3.11745 0,-3.11746 3.11746,0 3.11744,0 0,-3.11745 0,-3.11746 3.11746,0 3.11745,0 0,-6.2349 0,-6.23491 3.11746,0 3.11745,0 0,-3.11745 0,-3.11746 -3.11745,0 -3.11746,0 0,-6.2349 0,-6.23491 3.11746,0 3.11745,0 0,-3.11745 0,-3.11746 -3.11745,0 -3.11746,0 0,-3.11744 0,-3.11746 3.11746,0 3.11745,0 0,3.11746 0,3.11744 3.11746,0 3.11744,0 0,3.11746 0,3.11745 3.11746,0 3.11745,0 0,3.11746 0,3.11745 -3.11745,0 -3.11746,0 0,-3.11745 0,-3.11746 -3.11744,0 -3.11746,0 0,6.23491 0,6.2349 3.11746,0 3.11744,0 0,3.11746 0,3.11745 3.11746,0 3.11745,0 0,-3.11745 0,-3.11746 3.11746,0 3.11745,0 0,-6.2349 0,-6.23491 3.11746,0 3.11744,0 0,-3.11745 0,-3.11746 -6.2349,0 -6.23491,0 0,-3.11744 0,-3.11746 -3.11745,0 -3.11746,0 0,-3.11745 0,-3.11746 -3.11744,0 -3.11746,0 0,-3.11745 0,-3.11746 3.11746,0 3.11744,0 0,3.11746 0,3.11745 3.11746,0 3.11745,0 0,-6.23491 0,-6.2349 3.11746,0 3.11745,0 0,-3.11745 0,-3.11745 -3.11745,0 -3.11746,0 0,-3.11746 0,-3.11745 -6.23491,0 -6.2349,0 0,-3.11745 0,-3.11745 -6.23491,0 -6.23491,0 0,9.35235 0,9.35236 3.11746,0 3.11745,0 0,-3.11745 0,-3.11745 6.23491,0 6.2349,0 0,3.11745 0,3.11745 -6.2349,0 -6.23491,0 0,3.11746 0,3.11744 -9.35235,0 -9.35237,0 0,-3.11744 0,-3.11746 -9.35235,0 -9.35236,0 0,-3.11745 0,-3.11745 9.35236,0 9.35235,0 0,3.11745 0,3.11745 3.11746,0 3.11745,0 0,-15.58726 0,-15.58727 -3.11745,0 -3.11746,0 0,-3.11745 0,-3.11745 3.11746,0 3.11745,0 0,-3.11748 0,-3.11745 3.11746,0 3.11744,0 0,3.11745 0,3.11748 -3.11744,0 -3.11746,0 0,3.11745 0,3.11745 3.11746,0 3.11744,0 0,3.11745 0,3.11746 6.23491,0 6.23491,0 0,3.11745 0,3.11746 6.2349,0 6.23491,0 0,3.11745 0,3.11745 3.11746,0 3.11745,0 0,3.11745 0,3.11746 6.2349,0 6.23491,0 0,3.11745 0,3.11745 3.11746,0 3.11745,0 0,3.11746 0,3.11744 3.11745,0 3.11746,0 0,3.11746 0,3.11745 9.35235,0 9.35237,0 0,3.11746 0,3.11745 -3.11746,0 -3.11745,0 0,3.11746 0,3.11744 3.11745,0 3.11746,0 0,6.23491 0,6.23491 -3.11746,0 -3.11745,0 0,3.11746 0,3.11744 -3.11746,0 -3.11745,0 0,9.35237 0,9.35235 -3.11746,0 -3.11744,0 0,6.23491 0,6.23491 -3.11746,0 -3.11745,0 0,-6.23491 0,-6.23491 -3.11745,0 -3.11746,0 0,9.35237 0,9.35235 3.11746,0 3.11745,0 0,3.11745 0,3.11746 -3.11745,0 -3.11746,0 0,-3.11746 0,-3.11745 -3.11745,0 -3.11746,0 0,3.11745 0,3.11746 -3.11744,0 -3.11746,0 0,3.11745 0,3.11746 3.11746,0 3.11744,0 0,3.11745 0,3.11745 -3.11744,0 -3.11746,0 0,-3.11745 0,-3.11745 -3.11745,0 -3.11746,0 0,6.2349 0,6.23491 -3.11745,0 -3.11746,0 0,3.11745 0,3.11746 -3.11744,0 -3.11746,0 0,3.11745 0,3.11745 -3.11745,0 -3.11746,0 0,3.11745 0,3.11746 -3.11745,0 -3.11746,0 0,3.11745 0,3.11746 -3.11744,0 -3.11746,0 0,3.11745 0,3.11746 -6.23491,0 -6.23491,0 0,6.2349 0,6.23491 -3.11744,0 -3.11746,0 0,-6.23491 0,-6.2349 -3.11745,0 -3.11745,0 0,6.2349 0,6.23491 -9.35236,0 -9.35236,0 0,3.11745 0,3.11745 -6.23491,0 -6.2349,0 0,3.11745 0,3.11745 -9.35237,0 -9.35235,0 0,3.11746 0,3.11745 -6.23491,0 -6.23491,0 0,3.11746 0,3.11745 -9.35236,0 -9.35236,0 0,3.11745 0,3.11745 -9.35235,0 -9.35237,0 0,3.11746 0,3.11745 -6.2349,0 -6.23491,0 0,3.11746 0,3.11745 -3.11745,0 -3.11746,0 0,6.2349 0,6.23491 -3.11744,0 -3.11746,0 0,-3.11745 0,-3.11746 -3.11745,0 -3.11746,0 0,3.11746 0,3.11745 -3.11746,0 -3.11745,0 0,-3.11745 0,-3.11746 -3.11745,0 -3.11746,0 0,6.23491 0,6.23491 -9.35236,0 -9.35235,0 0,3.11745 0,3.11745 3.11745,0 3.11746,0 0,3.11746 0,3.11745 -3.11746,0 -3.11745,0 0,-3.11745 0,-3.11746 -3.11746,0 -3.11745,0 0,3.11746 0,3.11745 -6.2349,0 -6.23491,0 0,3.11746 0,3.11745 -3.11746,0 -3.11745,0 0,3.11745 0,3.11745 -6.2349,0 -6.23491,0 0,9.35236 0,9.35236 -3.11746,0 -3.11745,0 0,6.23491 0,6.23491 -3.11746,0 -3.11744,0 0,6.2349 0,6.23491 -3.11746,0 -3.11745,0 0,3.11745 0,3.11746 -3.11746,0 -3.11745,0 0,12.46981 0,12.46981 -3.11745,0 -3.11745,0 0,9.35236 0,9.35235 -3.11745,0 -3.11746,0 0,3.11746 0,3.11745 6.23491,0 6.2349,0 0,3.11746 0,3.11745 -3.11745,0 -3.11745,0 0,3.11745 0,3.11745 3.11745,0 3.11745,0 0,6.23491 0,6.23491 3.11745,0 3.11746,0 0,3.11745 0,3.11745 3.11745,0 3.11746,0 0,6.23491 0,6.23491 3.11744,0 3.11746,0 0,3.11745 0,3.11745 6.23491,0 6.23491,0 0,3.11746 0,3.11745 -3.11746,0 -3.11745,0 0,3.11745 0,3.11746 6.23491,0 6.2349,0 0,3.11744 0,3.11746 6.23491,0 6.23491,0 0,3.11745 0,3.11746 6.2349,0 6.23491,0 0,3.11745 0,3.11746 -6.23491,0 -6.2349,0 0,-3.11746 z m -56.11416,-62.34906 0,-3.11746 -3.11745,0 -3.11746,0 0,3.11746 0,3.11745 3.11746,0 3.11745,0 0,-3.11745 z m -12.46982,-6.23491 0,-3.11745 -3.11745,0 -3.11745,0 0,3.11745 0,3.11745 3.11745,0 3.11745,0 0,-3.11745 z m -6.2349,-15.58727 0,-6.2349 -3.11745,0 -3.11746,0 0,6.2349 0,6.23491 3.11746,0 3.11745,0 0,-6.23491 z m -18.70472,-15.58726 0,-3.11745 -3.11745,0 -3.11746,0 0,3.11745 0,3.11745 3.11746,0 3.11745,0 0,-3.11745 z m 18.70472,0 0,-3.11745 -3.11745,0 -3.11746,0 0,-3.11746 0,-3.11744 -3.11745,0 -3.11746,0 0,3.11744 0,3.11746 3.11746,0 3.11745,0 0,3.11745 0,3.11745 3.11746,0 3.11745,0 0,-3.11745 z m 12.46981,-6.23491 0,-3.11744 -3.11745,0 -3.11746,0 0,3.11744 0,3.11746 3.11746,0 3.11745,0 0,-3.11746 z m -12.46981,-12.46981 0,-3.11745 3.11745,0 3.11745,0 0,-3.11746 0,-3.11744 -3.11745,0 -3.11745,0 0,3.11744 0,3.11746 -3.11745,0 -3.11746,0 0,3.11745 0,3.11746 3.11746,0 3.11745,0 0,-3.11746 z m -12.46982,-6.23491 0,-3.11744 -3.11745,0 -3.11745,0 0,3.11744 0,3.11746 3.11745,0 3.11745,0 0,-3.11746 z m -18.70472,-6.2349 0,-3.11745 -3.11745,0 -3.11745,0 0,-3.11746 0,-3.11745 -3.11745,0 -3.11746,0 0,3.11745 0,3.11746 3.11746,0 3.11745,0 0,3.11745 0,3.11746 3.11745,0 3.11745,0 0,-3.11746 z m 31.17454,-6.23491 0,-3.11745 3.11745,0 3.11745,0 0,3.11745 0,3.11746 6.23491,0 6.23491,0 0,-3.11746 0,-3.11745 -6.23491,0 -6.23491,0 0,-3.11746 0,-3.11744 -3.11745,0 -3.11745,0 0,3.11744 0,3.11746 -3.11745,0 -3.11746,0 0,3.11745 0,3.11746 3.11746,0 3.11745,0 0,-3.11746 z m -12.46982,-6.23491 0,-3.11744 -3.11745,0 -3.11745,0 0,3.11744 0,3.11746 3.11745,0 3.11745,0 0,-3.11746 z m -24.93962,-6.2349 0,-3.11745 -3.11745,0 -3.11746,0 0,3.11745 0,3.11746 3.11746,0 3.11745,0 0,-3.11746 z m 18.70472,-6.23491 0,-3.11745 -3.11745,0 -3.11746,0 0,3.11745 0,3.11746 3.11746,0 3.11745,0 0,-3.11746 z m 18.70472,0 0,-3.11745 -3.11745,0 -3.11746,0 0,3.11745 0,3.11746 3.11746,0 3.11745,0 0,-3.11746 z m 31.17453,0 0,-3.11745 -3.11746,0 -3.11745,0 0,3.11745 0,3.11746 3.11745,0 3.11746,0 0,-3.11746 z m -18.70472,-6.23491 0,-3.11744 -3.11745,0 -3.11746,0 0,3.11744 0,3.11746 3.11746,0 3.11745,0 0,-3.11746 z m -49.87925,-6.2349 0,-3.11745 -3.11745,0 -3.11746,0 0,3.11745 0,3.11746 3.11746,0 3.11745,0 0,-3.11746 z m 18.70472,-6.23491 0,-3.11745 -6.23491,0 -6.23491,0 0,3.11745 0,3.11746 6.23491,0 6.23491,0 0,-3.11746 z m 12.46981,0 0,-3.11745 -3.11745,0 -3.11746,0 0,3.11745 0,3.11746 3.11746,0 3.11745,0 0,-3.11746 z m 24.93963,0 0,-3.11745 -3.11745,0 -3.11746,0 0,-3.11745 0,-3.11745 -3.11745,0 -3.11746,0 0,3.11745 0,3.11745 3.11746,0 3.11745,0 0,3.11745 0,3.11746 3.11746,0 3.11745,0 0,-3.11746 z m 18.70472,0 0,-3.11745 -6.23491,0 -6.23491,0 0,3.11745 0,3.11746 6.23491,0 6.23491,0 0,-3.11746 z m 12.46981,-6.2349 0,-3.11745 -3.11746,0 -3.11745,0 0,3.11745 0,3.11745 3.11745,0 3.11746,0 0,-3.11745 z m -87.28869,-9.35236 0,-6.23491 -3.11745,0 -3.11746,0 0,6.23491 0,6.23491 3.11746,0 3.11745,0 0,-6.23491 z m 24.93962,-3.11745 0,-3.11746 -6.2349,0 -6.23491,0 0,3.11746 0,3.11745 6.23491,0 6.2349,0 0,-3.11745 z m 12.46982,0 0,-3.11746 3.11745,0 3.11745,0 0,-3.11745 0,-3.11745 -3.11745,0 -3.11745,0 0,3.11745 0,3.11745 -3.11745,0 -3.11746,0 0,3.11746 0,3.11745 3.11746,0 3.11745,0 0,-3.11745 z m 24.93962,0 0,-3.11746 -6.2349,0 -6.23491,0 0,3.11746 0,3.11745 6.23491,0 6.2349,0 0,-3.11745 z m 18.70472,0 0,-3.11746 -3.11746,0 -3.11744,0 0,3.11746 0,3.11745 3.11744,0 3.11746,0 0,-3.11745 z m 18.70472,0 0,-3.11746 -6.2349,0 -6.23491,0 0,3.11746 0,3.11745 6.23491,0 6.2349,0 0,-3.11745 z m -99.7585,-15.58727 0,-6.23491 -3.11745,0 -3.11746,0 0,6.23491 0,6.23491 3.11746,0 3.11745,0 0,-6.23491 z m 18.70472,3.11746 0,-3.11746 -3.11745,0 -3.11746,0 0,3.11746 0,3.11745 3.11746,0 3.11745,0 0,-3.11745 z m 74.81888,-3.11746 0,-6.23491 -3.11746,0 -3.11745,0 0,6.23491 0,6.23491 3.11745,0 3.11746,0 0,-6.23491 z m 12.46981,3.11746 0,-3.11746 -3.11746,0 -3.11745,0 0,3.11746 0,3.11745 3.11745,0 3.11746,0 0,-3.11745 z m -68.58397,-6.23491 0,-3.11746 3.11745,0 3.11745,0 0,-3.11745 0,-3.11745 -3.11745,0 -3.11745,0 0,3.11745 0,3.11745 -3.11745,0 -3.11746,0 0,3.11746 0,3.11745 3.11746,0 3.11745,0 0,-3.11745 z m 18.70472,0 0,-3.11746 3.11745,0 3.11745,0 0,3.11746 0,3.11745 6.23491,0 6.23491,0 0,-3.11745 0,-3.11746 3.11744,0 3.11746,0 0,-3.11745 0,-3.11745 -3.11746,0 -3.11744,0 0,3.11745 0,3.11745 -6.23491,0 -6.23491,0 0,-3.11745 0,-3.11745 -3.11745,0 -3.11745,0 0,-3.11745 0,-3.11746 -3.11745,0 -3.11746,0 0,3.11746 0,3.11745 3.11746,0 3.11745,0 0,3.11745 0,3.11745 -3.11745,0 -3.11746,0 0,3.11746 0,3.11745 3.11746,0 3.11745,0 0,-3.11745 z m 74.81888,-3.11746 0,-6.2349 -3.11746,0 -3.11745,0 0,3.11745 0,3.11745 -3.11746,0 -3.11745,0 0,3.11746 0,3.11745 6.23491,0 6.23491,0 0,-6.23491 z m -105.99342,-3.11745 0,-3.11745 -3.11745,0 -3.11745,0 0,3.11745 0,3.11745 3.11745,0 3.11745,0 0,-3.11745 z m 81.05379,0 0,-3.11745 -3.11746,0 -3.11745,0 0,3.11745 0,3.11745 3.11745,0 3.11746,0 0,-3.11745 z m 37.40943,0 0,-3.11745 -3.11745,0 -3.11745,0 0,3.11745 0,3.11745 3.11745,0 3.11745,0 0,-3.11745 z m -137.16794,-6.2349 0,-3.11746 -3.11745,0 -3.11745,0 0,-3.11745 0,-3.11746 -3.11745,0 -3.11746,0 0,3.11746 0,3.11745 3.11746,0 3.11745,0 0,3.11746 0,3.11745 3.11745,0 3.11745,0 0,-3.11745 z m 112.22832,0 0,-3.11746 -3.11746,0 -3.11744,0 0,-6.23491 0,-6.2349 3.11744,0 3.11746,0 0,-3.11745 0,-3.11746 -3.11746,0 -3.11744,0 0,3.11746 0,3.11745 -3.11746,0 -3.11745,0 0,3.11745 0,3.11745 -3.11746,0 -3.11745,0 0,3.11746 0,3.11745 6.23491,0 6.23491,0 0,3.11746 0,3.11745 3.11744,0 3.11746,0 0,-3.11745 z m -99.7585,-9.35237 0,-6.2349 -3.11745,0 -3.11746,0 0,6.2349 0,6.23491 3.11746,0 3.11745,0 0,-6.23491 z m 18.70472,3.11746 0,-3.11746 3.11745,0 3.11745,0 0,-3.11745 0,-3.11745 -3.11745,0 -3.11745,0 0,3.11745 0,3.11745 -3.11745,0 -3.11746,0 0,3.11746 0,3.11745 3.11746,0 3.11745,0 0,-3.11745 z m 37.40944,0 0,-3.11746 3.11744,0 3.11746,0 0,-3.11745 0,-3.11745 -3.11746,0 -3.11744,0 0,3.11745 0,3.11745 -6.23491,0 -6.23491,0 0,3.11746 0,3.11745 6.23491,0 6.23491,0 0,-3.11745 z m 62.34906,0 0,-3.11746 -3.11746,0 -3.11744,0 0,-3.11745 0,-3.11745 3.11744,0 3.11746,0 0,-3.11745 0,-3.11746 -3.11746,0 -3.11744,0 0,-3.11745 0,-3.11746 3.11744,0 3.11746,0 0,-3.11745 0,-3.11745 3.11745,0 3.11745,0 0,3.11745 0,3.11745 3.11746,0 3.11745,0 0,-3.11745 0,-3.11745 -3.11745,0 -3.11746,0 0,-3.11745 0,-3.11745 6.23491,0 6.23491,0 0,-3.11746 0,-3.11745 3.11746,0 3.11745,0 0,3.11745 0,3.11746 3.11746,0 3.11744,0 0,3.11745 0,3.11745 3.11746,0 3.11745,0 0,3.11745 0,3.11745 -3.11745,0 -3.11746,0 0,3.11746 0,3.11745 3.11746,0 3.11745,0 0,3.11746 0,3.11745 3.11746,0 3.11745,0 0,-3.11745 0,-3.11746 3.11746,0 3.11744,0 0,3.11746 0,3.11745 3.11746,0 3.11745,0 0,-9.35236 0,-9.35236 3.11746,0 3.11745,0 0,-3.11745 0,-3.11745 3.11746,0 3.11744,0 0,-6.23491 0,-6.2349 -3.11744,0 -3.11746,0 0,-3.11746 0,-3.11745 -3.11745,0 -3.11746,0 0,-6.23491 0,-6.23491 -3.11745,0 -3.11746,0 0,-9.35236 0,-9.35236 3.11746,0 3.11745,0 0,6.23491 0,6.23491 3.11746,0 3.11745,0 0,3.11745 0,3.11745 6.2349,0 6.23491,0 0,-3.11745 0,-3.11745 3.11745,0 3.11746,0 0,3.11745 0,3.11745 3.11745,0 3.11745,0 0,3.11745 0,3.11746 3.11745,0 3.11746,0 0,9.35236 0,9.35236 -3.11746,0 -3.11745,0 0,-3.11746 0,-3.11744 -6.2349,0 -6.23491,0 0,3.11744 0,3.11746 6.23491,0 6.2349,0 0,3.11745 0,3.11746 -6.2349,0 -6.23491,0 0,3.11745 0,3.11745 -3.11745,0 -3.11746,0 0,6.2349 0,6.23491 3.11746,0 3.11745,0 0,-6.23491 0,-6.2349 6.23491,0 6.2349,0 0,3.11745 0,3.11745 3.11745,0 3.11746,0 0,-3.11745 0,-3.11745 3.11745,0 3.11746,0 0,-3.11745 0,-3.11745 12.46981,0 12.46981,0 0,-3.11746 0,-3.11745 3.11745,0 3.11746,0 0,-6.2349 0,-6.23491 -6.23491,0 -6.2349,0 0,-3.11746 0,-3.11745 9.35235,0 9.35237,0 0,9.35236 0,9.35236 3.11745,0 3.11745,0 0,-9.35236 0,-9.35236 -3.11745,0 -3.11745,0 0,-3.11746 0,-3.11745 6.2349,0 6.23491,0 0,6.23491 0,6.23491 3.11745,0 3.11745,0 0,3.11745 0,3.11746 3.11746,0 3.11744,0 0,-3.11746 0,-3.11745 3.11746,0 3.11745,0 0,-3.11746 0,-3.11745 3.11746,0 3.11745,0 0,-3.11746 0,-3.11745 3.11746,0 3.11744,0 0,-6.2349 0,-6.23491 3.11746,0 3.11745,0 0,3.11745 0,3.11746 3.11746,0 3.11745,0 0,-3.11746 0,-3.11745 3.11746,0 3.11744,0 0,-6.23491 0,-6.2349 3.11746,0 3.11745,0 0,-3.11746 0,-3.11745 3.11746,0 3.11745,0 0,-3.11746 0,-3.11745 3.11746,0 3.11744,0 0,-9.35235 0,-9.35237 3.11746,0 3.11745,0 0,-3.11744 0,-3.11746 3.11746,0 3.11745,0 0,3.11746 0,3.11744 3.11745,0 3.11746,0 0,-3.11744 0,-3.11746 -3.11746,0 -3.11745,0 0,-6.23491 0,-6.23491 6.23491,0 6.2349,0 0,-6.2349 0,-6.23491 3.11745,0 3.11746,0 0,-3.11745 0,-3.11746 -3.11746,0 -3.11745,0 0,-3.11744 0,-3.11746 -3.11746,0 -3.11744,0 0,-3.11745 0,-3.11746 -3.11746,0 -3.11745,0 0,-3.11745 0,-3.11746 -3.11745,0 -3.11746,0 0,-3.11744 0,-3.11746 -6.23491,0 -6.2349,0 0,6.2349 0,6.23491 -3.11745,0 -3.11746,0 0,3.11746 0,3.11745 6.23491,0 6.2349,0 0,3.11746 0,3.11744 3.11746,0 3.11745,0 0,3.11746 0,3.11745 -3.11745,0 -3.11746,0 0,6.23491 0,6.2349 -3.11744,0 -3.11746,0 0,3.11746 0,3.11745 -3.11745,0 -3.11746,0 0,3.11746 0,3.11745 -3.11745,0 -3.11746,0 0,-3.11745 0,-3.11746 -3.11744,0 -3.11746,0 0,6.23491 0,6.2349 -3.11745,0 -3.11746,0 0,3.11746 0,3.11745 -3.11745,0 -3.11746,0 0,3.11746 0,3.11745 -3.11744,0 -3.11746,0 0,3.11745 0,3.11745 -3.11745,0 -3.11746,0 0,-3.11745 0,-3.11745 -15.58726,0 -15.58726,0 0,-3.11745 0,-3.11746 -3.11746,0 -3.11745,0 0,-3.11745 0,-3.11746 6.23491,0 6.2349,0 0,-6.2349 0,-6.23491 3.11745,0 3.11746,0 0,-3.11745 0,-3.11746 -3.11746,0 -3.11745,0 0,-6.2349 0,-6.23491 -3.11745,0 -3.11745,0 0,3.11746 0,3.11745 -3.11746,0 -3.11745,0 0,-3.11745 0,-3.11746 -3.11746,0 -3.11745,0 0,-3.11745 0,-3.11746 -3.11745,0 -3.11745,0 0,-3.11744 0,-3.11746 -6.23491,0 -6.23491,0 0,-3.11745 0,-3.11746 6.23491,0 6.23491,0 0,-3.11745 0,-3.11746 -3.11746,0 -3.11745,0 0,-3.11744 0,-3.11746 -3.11746,0 -3.11745,0 0,3.11746 0,3.11744 -3.11745,0 -3.11745,0 0,-3.11744 0,-3.11746 -6.23491,0 -6.23491,0 0,-3.11745 0,-3.11745 -6.2349,0 -6.23491,0 0,-3.11746 0,-3.11745 6.23491,0 6.2349,0 0,-3.11745 0,-3.11745 -6.2349,0 -6.23491,0 0,-3.11746 0,-3.11745 6.23491,0 6.2349,0 0,-3.11746 0,-3.11745 -9.35236,0 -9.35236,0 0,-3.11745 0,-3.11745 -3.11744,0 -3.11746,0 0,3.11745 0,3.11745 -3.11745,0 -3.11746,0 0,-6.2349 0,-6.23493 -6.23491,0 -6.2349,0 0,3.11745 0,3.11748 3.11746,0 3.11744,0 0,3.11745 0,3.11745 -3.11744,0 -3.11746,0 0,3.11745 0,3.11746 -3.11745,0 -3.11746,0 0,3.11745 0,3.11746 -6.23491,0 -6.2349,0 0,-3.11746 0,-3.11745 -3.11745,0 -3.11746,0 0,3.11745 0,3.11746 -3.11746,0 -3.11745,0 0,3.11745 0,3.11745 -3.11745,0 -3.11746,0 0,3.11745 0,3.11746 -3.11745,0 -3.11745,0 0,-3.11746 0,-3.11745 -6.2349,0 -6.23491,0 0,3.11745 0,3.11746 -3.11746,0 -3.11745,0 0,-6.23491 0,-6.2349 3.11745,0 3.11746,0 0,-3.11746 0,-3.11745 -3.11746,0 -3.11745,0 0,3.11745 0,3.11746 -3.11746,0 -3.11744,0 0,3.11745 0,3.11745 -6.23491,0 -6.23491,0 0,3.11745 0,3.11746 -3.11746,0 -3.11744,0 0,3.11745 0,3.11745 -3.11746,0 -3.11745,0 0,3.11746 0,3.11744 -6.23491,0 -6.2349,0 0,3.11746 0,3.11745 6.2349,0 6.23491,0 0,-3.11745 0,-3.11746 3.11745,0 3.11746,0 0,-3.11744 0,-3.11746 3.11744,0 3.11746,0 0,-3.11745 0,-3.11745 3.11745,0 3.11746,0 0,6.2349 0,6.2349 -3.11746,0 -3.11745,0 0,3.11746 0,3.11745 -3.11746,0 -3.11744,0 0,3.11746 0,3.11745 3.11744,0 3.11746,0 0,-3.11745 0,-3.11746 3.11745,0 3.11746,0 0,3.11746 0,3.11745 6.23491,0 6.2349,0 0,-3.11745 0,-3.11746 3.11745,0 3.11746,0 0,-3.11745 0,-3.11746 3.11745,0 3.11746,0 0,-6.2349 0,-6.2349 3.11744,0 3.11746,0 0,6.2349 0,6.2349 3.11745,0 3.11745,0 0,-3.11744 0,-3.11746 6.23491,0 6.23491,0 0,3.11746 0,3.11744 -3.11746,0 -3.11745,0 0,3.11746 0,3.11745 -9.35236,0 -9.35235,0 0,3.11746 0,3.11745 9.35235,0 9.35236,0 0,-3.11745 0,-3.11746 3.11745,0 3.11746,0 0,3.11746 0,3.11745 3.11746,0 3.11745,0 0,-3.11745 0,-3.11746 3.11746,0 3.11744,0 0,3.11746 0,3.11745 3.11746,0 3.11745,0 0,6.2349 0,6.23491 -3.11745,0 -3.11746,0 0,-3.11745 0,-3.11746 -6.2349,0 -6.23491,0 0,3.11746 0,3.11745 -9.35236,0 -9.35236,0 0,3.11746 0,3.11745 12.46981,0 12.46982,0 0,-3.11745 0,-3.11746 3.11746,0 3.11744,0 0,3.11746 0,3.11745 3.11746,0 3.11745,0 0,3.11746 0,3.11744 -6.23491,0 -6.2349,0 0,15.58728 0,15.58726 -3.11745,0 -3.11746,0 0,-9.35236 0,-9.35236 -3.11746,0 -3.11745,0 0,-3.11745 0,-3.11746 3.11745,0 3.11746,0 0,-3.11745 0,-3.11746 -6.23491,0 -6.23491,0 0,3.11746 0,3.11745 -3.11745,0 -3.11745,0 0,6.23491 0,6.2349 -3.11746,0 -3.11744,0 0,3.11746 0,3.11745 3.11744,0 3.11746,0 0,3.11746 0,3.11745 3.11745,0 3.11745,0 0,3.11745 0,3.11745 -3.11745,0 -3.11745,0 0,3.11745 0,3.11746 -3.11746,0 -3.11744,0 0,3.11745 0,3.11746 3.11744,0 3.11746,0 0,-3.11746 0,-3.11745 3.11745,0 3.11745,0 0,3.11745 0,3.11746 9.35236,0 9.35237,0 0,-3.11746 0,-3.11745 3.11746,0 3.11744,0 0,-3.11746 0,-3.11745 3.11746,0 3.11745,0 0,3.11745 0,3.11746 3.11746,0 3.11745,0 0,-3.11746 0,-3.11745 -3.11745,0 -3.11746,0 0,-6.2349 0,-6.23491 3.11746,0 3.11745,0 0,-3.11745 0,-3.11746 3.11746,0 3.11744,0 0,-3.11744 0,-3.11746 3.11746,0 3.11745,0 0,3.11746 0,3.11744 9.35237,0 9.35235,0 0,-6.2349 0,-6.23491 3.11745,0 3.11746,0 0,-3.11745 0,-3.11746 3.11745,0 3.11745,0 0,3.11746 0,3.11745 6.23491,0 6.23491,0 0,-3.11745 0,-3.11746 3.11745,0 3.11745,0 0,3.11746 0,3.11745 3.11745,0 3.11746,0 0,3.11746 0,3.11745 -3.11746,0 -3.11745,0 0,3.11746 0,3.11744 -3.11745,0 -3.11745,0 0,-3.11744 0,-3.11746 -9.35237,0 -9.35235,0 0,3.11746 0,3.11744 9.35235,0 9.35237,0 0,3.11746 0,3.11745 -24.93963,0 -24.93963,0 0,9.35236 0,9.35236 3.11746,0 3.11745,0 0,-6.23491 0,-6.2349 18.70472,0 18.70472,0 0,3.11745 0,3.11745 -15.58727,0 -15.58726,0 0,3.11745 0,3.11746 15.58726,0 15.58727,0 0,-3.11746 0,-3.11745 9.35236,0 9.35236,0 0,3.11745 0,3.11746 -3.11746,0 -3.11745,0 0,3.11745 0,3.11746 -3.11745,0 -3.11745,0 0,3.11745 0,3.11745 -3.11746,0 -3.11745,0 0,-3.11745 0,-3.11745 -9.35236,0 -9.35236,0 0,3.11745 0,3.11745 -3.11745,0 -3.11746,0 0,-3.11745 0,-3.11745 -3.11744,0 -3.11746,0 0,3.11745 0,3.11745 -3.11745,0 -3.11746,0 0,-3.11745 0,-3.11745 -3.11745,0 -3.11746,0 0,3.11745 0,3.11745 -3.11744,0 -3.11746,0 0,-3.11745 0,-3.11745 -6.23491,0 -6.23491,0 0,3.11745 0,3.11745 6.23491,0 6.23491,0 0,3.11745 0,3.11746 -6.23491,0 -6.23491,0 0,3.11745 0,3.11746 -3.11744,0 -3.11746,0 0,-6.23491 0,-6.23491 -3.11745,0 -3.11746,0 0,6.23491 0,6.23491 3.11746,0 3.11745,0 0,9.35235 0,9.35237 3.11746,0 3.11744,0 0,3.11745 0,3.11746 3.11746,0 3.11745,0 0,3.11744 0,3.11746 3.11746,0 3.11745,0 0,3.11745 0,3.11746 6.2349,0 6.23491,0 0,3.11745 0,3.11745 -3.11745,0 -3.11746,0 0,3.11745 0,3.11745 -3.11744,0 -3.11746,0 0,-3.11745 0,-3.11745 -3.11745,0 -3.11746,0 0,-3.11745 0,-3.11745 -3.11745,0 -3.11746,0 0,-3.11746 0,-3.11745 -3.11744,0 -3.11746,0 0,-3.11746 0,-3.11744 -3.11745,0 -3.11746,0 0,-3.11746 0,-3.11745 -3.11746,0 -3.11745,0 0,-3.11746 0,-3.11745 3.11745,0 3.11746,0 0,-3.11746 0,-3.11745 -3.11746,0 -3.11745,0 0,-3.11745 0,-3.11745 -3.11745,0 -3.11746,0 0,3.11745 0,3.11745 -3.11745,0 -3.11745,0 0,3.11745 0,3.11746 -6.2349,0 -6.23491,0 0,-3.11746 0,-3.11745 3.11745,0 3.11746,0 0,-3.11745 0,-3.11745 3.11744,0 3.11746,0 0,-3.11746 0,-3.11745 6.2349,0 6.23491,0 0,-3.11746 0,-3.11745 -6.23491,0 -6.2349,0 0,3.11745 0,3.11746 -3.11746,0 -3.11744,0 0,-3.11746 0,-3.11745 -3.11746,0 -3.11745,0 0,-3.11745 0,-3.11745 -3.11746,0 -3.11745,0 0,3.11745 0,3.11745 3.11745,0 3.11746,0 0,9.35236 0,9.35236 -3.11746,0 -3.11745,0 0,3.11745 0,3.11746 -6.2349,0 -6.23491,0 0,-3.11746 0,-3.11745 3.11745,0 3.11746,0 0,-3.11745 0,-3.11745 3.11744,0 3.11746,0 0,-3.11746 0,-3.11745 -3.11746,0 -3.11744,0 0,-3.11746 0,-3.11745 -3.11746,0 -3.11745,0 0,9.35236 0,9.35236 -3.11746,0 -3.11745,0 0,3.11745 0,3.11746 3.11745,0 3.11746,0 0,6.23491 0,6.23491 3.11745,0 3.11746,0 0,-3.11746 0,-3.11745 3.11744,0 3.11746,0 0,-3.11746 0,-3.11745 3.11745,0 3.11746,0 0,6.23491 0,6.23491 3.11745,0 3.11746,0 0,-3.11746 0,-3.11745 3.11744,0 3.11746,0 0,-3.11746 0,-3.11745 3.11745,0 3.11745,0 0,6.23491 0,6.23491 -3.11745,0 -3.11745,0 0,3.11744 0,3.11746 3.11745,0 3.11745,0 0,3.11745 0,3.11746 -3.11745,0 -3.11745,0 0,3.11745 0,3.11745 -3.11746,0 -3.11744,0 0,3.11745 0,3.11745 -3.11746,0 -3.11745,0 0,-3.11745 0,-3.11745 -3.11746,0 -3.11745,0 0,3.11745 0,3.11745 3.11745,0 3.11746,0 0,3.11746 0,3.11745 3.11745,0 3.11746,0 0,3.11746 0,3.11745 -3.11746,0 -3.11745,0 0,3.11745 0,3.11745 3.11745,0 3.11746,0 0,3.11746 0,3.11745 3.11744,0 3.11746,0 0,-3.11745 z m 37.40944,-18.70472 0,-3.11746 3.11746,0 3.11745,0 0,3.11746 0,3.11745 -3.11745,0 -3.11746,0 0,-3.11745 z m 49.87925,-12.46981 0,-3.11745 3.11745,0 3.11746,0 0,-3.11746 0,-3.11745 3.11745,0 3.11746,0 0,-9.35236 0,-9.35236 -3.11746,0 -3.11745,0 0,-3.11746 0,-3.11745 -3.11746,0 -3.11745,0 0,-3.11745 0,-3.11745 3.11745,0 3.11746,0 0,-3.11746 0,-3.11745 -9.35236,0 -9.35236,0 0,3.11745 0,3.11746 -6.23491,0 -6.2349,0 0,-6.23491 0,-6.23491 3.11746,0 3.11744,0 0,3.11745 0,3.11746 3.11746,0 3.11745,0 0,-3.11746 0,-3.11745 9.35236,0 9.35236,0 0,3.11745 0,3.11746 3.11745,0 3.11746,0 0,3.11745 0,3.11746 3.11745,0 3.11745,0 0,3.11745 0,3.11745 6.23491,0 6.23491,0 0,-3.11745 0,-3.11745 -3.11746,0 -3.11745,0 0,-3.11746 0,-3.11745 -3.11746,0 -3.11745,0 0,-6.23491 0,-6.2349 3.11745,0 3.11746,0 0,-3.11746 0,-3.11745 3.11745,0 3.11746,0 0,-3.11746 0,-3.11745 -3.11746,0 -3.11745,0 0,-3.11745 0,-3.11745 -3.11746,0 -3.11745,0 0,-6.23491 0,-6.23491 3.11745,0 3.11746,0 0,-3.11744 0,-3.11746 3.11745,0 3.11746,0 0,-3.11745 0,-3.11746 -3.11746,0 -3.11745,0 0,-3.11745 0,-3.11746 -3.11746,0 -3.11745,0 0,-3.11744 0,-3.11746 3.11745,0 3.11746,0 0,-3.11745 0,-3.11746 -9.35236,0 -9.35236,0 0,-3.11745 0,-3.11746 -3.11746,0 -3.11745,0 0,6.23491 0,6.23491 6.23491,0 6.23491,0 0,3.11746 0,3.11744 -6.23491,0 -6.23491,0 0,-3.11744 0,-3.11746 -6.2349,0 -6.23491,0 0,6.2349 0,6.23491 -3.11745,0 -3.11746,0 0,3.11746 0,3.11745 -6.2349,0 -6.23491,0 0,-3.11745 0,-3.11746 -3.11745,0 -3.11746,0 0,3.11746 0,3.11745 -3.11744,0 -3.11746,0 0,3.11746 0,3.11744 -3.11745,0 -3.11746,0 0,3.11746 0,3.11745 -3.11745,0 -3.11746,0 0,-9.35235 0,-9.35237 3.11746,0 3.11745,0 0,-3.11745 0,-3.11746 3.11746,0 3.11745,0 0,-3.11744 0,-3.11746 -3.11745,0 -3.11746,0 0,-3.11745 0,-3.11746 3.11746,0 3.11745,0 0,-6.23491 0,-6.2349 -3.11745,0 -3.11746,0 0,-3.11745 0,-3.11746 -3.11745,0 -3.11746,0 0,-3.11745 0,-3.11746 -3.11744,0 -3.11746,0 0,3.11746 0,3.11745 -3.11745,0 -3.11746,0 0,-3.11745 0,-3.11746 3.11746,0 3.11745,0 0,-3.11744 0,-3.11746 -3.11745,0 -3.11746,0 0,-3.11745 0,-3.11745 -3.11746,0 -3.11745,0 0,-3.11746 0,-3.11745 3.11745,0 3.11746,0 0,-3.11745 0,-3.11745 3.11746,0 3.11745,0 0,3.11745 0,3.11745 6.2349,0 6.23491,0 0,-3.11745 0,-3.11745 6.23491,0 6.2349,0 0,3.11745 0,3.11745 9.35237,0 9.35235,0 0,-3.11745 0,-3.11745 -6.2349,0 -6.23491,0 0,-3.11746 0,-3.11745 -3.11745,0 -3.11746,0 0,-3.11746 0,-3.11745 3.11746,0 3.11745,0 0,3.11745 0,3.11746 3.11746,0 3.11745,0 0,-3.11746 0,-3.11745 3.11746,0 3.11744,0 0,6.23491 0,6.23491 3.11746,0 3.11745,0 0,3.11745 0,3.11745 -3.11745,0 -3.11746,0 0,3.11745 0,3.11746 -9.35235,0 -9.35237,0 0,-3.11746 0,-3.11745 -6.2349,0 -6.23491,0 0,3.11745 0,3.11746 3.11746,0 3.11745,0 0,3.11745 0,3.11745 3.11746,0 3.11744,0 0,6.2349 0,6.23491 6.23491,0 6.23491,0 0,-3.11745 0,-3.11746 -3.11745,0 -3.11746,0 0,-3.11744 0,-3.11746 6.23491,0 6.2349,0 0,6.2349 0,6.23491 3.11746,0 3.11745,0 0,-6.23491 0,-6.2349 6.23491,0 6.2349,0 0,3.11746 0,3.11744 6.23491,0 6.23491,0 0,3.11746 0,3.11745 -6.23491,0 -6.23491,0 0,-3.11745 0,-3.11746 -3.11745,0 -3.11745,0 0,3.11746 0,3.11745 -3.11746,0 -3.11745,0 0,3.11746 0,3.11745 3.11745,0 3.11746,0 0,3.11746 0,3.11744 3.11745,0 3.11745,0 0,-3.11744 0,-3.11746 3.11745,0 3.11746,0 0,3.11746 0,3.11744 9.35236,0 9.35236,0 0,3.11746 0,3.11745 3.11745,0 3.11746,0 0,3.11746 0,3.11745 -3.11746,0 -3.11745,0 0,3.11746 0,3.11744 6.23491,0 6.2349,0 0,-3.11744 0,-3.11746 3.11745,0 3.11746,0 0,3.11746 0,3.11744 -3.11746,0 -3.11745,0 0,3.11746 0,3.11745 6.23491,0 6.23491,0 0,-3.11745 0,-3.11746 3.11745,0 3.11745,0 0,3.11746 0,3.11745 -3.11745,0 -3.11745,0 0,3.11746 0,3.11745 -6.23491,0 -6.23491,0 0,3.11746 0,3.11744 -6.2349,0 -6.23491,0 0,6.23491 0,6.23491 3.11745,0 3.11746,0 0,3.11745 0,3.11745 3.11745,0 3.11745,0 0,3.11745 0,3.11746 3.11745,0 3.11746,0 0,-6.23491 0,-6.2349 -3.11746,0 -3.11745,0 0,-3.11745 0,-3.11746 3.11745,0 3.11746,0 0,3.11746 0,3.11745 3.11745,0 3.11746,0 0,6.2349 0,6.23491 -3.11746,0 -3.11745,0 0,6.23491 0,6.2349 3.11745,0 3.11746,0 0,-3.11745 0,-3.11745 3.11745,0 3.11745,0 0,3.11745 0,3.11745 3.11745,0 3.11746,0 0,-3.11745 0,-3.11745 3.11745,0 3.11745,0 0,-3.11746 0,-3.11745 -6.2349,0 -6.23491,0 0,-3.11746 0,-3.11745 6.23491,0 6.2349,0 0,3.11745 0,3.11746 3.11746,0 3.11744,0 0,-3.11746 0,-3.11745 3.11746,0 3.11745,0 0,3.11745 0,3.11746 3.11746,0 3.11745,0 0,3.11745 0,3.11746 3.11746,0 3.11744,0 0,6.2349 0,6.23491 -3.11744,0 -3.11746,0 0,3.11745 0,3.11746 -6.23491,0 -6.23491,0 0,-3.11746 0,-3.11745 -3.11744,0 -3.11746,0 0,6.23491 0,6.2349 6.2349,0 6.23491,0 0,3.11745 0,3.11746 -3.11745,0 -3.11746,0 0,3.11745 0,3.11746 -3.11744,0 -3.11746,0 0,-6.23491 0,-6.23491 -3.11745,0 -3.11745,0 0,-6.2349 0,-6.23491 -3.11746,0 -3.11745,0 0,-3.11746 0,-3.11745 -3.11745,0 -3.11745,0 0,3.11745 0,3.11746 -3.11746,0 -3.11745,0 0,-3.11746 0,-3.11745 -3.11746,0 -3.11745,0 0,6.23491 0,6.23491 6.23491,0 6.23491,0 0,3.11745 0,3.11745 -9.35237,0 -9.35235,0 0,3.11745 0,3.11746 -6.23491,0 -6.23491,0 0,6.23491 0,6.23491 3.11745,0 3.11746,0 0,-3.11746 0,-3.11745 3.11745,0 3.11746,0 0,3.11745 0,3.11746 3.11745,0 3.11745,0 0,3.11744 0,3.11746 -12.46981,0 -12.46981,0 0,3.11745 0,3.11746 -3.11746,0 -3.11745,0 0,3.11745 0,3.11745 -3.11746,0 -3.11745,0 0,-3.11745 z m 18.70472,-31.17454 0,-3.11745 -3.11745,0 -3.11745,0 0,-3.11745 0,-3.11745 -3.11746,0 -3.11745,0 0,3.11745 0,3.11745 3.11745,0 3.11746,0 0,3.11745 0,3.11746 3.11745,0 3.11745,0 0,-3.11746 z m 12.46982,-18.70472 0,-3.11745 3.11745,0 3.11745,0 0,-3.11745 0,-3.11745 -3.11745,0 -3.11745,0 0,3.11745 0,3.11745 -3.11746,0 -3.11745,0 0,3.11745 0,3.11746 3.11745,0 3.11746,0 0,-3.11746 z m 37.40943,0 0,-3.11745 3.11746,0 3.11744,0 0,3.11745 0,3.11746 6.23491,0 6.23491,0 0,-6.23491 0,-6.2349 -3.11745,0 -3.11746,0 0,-3.11746 0,-3.11745 -3.11745,0 -3.11746,0 0,3.11745 0,3.11746 -3.11744,0 -3.11746,0 0,3.11745 0,3.11745 -3.11745,0 -3.11745,0 0,3.11745 0,3.11746 3.11745,0 3.11745,0 0,-3.11746 z m 6.2349,-6.2349 0,-3.11745 3.11746,0 3.11745,0 0,3.11745 0,3.11745 -3.11745,0 -3.11746,0 0,-3.11745 z m -118.46321,-43.64434 0,-3.11746 3.11746,0 3.11744,0 0,-3.11745 0,-3.11746 3.11746,0 3.11745,0 0,-3.11744 0,-3.11746 3.11746,0 3.11745,0 0,6.2349 0,6.23491 3.11746,0 3.11744,0 0,-6.23491 0,-6.2349 3.11746,0 3.11745,0 0,-3.11745 0,-3.11746 3.11745,0 3.11746,0 0,-3.11745 0,-3.11746 -3.11746,0 -3.11745,0 0,-3.11744 0,-3.11746 -6.23491,0 -6.2349,0 0,6.2349 0,6.23491 -3.11745,0 -3.11746,0 0,-6.23491 0,-6.2349 -3.11745,0 -3.11746,0 0,6.2349 0,6.23491 -3.11744,0 -3.11746,0 0,3.11746 0,3.11745 3.11746,0 3.11744,0 0,3.11746 0,3.11744 -3.11744,0 -3.11746,0 0,3.11746 0,3.11745 -3.11745,0 -3.11746,0 0,3.11746 0,3.11745 3.11746,0 3.11745,0 0,-3.11745 z m 6.2349,-18.70472 0,-3.11746 3.11746,0 3.11745,0 0,3.11746 0,3.11745 -3.11745,0 -3.11746,0 0,-3.11745 z m 12.46982,0 0,-3.11746 3.11746,0 3.11744,0 0,-3.11745 0,-3.11746 3.11746,0 3.11745,0 0,3.11746 0,3.11745 -3.11745,0 -3.11746,0 0,3.11746 0,3.11745 -3.11744,0 -3.11746,0 0,-3.11745 z m -18.70472,-28.05709 0,-6.2349 -3.11745,0 -3.11746,0 0,-3.11745 0,-3.11745 -3.11745,0 -3.11746,0 0,3.11745 0,3.11745 3.11746,0 3.11745,0 0,6.2349 0,6.23491 3.11746,0 3.11745,0 0,-6.23491 z m -18.70472,-15.58726 0,-3.11745 -3.11745,0 -3.11746,0 0,3.11745 0,3.11746 3.11746,0 3.11745,0 0,-3.11746 z m 31.17453,155.87266 0,-3.11745 -6.23491,0 -6.2349,0 0,-3.11746 0,-3.11744 -3.11745,0 -3.11746,0 0,-3.11746 0,-3.11745 -3.11745,0 -3.11746,0 0,-9.35237 0,-9.35235 6.23491,0 6.23491,0 0,3.11745 0,3.11745 3.11746,0 3.11744,0 0,6.23491 0,6.23491 3.11746,0 3.11745,0 0,3.11745 0,3.11746 3.11746,0 3.11745,0 0,6.2349 0,6.23491 -3.11745,0 -3.11746,0 0,-3.11746 z m -6.23491,-12.46981 0,-3.11745 -3.11744,0 -3.11746,0 0,3.11745 0,3.11746 3.11746,0 3.11744,0 0,-3.11746 z m -6.2349,-12.46982 0,-3.11745 -3.11745,0 -3.11746,0 0,3.11745 0,3.11746 3.11746,0 3.11745,0 0,-3.11746 z m -37.40945,18.70472 0,-3.11744 6.23491,0 6.23491,0 0,3.11744 0,3.11746 -6.23491,0 -6.23491,0 0,-3.11746 z m 0,-18.70472 0,-3.11745 3.11746,0 3.11745,0 0,3.11745 0,3.11746 -3.11745,0 -3.11746,0 0,-3.11746 z m 180.81229,-18.70472 0,-3.11745 3.11746,0 3.11745,0 0,3.11745 0,3.11746 -3.11745,0 -3.11746,0 0,-3.11746 z m 0,-12.46981 0,-3.11745 -3.11745,0 -3.11746,0 0,-6.23491 0,-6.2349 3.11746,0 3.11745,0 0,6.2349 0,6.23491 3.11746,0 3.11745,0 0,3.11745 0,3.11746 -3.11745,0 -3.11746,0 0,-3.11746 z m -180.81229,-6.23491 0,-3.11745 3.11746,0 3.11745,0 0,-3.11745 0,-3.11745 -3.11745,0 -3.11746,0 0,-3.11745 0,-3.11746 -3.11745,0 -3.11745,0 0,-3.11745 0,-3.11746 3.11745,0 3.11745,0 0,-3.11744 0,-3.11746 3.11746,0 3.11745,0 0,9.35236 0,9.35236 3.11745,0 3.11746,0 0,3.11745 0,3.11745 3.11746,0 3.11745,0 0,-3.11745 0,-3.11745 3.11746,0 3.11744,0 0,3.11745 0,3.11745 -3.11744,0 -3.11746,0 0,3.11745 0,3.11746 -9.35237,0 -9.35236,0 0,-3.11746 z m 187.0472,-12.4698 0,-9.35237 3.11746,0 3.11744,0 0,9.35237 0,9.35235 -3.11744,0 -3.11746,0 0,-9.35235 z m 12.46981,3.11745 0,-6.23491 3.11746,0 3.11745,0 0,6.23491 0,6.2349 -3.11745,0 -3.11746,0 0,-6.2349 z m 0,-15.58726 0,-3.11746 3.11746,0 3.11745,0 0,-3.11745 0,-3.11746 6.2349,0 6.23491,0 0,3.11746 0,3.11745 -6.23491,0 -6.2349,0 0,3.11746 0,3.11744 -3.11745,0 -3.11746,0 0,-3.11744 z m 18.70472,-18.70472 0,-3.11746 3.11746,0 3.11745,0 0,3.11746 0,3.11744 -3.11745,0 -3.11746,0 0,-3.11744 z m 6.23491,-12.46982 0,-3.11746 3.11745,0 3.11746,0 0,3.11746 0,3.11745 -3.11746,0 -3.11745,0 0,-3.11745 z m -12.46982,-12.46981 0,-3.11746 6.23491,0 6.23491,0 0,3.11746 0,3.11745 -6.23491,0 -6.23491,0 0,-3.11745 z m -249.39625,-6.23491 0,-3.11746 3.11745,0 3.11746,0 0,-6.2349 0,-6.2349 3.11744,0 3.11746,0 0,3.11745 0,3.11745 3.11745,0 3.11746,0 0,3.11746 0,3.11744 -3.11746,0 -3.11745,0 0,3.11746 0,3.11745 -6.2349,0 -6.23491,0 0,-3.11745 z m 62.34906,171.45992 0,-6.2349 -3.11744,0 -3.11746,0 0,3.11745 0,3.11745 -3.11745,0 -3.11746,0 0,-3.11745 0,-3.11745 -3.11746,0 -3.11745,0 0,-3.11745 0,-3.11746 -3.11745,0 -3.11746,0 0,3.11746 0,3.11745 3.11746,0 3.11745,0 0,3.11745 0,3.11745 3.11745,0 3.11746,0 0,3.11746 0,3.11745 6.23491,0 6.2349,0 0,-6.23491 z m -99.7585,-9.35235 0,-3.11746 -3.11746,0 -3.11745,0 0,3.11746 0,3.11745 3.11745,0 3.11746,0 0,-3.11745 z m 24.93963,0 0,-3.11746 -3.11746,0 -3.11745,0 0,3.11746 0,3.11745 3.11745,0 3.11746,0 0,-3.11745 z m -68.58398,-6.23491 0,-3.11746 -3.11745,0 -3.11745,0 0,3.11746 0,3.11745 3.11745,0 3.11745,0 0,-3.11745 z m 12.46982,0 0,-3.11746 3.11745,0 3.11745,0 0,-3.11745 0,-3.11745 -3.11745,0 -3.11745,0 0,3.11745 0,3.11745 -3.11745,0 -3.11746,0 0,3.11746 0,3.11745 3.11746,0 3.11745,0 0,-3.11745 z m 18.70472,-3.11746 0,-6.2349 -3.11745,0 -3.11746,0 0,6.2349 0,6.23491 3.11746,0 3.11745,0 0,-6.23491 z m 105.99341,0 0,-6.2349 -3.11745,0 -3.11746,0 0,6.2349 0,6.23491 3.11746,0 3.11745,0 0,-6.23491 z m -155.87267,-3.11745 0,-3.11745 -3.11745,0 -3.11745,0 0,3.11745 0,3.11745 3.11745,0 3.11745,0 0,-3.11745 z m 74.81888,0 0,-3.11745 -3.11746,0 -3.11744,0 0,3.11745 0,3.11745 3.11744,0 3.11746,0 0,-3.11745 z m 12.46982,0 0,-3.11745 -3.11746,0 -3.11745,0 0,3.11745 0,3.11745 3.11745,0 3.11746,0 0,-3.11745 z m 12.46981,0 0,-3.11745 3.11745,0 3.11746,0 0,-6.2349 0,-6.23491 -6.23491,0 -6.23491,0 0,3.11745 0,3.11746 3.11745,0 3.11746,0 0,3.11745 0,3.11745 -3.11746,0 -3.11745,0 0,3.11745 0,3.11745 3.11745,0 3.11746,0 0,-3.11745 z m -37.40944,-6.2349 0,-3.11745 -3.11746,0 -3.11745,0 0,3.11745 0,3.11745 3.11745,0 3.11746,0 0,-3.11745 z m -12.46981,-9.35236 0,-6.2349 3.11745,0 3.11745,0 0,-3.11746 0,-3.11745 3.11745,0 3.11746,0 0,-3.11746 0,-3.11745 -3.11746,0 -3.11745,0 0,3.11745 0,3.11746 -3.11745,0 -3.11745,0 0,-3.11746 0,-3.11745 -3.11745,0 -3.11746,0 0,-3.11746 0,-3.11745 -3.11745,0 -3.11746,0 0,3.11745 0,3.11746 3.11746,0 3.11745,0 0,3.11745 0,3.11746 3.11746,0 3.11745,0 0,3.11745 0,3.11746 -3.11745,0 -3.11746,0 0,6.2349 0,6.23491 3.11746,0 3.11745,0 0,-6.23491 z m 31.17453,3.11745 0,-3.11745 3.11745,0 3.11746,0 0,-3.11746 0,-3.11744 3.11744,0 3.11746,0 0,-3.11746 0,-3.11745 -3.11746,0 -3.11744,0 0,3.11745 0,3.11746 -3.11746,0 -3.11745,0 0,3.11744 0,3.11746 -3.11746,0 -3.11745,0 0,3.11745 0,3.11746 3.11745,0 3.11746,0 0,-3.11746 z m 43.64435,0 0,-3.11745 -6.23491,0 -6.23491,0 0,3.11745 0,3.11746 6.23491,0 6.23491,0 0,-3.11746 z m -56.11416,-6.23491 0,-3.11744 -3.11746,0 -3.11745,0 0,3.11744 0,3.11746 3.11745,0 3.11746,0 0,-3.11746 z m -187.04719,-6.2349 0,-3.11745 -3.11745,0 -3.11746,0 0,3.11745 0,3.11746 3.11746,0 3.11745,0 0,-3.11746 z m 118.46321,0 0,-3.11745 -3.11745,0 -3.11745,0 0,3.11745 0,3.11746 3.11745,0 3.11745,0 0,-3.11746 z m 37.40944,0 0,-3.11745 -3.11745,0 -3.11745,0 0,3.11745 0,3.11746 3.11745,0 3.11745,0 0,-3.11746 z m -137.16793,-6.23491 0,-3.11745 3.11745,0 3.11745,0 0,-3.11746 0,-3.11745 -3.11745,0 -3.11745,0 0,3.11745 0,3.11746 -3.11745,0 -3.11746,0 0,3.11745 0,3.11746 3.11746,0 3.11745,0 0,-3.11746 z m 118.46321,0 0,-3.11745 -3.11745,0 -3.11745,0 0,3.11745 0,3.11746 3.11745,0 3.11745,0 0,-3.11746 z m 62.34907,0 0,-3.11745 3.11745,0 3.11746,0 0,-3.11746 0,-3.11745 -3.11746,0 -3.11745,0 0,3.11745 0,3.11746 -3.11746,0 -3.11745,0 0,3.11745 0,3.11746 3.11745,0 3.11746,0 0,-3.11746 z m 130.93304,0 0,-3.11745 -6.23491,0 -6.23491,0 0,3.11745 0,3.11746 6.23491,0 6.23491,0 0,-3.11746 z m -324.21513,-6.23491 0,-3.11745 -3.11746,0 -3.11745,0 0,3.11745 0,3.11746 3.11745,0 3.11746,0 0,-3.11746 z m 143.40284,0 0,-3.11745 -3.11745,0 -3.11746,0 0,3.11745 0,3.11746 3.11746,0 3.11745,0 0,-3.11746 z m -93.52359,-6.2349 0,-3.11745 -3.11746,0 -3.11745,0 0,3.11745 0,3.11745 3.11745,0 3.11746,0 0,-3.11745 z m 56.11415,0 0,-3.11745 3.11745,0 3.11745,0 0,-3.11746 0,-3.11745 -6.2349,0 -6.23491,0 0,6.23491 0,6.2349 3.11746,0 3.11745,0 0,-3.11745 z m 68.58397,0 0,-3.11745 3.11745,0 3.11746,0 0,3.11745 0,3.11745 3.11744,0 3.11746,0 0,-3.11745 0,-3.11745 9.35236,0 9.35236,0 0,-3.11746 0,-3.11745 -3.11746,0 -3.11744,0 0,-3.11746 0,-3.11745 3.11744,0 3.11746,0 0,-3.11745 0,-3.11745 3.11745,0 3.11746,0 0,-3.11746 0,-3.11745 -3.11746,0 -3.11745,0 0,3.11745 0,3.11746 -3.11746,0 -3.11744,0 0,3.11745 0,3.11745 -3.11746,0 -3.11745,0 0,3.11745 0,3.11746 -3.11746,0 -3.11745,0 0,3.11745 0,3.11746 -3.11746,0 -3.11744,0 0,-3.11746 0,-3.11745 -3.11746,0 -3.11745,0 0,3.11745 0,3.11746 -6.23491,0 -6.2349,0 0,-3.11746 0,-3.11745 -3.11745,0 -3.11746,0 0,3.11745 0,3.11746 3.11746,0 3.11745,0 0,3.11745 0,3.11745 6.2349,0 6.23491,0 0,-3.11745 z m -155.87266,-6.23491 0,-3.11745 -6.2349,0 -6.23491,0 0,3.11745 0,3.11746 6.23491,0 6.2349,0 0,-3.11746 z m 18.70472,0 0,-3.11745 -3.11746,0 -3.11744,0 0,3.11745 0,3.11746 3.11744,0 3.11746,0 0,-3.11746 z m 31.17454,-3.11745 0,-6.23491 -3.11746,0 -3.11745,0 0,6.23491 0,6.23491 3.11745,0 3.11746,0 0,-6.23491 z m 24.93961,3.11745 0,-3.11745 -9.35235,0 -9.35236,0 0,3.11745 0,3.11746 9.35236,0 9.35235,0 0,-3.11746 z m 31.17454,0 0,-3.11745 3.11745,0 3.11745,0 0,-3.11746 0,-3.11745 -3.11745,0 -3.11745,0 0,-3.11745 0,-3.11745 -3.11745,0 -3.11746,0 0,3.11745 0,3.11745 3.11746,0 3.11745,0 0,3.11745 0,3.11746 -3.11745,0 -3.11746,0 0,3.11745 0,3.11746 3.11746,0 3.11745,0 0,-3.11746 z m 18.70472,-3.11745 0,-6.23491 -3.11745,0 -3.11746,0 0,6.23491 0,6.23491 3.11746,0 3.11745,0 0,-6.23491 z m -87.28869,-9.35236 0,-3.11745 -3.11746,0 -3.11744,0 0,-3.11746 0,-3.11745 -3.11746,0 -3.11745,0 0,-3.11746 0,-3.11745 -3.11746,0 -3.11745,0 0,3.11745 0,3.11746 3.11745,0 3.11746,0 0,3.11745 0,3.11746 3.11745,0 3.11746,0 0,3.11745 0,3.11745 3.11744,0 3.11746,0 0,-3.11745 z m 37.40943,0 0,-3.11745 -3.11745,0 -3.11745,0 0,3.11745 0,3.11745 3.11745,0 3.11745,0 0,-3.11745 z m 18.70472,0 0,-3.11745 -3.11745,0 -3.11745,0 0,-3.11746 0,-3.11745 3.11745,0 3.11745,0 0,-3.11746 0,-3.11745 -3.11745,0 -3.11745,0 0,3.11745 0,3.11746 -3.11745,0 -3.11746,0 0,3.11745 0,3.11746 3.11746,0 3.11745,0 0,3.11745 0,3.11745 3.11745,0 3.11745,0 0,-3.11745 z m -37.40943,-6.23491 0,-3.11745 -6.2349,0 -6.23491,0 0,3.11745 0,3.11746 6.23491,0 6.2349,0 0,-3.11746 z m 74.81887,0 0,-3.11745 3.11746,0 3.11745,0 0,-3.11746 0,-3.11745 -3.11745,0 -3.11746,0 0,3.11745 0,3.11746 -3.11745,0 -3.11745,0 0,3.11745 0,3.11746 3.11745,0 3.11745,0 0,-3.11746 z m 18.70472,0 0,-3.11745 -3.11745,0 -3.11745,0 0,3.11745 0,3.11746 3.11745,0 3.11745,0 0,-3.11746 z m -74.81888,-6.23491 0,-3.11745 -3.11745,0 -3.11745,0 0,3.11745 0,3.11746 3.11745,0 3.11745,0 0,-3.11746 z m 43.64435,0 0,-3.11745 -3.11745,0 -3.11746,0 0,3.11745 0,3.11746 3.11746,0 3.11745,0 0,-3.11746 z m 87.28869,0 0,-3.11745 3.11745,0 3.11746,0 0,-3.11745 0,-3.11745 -3.11746,0 -3.11745,0 0,3.11745 0,3.11745 -3.11746,0 -3.11744,0 0,3.11745 0,3.11746 3.11744,0 3.11746,0 0,-3.11746 z M 210.03,292.9912 l 0,-3.11745 -3.11746,0 -3.11744,0 0,3.11745 0,3.11745 3.11744,0 3.11746,0 0,-3.11745 z m 24.93963,0 0,-3.11745 3.11745,0 3.11745,0 0,-3.11745 0,-3.11746 -3.11745,0 -3.11745,0 0,3.11746 0,3.11745 -3.11746,0 -3.11745,0 0,3.11745 0,3.11745 3.11745,0 3.11746,0 0,-3.11745 z m 43.64434,-3.11745 0,-6.23491 3.11745,0 3.11745,0 0,-3.11745 0,-3.11746 -3.11745,0 -3.11745,0 0,3.11746 0,3.11745 -3.11745,0 -3.11746,0 0,-3.11745 0,-3.11746 -3.11745,0 -3.11746,0 0,3.11746 0,3.11745 3.11746,0 3.11745,0 0,6.23491 0,6.2349 3.11746,0 3.11745,0 0,-6.2349 z m 56.11416,0 0,-6.23491 3.11744,0 3.11746,0 0,-3.11745 0,-3.11746 -3.11746,0 -3.11744,0 0,3.11746 0,3.11745 -3.11746,0 -3.11745,0 0,-3.11745 0,-3.11746 -3.11746,0 -3.11745,0 0,3.11746 0,3.11745 3.11745,0 3.11746,0 0,6.23491 0,6.2349 3.11745,0 3.11746,0 0,-6.2349 z m 12.46981,3.11745 0,-3.11745 -3.11746,0 -3.11745,0 0,3.11745 0,3.11745 3.11745,0 3.11746,0 0,-3.11745 z m 24.93963,-6.2349 0,-3.11746 3.11744,0 3.11746,0 0,-3.11745 0,-3.11746 -3.11746,0 -3.11744,0 0,3.11746 0,3.11745 -3.11746,0 -3.11745,0 0,-3.11745 0,-3.11746 -3.11746,0 -3.11745,0 0,3.11746 0,3.11745 3.11745,0 3.11746,0 0,3.11746 0,3.11745 3.11745,0 3.11746,0 0,-3.11745 z m -149.63775,-6.23491 0,-3.11746 -3.11746,0 -3.11745,0 0,3.11746 0,3.11745 3.11745,0 3.11746,0 0,-3.11745 z m 87.28868,0 0,-3.11746 -3.11745,0 -3.11746,0 0,3.11746 0,3.11745 3.11746,0 3.11745,0 0,-3.11745 z m 43.64435,0 0,-3.11746 -3.11746,0 -3.11745,0 0,3.11746 0,3.11745 3.11745,0 3.11746,0 0,-3.11745 z m -118.46322,-6.2349 0,-3.11746 3.11745,0 3.11745,0 0,3.11746 0,3.11744 3.11745,0 3.11745,0 0,-3.11744 0,-3.11746 -3.11745,0 -3.11745,0 0,-3.11745 0,-3.11746 -3.11745,0 -3.11745,0 0,3.11746 0,3.11745 -3.11746,0 -3.11745,0 0,3.11746 0,3.11744 3.11745,0 3.11746,0 0,-3.11744 z m 24.93962,0 0,-3.11746 -3.11745,0 -3.11746,0 0,3.11746 0,3.11744 3.11746,0 3.11745,0 0,-3.11744 z m 24.93962,-6.23491 0,-3.11746 -6.2349,0 -6.23491,0 0,3.11746 0,3.11745 6.23491,0 6.2349,0 0,-3.11745 z m 18.70472,0 0,-3.11746 -6.2349,0 -6.23491,0 0,3.11746 0,3.11745 6.23491,0 6.2349,0 0,-3.11745 z m 12.46982,0 0,-3.11746 -3.11745,0 -3.11746,0 0,3.11746 0,3.11745 3.11746,0 3.11745,0 0,-3.11745 z m 18.70472,0 0,-3.11746 -3.11746,0 -3.11745,0 0,-3.11745 0,-3.11746 3.11745,0 3.11746,0 0,-3.11744 0,-3.11746 3.11744,0 3.11746,0 0,-3.11745 0,-3.11746 -3.11746,0 -3.11744,0 0,3.11746 0,3.11745 -3.11746,0 -3.11745,0 0,3.11746 0,3.11744 -3.11746,0 -3.11745,0 0,3.11746 0,3.11745 3.11745,0 3.11746,0 0,3.11746 0,3.11745 3.11745,0 3.11746,0 0,-3.11745 z m 18.70472,-3.11746 0,-6.23491 -3.11746,0 -3.11745,0 0,3.11746 0,3.11745 -3.11746,0 -3.11745,0 0,3.11746 0,3.11745 6.23491,0 6.23491,0 0,-6.23491 z m 12.46981,3.11746 0,-3.11746 -3.11746,0 -3.11745,0 0,3.11746 0,3.11745 3.11745,0 3.11746,0 0,-3.11745 z m 12.46981,0 0,-3.11746 -3.11746,0 -3.11744,0 0,3.11746 0,3.11745 3.11744,0 3.11746,0 0,-3.11745 z m 12.46982,-3.11746 0,-6.23491 -3.11746,0 -3.11745,0 0,6.23491 0,6.23491 3.11745,0 3.11746,0 0,-6.23491 z m -124.69814,-3.11745 0,-3.11746 -3.11745,0 -3.11745,0 0,3.11746 0,3.11745 3.11745,0 3.11745,0 0,-3.11745 z m 24.93963,-6.2349 0,-3.11746 -3.11745,0 -3.11746,0 0,3.11746 0,3.11744 3.11746,0 3.11745,0 0,-3.11744 z m 12.46981,0 0,-3.11746 -3.11745,0 -3.11745,0 0,3.11746 0,3.11744 3.11745,0 3.11745,0 0,-3.11744 z m 68.58398,-6.23491 0,-9.35237 -3.11746,0 -3.11745,0 0,9.35237 0,9.35235 3.11745,0 3.11746,0 0,-9.35235 z m -12.46982,0 0,-3.11746 -3.11746,0 -3.11744,0 0,-3.11745 0,-3.11746 -3.11746,0 -3.11745,0 0,6.23491 0,6.23491 6.23491,0 6.2349,0 0,-3.11745 z m 31.17454,0 0,-3.11746 -3.11746,0 -3.11745,0 0,3.11746 0,3.11745 3.11745,0 3.11746,0 0,-3.11745 z m -68.58398,-6.23491 0,-3.11746 3.11745,0 3.11746,0 0,-3.11744 0,-3.11746 -3.11746,0 -3.11745,0 0,3.11746 0,3.11744 -3.11745,0 -3.11745,0 0,3.11746 0,3.11745 3.11745,0 3.11745,0 0,-3.11745 z m -124.69812,380.32928 0,-3.11745 3.11745,0 3.11746,0 0,3.11745 0,3.11746 -3.11746,0 -3.11745,0 0,-3.11746 z m 18.70472,0 0,-3.11745 3.11745,0 3.11746,0 0,3.11745 0,3.11746 -3.11746,0 -3.11745,0 0,-3.11746 z m 18.70472,0 0,-3.11745 3.11745,0 3.11745,0 0,3.11745 0,3.11746 -3.11745,0 -3.11745,0 0,-3.11746 z m 18.70471,0 0,-3.11745 3.11746,0 3.11745,0 0,3.11745 0,3.11746 -3.11745,0 -3.11746,0 0,-3.11746 z m 18.70472,0 0,-3.11745 3.11746,0 3.11745,0 0,3.11745 0,3.11746 -3.11745,0 -3.11746,0 0,-3.11746 z m 18.70472,0 0,-3.11745 3.11746,0 3.11745,0 0,3.11745 0,3.11746 -3.11745,0 -3.11746,0 0,-3.11746 z m 130.93304,0 0,-3.11745 3.11746,0 3.11744,0 0,3.11745 0,3.11746 -3.11744,0 -3.11746,0 0,-3.11746 z m 56.11416,0 0,-3.11745 3.11745,0 3.11745,0 0,3.11745 0,3.11746 -3.11745,0 -3.11745,0 0,-3.11746 z m 18.70472,0 0,-3.11745 3.11745,0 3.11745,0 0,3.11745 0,3.11746 -3.11745,0 -3.11745,0 0,-3.11746 z m 31.17453,-56.11415 0,-46.76179 46.7618,0 46.76179,0 0,46.76179 0,46.7618 -46.76179,0 -46.7618,0 0,-46.7618 z m 74.81887,0 0,-28.05708 -28.05707,0 -28.05708,0 0,28.05708 0,28.05708 28.05708,0 28.05707,0 0,-28.05708 z m -37.40944,0 0,-9.35236 9.35237,0 9.35235,0 0,9.35236 0,9.35236 -9.35235,0 -9.35237,0 0,-9.35236 z m -349.15475,37.40944 0,-3.11746 3.11745,0 3.11746,0 0,3.11746 0,3.11745 -3.11746,0 -3.11745,0 0,-3.11745 z m 93.52359,0 0,-3.11746 3.11746,0 3.11745,0 0,3.11746 0,3.11745 -3.11745,0 -3.11746,0 0,-3.11745 z m 56.11416,0 0,-3.11746 3.11745,0 3.11746,0 0,3.11746 0,3.11745 -3.11746,0 -3.11745,0 0,-3.11745 z m 18.70472,0 0,-3.11746 3.11745,0 3.11746,0 0,3.11746 0,3.11745 -3.11746,0 -3.11745,0 0,-3.11745 z m 18.70471,0 0,-3.11746 3.11746,0 3.11745,0 0,3.11746 0,3.11745 -3.11745,0 -3.11746,0 0,-3.11745 z m 56.11417,0 0,-3.11746 3.11746,0 3.11744,0 0,3.11746 0,3.11745 -3.11744,0 -3.11746,0 0,-3.11745 z m 18.70472,0 0,-3.11746 3.11745,0 3.11745,0 0,3.11746 0,3.11745 -3.11745,0 -3.11745,0 0,-3.11745 z m -299.27551,-18.70472 0,-3.11746 3.11745,0 3.11746,0 0,3.11746 0,3.11745 -3.11746,0 -3.11745,0 0,-3.11745 z m 18.70472,0 0,-3.11746 3.11745,0 3.11746,0 0,3.11746 0,3.11745 -3.11746,0 -3.11745,0 0,-3.11745 z m 149.63775,0 0,-3.11746 3.11745,0 3.11746,0 0,3.11746 0,3.11745 -3.11746,0 -3.11745,0 0,-3.11745 z m 37.40944,0 0,-3.11746 3.11745,0 3.11746,0 0,3.11746 0,3.11745 -3.11746,0 -3.11745,0 0,-3.11745 z m 74.81888,0 0,-3.11746 3.11746,0 3.11744,0 0,3.11746 0,3.11745 -3.11744,0 -3.11746,0 0,-3.11745 z m 18.70472,0 0,-3.11746 3.11745,0 3.11745,0 0,3.11746 0,3.11745 -3.11745,0 -3.11745,0 0,-3.11745 z m 37.40944,0 0,-3.11746 3.11745,0 3.11745,0 0,3.11746 0,3.11745 -3.11745,0 -3.11745,0 0,-3.11745 z m -361.62457,-28.05708 0,-18.70472 9.35236,0 9.35235,0 0,18.70472 0,18.70472 -9.35235,0 -9.35236,0 0,-18.70472 z m 43.64434,9.35236 0,-3.11746 3.11745,0 3.11746,0 0,3.11746 0,3.11745 -3.11746,0 -3.11745,0 0,-3.11745 z m 18.70472,0 0,-3.11746 3.11745,0 3.11746,0 0,3.11746 0,3.11745 -3.11746,0 -3.11745,0 0,-3.11745 z m 37.40943,0 0,-3.11746 3.11746,0 3.11745,0 0,3.11746 0,3.11745 -3.11745,0 -3.11746,0 0,-3.11745 z m 18.70472,0 0,-3.11746 3.11746,0 3.11745,0 0,3.11746 0,3.11745 -3.11745,0 -3.11746,0 0,-3.11745 z m 93.5236,0 0,-3.11746 3.11745,0 3.11746,0 0,3.11746 0,3.11745 -3.11746,0 -3.11745,0 0,-3.11745 z m 18.70472,0 0,-3.11746 3.11745,0 3.11746,0 0,3.11746 0,3.11745 -3.11746,0 -3.11745,0 0,-3.11745 z m 56.11416,0 0,-3.11746 3.11746,0 3.11744,0 0,3.11746 0,3.11745 -3.11744,0 -3.11746,0 0,-3.11745 z m 74.81888,0 0,-3.11746 3.11745,0 3.11745,0 0,3.11746 0,3.11745 -3.11745,0 -3.11745,0 0,-3.11745 z m -317.98023,-18.70472 0,-3.11746 3.11745,0 3.11746,0 0,3.11746 0,3.11745 -3.11746,0 -3.11745,0 0,-3.11745 z m 37.40944,0 0,-3.11746 3.11745,0 3.11745,0 0,3.11746 0,3.11745 -3.11745,0 -3.11745,0 0,-3.11745 z m 18.70471,0 0,-3.11746 3.11746,0 3.11745,0 0,3.11746 0,3.11745 -3.11745,0 -3.11746,0 0,-3.11745 z m 93.5236,0 0,-3.11746 3.11745,0 3.11746,0 0,3.11746 0,3.11745 -3.11746,0 -3.11745,0 0,-3.11745 z m 18.70472,0 0,-3.11746 3.11745,0 3.11746,0 0,3.11746 0,3.11745 -3.11746,0 -3.11745,0 0,-3.11745 z m 18.70472,0 0,-3.11746 3.11745,0 3.11746,0 0,3.11746 0,3.11745 -3.11746,0 -3.11745,0 0,-3.11745 z m 37.40944,0 0,-3.11746 3.11746,0 3.11744,0 0,3.11746 0,3.11745 -3.11744,0 -3.11746,0 0,-3.11745 z m 18.70472,0 0,-3.11746 3.11746,0 3.11744,0 0,3.11746 0,3.11745 -3.11744,0 -3.11746,0 0,-3.11745 z m 18.70472,0 0,-3.11746 3.11746,0 3.11744,0 0,3.11746 0,3.11745 -3.11744,0 -3.11746,0 0,-3.11745 z m 18.70472,0 0,-3.11746 3.11745,0 3.11745,0 0,3.11746 0,3.11745 -3.11745,0 -3.11745,0 0,-3.11745 z m 18.70472,0 0,-3.11746 3.11745,0 3.11745,0 0,3.11746 0,3.11745 -3.11745,0 -3.11745,0 0,-3.11745 z M 4.2780983,501.86057 l 0,-37.40944 9.3523587,0 9.35236,0 0,9.35235 0,9.35237 9.352359,0 9.35236,0 0,9.35235 0,9.35237 -9.35236,0 -9.352359,0 0,18.70472 0,18.70471 -9.35236,0 -9.3523587,0 0,-37.40943 z m 112.2283117,28.05707 0,-9.35235 9.35236,0 9.35236,0 0,9.35235 0,9.35236 -9.35236,0 -9.35236,0 0,-9.35236 z m -68.583968,0 0,-3.11745 3.117453,0 3.117453,0 0,3.11745 0,3.11745 -3.117453,0 -3.117453,0 0,-3.11745 z m 18.704719,0 0,-3.11745 3.117454,0 3.117453,0 0,3.11745 0,3.11745 -3.117453,0 -3.117454,0 0,-3.11745 z m 74.818869,0 0,-3.11745 3.11746,0 3.11745,0 0,3.11745 0,3.11745 -3.11745,0 -3.11746,0 0,-3.11745 z m 18.70472,0 0,-3.11745 3.11746,0 3.11745,0 0,3.11745 0,3.11745 -3.11745,0 -3.11746,0 0,-3.11745 z m 37.40944,0 0,-3.11745 3.11745,0 3.11746,0 0,3.11745 0,3.11745 -3.11746,0 -3.11745,0 0,-3.11745 z m 149.63775,0 0,-3.11745 3.11745,0 3.11746,0 0,3.11745 0,3.11745 -3.11746,0 -3.11745,0 0,-3.11745 z m 56.11415,0 0,-3.11745 3.11746,0 3.11745,0 0,3.11745 0,3.11745 -3.11745,0 -3.11746,0 0,-3.11745 z m 18.70473,0 0,-3.11745 3.11746,0 3.11744,0 0,3.11745 0,3.11745 -3.11744,0 -3.11746,0 0,-3.11745 z m 18.70472,0 0,-3.11745 3.11746,0 3.11744,0 0,3.11745 0,3.11745 -3.11744,0 -3.11746,0 0,-3.11745 z m 37.40944,0 0,-3.11745 3.11745,0 3.11745,0 0,3.11745 0,3.11745 -3.11745,0 -3.11745,0 0,-3.11745 z m -118.46323,-6.23491 0,-3.11744 3.11745,0 3.11746,0 0,3.11744 0,3.11746 -3.11746,0 -3.11745,0 0,-3.11746 z m -218.22172,-12.46981 0,-3.11745 3.11746,0 3.11745,0 0,3.11745 0,3.11746 -3.11745,0 -3.11746,0 0,-3.11746 z m 37.40944,0 0,-3.11745 3.11745,0 3.11746,0 0,3.11745 0,3.11746 -3.11746,0 -3.11745,0 0,-3.11746 z m 37.40944,0 0,-3.11745 3.11745,0 3.11746,0 0,3.11745 0,3.11746 -3.11746,0 -3.11745,0 0,-3.11746 z m 18.70472,0 0,-3.11745 3.11745,0 3.11745,0 0,3.11745 0,3.11746 -3.11745,0 -3.11745,0 0,-3.11746 z m 93.52359,0 0,-3.11745 3.11745,0 3.11746,0 0,3.11745 0,3.11746 -3.11746,0 -3.11745,0 0,-3.11746 z m 18.70472,0 0,-3.11745 3.11745,0 3.11746,0 0,-3.11746 0,-3.11744 3.11744,0 3.11746,0 0,3.11744 0,3.11746 -3.11746,0 -3.11744,0 0,3.11745 0,3.11746 -3.11746,0 -3.11745,0 0,-3.11746 z m 18.70472,0 0,-3.11745 3.11745,0 3.11746,0 0,3.11745 0,3.11746 -3.11746,0 -3.11745,0 0,-3.11746 z m 18.70472,0 0,-3.11745 3.11745,0 3.11746,0 0,3.11745 0,3.11746 -3.11746,0 -3.11745,0 0,-3.11746 z m 74.81888,0 0,-3.11745 3.11746,0 3.11744,0 0,3.11745 0,3.11746 -3.11744,0 -3.11746,0 0,-3.11746 z m -342.91985,-18.70472 0,-9.35235 9.35236,0 9.35236,0 0,9.35235 0,9.35237 -9.35236,0 -9.35236,0 0,-9.35237 z m -68.583968,0 0,-3.11745 3.117453,0 3.117453,0 0,3.11745 0,3.11746 -3.117453,0 -3.117453,0 0,-3.11746 z m 18.704719,0 0,-3.11745 3.117454,0 3.117453,0 0,3.11745 0,3.11746 -3.117453,0 -3.117454,0 0,-3.11746 z m 74.818869,0 0,-3.11745 3.11746,0 3.11745,0 0,3.11745 0,3.11746 -3.11745,0 -3.11746,0 0,-3.11746 z m 56.11416,0 0,-3.11745 3.11745,0 3.11746,0 0,3.11745 0,3.11746 -3.11746,0 -3.11745,0 0,-3.11746 z m 168.34247,0 0,-3.11745 3.11745,0 3.11746,0 0,3.11745 0,3.11746 -3.11746,0 -3.11745,0 0,-3.11746 z m 37.40943,0 0,-3.11745 3.11746,0 3.11745,0 0,3.11745 0,3.11746 -3.11745,0 -3.11746,0 0,-3.11746 z m 93.52361,0 0,-3.11745 3.11745,0 3.11745,0 0,3.11745 0,3.11746 -3.11745,0 -3.11745,0 0,-3.11746 z m -143.40285,-9.35235 0,-6.23491 3.11744,0 3.11746,0 0,6.23491 0,6.2349 -3.11746,0 -3.11744,0 0,-6.2349 z m -305.510408,-9.35237 0,-3.11745 3.117453,0 3.117453,0 0,3.11745 0,3.11746 -3.117453,0 -3.117453,0 0,-3.11746 z m 18.704719,0 0,-3.11745 3.117454,0 3.117453,0 0,3.11745 0,3.11746 -3.117453,0 -3.117454,0 0,-3.11746 z m 93.523589,0 0,-3.11745 3.11746,0 3.11745,0 0,3.11745 0,3.11746 -3.11745,0 -3.11746,0 0,-3.11746 z m 37.40944,0 0,-3.11745 3.11745,0 3.11746,0 0,3.11745 0,3.11746 -3.11746,0 -3.11745,0 0,-3.11746 z m 18.70472,0 0,-3.11745 3.11745,0 3.11746,0 0,3.11745 0,3.11746 -3.11746,0 -3.11745,0 0,-3.11746 z m 168.34247,0 0,-3.11745 3.11745,0 3.11746,0 0,3.11745 0,3.11746 -3.11746,0 -3.11745,0 0,-3.11746 z m 37.40944,0 0,-3.11745 3.11746,0 3.11744,0 0,3.11745 0,3.11746 -3.11744,0 -3.11746,0 0,-3.11746 z m 37.40944,0 0,-3.11745 3.11746,0 3.11744,0 0,3.11745 0,3.11746 -3.11744,0 -3.11746,0 0,-3.11746 z m 18.70472,0 0,-3.11745 3.11745,0 3.11745,0 0,3.11745 0,3.11746 -3.11745,0 -3.11745,0 0,-3.11746 z m 74.81887,0 0,-3.11745 3.11746,0 3.11744,0 0,3.11745 0,3.11746 -3.11744,0 -3.11746,0 0,-3.11746 z m 18.70472,0 0,-3.11745 3.11746,0 3.11744,0 0,3.11745 0,3.11746 -3.11744,0 -3.11746,0 0,-3.11746 z m -211.98682,-6.23491 0,-3.11744 3.11745,0 3.11746,0 0,3.11744 0,3.11746 -3.11746,0 -3.11745,0 0,-3.11746 z m -243.16134,-12.46981 0,-9.35235 9.35236,0 9.35236,0 0,9.35235 0,9.35237 -9.35236,0 -9.35236,0 0,-9.35237 z m -49.879249,0 0,-3.11745 3.117454,0 3.117453,0 0,3.11745 0,3.11746 -3.117453,0 -3.117454,0 0,-3.11746 z m 74.818869,0 0,-3.11745 3.11746,0 3.11745,0 0,3.11745 0,3.11746 -3.11745,0 -3.11746,0 0,-3.11746 z m 37.40944,0 0,-3.11745 3.11745,0 3.11746,0 0,3.11745 0,3.11746 -3.11746,0 -3.11745,0 0,-3.11746 z m 18.70472,0 0,-3.11745 3.11745,0 3.11746,0 0,3.11745 0,3.11746 -3.11746,0 -3.11745,0 0,-3.11746 z m 168.34247,0 0,-3.11745 3.11745,0 3.11746,0 0,3.11745 0,3.11746 -3.11746,0 -3.11745,0 0,-3.11746 z m 18.70472,0 0,-3.11745 3.11745,0 3.11746,0 0,3.11745 0,3.11746 -3.11746,0 -3.11745,0 0,-3.11746 z m 18.70471,0 0,-3.11745 3.11746,0 3.11745,0 0,3.11745 0,3.11746 -3.11745,0 -3.11746,0 0,-3.11746 z m 18.70473,0 0,-3.11745 3.11746,0 3.11744,0 0,3.11745 0,3.11746 -3.11744,0 -3.11746,0 0,-3.11746 z m 18.70472,0 0,-3.11745 3.11746,0 3.11744,0 0,3.11745 0,3.11746 -3.11744,0 -3.11746,0 0,-3.11746 z m 37.40944,0 0,-3.11745 3.11745,0 3.11745,0 0,3.11745 0,3.11746 -3.11745,0 -3.11745,0 0,-3.11746 z m 18.70472,0 0,-3.11745 3.11745,0 3.11745,0 0,3.11745 0,3.11746 -3.11745,0 -3.11745,0 0,-3.11746 z m 56.11415,0 0,-3.11745 -3.11745,0 -3.11745,0 0,-6.2349 0,-6.23491 -3.11746,0 -3.11745,0 0,-9.35236 0,-9.35236 -3.11745,0 -3.11745,0 0,-6.23491 0,-6.2349 6.2349,0 6.23491,0 0,-12.46982 0,-12.46981 -3.11746,0 -3.11745,0 0,3.11746 0,3.11745 -6.2349,0 -6.23491,0 0,-3.11745 0,-3.11746 3.11745,0 3.11746,0 0,-3.11745 0,-3.11746 9.35235,0 9.35236,0 0,9.35237 0,9.35235 3.11746,0 3.11744,0 0,3.11746 0,3.11745 -3.11744,0 -3.11746,0 0,6.23491 0,6.2349 3.11746,0 3.11744,0 0,3.11746 0,3.11745 -6.2349,0 -6.2349,0 0,3.11746 0,3.11745 3.11745,0 3.11745,0 0,3.11745 0,3.11745 -3.11745,0 -3.11745,0 0,3.11746 0,3.11745 3.11745,0 3.11745,0 0,6.23491 0,6.2349 3.11746,0 3.11744,0 0,3.11745 0,3.11746 -3.11744,0 -3.11746,0 0,-3.11746 z m 18.70472,0 0,-3.11745 3.11746,0 3.11744,0 0,3.11745 0,3.11746 -3.11744,0 -3.11746,0 0,-3.11746 z m -561.141565,-18.70471 0,-3.11746 3.117452,0 3.117453,0 0,3.11746 0,3.11745 -3.117453,0 -3.117452,0 0,-3.11745 z m 37.409437,0 0,-3.11746 3.117453,0 3.117453,0 0,3.11746 0,3.11745 -3.117453,0 -3.117453,0 0,-3.11745 z m 18.704719,0 0,-3.11746 3.117454,0 3.117453,0 0,3.11746 0,3.11745 -3.117453,0 -3.117454,0 0,-3.11745 z m 18.704719,0 0,-3.11746 3.117453,0 3.117453,0 0,3.11746 0,3.11745 -3.117453,0 -3.117453,0 0,-3.11745 z m 56.11415,0 0,-3.11746 3.11746,0 3.11745,0 0,3.11746 0,3.11745 -3.11745,0 -3.11746,0 0,-3.11745 z m 37.40944,0 0,-3.11746 3.11745,0 3.11746,0 0,3.11746 0,3.11745 -3.11746,0 -3.11745,0 0,-3.11745 z m 18.70472,0 0,-3.11746 3.11745,0 3.11746,0 0,3.11746 0,3.11745 -3.11746,0 -3.11745,0 0,-3.11745 z m 224.45663,0 0,-3.11746 3.11746,0 3.11744,0 0,3.11746 0,3.11745 -3.11744,0 -3.11746,0 0,-3.11745 z m 37.40944,0 0,-3.11746 3.11746,0 3.11744,0 0,3.11746 0,3.11745 -3.11744,0 -3.11746,0 0,-3.11745 z m 37.40944,0 0,-3.11746 3.11745,0 3.11745,0 0,3.11746 0,3.11745 -3.11745,0 -3.11745,0 0,-3.11745 z m 18.70472,0 0,-3.11746 3.11745,0 3.11745,0 0,3.11746 0,3.11745 -3.11745,0 -3.11745,0 0,-3.11745 z m 56.11415,0 0,-3.11746 3.11746,0 3.11744,0 0,3.11746 0,3.11745 -3.11744,0 -3.11746,0 0,-3.11745 z m -455.14816,-18.70472 0,-9.35236 9.35236,0 9.35236,0 0,9.35236 0,9.35236 -9.35236,0 -9.35236,0 0,-9.35236 z m -68.583968,0 0,-3.11746 3.117453,0 3.117453,0 0,3.11746 0,3.11745 -3.117453,0 -3.117453,0 0,-3.11745 z m 18.704719,0 0,-3.11746 3.117454,0 3.117453,0 0,3.11746 0,3.11745 -3.117453,0 -3.117454,0 0,-3.11745 z m 37.409439,0 0,-3.11746 3.11745,0 3.11746,0 0,3.11746 0,3.11745 -3.11746,0 -3.11745,0 0,-3.11745 z m 74.81887,0 0,-3.11746 3.11745,0 3.11746,0 0,3.11746 0,3.11745 -3.11746,0 -3.11745,0 0,-3.11745 z m 18.70472,0 0,-3.11746 3.11745,0 3.11746,0 0,3.11746 0,3.11745 -3.11746,0 -3.11745,0 0,-3.11745 z m 18.70472,0 0,-3.11746 3.11745,0 3.11746,0 0,3.11746 0,3.11745 -3.11746,0 -3.11745,0 0,-3.11745 z m 243.16135,0 0,-3.11746 3.11746,0 3.11744,0 0,3.11746 0,3.11745 -3.11744,0 -3.11746,0 0,-3.11745 z m 37.40944,0 0,-3.11746 3.11745,0 3.11745,0 0,3.11746 0,3.11745 -3.11745,0 -3.11745,0 0,-3.11745 z m 18.70472,0 0,-3.11746 3.11745,0 3.11745,0 0,3.11746 0,3.11745 -3.11745,0 -3.11745,0 0,-3.11745 z m 56.11415,0 0,-3.11746 3.11746,0 3.11744,0 0,3.11746 0,3.11745 -3.11744,0 -3.11746,0 0,-3.11745 z m -411.50382,-15.58727 0,-6.23491 6.23491,0 6.2349,0 0,3.11746 0,3.11745 -3.11745,0 -3.11745,0 0,3.11746 0,3.11745 -3.11745,0 -3.11746,0 0,-6.23491 z m -149.637745,-3.11745 0,-3.11746 3.117452,0 3.117453,0 0,3.11746 0,3.11745 -3.117453,0 -3.117452,0 0,-3.11745 z m 18.704718,0 0,-3.11746 3.117453,0 3.117453,0 0,3.11746 0,3.11745 -3.117453,0 -3.117453,0 0,-3.11745 z m 155.872657,0 0,-3.11746 -3.11746,0 -3.11745,0 0,-3.11745 0,-3.11745 3.11745,0 3.11746,0 0,3.11745 0,3.11745 3.11744,0 3.11746,0 0,3.11746 0,3.11745 -3.11746,0 -3.11744,0 0,-3.11745 z m 31.17453,0 0,-3.11746 3.11745,0 3.11746,0 0,3.11746 0,3.11745 -3.11746,0 -3.11745,0 0,-3.11745 z m 299.27551,0 0,-3.11746 3.11745,0 3.11745,0 0,3.11746 0,3.11745 -3.11745,0 -3.11745,0 0,-3.11745 z m 12.46981,0 0,-3.11746 6.23491,0 6.2349,0 0,3.11746 0,3.11745 -6.2349,0 -6.23491,0 0,-3.11745 z m 43.64434,0 0,-3.11746 3.11746,0 3.11744,0 0,3.11746 0,3.11745 -3.11744,0 -3.11746,0 0,-3.11745 z m -523.732128,-18.70472 0,-3.11746 3.117453,0 3.117453,0 0,3.11746 0,3.11745 -3.117453,0 -3.117453,0 0,-3.11745 z m 37.409438,0 0,-3.11746 3.117453,0 3.117453,0 0,3.11746 0,3.11745 -3.117453,0 -3.117453,0 0,-3.11745 z m 56.11415,0 0,-3.11746 3.11746,0 3.11745,0 0,3.11746 0,3.11745 -3.11745,0 -3.11746,0 0,-3.11745 z m 430.20854,0 0,-3.11746 3.11746,0 3.11744,0 0,3.11746 0,3.11745 -3.11744,0 -3.11746,0 0,-3.11745 z m -561.141565,-18.70472 0,-3.11745 3.117452,0 3.117453,0 0,3.11745 0,3.11746 -3.117453,0 -3.117452,0 0,-3.11746 z m 18.704718,0 0,-3.11745 3.117453,0 3.117453,0 0,3.11745 0,3.11746 -3.117453,0 -3.117453,0 0,-3.11746 z m 74.818877,0 0,-3.11745 3.11745,0 3.11746,0 0,3.11745 0,3.11746 -3.11746,0 -3.11745,0 0,-3.11746 z m 467.61797,0 0,-3.11745 3.11746,0 3.11744,0 0,3.11745 0,3.11746 -3.11744,0 -3.11746,0 0,-3.11746 z m -542.436847,-18.70472 0,-3.11745 3.117453,0 3.117453,0 0,3.11745 0,3.11746 -3.117453,0 -3.117453,0 0,-3.11746 z m 56.114157,0 0,-3.11745 3.117453,0 3.117453,0 0,3.11745 0,3.11746 -3.117453,0 -3.117453,0 0,-3.11746 z m 130.93303,0 0,-3.11745 3.11745,0 3.11746,0 0,3.11745 0,3.11746 -3.11746,0 -3.11745,0 0,-3.11746 z m 18.70472,0 0,-3.11745 3.11745,0 3.11745,0 0,3.11745 0,3.11746 -3.11745,0 -3.11745,0 0,-3.11746 z m 355.38966,0 0,-3.11745 3.11746,0 3.11744,0 0,3.11745 0,3.11746 -3.11744,0 -3.11746,0 0,-3.11746 z m -579.846285,-18.70472 0,-3.11745 3.117452,0 3.117453,0 0,3.11745 0,3.11746 -3.117453,0 -3.117452,0 0,-3.11746 z m 37.409437,0 0,-3.11745 3.117453,0 3.117453,0 0,3.11745 0,3.11746 -3.117453,0 -3.117453,0 0,-3.11746 z m 18.704719,0 0,-3.11745 3.117454,0 3.117453,0 0,3.11745 0,3.11746 -3.117453,0 -3.117454,0 0,-3.11746 z m 18.704719,0 0,-3.11745 3.117453,0 3.117453,0 0,3.11745 0,3.11746 -3.117453,0 -3.117453,0 0,-3.11746 z m 18.70472,0 0,-3.11745 3.11745,0 3.11746,0 0,3.11745 0,3.11746 -3.11746,0 -3.11745,0 0,-3.11746 z m 12.46981,-18.70472 0,-9.35236 9.35236,0 9.35236,0 0,9.35236 0,9.35236 -9.35236,0 -9.35236,0 0,-9.35236 z m -87.288687,0 0,-3.11745 3.117453,0 3.117453,0 0,3.11745 0,3.11746 -3.117453,0 -3.117453,0 0,-3.11746 z m 18.704719,0 0,-3.11745 3.117453,0 3.117453,0 0,3.11745 0,3.11746 -3.117453,0 -3.117453,0 0,-3.11746 z m 18.704719,0 0,-3.11745 3.117454,0 3.117453,0 0,3.11745 0,3.11746 -3.117453,0 -3.117454,0 0,-3.11746 z m 18.704719,0 0,-3.11745 3.117453,0 3.117453,0 0,3.11745 0,3.11746 -3.117453,0 -3.117453,0 0,-3.11746 z m 561.14157,0 0,-3.11745 3.11745,0 3.11746,0 0,3.11745 0,3.11746 -3.11746,0 -3.11745,0 0,-3.11746 z M 29.217723,286.7563 l 0,-3.11746 3.117453,0 3.117453,0 0,3.11746 0,3.11745 -3.117453,0 -3.117453,0 0,-3.11745 z m 56.114157,0 0,-3.11746 3.117453,0 3.117453,0 0,3.11746 0,3.11745 -3.117453,0 -3.117453,0 0,-3.11745 z m 18.70472,0 0,-3.11746 3.11745,0 3.11746,0 0,3.11746 0,3.11745 -3.11746,0 -3.11745,0 0,-3.11745 z m 37.40943,0 0,-3.11746 3.11746,0 3.11745,0 0,3.11746 0,3.11745 -3.11745,0 -3.11746,0 0,-3.11745 z m 505.02742,0 0,-3.11746 3.11745,0 3.11746,0 0,3.11746 0,3.11745 -3.11746,0 -3.11745,0 0,-3.11745 z m -529.96704,-18.70472 0,-9.35237 9.35236,0 9.35236,0 0,9.35237 0,9.35235 -9.35236,0 -9.35236,0 0,-9.35235 z m 436.44344,6.23491 0,-3.11746 9.35236,0 9.35236,0 0,-6.23491 0,-6.23491 3.11746,0 3.11744,0 0,6.23491 0,6.23491 -3.11744,0 -3.11746,0 0,3.11746 0,3.11744 -9.35236,0 -9.35236,0 0,-3.11744 z m -542.436845,-6.23491 0,-3.11746 3.117452,0 3.117453,0 0,3.11746 0,3.11745 -3.117453,0 -3.117452,0 0,-3.11745 z m 18.704718,0 0,-3.11746 3.117453,0 3.117453,0 0,3.11746 0,3.11745 -3.117453,0 -3.117453,0 0,-3.11745 z m 18.704719,0 0,-3.11746 3.117453,0 3.117453,0 0,3.11746 0,3.11745 -3.117453,0 -3.117453,0 0,-3.11745 z m 18.704719,0 0,-3.11746 3.117454,0 3.117453,0 0,3.11746 0,3.11745 -3.117453,0 -3.117454,0 0,-3.11745 z m 18.704719,0 0,-3.11746 3.117453,0 3.117453,0 0,3.11746 0,3.11745 -3.117453,0 -3.117453,0 0,-3.11745 z m 18.70472,0 0,-3.11746 3.11745,0 3.11746,0 0,3.11746 0,3.11745 -3.11746,0 -3.11745,0 0,-3.11745 z m 37.40943,0 0,-3.11746 3.11746,0 3.11745,0 0,3.11746 0,3.11745 -3.11745,0 -3.11746,0 0,-3.11745 z m 37.40944,0 0,-3.11746 3.11745,0 3.11746,0 0,3.11746 0,3.11745 -3.11746,0 -3.11745,0 0,-3.11745 z m 18.70472,0 0,-3.11746 3.11745,0 3.11746,0 0,3.11746 0,3.11745 -3.11746,0 -3.11745,0 0,-3.11745 z m 448.91326,0 0,-3.11746 3.11745,0 3.11746,0 0,3.11746 0,3.11745 -3.11746,0 -3.11745,0 0,-3.11745 z m -87.2887,-9.35237 0,-6.2349 -3.11744,0 -3.11746,0 0,-3.11745 0,-3.11746 3.11746,0 3.11744,0 0,3.11746 0,3.11745 3.11746,0 3.11745,0 0,-3.11745 0,-3.11746 3.11746,0 3.11745,0 0,3.11746 0,3.11745 -3.11745,0 -3.11746,0 0,6.2349 0,6.23491 -3.11745,0 -3.11746,0 0,-6.23491 z m -529.967027,-9.35235 0,-3.11746 3.117453,0 3.117453,0 0,3.11746 0,3.11745 -3.117453,0 -3.117453,0 0,-3.11745 z m 37.409438,0 0,-3.11746 3.117454,0 3.117453,0 0,3.11746 0,3.11745 -3.117453,0 -3.117454,0 0,-3.11745 z m 18.704719,0 0,-3.11746 3.117453,0 3.117453,0 0,3.11746 0,3.11745 -3.117453,0 -3.117453,0 0,-3.11745 z m 56.11415,0 0,-3.11746 3.11746,0 3.11745,0 0,3.11746 0,3.11745 -3.11745,0 -3.11746,0 0,-3.11745 z m 93.5236,0 0,-3.11746 3.11745,0 3.11745,0 0,3.11746 0,3.11745 -3.11745,0 -3.11745,0 0,-3.11745 z m -118.46322,-18.70472 0,-9.35237 9.35236,0 9.35236,0 0,9.35237 0,9.35235 -9.35236,0 -9.35236,0 0,-9.35235 z m -68.583968,0 0,-3.11746 3.117453,0 3.117453,0 0,3.11746 0,3.11745 -3.117453,0 -3.117453,0 0,-3.11745 z m 18.704719,0 0,-3.11746 3.117454,0 3.117453,0 0,3.11746 0,3.11745 -3.117453,0 -3.117454,0 0,-3.11745 z m 74.818869,0 0,-3.11746 3.11746,0 3.11745,0 0,3.11746 0,3.11745 -3.11745,0 -3.11746,0 0,-3.11745 z m 37.40944,0 0,-3.11746 3.11745,0 3.11746,0 0,3.11746 0,3.11745 -3.11746,0 -3.11745,0 0,-3.11745 z m 18.70472,0 0,-3.11746 3.11745,0 3.11746,0 0,3.11746 0,3.11745 -3.11746,0 -3.11745,0 0,-3.11745 z m 18.70472,0 0,-3.11746 3.11745,0 3.11746,0 0,3.11746 0,3.11745 -3.11746,0 -3.11745,0 0,-3.11745 z m 37.40943,0 0,-3.11746 3.11746,0 3.11745,0 0,3.11746 0,3.11745 -3.11745,0 -3.11746,0 0,-3.11745 z m 18.70472,0 0,-3.11746 3.11746,0 3.11745,0 0,3.11746 0,3.11745 -3.11745,0 -3.11746,0 0,-3.11745 z m 18.70472,0 0,-3.11746 3.11746,0 3.11745,0 0,3.11746 0,3.11745 -3.11745,0 -3.11746,0 0,-3.11745 z m 280.57079,0 0,-3.11746 3.11746,0 3.11744,0 0,3.11746 0,3.11745 -3.11744,0 -3.11746,0 0,-3.11745 z m -561.141565,-18.70472 0,-3.11745 3.117452,0 3.117453,0 0,3.11745 0,3.11745 -3.117453,0 -3.117452,0 0,-3.11745 z m 37.409437,0 0,-3.11745 3.117453,0 3.117453,0 0,3.11745 0,3.11745 -3.117453,0 -3.117453,0 0,-3.11745 z m 37.409438,0 0,-3.11745 3.117453,0 3.117453,0 0,3.11745 0,3.11745 -3.117453,0 -3.117453,0 0,-3.11745 z m 74.81887,0 0,-3.11745 3.11746,0 3.11745,0 0,3.11745 0,3.11745 -3.11745,0 -3.11746,0 0,-3.11745 z m 18.70472,0 0,-3.11745 3.11745,0 3.11746,0 0,3.11745 0,3.11745 -3.11746,0 -3.11745,0 0,-3.11745 z m 18.70472,0 0,-3.11745 3.11745,0 3.11746,0 0,3.11745 0,3.11745 -3.11746,0 -3.11745,0 0,-3.11745 z m 93.52359,0 0,-3.11745 3.11746,0 3.11745,0 0,3.11745 0,3.11745 -3.11745,0 -3.11746,0 0,-3.11745 z m 18.70472,0 0,-3.11745 3.11746,0 3.11745,0 0,3.11745 0,3.11745 -3.11745,0 -3.11746,0 0,-3.11745 z m 336.68495,0 0,-3.11745 3.11745,0 3.11746,0 0,3.11745 0,3.11745 -3.11746,0 -3.11745,0 0,-3.11745 z m -529.96704,-18.70472 0,-9.35236 9.35236,0 9.35236,0 0,9.35236 0,9.35236 -9.35236,0 -9.35236,0 0,-9.35236 z m -105.993405,0 0,-3.11745 3.117452,0 3.117453,0 0,3.11745 0,3.11746 -3.117453,0 -3.117452,0 0,-3.11746 z m 18.704718,0 0,-3.11745 3.117453,0 3.117453,0 0,3.11745 0,3.11746 -3.117453,0 -3.117453,0 0,-3.11746 z m 37.409438,0 0,-3.11745 3.117454,0 3.117453,0 0,3.11745 0,3.11746 -3.117453,0 -3.117454,0 0,-3.11746 z m 74.818869,0 0,-3.11745 3.11746,0 3.11745,0 0,3.11745 0,3.11746 -3.11745,0 -3.11746,0 0,-3.11746 z m 37.40944,0 0,-3.11745 3.11745,0 3.11746,0 0,3.11745 0,3.11746 -3.11746,0 -3.11745,0 0,-3.11746 z m 37.40944,0 0,-3.11745 3.11745,0 3.11746,0 0,3.11745 0,3.11746 -3.11746,0 -3.11745,0 0,-3.11746 z m 37.40943,0 0,-3.11745 3.11746,0 3.11745,0 0,3.11745 0,3.11746 -3.11745,0 -3.11746,0 0,-3.11746 z m 18.70472,0 0,-3.11745 3.11746,0 3.11745,0 0,3.11745 0,3.11746 -3.11745,0 -3.11746,0 0,-3.11746 z m 37.40944,0 0,-3.11745 3.11746,0 3.11745,0 0,3.11745 0,3.11746 -3.11745,0 -3.11746,0 0,-3.11746 z m 18.70472,0 0,-3.11745 3.11745,0 3.11746,0 0,3.11745 0,3.11746 -3.11746,0 -3.11745,0 0,-3.11746 z m 193.2821,-12.46981 0,-3.11745 3.11745,0 3.11746,0 0,-3.11748 0,-3.11745 6.23491,0 6.2349,0 0,3.11745 0,3.11748 9.35236,0 9.35235,0 0,3.11745 0,3.11745 -12.4698,0 -12.46981,0 0,-3.11745 0,-3.11745 -3.11746,0 -3.11745,0 0,3.11745 0,3.11745 -3.11746,0 -3.11745,0 0,-3.11745 z m -511.262315,-6.23493 0,-3.11745 3.117452,0 3.117453,0 0,3.11745 0,3.11748 -3.117453,0 -3.117452,0 0,-3.11748 z m 56.114156,0 0,-3.11745 3.117454,0 3.117453,0 0,3.11745 0,3.11748 -3.117453,0 -3.117454,0 0,-3.11748 z m 37.409439,0 0,-3.11745 3.11745,0 3.11746,0 0,3.11745 0,3.11748 -3.11746,0 -3.11745,0 0,-3.11748 z m 37.40943,0 0,-3.11745 3.11746,0 3.11745,0 0,3.11745 0,3.11748 -3.11745,0 -3.11746,0 0,-3.11748 z m 18.70472,0 0,-3.11745 3.11746,0 3.11745,0 0,3.11745 0,3.11748 -3.11745,0 -3.11746,0 0,-3.11748 z m 37.40944,0 0,-3.11745 3.11745,0 3.11746,0 0,3.11745 0,3.11748 -3.11746,0 -3.11745,0 0,-3.11748 z m 37.40944,0 0,-3.11745 3.11745,0 3.11745,0 0,3.11745 0,3.11748 -3.11745,0 -3.11745,0 0,-3.11748 z m 18.70471,0 0,-3.11745 3.11746,0 3.11745,0 0,3.11745 0,3.11748 -3.11745,0 -3.11746,0 0,-3.11748 z m 37.40944,0 0,-3.11745 3.11746,0 3.11745,0 0,3.11745 0,3.11748 -3.11745,0 -3.11746,0 0,-3.11748 z m 37.40944,0 0,-3.11745 3.11745,0 3.11746,0 0,3.11745 0,3.11748 -3.11746,0 -3.11745,0 0,-3.11748 z m 37.40944,0 0,-3.11745 3.11745,0 3.11746,0 0,3.11745 0,3.11748 -3.11746,0 -3.11745,0 0,-3.11748 z m 224.45663,0 0,-3.11745 3.11746,0 3.11744,0 0,3.11745 0,3.11748 -3.11744,0 -3.11746,0 0,-3.11748 z m 56.11416,0 0,-3.11745 3.11745,0 3.11746,0 0,3.11745 0,3.11748 -3.11746,0 -3.11745,0 0,-3.11748 z m -174.57738,-6.23491 0,-3.11745 3.11745,0 3.11746,0 0,3.11745 0,3.11746 -3.11746,0 -3.11745,0 0,-3.11746 z m 12.46981,0 0,-3.11745 3.11745,0 3.11746,0 0,3.11745 0,3.11746 -3.11746,0 -3.11745,0 0,-3.11746 z m -423.973626,-12.46981 0,-9.35236 18.70472,0 18.704718,0 0,9.35236 0,9.35236 -18.704718,0 -18.70472,0 0,-9.35236 z m 56.114156,0 0,-9.35236 18.70472,0 18.70472,0 0,9.35236 0,9.35236 -18.70472,0 -18.70472,0 0,-9.35236 z m 505.02741,0 0,-9.35236 18.70472,0 18.70472,0 0,9.35236 0,9.35236 -18.70472,0 -18.70472,0 0,-9.35236 z m -442.67835,0 0,-3.11745 3.11745,0 3.11746,0 0,3.11745 0,3.11746 -3.11746,0 -3.11745,0 0,-3.11746 z m 18.70472,0 0,-3.11745 3.11745,0 3.11746,0 0,3.11745 0,3.11746 -3.11746,0 -3.11745,0 0,-3.11746 z m 18.70472,0 0,-3.11745 3.11745,0 3.11746,0 0,3.11745 0,3.11746 -3.11746,0 -3.11745,0 0,-3.11746 z m 18.70472,0 0,-3.11745 3.11745,0 3.11745,0 0,3.11745 0,3.11746 -3.11745,0 -3.11745,0 0,-3.11746 z m 37.40943,0 0,-3.11745 3.11746,0 3.11745,0 0,3.11745 0,3.11746 -3.11745,0 -3.11746,0 0,-3.11746 z m 18.70472,0 0,-3.11745 3.11746,0 3.11745,0 0,3.11745 0,3.11746 -3.11745,0 -3.11746,0 0,-3.11746 z m 37.40944,0 0,-3.11745 3.11745,0 3.11746,0 0,3.11745 0,3.11746 -3.11746,0 -3.11745,0 0,-3.11746 z m 37.40944,0 0,-3.11745 3.11745,0 3.11746,0 0,3.11745 0,3.11746 -3.11746,0 -3.11745,0 0,-3.11746 z m 56.11416,0 0,-3.11745 3.11746,0 3.11744,0 0,3.11745 0,3.11746 -3.11744,0 -3.11746,0 0,-3.11746 z m 18.70472,0 0,-3.11745 3.11746,0 3.11744,0 0,3.11745 0,3.11746 -3.11744,0 -3.11746,0 0,-3.11746 z m 18.70472,0 0,-3.11745 3.11746,0 3.11744,0 0,3.11745 0,3.11746 -3.11744,0 -3.11746,0 0,-3.11746 z m 18.70472,0 0,-3.11745 3.11745,0 3.11745,0 0,3.11745 0,3.11746 -3.11745,0 -3.11745,0 0,-3.11746 z m 18.70472,0 0,-3.11745 3.11745,0 3.11745,0 0,3.11745 0,3.11746 -3.11745,0 -3.11745,0 0,-3.11746 z m -317.98023,-18.70471 0,-3.11746 3.11745,0 3.11746,0 0,3.11746 0,3.11745 -3.11746,0 -3.11745,0 0,-3.11745 z m 56.11416,0 0,-3.11746 3.11745,0 3.11745,0 0,3.11746 0,3.11745 -3.11745,0 -3.11745,0 0,-3.11745 z m 56.11415,0 0,-3.11746 3.11746,0 3.11745,0 0,3.11746 0,3.11745 -3.11745,0 -3.11746,0 0,-3.11745 z m 74.81888,0 0,-3.11746 3.11745,0 3.11746,0 0,3.11746 0,3.11745 -3.11746,0 -3.11745,0 0,-3.11745 z m 37.40943,0 0,-3.11746 3.11746,0 3.11745,0 0,3.11746 0,3.11745 -3.11745,0 -3.11746,0 0,-3.11745 z m 18.70473,0 0,-3.11746 3.11746,0 3.11744,0 0,3.11746 0,3.11745 -3.11744,0 -3.11746,0 0,-3.11745 z m 74.81888,0 0,-3.11746 3.11745,0 3.11745,0 0,3.11746 0,3.11745 -3.11745,0 -3.11745,0 0,-3.11745 z m 18.70472,0 0,-3.11746 3.11745,0 3.11745,0 0,3.11746 0,3.11745 -3.11745,0 -3.11745,0 0,-3.11745 z m 18.70472,0 0,-3.11746 3.11745,0 3.11745,0 0,3.11746 0,3.11745 -3.11745,0 -3.11745,0 0,-3.11745 z M 4.2780983,62.299654 l 0,-65.4665172 65.4665167,0 65.466515,0 0,65.4665172 0,65.466506 -65.466515,0 -65.4665167,0 0,-65.466506 z m 112.2283117,0 0,-46.761798 -46.761795,0 -46.761798,0 0,46.761798 0,46.761786 46.761798,0 46.761795,0 0,-46.761786 z m -74.818874,0 0,-28.057079 28.057079,0 28.057077,0 0,28.057079 0,28.057069 -28.057077,0 -28.057079,0 0,-28.057069 z m 112.228314,56.114156 0,-9.35237 9.35236,0 9.35235,0 0,9.35237 0,9.35235 -9.35235,0 -9.35236,0 0,-9.35235 z m 37.40943,0 0,-9.35237 9.35236,0 9.35236,0 0,9.35237 0,9.35235 -9.35236,0 -9.35236,0 0,-9.35235 z m 37.40944,0 0,-9.35237 9.35236,0 9.35235,0 0,9.35237 0,9.35235 -9.35235,0 -9.35236,0 0,-9.35235 z m 37.40943,0 0,-9.35237 9.35237,0 9.35235,0 0,9.35237 0,9.35235 -9.35235,0 -9.35237,0 0,-9.35235 z m 37.40944,0 0,-9.35237 9.35237,0 9.35235,0 0,9.35237 0,9.35235 -9.35235,0 -9.35237,0 0,-9.35235 z m 37.40944,0 0,-9.35237 9.35236,0 9.35236,0 0,9.35237 0,9.35235 -9.35236,0 -9.35236,0 0,-9.35235 z m 37.40944,0 0,-9.35237 9.35236,0 9.35236,0 0,9.35237 0,9.35235 -9.35236,0 -9.35236,0 0,-9.35235 z m 37.40944,0 0,-9.35237 9.35237,0 9.35235,0 0,9.35237 0,9.35235 -9.35235,0 -9.35237,0 0,-9.35235 z m 37.40944,0 0,-9.35237 9.35237,0 9.35235,0 0,9.35237 0,9.35235 -9.35235,0 -9.35237,0 0,-9.35235 z m 37.40944,0 0,-9.35237 9.35236,0 9.35236,0 0,9.35237 0,9.35235 -9.35236,0 -9.35236,0 0,-9.35235 z m 37.40944,0 0,-9.35237 9.35236,0 9.35236,0 0,9.35237 0,9.35235 -9.35236,0 -9.35236,0 0,-9.35235 z m 37.40943,-56.114156 0,-65.4665172 65.46652,0 65.46652,0 0,65.4665172 0,65.466506 -65.46652,0 -65.46652,0 0,-65.466506 z m 112.22832,0 0,-46.761798 -46.7618,0 -46.7618,0 0,46.761798 0,46.761786 46.7618,0 46.7618,0 0,-46.761786 z m -74.81888,0 0,-28.057079 28.05708,0 28.05708,0 0,28.057079 0,28.057069 -28.05708,0 -28.05708,0 0,-28.057069 z m -423.97363,37.409439 0,-3.11746 3.11745,0 3.11746,0 0,3.11746 0,3.117437 -3.11746,0 -3.11745,0 0,-3.117437 z m 18.70472,0 0,-3.11746 3.11745,0 3.11746,0 0,3.11746 0,3.117437 -3.11746,0 -3.11745,0 0,-3.117437 z m 37.40944,0 0,-3.11746 3.11745,0 3.11745,0 0,3.11746 0,3.117437 -3.11745,0 -3.11745,0 0,-3.117437 z m 18.70471,0 0,-3.11746 3.11746,0 3.11745,0 0,3.11746 0,3.117437 -3.11745,0 -3.11746,0 0,-3.117437 z m 37.40944,0 0,-3.11746 3.11746,0 3.11745,0 0,3.11746 0,3.117437 -3.11745,0 -3.11746,0 0,-3.117437 z m 37.40944,0 0,-3.11746 3.11745,0 3.11746,0 0,3.11746 0,3.117437 -3.11746,0 -3.11745,0 0,-3.117437 z m 37.40944,0 0,-3.11746 3.11745,0 3.11746,0 0,3.11746 0,3.117437 -3.11746,0 -3.11745,0 0,-3.117437 z m 18.70472,0 0,-3.11746 3.11745,0 3.11746,0 0,3.11746 0,3.117437 -3.11746,0 -3.11745,0 0,-3.117437 z m 56.11416,0 0,-3.11746 3.11746,0 3.11744,0 0,3.11746 0,3.117437 -3.11744,0 -3.11746,0 0,-3.117437 z m 37.40944,0 0,-3.11746 3.11745,0 3.11745,0 0,3.11746 0,3.117437 -3.11745,0 -3.11745,0 0,-3.117437 z m 18.70472,0 0,-3.11746 3.11745,0 3.11745,0 0,3.11746 0,3.117437 -3.11745,0 -3.11745,0 0,-3.117437 z m -299.27551,-18.70472 0,-3.11746 3.11745,0 3.11746,0 0,3.11746 0,3.11744 -3.11746,0 -3.11745,0 0,-3.11744 z m 18.70472,0 0,-3.11746 3.11745,0 3.11746,0 0,3.11746 0,3.11744 -3.11746,0 -3.11745,0 0,-3.11744 z m 37.40943,0 0,-3.11746 3.11746,0 3.11745,0 0,3.11746 0,3.11744 -3.11745,0 -3.11746,0 0,-3.11744 z m 37.40944,0 0,-3.11746 3.11746,0 3.11745,0 0,3.11746 0,3.11744 -3.11745,0 -3.11746,0 0,-3.11744 z m 37.40944,0 0,-3.11746 3.11745,0 3.11746,0 0,3.11746 0,3.11744 -3.11746,0 -3.11745,0 0,-3.11744 z m 18.70472,0 0,-3.11746 3.11745,0 3.11746,0 0,3.11746 0,3.11744 -3.11746,0 -3.11745,0 0,-3.11744 z m 18.70472,0 0,-3.11746 3.11745,0 3.11746,0 0,3.11746 0,3.11744 -3.11746,0 -3.11745,0 0,-3.11744 z m 18.70472,0 0,-3.11746 3.11745,0 3.11746,0 0,3.11746 0,3.11744 -3.11746,0 -3.11745,0 0,-3.11744 z m 37.40944,0 0,-3.11746 3.11746,0 3.11744,0 0,3.11746 0,3.11744 -3.11744,0 -3.11746,0 0,-3.11744 z m 18.70472,0 0,-3.11746 3.11746,0 3.11744,0 0,3.11746 0,3.11744 -3.11744,0 -3.11746,0 0,-3.11744 z m 37.40944,0 0,-3.11746 3.11745,0 3.11745,0 0,3.11746 0,3.11744 -3.11745,0 -3.11745,0 0,-3.11744 z m 18.70472,0 0,-3.11746 3.11745,0 3.11745,0 0,3.11746 0,3.11744 -3.11745,0 -3.11745,0 0,-3.11744 z m 37.40944,0 0,-3.11746 3.11745,0 3.11745,0 0,3.11746 0,3.11744 -3.11745,0 -3.11745,0 0,-3.11744 z m -380.32929,-28.057082 0,-18.704716 9.35236,0 9.35235,0 0,18.704716 0,18.704722 -9.35235,0 -9.35236,0 0,-18.704722 z m 24.93962,9.352363 0,-3.117455 3.11745,0 3.11746,0 0,3.117455 0,3.117449 -3.11746,0 -3.11745,0 0,-3.117449 z m 18.70472,0 0,-3.117455 3.11745,0 3.11746,0 0,3.117455 0,3.117449 -3.11746,0 -3.11745,0 0,-3.117449 z m 18.70472,0 0,-3.117455 3.11745,0 3.11746,0 0,3.117455 0,3.117449 -3.11746,0 -3.11745,0 0,-3.117449 z m 37.40943,0 0,-3.117455 3.11746,0 3.11745,0 0,3.117455 0,3.117449 -3.11745,0 -3.11746,0 0,-3.117449 z m 149.63775,0 0,-3.117455 3.11746,0 3.11745,0 0,3.117455 0,3.117449 -3.11745,0 -3.11746,0 0,-3.117449 z m 18.70473,0 0,-3.117455 3.11746,0 3.11744,0 0,3.117455 0,3.117449 -3.11744,0 -3.11746,0 0,-3.117449 z m 37.40944,0 0,-3.117455 3.11746,0 3.11744,0 0,3.117455 0,3.117449 -3.11744,0 -3.11746,0 0,-3.117449 z m 56.11416,0 0,-3.117455 3.11745,0 3.11745,0 0,3.117455 0,3.117449 -3.11745,0 -3.11745,0 0,-3.117449 z m -336.68495,-18.704723 0,-3.11745 3.11745,0 3.11746,0 0,3.11745 0,3.117454 -3.11746,0 -3.11745,0 0,-3.117454 z m 56.11416,0 0,-3.11745 3.11745,0 3.11745,0 0,3.11745 0,3.117454 -3.11745,0 -3.11745,0 0,-3.117454 z m 37.40943,0 0,-3.11745 3.11746,0 3.11745,0 0,3.11745 0,3.117454 -3.11745,0 -3.11746,0 0,-3.117454 z m 18.70472,0 0,-3.11745 3.11746,0 3.11745,0 0,3.11745 0,3.117454 -3.11745,0 -3.11746,0 0,-3.117454 z m 18.70472,0 0,-3.11745 3.11746,0 3.11745,0 0,3.11745 0,3.117454 -3.11745,0 -3.11746,0 0,-3.117454 z m 18.70472,0 0,-3.11745 3.11745,0 3.11746,0 0,3.11745 0,3.117454 -3.11746,0 -3.11745,0 0,-3.117454 z m 18.70472,0 0,-3.11745 3.11745,0 3.11746,0 0,3.11745 0,3.117454 -3.11746,0 -3.11745,0 0,-3.117454 z m 93.5236,0 0,-3.11745 3.11746,0 3.11744,0 0,3.11745 0,3.117454 -3.11744,0 -3.11746,0 0,-3.117454 z m 18.70472,0 0,-3.11745 3.11746,0 3.11744,0 0,3.11745 0,3.117454 -3.11744,0 -3.11746,0 0,-3.117454 z m -280.57079,-18.704716 0,-3.117453 3.11745,0 3.11746,0 0,3.117453 0,3.117453 -3.11746,0 -3.11745,0 0,-3.117453 z m 37.40944,0 0,-3.117453 3.11745,0 3.11746,0 0,3.117453 0,3.117453 -3.11746,0 -3.11745,0 0,-3.117453 z m 18.70472,0 0,-3.117453 3.11745,0 3.11745,0 0,3.117453 0,3.117453 -3.11745,0 -3.11745,0 0,-3.117453 z m 37.40943,0 0,-3.117453 3.11746,0 3.11745,0 0,3.117453 0,3.117453 -3.11745,0 -3.11746,0 0,-3.117453 z m 18.70472,0 0,-3.117453 3.11746,0 3.11745,0 0,3.117453 0,3.117453 -3.11745,0 -3.11746,0 0,-3.117453 z m 18.70472,0 0,-3.117453 3.11746,0 3.11745,0 0,3.117453 0,3.117453 -3.11745,0 -3.11746,0 0,-3.117453 z m 112.22832,0 0,-3.117453 3.11746,0 3.11744,0 0,3.117453 0,3.117453 -3.11744,0 -3.11746,0 0,-3.117453 z m 112.22832,0 0,-3.117453 3.11745,0 3.11745,0 0,3.117453 0,3.117453 -3.11745,0 -3.11745,0 0,-3.117453 z M 216.26491,6.1854958 l 0,-3.117452 3.11745,0 3.11746,0 0,3.117452 0,3.117453 -3.11746,0 -3.11745,0 0,-3.117453 z m 56.11415,0 0,-3.117452 3.11746,0 3.11745,0 0,3.117452 0,3.117453 -3.11745,0 -3.11746,0 0,-3.117453 z m 18.70472,0 0,-3.117452 3.11746,0 3.11745,0 0,3.117452 0,3.117453 -3.11745,0 -3.11746,0 0,-3.117453 z m 18.70472,0 0,-3.117452 3.11746,0 3.11745,0 0,3.117452 0,3.117453 -3.11745,0 -3.11746,0 0,-3.117453 z m 18.70472,0 0,-3.117452 3.11745,0 3.11746,0 0,3.117452 0,3.117453 -3.11746,0 -3.11745,0 0,-3.117453 z m 112.22832,0 0,-3.117452 3.11746,0 3.11744,0 0,3.117452 0,3.117453 -3.11744,0 -3.11746,0 0,-3.117453 z m 56.11416,0 0,-3.117452 3.11745,0 3.11745,0 0,3.117452 0,3.117453 -3.11745,0 -3.11745,0 0,-3.117453 z"
       id="path4284"
       inkscape:connector-curvature="0" />
    <text
       xml:space="preserve"
       style="font-style:normal;font-variant:normal;font-weight:normal;font-stretch:normal;font-size:20px;line-height:125%;font-family:'Times New Roman';-inkscape-font-specification:'Times New Roman';letter-spacing:-1.14999998px;word-spacing:0px;fill:#000000;fill-opacity:1;stroke:none;stroke-width:1px;stroke-linecap:butt;stroke-linejoin:miter;stroke-opacity:1"
       x="167.92281"
       y="728.30359"
       id="text4286"
       sodipodi:linespacing="125%"><tspan
         sodipodi:role="line"
         id="tspan4288"
         x="167.92281"
         y="728.30359">generated at  http://cgv.cs.nthu.edu.tw:999/halftoneQRC.aspx</tspan></text>
  </g>
</svg>
