<svg xmlns="http://www.w3.org/2000/svg" viewBox="0 0 1363.5 1307.64"><defs><style>.cls-1{fill:#bee2e9;}.cls-2{fill:#badee2;}.cls-3{fill:#d2faff;}.cls-4,.cls-8{fill:none;stroke-linecap:round;}.cls-4{stroke:#2f4b68;stroke-linejoin:round;stroke-width:27px;}.cls-5{fill:#2f4b68;}.cls-6{fill:#19b5fe;}.cls-7{opacity:0.3;}.cls-8{stroke:#fff;stroke-miterlimit:10;stroke-width:20px;}.cls-9{fill:#815cb7;}</style></defs><title>calendar</title><g id="Book"><path id="SideS" class="cls-1" d="M717.14,654.86,10.84,513.44V762.61s-26.26,196.05,210.81,392.22c50.79,42,230.29,178.37,495.49,194.87V654.86Z" transform="translate(-7.74 -43.7)"/><path id="SideF" class="cls-2" d="M1255.34,1013V762.61L717.14,654.86v694.84c26,1.62,52.91,2.09,80.56,1.2C1257.18,1336,1255.34,1013,1255.34,1013Z" transform="translate(-7.74 -43.7)"/><path id="Top" class="cls-3" d="M774.27,225.07C439.39,110.67,104.71,203,26.73,431.24s130.28,506,465.15,620.44c76.1,26,152.19,41.32,225.26,46.8v0c248.47,18.63,462-76.57,522.27-253C1317.39,617.25,1109.14,339.47,774.27,225.07Z" transform="translate(-7.74 -43.7)"/><path id="Fisher2" class="cls-4" d="M1273,57.2s-15.08,61.9-16.75,98.68a304.77,304.77,0,0,0,8.94,90.32c17.05,68,76.33,205.72,84.69,247.25s18.39,87.21-18.81,162.45-158.42,63.54-158.42,63.54" transform="translate(-7.74 -43.7)"/><path id="Cover" class="cls-1" d="M727.14,948.45c259.1-48.3,521.32-224.52,582.27-402.93,59.44-174,51.87-66.38-170-151.14-69.17-26.43-285.57-142.11-365.16-169.31C439.39,110.67,104.71,203,26.73,431.24s87.46,454.57,435.15,520.44C527.8,964.17,663.37,960.34,727.14,948.45Z" transform="translate(-7.74 -43.7)"/><path id="Fisher" class="cls-5" d="M1078.45,654.86s9.17,13.41,23.73,4.94c8-4.65,6.11-21.42,6.11-21.42s-21.7-53.93-14.92-65.13,48.53,21,48.53,21l-81.47-124.91s-3.16,72.29,7.13,144.6C1069,624.44,1078.45,654.86,1078.45,654.86Z" transform="translate(-7.74 -43.7)"/><path id="TopBar" class="cls-6" d="M698.74,202.72,10.84,513.44s-7.53-171,187.47-272.32C424.12,123.86,698.74,202.72,698.74,202.72Z" transform="translate(-7.74 -43.7)"/><g id="String"><ellipse class="cls-7" cx="163.26" cy="328.89" rx="33.04" ry="23.25"/><ellipse class="cls-7" cx="452.5" cy="200.27" rx="33.04" ry="23.25"/><line class="cls-8" x1="163.26" y1="328.89" x2="452.5" y2="200.27"/></g><g id="Fish"><path id="path9198" class="cls-9" d="M1093.11,415.7s-57.57-11.84-91.43-30C967.7,367,923.85,333.25,904.13,281c-20.36-52.07-49.81-93.89-84-119-34.09-24.65-71.05-41.57-71.05-41.57s80,8.8,137.08,26.78,110.12,61.48,142.6,104.55c29.44,41.82,48.66,119.72,64.35,163.93Z" transform="translate(-7.74 -43.7)"/><path id="path9214" class="cls-1" d="M875.79,267.22c-35-46.35-49.86-72.64-111.15-104.73-42.23-22.86-111.44-40.41-111.44-40.41s49.82,39.54,72.09,76.06,26.87,54.44,28.29,67.14c37.86-4.85,86.6,1.8,122.21,1.94Z" transform="translate(-7.74 -43.7)"/><path id="path9240" class="cls-9" d="M403.26,954.2c-39.37,28-55.15,41.74-105,72.94-46.38,29.56-89.95,41.83-89.95,41.83s35.91-24.67,62.44-49.47,64.86-88.57,64.86-88.57,4.78,5.1,27.23,13.79C388.41,954.56,403.26,954.2,403.26,954.2Z" transform="translate(-7.74 -43.7)"/></g></g><g id="Date"><path class="cls-5" d="M457.82,490l70.48-33.32s149.7,85,231.13,122.73C784.82,591.2,878.67,607,878.67,607L775,694s-96.55-29.27-120.6-37.89c-29.07-10.42-107.65-60.55-107.65-60.55L440,641.46,396.2,588.87s76.85-18,85.07-47.72S457.82,490,457.82,490Z" transform="translate(-7.74 -43.7)"/></g></svg>