<svg id="Clock" xmlns="http://www.w3.org/2000/svg" viewBox="0 0 2272.47 1950.16"><defs><style>.cls-1{fill:#bee2e9;}.cls-2{fill:#19b5fe;}.cls-3{fill:#1e8bc3;}.cls-4{fill:#815cb7;}.cls-5{fill:#fff;}</style></defs><title>fishroom</title><path class="cls-1" d="M2272.14,1105.37a1133.89,1133.89,0,0,0-79.33-391.82H79.67A1132.61,1132.61,0,0,0,.32,1159.17c14.86,627.35,535.47,1123.87,1162.81,1109S2287,1732.71,2272.14,1105.37Z" transform="translate(0 -318.34)"/><g id="Engine"><g id="TUNA"><g id="g9281"><path id="path9177" class="cls-2" d="M1092.63,413.84c-59.78,27.69-114.63,61.91-156.75,98.85C808.28,624.6,750.93,745.33,717,817.78c-65.74,140.3-64.43,332.49-37.47,477.77s117.86,331.11,230.64,449.05,307.39,195.92,423.27,215.42c151.61,25.2,308.75-6.3,442.24-67.2a980.22,980.22,0,0,1-97.15,31.62c-89.31,23.82-187.25,34.86-285.8,17.31-101.83-22.55-134.79-47.48-181.09-97.27s-77.75-138.92-80.72-202.53c-3.15-67.49,39.15-180.34,105.54-293.35s185.91-238.23,302.05-354.24S1738,751.5,1773.83,621.8c33.2-120.36-21.23-249.17-21.23-249.17s-88.51-40.75-199-51.1c-64.24-6-160.44-7-292.23,29-45,12.28-108.94,35.59-168.72,63.28Z" transform="translate(0 -318.34)"/><path id="path9200" class="cls-3" d="M1043.26,688.37S1035,848,989.78,944.52c-30.93,66-60.25,115.15-135.93,190.09-67.66,67-176.53,144.11-176.53,144.11s-19.4-96.59-4.79-117.89C711.09,1104.66,1043.26,688.37,1043.26,688.37Z" transform="translate(0 -318.34)"/><path id="path9198" class="cls-4" d="M1042.54,689.8s-19.4,134.2-63.19,221S851,1117,710,1198s-250.7,175.65-311.65,267.53-99.28,184.58-99.28,184.58S305.42,1469,343,1332s145.32-283.89,259.68-384.5c108.22-95.2,320.89-192.38,439.83-257.75Z" transform="translate(0 -318.34)"/><path id="path9240" class="cls-4" d="M1644.79,908.52c29.4,66,46.61,93,77,175,28.56,77,27.19,148,27.19,148s-26.2-60.47-57.49-104.7-129.89-112.58-129.89-112.58,12.18-7.47,41.07-42.43C1635.75,931.74,1644.79,908.52,1644.79,908.52Z" transform="translate(0 -318.34)"/></g><path id="path5116" class="cls-5" d="M1528.37,450.41c13.26,29-.58,63.76-30.92,77.63s-65.69,1.61-78.95-27.39l0-.09c-13.26-29,.58-63.76,30.92-77.63s65.69-1.61,78.95,27.39Z" transform="translate(0 -318.34)"/></g></g></svg>