<?xml version="1.0" encoding="UTF-8" standalone="no"?>
<!-- Generator: Adobe Illustrator 21.0.0, SVG Export Plug-In . SVG Version: 6.00 Build 0)  -->

<svg
   version="1.0"
   x="0px"
   y="0px"
   viewBox="0 0 2272.5 2272.5"
   style="enable-background:new 0 0 2272.5 2272.5;"
   xml:space="preserve"
   id="svg74"
   xmlns:xlink="http://www.w3.org/1999/xlink"
   xmlns="http://www.w3.org/2000/svg"
   xmlns:svg="http://www.w3.org/2000/svg"><defs
   id="defs78" />
<style
   type="text/css"
   id="style2">
	.st0{clip-path:url(#SVGID_2_);fill:#BEE2E9;}
	.st1{clip-path:url(#SVGID_2_);}
	.st2{fill:#19B5FE;}
	.st3{fill:#1E8BC3;}
	.st4{fill:#815CB7;}
	.st5{fill:#FFFFFF;}
	.st6{opacity:0.92;fill:#C1DEE5;}
	.st7{fill:#9F9BCD;}
	.st8{fill:#58C3E8;}
	.st9{fill:#1FB5F0;}
	.st10{fill:#A2D8E5;}
	.st11{fill:#BFDEE4;}
	.st12{fill:#BCDEE2;}
	.st13{opacity:0.88;fill:#BEDFE5;}
	.st14{opacity:0.61;fill:#BFE0E5;}
	.st15{fill:#BBD2E2;}
	.st16{fill:#97D7E6;}
	.st17{fill:#35BAEF;}
	.st18{fill:#BFDDE3;}
	.st19{fill:#BEDDE4;}
	.st20{opacity:0.44;fill:#BFDDE4;}
	.st21{opacity:0.83;fill:#C0E1E4;}
	.st22{fill:#BDDDE2;}
	.st23{fill:#99D5E6;}
	.st24{fill:#A5D9E4;}
	.st25{fill:#B9DCE4;}
	.st26{opacity:0.6;fill:#C1DFE4;}
	.st27{opacity:0.62;fill:#BAE0E4;}
	.st28{opacity:0.95;fill:#BFDEE4;}
	.st29{opacity:0.89;fill:#C0E0E3;}
	.st30{opacity:0.43;fill:#C0E1E6;}
</style>
<g
   id="Clock">
	<defs
   id="defs5">
		<rect
   id="SVGID_1_"
   x="1.4"
   width="2271"
   height="1250.1" />
	</defs>
	<clipPath
   id="SVGID_2_">
		<use
   xlink:href="#SVGID_1_"
   style="overflow:visible;"
   id="use7" />
	</clipPath>
	<path
   class="st0"
   d="M2272.1,1105.4c-3.3-138.3-31.2-270.3-79.3-391.8H79.7C25.1,851.2-3.4,1001.8,0.3,1159.2   c14.9,627.3,535.5,1123.9,1162.8,1109S2287,1732.7,2272.1,1105.4z"
   clip-path="url(#SVGID_2_)"
   id="path10" />
	<g
   id="Engine"
   class="st1"
   clip-path="url(#SVGID_2_)">
		<g
   id="TUNA"
   transform="translate(-0.54368288,98.464137)">
			<g
   id="g9281"
   transform="matrix(1.9893579,0,0,1.9933073,-2301.215,-4776.9484)">
				
					<path
   id="path9177"
   class="st2"
   d="      M1706.3,2554.7c-30,13.9-57.6,31.1-78.8,49.6c-64.1,56.1-93,116.7-110,153.1c-33,70.4-32.4,166.8-18.8,239.7      s59.2,166.1,115.9,225.3c56.7,59.2,154.5,98.3,212.8,108.1c76.2,12.6,155.2-3.2,222.3-33.7c-15.5,5.9-31.9,11.3-48.8,15.9      c-44.9,11.9-94.1,17.5-143.7,8.7c-51.2-11.3-67.8-23.8-91-48.8c-23.3-25-39.1-69.7-40.6-101.6c-1.6-33.9,19.7-90.5,53.1-147.2      c33.4-56.7,93.5-119.5,151.8-177.7s100.3-121.8,118.3-186.9c16.7-60.4-10.7-125-10.7-125s-44.5-20.4-100-25.6      c-32.3-3-80.7-3.5-146.9,14.6C1768.5,2529.1,1736.3,2540.8,1706.3,2554.7L1706.3,2554.7z" />
				
					<path
   id="path9200"
   class="st3"
   d="      M1681.5,2692.4c0,0-4.1,80.1-26.9,128.5c-15.5,33.1-30.3,57.8-68.3,95.4c-34,33.6-88.7,72.3-88.7,72.3s-9.8-48.5-2.4-59.1      C1514.5,2901.3,1681.5,2692.4,1681.5,2692.4z" />
				
					<path
   id="path9198"
   class="st4"
   d="      M1681.1,2693.2c0,0-9.8,67.3-31.8,110.9c-22,43.6-64.5,103.4-135.4,144.1c-70.9,40.6-126,88.1-156.7,134.2      c-30.6,46.1-49.9,92.6-49.9,92.6s3.2-90.9,22.1-159.6c18.9-68.7,73.1-142.4,130.5-192.9      C1514.4,2774.7,1621.3,2725.9,1681.1,2693.2L1681.1,2693.2z" />
				
					<path
   id="path9240"
   class="st4"
   d="      M1983.8,2802.9c14.8,33.1,23.4,46.6,38.7,87.8c14.4,38.6,13.7,74.2,13.7,74.2s-13.2-30.3-28.9-52.5      c-15.7-22.2-65.3-56.5-65.3-56.5s6.1-3.7,20.6-21.3C1979.3,2814.5,1983.8,2802.9,1983.8,2802.9z" />
			</g>
			
				<path
   id="path5116"
   class="st5"
   d="     M1528.9,351.9c13.3,29-0.6,63.8-30.9,77.6c-30.3,13.9-65.7,1.6-78.9-27.4c0,0,0-0.1,0-0.1c-13.3-29,0.6-63.8,30.9-77.6     C1480.3,310.6,1515.6,322.9,1528.9,351.9C1528.9,351.9,1528.9,351.9,1528.9,351.9z" />
		</g>
	</g>
</g>
<g
   id="图层_3">
	<rect
   x="1.4"
   y="1250.1"
   class="st6"
   width="292.9"
   height="227.3"
   id="rect21" />
	<rect
   x="294.3"
   y="1250.1"
   class="st7"
   width="296.5"
   height="227.3"
   id="rect23" />
	<rect
   x="590.9"
   y="1250.1"
   class="st8"
   width="296.5"
   height="227.3"
   id="rect25" />
	<rect
   x="887.4"
   y="1250.1"
   class="st9"
   width="296.5"
   height="227.3"
   id="rect27" />
	<rect
   x="1183.9"
   y="1250.1"
   class="st10"
   width="296.5"
   height="227.3"
   id="rect29" />
	<rect
   x="1480.4"
   y="1250.1"
   class="st11"
   width="296.5"
   height="227.3"
   id="rect31" />
	<rect
   x="1776.9"
   y="1250.1"
   class="st12"
   width="296.5"
   height="227.3"
   id="rect33" />
	<rect
   x="2073.4"
   y="1250.1"
   class="st13"
   width="199"
   height="228.6"
   id="rect35" />
	<rect
   x="1.4"
   y="1477.4"
   class="st14"
   width="292.9"
   height="292.9"
   id="rect37" />
	<rect
   x="294.3"
   y="1477.4"
   class="st15"
   width="296.5"
   height="292.9"
   id="rect39" />
	<rect
   x="590.9"
   y="1477.4"
   class="st16"
   width="296.5"
   height="292.9"
   id="rect41" />
	<rect
   x="887.4"
   y="1477.4"
   class="st17"
   width="296.5"
   height="292.9"
   id="rect43" />
	<rect
   x="1183.9"
   y="1477.4"
   class="st18"
   width="296.5"
   height="292.9"
   id="rect45" />
	<rect
   x="1480.4"
   y="1477.4"
   class="st19"
   width="296.5"
   height="292.9"
   id="rect47" />
	<rect
   x="1776.9"
   y="1477.4"
   class="st11"
   width="296.5"
   height="292.9"
   id="rect49" />
	<rect
   x="2073.4"
   y="1478.8"
   class="st20"
   width="199"
   height="292.9"
   id="rect51" />
	<rect
   x="294.3"
   y="1770.4"
   class="st21"
   width="296.5"
   height="292.9"
   id="rect53" />
	<rect
   x="590.9"
   y="1770.4"
   class="st22"
   width="296.5"
   height="292.9"
   id="rect55" />
	<rect
   x="887.4"
   y="1770.4"
   class="st23"
   width="296.5"
   height="292.9"
   id="rect57" />
	<rect
   x="1183.9"
   y="1770.4"
   class="st24"
   width="296.5"
   height="292.9"
   id="rect59" />
	<rect
   x="1480.4"
   y="1770.4"
   class="st25"
   width="296.5"
   height="292.9"
   id="rect61" />
	<rect
   x="1776.9"
   y="1770.4"
   class="st26"
   width="296.5"
   height="292.9"
   id="rect63" />
	<rect
   x="590.9"
   y="2063.3"
   class="st27"
   width="296.5"
   height="209.3"
   id="rect65" />
	<rect
   x="887.4"
   y="2063.3"
   class="st28"
   width="296.5"
   height="209.3"
   id="rect67" />
	<rect
   x="1183.9"
   y="2063.3"
   class="st29"
   width="296.5"
   height="209.3"
   id="rect69" />
	<rect
   x="1480.4"
   y="2063.3"
   class="st30"
   width="296.5"
   height="209.3"
   id="rect71" />
</g>
</svg>
