<svg id="svg4262" xmlns="http://www.w3.org/2000/svg" viewBox="0 0 346.93 562.7"><defs><style>.cls-1{fill:#bee2e9;}.cls-2{fill:#19b5fe;}.cls-3{fill:#1e8bc3;}.cls-4,.cls-6{fill:#815cb7;}.cls-5{fill:#fff;}.cls-6{font-size:300px;font-family:SourceSansPro-BoldIt, Source Sans Pro;font-weight:700;font-style:italic;}</style></defs><title>issues</title><g id="layer1"><g id="g4231"><g id="g4261"><path id="path9214" class="cls-1" d="M205.15,103.42C216.77,91.11,223.56,84.88,230,69.28c4.65-10.92,6.84-26.21,6.84-26.21s-9.12,14.35-18.54,23.11-14.26,12-17.82,13.68C203.51,86.6,203.6,96.83,205.15,103.42Z" transform="translate(26.15 14.54)"/><path id="path9177" class="cls-2" d="M164.54,225.49A93.54,93.54,0,0,0,185,209.4c16.19-17.49,22.45-35.19,26.13-45.81,7.14-20.56,4.16-47.38-1.72-67.29s-21.29-44.54-38.76-59.37S124.86,14.05,108.39,13c-21.55-1.31-43,5.38-60.8,15.83A137.66,137.66,0,0,1,60.7,23c12.13-4.63,25.65-7.6,39.67-6.58,14.55,1.67,19.52,4.67,26.71,11S140,45.65,141.31,54.5c1.42,9.38-2.84,25.76-10.47,42.52s-22.5,36-37,53.88-24.34,36.83-27.45,55.47c-2.89,17.3,6.59,34.5,6.59,34.5a95.75,95.75,0,0,0,28.54,4.24c9.06-.09,22.51-1.36,40.4-8.31a163.81,163.81,0,0,0,22.65-11.3Z" transform="translate(26.15 14.54)"/><path id="path9200" class="cls-3" d="M167.44,186.43s-1.18-22.43,3.74-36.56c3.36-9.66,6.74-17,16.22-28.53C195.88,111,210,98.63,210,98.63s4.12,13.21,2.39,16.4C207.78,123.44,167.44,186.43,167.44,186.43Z" transform="translate(26.15 14.54)"/><path id="path9198" class="cls-4" d="M167.52,186.22s.76-19,5.61-31.8,14.93-30.67,33.44-44S239,82.19,246.21,68.47a171.6,171.6,0,0,0,11.18-27.23s1.76,25.4-1.5,45.08-16.17,41.77-30.68,57.49C211.48,158.68,183.18,175.35,167.52,186.22Z" transform="translate(26.15 14.54)"/><path id="path9226" class="cls-1" d="M129.28,104.37c3.52-13.63,3.18-16.74,1-26.36-2.92-13.17-14.17-28.63-14.17-28.63s5.93,1.42,15.3,10.54a65.37,65.37,0,0,1,10.87,13.71s0,6.2-3.87,15.32a68.79,68.79,0,0,1-9.17,15.41Z" transform="translate(26.15 14.54)"/><g id="g4146"><path id="path4206" class="cls-5" d="M119,233.27c-3.86-.81-14.4-24-12.45-27.9C111.27,206.71,121.05,228.7,119,233.27Z" transform="translate(26.15 14.54)"/><path id="path4210" class="cls-5" d="M126.75,213.12c-3.41-2-26.73,8.16-27.92,12.4C103.22,227.68,125.21,217.88,126.75,213.12Z" transform="translate(26.15 14.54)"/></g></g></g></g><text class="cls-6" transform="translate(0 249)">?</text></svg>