<svg id="Pin" xmlns="http://www.w3.org/2000/svg" viewBox="0 0 2232.73 1795.94"><defs><style>.cls-1,.cls-2,.cls-4{fill:none;stroke-linecap:round;stroke-linejoin:round;}.cls-1{stroke:#19b5fe;stroke-width:100px;}.cls-2{stroke:#815cb7;}.cls-2,.cls-4{stroke-width:220px;}.cls-3{fill:#19b5fe;}.cls-4{stroke:#72a7dd;}.cls-5{fill:#fff;}.cls-6{fill:#815cb7;}.cls-7{fill:#1e8bc3;}</style></defs><title>live</title><path class="cls-1" d="M1808,345.4c438.46,431.68,444,1137.07,12.27,1575.52" transform="translate(-17.74 -235.4)"/><path class="cls-2" d="M1808,345.4c438.46,431.68,444,1137.07,12.27,1575.52" transform="translate(-17.74 -235.4)"/><circle class="cls-3" cx="1121.22" cy="902.2" r="258.75"/><path class="cls-4" d="M1532.9,622c284.13,279.74,287.69,736.85,8,1021" transform="translate(-17.74 -235.4)"/><path class="cls-4" d="M730,1643.66c-284.13-279.74-287.69-736.85-8-1021" transform="translate(-17.74 -235.4)"/><path class="cls-2" d="M460.22,1921.34C21.76,1489.66,16.26,784.28,447.94,345.82" transform="translate(-17.74 -235.4)"/><path class="cls-5" d="M1283.3,1003.83c18,5.85,28.08,24.37,22.55,41.39s-24.58,26.07-42.58,20.22-28.38-24.47-22.84-41.49S1265.29,998,1283.3,1003.83Z" transform="translate(-17.74 -235.4)"/><path id="path9240" class="cls-6" d="M1220.73,1390.87a281.35,281.35,0,0,1-27.59,53.87c-15.17,23-38.74,41.36-38.74,41.36s12.54-22.82,17.26-49.11c3.21-17.91-6.23-36.83-6.23-36.83s9.73.32,24.7-2.52C1207,1394.44,1220.73,1390.87,1220.73,1390.87Z" transform="translate(-17.74 -235.4)"/><g id="layer1"><g id="g9281"><path id="path9200" class="cls-7" d="M1169.51,945s-40.11,30.3-74.67,39.14c-23.63,6-42.85,9.09-80.09,6.43-33.3-2.37-79.56-12.39-79.56-12.39s18-24.06,26.83-24.92C985.28,951,1169.51,945,1169.51,945Z" transform="translate(-17.74 -235.4)"/><path id="path9198" class="cls-6" d="M1169.09,945.1s-30.47,22-56.22,30.07S1047,989.4,1003.7,977s-83.36-16-113.43-10.44a338.84,338.84,0,0,0-55.92,15.85s37.3-33.7,71.83-52.64,84.59-25.84,126.69-22.48c39.84,3.18,100.24,26.79,136.21,37.86Z" transform="translate(-17.74 -235.4)"/></g></g></svg>