<svg id="ISO" xmlns="http://www.w3.org/2000/svg" viewBox="0 0 2279.19 2279.19"><defs><style>.cls-1{fill:#19b5fe;}.cls-2{fill:#fff;}.cls-3{fill:#bee2e9;}.cls-4{fill:#815cb7;}</style></defs><title>mirrors</title><circle class="cls-1" cx="1139.6" cy="1139.6" r="1139.6"/><path class="cls-2" d="M1921.76,443.48c36.07,11.73,56.27,48.83,45.18,82.93s-49.24,52.24-85.31,40.51-56.85-49-45.77-83.12S1885.68,431.75,1921.76,443.48Z"/><g id="Inner"><path id="path9214" class="cls-3" d="M739.76,1088.64c-123.58,35.83-192,50.49-294.14,127.94-72.53,53.55-145.77,145.26-145.77,145.26s115-58.84,210.45-79.88,139.52-23.39,169.38-20.92c6-55.95,44.8-123.31,60.07-172.41Z"/><path id="path9226" class="cls-3" d="M1319,1399.61c-105,59.07-122.11,79.59-168.81,149.73-63.94,96-92.7,257-92.7,257s-26.39-45-25.56-156.84c.63-85.9,20.21-148.29,20.21-148.29s38-37,117.42-66.89S1319,1399.6,1319,1399.6Z"/><circle class="cls-2" cx="1139.6" cy="1139.6" r="473.06"/><circle class="cls-3" cx="1139.6" cy="1139.6" r="442.42"/><circle class="cls-2" cx="1139.6" cy="1139.6" r="171.31"/><path id="path9240" class="cls-4" d="M1566.33,1375.51c49.4,35.67,65.87,52.32,97.34,85.53,49.71,52.47,96.14,124.78,96.14,124.78s-61.73-49.57-123.53-79.76c-42.11-20.57-136.52-35.11-136.52-35.11s18.77-15.67,39.3-44C1562.84,1394.08,1566.33,1375.51,1566.33,1375.51Z"/><path id="path9198" class="cls-4" d="M1012.64,798.62s-67.35,101.2-132.22,156.82S709.77,1079.8,581,1100.07s-241.74,61.29-320.34,115.52-142.12,116.26-142.12,116.26S195.91,1189,276.78,1091.31,490.34,910.17,608.87,865.83c112.16-42,296.33-52.5,403.77-67.21Z"/></g></svg>