<svg id="Clock" xmlns="http://www.w3.org/2000/svg" viewBox="0 0 2272.47 2272.47"><defs><style>.cls-1{fill:#bee2e9;}.cls-2{fill:#19b5fe;}.cls-3{fill:#1e8bc3;}.cls-4{fill:#815cb7;}.cls-5{fill:#fff;}</style></defs><title>ntp</title><circle class="cls-1" cx="1135.91" cy="1127.49" r="1136.23" transform="translate(-26.05 35.96) rotate(-1.36)"/><g id="Engine"><g id="layer1"><g id="g9281"><path id="path9177" class="cls-2" d="M1609.35,436.42c-19.21-21.32-40.5-39.75-61.28-52.53-63-38.72-120.59-47.07-155.1-51.88-66.84-9.33-146.65,15.92-203.64,45.82s-122.64,91.61-157.23,153.7-42,153.1-35.25,203.84c9,66.33,42.31,127.68,84.81,175.4A426.94,426.94,0,0,1,1056,874.4c-21.39-34.11-38.58-73.45-43.94-116.71-3.7-45.28,2.44-62.2,17.2-87.86s47.82-50.21,73.91-59.62c27.68-10,80.08-6.89,135.65,6.22s123,46.75,186.24,80.17,126.71,51.83,185.28,50c54.36-1.65,101-40.86,101-40.86a296.94,296.94,0,0,0-4.31-89.39c-5.75-27.51-17.73-67.66-49.64-117.89-10.89-17.15-28.81-40.76-48-62.08Z" transform="translate(0.32 8.75)"/><path id="path9200" class="cls-3" d="M1488.75,451.16s-67.51,17.1-113.47,10.67c-31.42-4.4-55.66-10.27-96.58-32.13-36.58-19.55-82.66-54.94-82.66-54.94s37.7-20.49,48.44-17.14C1272.82,366.43,1488.75,451.16,1488.75,451.16Z" transform="translate(0.32 8.75)"/><path id="path9198" class="cls-4" d="M1488.07,451s-58.34,9.18-100.11,2.11-102.3-26.91-154.14-75.16-105.32-81.76-151.39-95.31a532.17,532.17,0,0,0-89.57-17.59s76.2-20.66,138-22.6,136.82,24,193.39,58.65c53.53,32.8,121.3,108.82,163.8,149.91Z" transform="translate(0.32 8.75)"/><path id="path9240" class="cls-4" d="M1474.45,729.79c-23.68,20.71-32.7,31.35-62.91,54.55a195.7,195.7,0,0,1-58.08,30.33s21.8-18.68,36.18-37.38,30.15-68.53,30.15-68.53,4.68,4.11,22.94,11.64C1463.63,729,1474.45,729.79,1474.45,729.79Z" transform="translate(0.32 8.75)"/></g><path id="path5116" class="cls-5" d="M1650.14,622.46c-10.36,9.25-26.61,8-36.28-2.89s-9.11-27.13,1.25-36.38l0,0c10.36-9.25,26.61-8,36.28,2.89s9.11,27.13-1.25,36.38Z" transform="translate(0.32 8.75)"/></g><rect class="cls-4" x="969.31" y="590.56" width="91.44" height="858.75" transform="translate(2441.81 839.52) rotate(127.31)"/><rect class="cls-4" x="1368.28" y="383.11" width="67.11" height="1160.19" transform="translate(1464.23 -727.76) rotate(57.6)"/></g><circle class="cls-4" cx="1134.28" cy="1137.91" r="92.4"/></svg>