<?xml version="1.0" encoding="UTF-8" standalone="no"?>
<!-- Created with Inkscape (http://www.inkscape.org/) -->

<svg
   xmlns:dc="http://purl.org/dc/elements/1.1/"
   xmlns:cc="http://creativecommons.org/ns#"
   xmlns:rdf="http://www.w3.org/1999/02/22-rdf-syntax-ns#"
   xmlns:svg="http://www.w3.org/2000/svg"
   xmlns="http://www.w3.org/2000/svg"
   xmlns:xlink="http://www.w3.org/1999/xlink"
   xmlns:sodipodi="http://sodipodi.sourceforge.net/DTD/sodipodi-0.dtd"
   xmlns:inkscape="http://www.inkscape.org/namespaces/inkscape"
   width="345"
   height="345"
   id="svg4262"
   version="1.1"
   inkscape:version="0.92.4 (unknown)"
   sodipodi:docname="tuna-meals-flat.svg"
   inkscape:export-filename="/home/zsun/Desktop/artwork/logos/tuna-meals-flat.png"
   inkscape:export-xdpi="66.782608"
   inkscape:export-ydpi="66.782608">
  <defs
     id="defs4264">
    <linearGradient
       id="linearGradient9182">
      <stop
         style="stop-color:#55c7ff;stop-opacity:1;"
         offset="0"
         id="stop9184" />
      <stop
         style="stop-color:#2b69ff;stop-opacity:1;"
         offset="1"
         id="stop9186" />
    </linearGradient>
    <linearGradient
       id="linearGradient5892"
       spreadMethod="pad"
       gradientTransform="matrix(190.60693,0,0,190.60693,-234.07121,40.419435)"
       gradientUnits="userSpaceOnUse"
       y2="0"
       x2="1"
       y1="0"
       x1="0">
      <stop
         id="stop5894"
         offset="0"
         style="stop-opacity:1;stop-color:#19e1fe" />
      <stop
         id="stop5896"
         offset="1"
         style="stop-opacity:1;stop-color:#19b5fe" />
    </linearGradient>
    <radialGradient
       fx="0"
       fy="0"
       cx="0"
       cy="0"
       r="1"
       gradientUnits="userSpaceOnUse"
       gradientTransform="matrix(153.35164,0,0,153.35164,185.94709,-313.36527)"
       spreadMethod="pad"
       id="radialGradient72-9">
      <stop
         style="stop-opacity:1;stop-color:#339dff"
         offset="0"
         id="stop74-4" />
      <stop
         style="stop-opacity:1;stop-color:#4552ff"
         offset="1"
         id="stop76-9" />
    </radialGradient>
    <radialGradient
       inkscape:collect="always"
       xlink:href="#linearGradient5892"
       id="radialGradient6635"
       cx="158.60139"
       cy="-4.6746378"
       fx="158.60139"
       fy="-4.6746378"
       r="95.449026"
       gradientTransform="matrix(0.39430333,1.3112928,-1.3171217,0.39603987,146.00191,-227.78114)"
       gradientUnits="userSpaceOnUse" />
    <linearGradient
       gradientTransform="translate(-135.11361,47.300728)"
       id="f"
       x1="66.207001"
       x2="66.207001"
       y1="91.480003"
       y2="117.4"
       gradientUnits="userSpaceOnUse">
      <stop
         stop-color="#FFC044"
         offset="0"
         id="stop2" />
      <stop
         stop-color="#CA4300"
         offset=".8473"
         id="stop4" />
    </linearGradient>
    <radialGradient
       id="e"
       cx="65.458"
       cy="84.614998"
       r="57.048"
       gradientTransform="matrix(1,0,0,0.3802,-135.11361,98.723731)"
       gradientUnits="userSpaceOnUse">
      <stop
         stop-color="#583223"
         offset="0"
         id="stop9" />
      <stop
         stop-color="#7B3915"
         offset=".1013"
         id="stop11" />
      <stop
         stop-color="#A04106"
         offset=".225"
         id="stop13" />
      <stop
         stop-color="#AE4400"
         offset=".2906"
         id="stop15" />
      <stop
         stop-color="#A84302"
         offset=".3208"
         id="stop17" />
      <stop
         stop-color="#623A15"
         offset=".7241"
         id="stop19" />
      <stop
         stop-color="#603813"
         offset=".9458"
         id="stop21" />
    </radialGradient>
    <linearGradient
       gradientTransform="translate(-135.11361,47.300728)"
       id="d"
       x1="65.617996"
       x2="65.617996"
       y1="65.550003"
       y2="96.367996"
       gradientUnits="userSpaceOnUse">
      <stop
         stop-color="#FBC02D"
         offset=".0049261"
         id="stop26" />
      <stop
         stop-color="#FCCA30"
         offset=".0811"
         id="stop28" />
      <stop
         stop-color="#FDD534"
         offset=".2088"
         id="stop30" />
      <stop
         stop-color="#FDD835"
         offset=".3596"
         id="stop32" />
      <stop
         stop-color="#FFF59D"
         offset=".6897"
         id="stop34" />
      <stop
         stop-color="#FDD835"
         offset="1"
         id="stop36" />
    </linearGradient>
    <linearGradient
       id="c"
       x1="28.444"
       x2="110.17"
       y1="68.946999"
       y2="68.946999"
       gradientTransform="matrix(0.9998,-0.0189,0.0189,0.9998,-136.27561,48.632228)"
       gradientUnits="userSpaceOnUse">
      <stop
         stop-color="#FF3D2A"
         offset="0"
         id="stop41" />
      <stop
         stop-color="#F63424"
         offset=".0408"
         id="stop43" />
      <stop
         stop-color="#DD1D14"
         offset=".1741"
         id="stop45" />
      <stop
         stop-color="#CC0D09"
         offset=".3141"
         id="stop47" />
      <stop
         stop-color="#C10302"
         offset=".4638"
         id="stop49" />
      <stop
         stop-color="#BE0000"
         offset=".6404"
         id="stop51" />
      <stop
         stop-color="#FF1500"
         offset=".9902"
         id="stop53" />
    </linearGradient>
    <linearGradient
       gradientTransform="translate(-135.11361,47.300728)"
       id="b"
       x1="63.443001"
       x2="63.443001"
       y1="61.032001"
       y2="78.598"
       gradientUnits="userSpaceOnUse">
      <stop
         stop-color="#518F00"
         offset="0"
         id="stop60" />
      <stop
         stop-color="#619E15"
         offset=".1974"
         id="stop62" />
      <stop
         stop-color="#6FAA27"
         offset=".404"
         id="stop64" />
      <stop
         stop-color="#72AD2B"
         offset=".4245"
         id="stop66" />
      <stop
         stop-color="#80B93C"
         offset=".5468"
         id="stop68" />
      <stop
         stop-color="#88C147"
         offset=".6779"
         id="stop70" />
      <stop
         stop-color="#8BC34A"
         offset=".8325"
         id="stop72" />
      <stop
         stop-color="#8CC63F"
         offset="1"
         id="stop74" />
    </linearGradient>
    <linearGradient
       gradientTransform="translate(-135.11361,47.300728)"
       id="a"
       x1="32.417"
       x2="101.99"
       y1="18.370001"
       y2="70.162003"
       gradientUnits="userSpaceOnUse">
      <stop
         stop-color="#FFC044"
         offset="0"
         id="stop79" />
      <stop
         stop-color="#CA4300"
         offset=".8473"
         id="stop81" />
    </linearGradient>
    <radialGradient
       id="h"
       cx="93.5"
       cy="20"
       r="27.504"
       gradientTransform="matrix(-1,0,0,1,127.17,0)"
       gradientUnits="userSpaceOnUse">
      <stop
         stop-color="#FFE7CC"
         offset="0"
         id="stop2-6" />
      <stop
         stop-color="#D1B798"
         offset=".6207"
         id="stop4-2" />
    </radialGradient>
    <linearGradient
       id="g"
       x1="36.306"
       x2="85.931999"
       y1="43.191002"
       y2="92.818001"
       gradientTransform="matrix(-1,0,0,1,127.17,0)"
       gradientUnits="userSpaceOnUse">
      <stop
         stop-color="#C7502D"
         offset="0"
         id="stop13-9" />
      <stop
         stop-color="#7E1D1C"
         offset=".7192"
         id="stop15-1" />
      <stop
         stop-color="#A21D1C"
         offset=".9852"
         id="stop17-2" />
    </linearGradient>
    <radialGradient
       id="f-7"
       cx="45.141998"
       cy="48.855999"
       r="11.403"
       gradientTransform="matrix(-0.8463,-0.6489,-0.7299,0.9519,156.1,60.605)"
       gradientUnits="userSpaceOnUse">
      <stop
         stop-color="#F79792"
         offset="0"
         id="stop28-0" />
      <stop
         stop-color="#EE7276"
         offset=".8818"
         id="stop30-9" />
    </radialGradient>
    <radialGradient
       id="e-3"
       cx="33.883999"
       cy="36.747002"
       r="5.4259"
       gradientTransform="matrix(-0.8463,-0.6489,-0.7299,0.9519,156.1,60.605)"
       gradientUnits="userSpaceOnUse">
      <stop
         stop-color="#F79792"
         offset="0"
         id="stop35" />
      <stop
         stop-color="#EE7276"
         offset=".8818"
         id="stop37" />
    </radialGradient>
    <radialGradient
       id="d-6"
       cx="39.686001"
       cy="38.263"
       r="7.0103002"
       gradientTransform="matrix(-0.8463,-0.6489,-0.7299,0.9519,156.1,60.605)"
       gradientUnits="userSpaceOnUse">
      <stop
         stop-color="#F79792"
         offset="0"
         id="stop42" />
      <stop
         stop-color="#EE7276"
         offset=".8818"
         id="stop44" />
    </radialGradient>
    <radialGradient
       id="c-0"
       cx="46.710999"
       cy="64.356003"
       r="8.1396999"
       gradientTransform="matrix(-0.8463,-0.6489,-0.7299,0.9519,156.1,60.605)"
       gradientUnits="userSpaceOnUse">
      <stop
         stop-color="#F79792"
         offset="0"
         id="stop49-6" />
      <stop
         stop-color="#EE7276"
         offset=".8818"
         id="stop51-2" />
    </radialGradient>
    <radialGradient
       id="b-6"
       cx="38.062"
       cy="71.910004"
       r="6.0627999"
       gradientTransform="matrix(-0.8463,-0.6489,-0.7299,0.9519,156.1,60.605)"
       gradientUnits="userSpaceOnUse">
      <stop
         stop-color="#F79792"
         offset="0"
         id="stop56" />
      <stop
         stop-color="#EE7276"
         offset=".8818"
         id="stop58" />
    </radialGradient>
    <radialGradient
       id="a-1"
       cx="39.831001"
       cy="63.082001"
       r="6.6405001"
       gradientTransform="matrix(-0.8463,-0.6489,-0.7299,0.9519,156.1,60.605)"
       gradientUnits="userSpaceOnUse">
      <stop
         stop-color="#F79792"
         offset="0"
         id="stop63" />
      <stop
         stop-color="#EE7276"
         offset=".8818"
         id="stop65" />
    </radialGradient>
    <radialGradient
       id="p"
       cx="28.906"
       cy="40.125999"
       r="7.5584998"
       gradientTransform="matrix(-0.8463,-0.6489,-0.7299,0.9519,156.1,60.605)"
       gradientUnits="userSpaceOnUse">
      <stop
         stop-color="#F79792"
         offset="0"
         id="stop70-8" />
      <stop
         stop-color="#EE7276"
         offset=".8818"
         id="stop72-7" />
    </radialGradient>
    <radialGradient
       id="o"
       cx="29.785"
       cy="32.675999"
       r="1.7456"
       gradientTransform="matrix(-0.8463,-0.6489,-0.7299,0.9519,156.1,60.605)"
       gradientUnits="userSpaceOnUse">
      <stop
         stop-color="#F79792"
         offset="0"
         id="stop77" />
      <stop
         stop-color="#EE7276"
         offset=".8818"
         id="stop79-9" />
    </radialGradient>
    <radialGradient
       id="n"
       cx="32.588001"
       cy="63.658001"
       r="5.0862999"
       gradientTransform="matrix(-0.8463,-0.6489,-0.7299,0.9519,156.1,60.605)"
       gradientUnits="userSpaceOnUse">
      <stop
         stop-color="#F79792"
         offset="0"
         id="stop84" />
      <stop
         stop-color="#EE7276"
         offset=".8818"
         id="stop86" />
    </radialGradient>
    <radialGradient
       id="m"
       cx="50.893002"
       cy="43.223999"
       r="2.1082001"
       gradientTransform="matrix(-0.8463,-0.6489,-0.7299,0.9519,156.1,60.605)"
       gradientUnits="userSpaceOnUse">
      <stop
         stop-color="#F79792"
         offset="0"
         id="stop91" />
      <stop
         stop-color="#EE7276"
         offset=".8818"
         id="stop93" />
    </radialGradient>
    <radialGradient
       id="l"
       cx="24.813999"
       cy="55.233002"
       r="4.8979001"
       gradientTransform="matrix(-0.8463,-0.6489,-0.7299,0.9519,156.1,60.605)"
       gradientUnits="userSpaceOnUse">
      <stop
         stop-color="#F79792"
         offset="0"
         id="stop98" />
      <stop
         stop-color="#EE7276"
         offset=".8818"
         id="stop100" />
    </radialGradient>
    <radialGradient
       id="k"
       cx="32.049999"
       cy="52.773998"
       r="6.9752998"
       gradientTransform="matrix(-0.8463,-0.6489,-0.6935,0.9044,152.54,65.249)"
       gradientUnits="userSpaceOnUse">
      <stop
         stop-color="#F79792"
         offset="0"
         id="stop105" />
      <stop
         stop-color="#EE7276"
         offset=".8818"
         id="stop107" />
    </radialGradient>
    <radialGradient
       id="j"
       cx="50.984001"
       cy="62.625"
       r="2.684"
       gradientTransform="matrix(-0.8463,-0.6489,-0.7299,0.9519,156.1,60.605)"
       gradientUnits="userSpaceOnUse">
      <stop
         stop-color="#F79792"
         offset="0"
         id="stop112" />
      <stop
         stop-color="#EE7276"
         offset=".8818"
         id="stop114" />
    </radialGradient>
    <radialGradient
       id="i"
       cx="16"
       cy="100.5"
       r="41.112999"
       gradientTransform="matrix(-1,0,0,1,127.17,0)"
       gradientUnits="userSpaceOnUse">
      <stop
         stop-color="#FFE7CC"
         offset="0"
         id="stop119" />
      <stop
         stop-color="#D1B798"
         offset=".6207"
         id="stop121" />
    </radialGradient>
  </defs>
  <sodipodi:namedview
     id="base"
     pagecolor="#ffffff"
     bordercolor="#666666"
     borderopacity="1.0"
     inkscape:pageopacity="0.0"
     inkscape:pageshadow="2"
     inkscape:zoom="0.70000001"
     inkscape:cx="181.29279"
     inkscape:cy="74.261799"
     inkscape:document-units="px"
     inkscape:current-layer="layer4"
     showgrid="false"
     inkscape:window-width="1366"
     inkscape:window-height="676"
     inkscape:window-x="0"
     inkscape:window-y="31"
     inkscape:window-maximized="1"
     fit-margin-top="0"
     fit-margin-left="0"
     fit-margin-right="0"
     fit-margin-bottom="0"
     showguides="true"
     inkscape:guide-bbox="true" />
  <metadata
     id="metadata4267">
    <rdf:RDF>
      <cc:Work
         rdf:about="">
        <dc:format>image/svg+xml</dc:format>
        <dc:type
           rdf:resource="http://purl.org/dc/dcmitype/StillImage" />
        <dc:title />
      </cc:Work>
    </rdf:RDF>
  </metadata>
  <g
     inkscape:groupmode="layer"
     id="layer2"
     inkscape:label="TUNA"
     style="display:none"
     transform="translate(-0.54368288,98.464137)">
    <g
       transform="translate(9.379959,1.08153)"
       id="g50">
      <path
         inkscape:connector-curvature="0"
         id="path24-1"
         style="fill:#2f4b68;fill-opacity:1;fill-rule:nonzero;stroke:none"
         d="m 167.46786,155.6163 c 0,13.67878 3.64258,18.4179 10.04028,18.4179 3.42633,0 5.9948,-0.36517 8.3817,-1.09859 v 0.53145 c -2.71434,0.99862 -5.85607,1.71469 -9.42622,1.71469 -5.85402,0 -19.2778,0 -19.2778,-20.13668 V 111.18321 H 142.7216 v -9.42519 h 14.46422 V 81.622357 h 10.28204 v 20.135663 h 18.42198 v 9.42519 h -18.42198 z" />
      <path
         inkscape:connector-curvature="0"
         id="path28-5"
         style="fill:#2f4b68;fill-opacity:1;fill-rule:nonzero;stroke:none"
         d="m 229.52618,102.77817 v 43.31103 c 0,19.85004 -4.35355,29.09164 -19.64604,29.09164 -14.79879,0 -19.64705,-9.2416 -19.64705,-29.09164 v -43.31103 h 10.28305 v 41.84216 c 0,14.42342 0.68547,25.07267 9.364,25.07267 8.98149,0 9.364,-10.64925 9.364,-25.07267 v -41.84216 z" />
      <path
         inkscape:connector-curvature="0"
         id="path32-6"
         style="fill:#2f4b68;fill-opacity:1;fill-rule:nonzero;stroke:none"
         d="m 275.26369,129.66589 v 44.37188 h -10.28101 v -53.18419 c 0,-10.88602 -3.58649,-12.83789 -8.81169,-12.82222 -5.2252,0.0157 -8.63208,2.24829 -8.63208,12.72293 v 53.28348 H 237.25688 V 115.6044 c 0,-9.13044 5.87157,-13.9647 18.77859,-14.11108 12.65451,-0.14352 19.22822,4.91582 19.22822,13.7779"
         sodipodi:nodetypes="cccszsccscc" />
      <path
         inkscape:connector-curvature="0"
         id="path36-9"
         style="fill:#2f4b68;fill-opacity:1;fill-rule:nonzero;stroke:none"
         d="m 309.19115,134.82792 c 0,-0.95913 -0.20446,-0.85684 -4.54939,-0.85684 -8.56837,0 -14.62742,5.08084 -14.62742,18.21798 0,13.70632 -0.32336,15.46386 10.38404,15.46386 8.41944,0 8.79277,-6.22023 8.79277,-15.03646 0,0 0,-12.68696 0,-17.78854 z m 9.262,-3.63237 v 21.42091 c 0,19.14417 -6.40588,22.5654 -18.05477,22.5654 -18.99525,0 -19.64604,1.16897 -19.64604,-22.9928 0,-23.563 18.46279,-23.41918 25.03187,-23.41918 6.42627,0 3.26414,0.71301 3.26414,0.71301 0,-13.42377 1.21385,-22.17574 -10.64926,-22.17574 -6.03049,0 -11.64073,1.91258 -14.72942,3.81496 v -4.89519 c 4.49227,-3.0642 9.33645,-4.73401 15.30065,-4.73401 19.99285,0 19.48283,14.3622 19.48283,29.70264"
         sodipodi:nodetypes="sssssscsssscsccsc" />
    </g>
  </g>
  <g
     inkscape:groupmode="layer"
     id="layer4"
     inkscape:label="Hamburger">
    <g
       style="display:inline"
       id="g4188"
       transform="matrix(1.1958417,0,0,1.1958417,355.29402,104.79846)">
      <path
         id="path7"
         d="m -119.84361,141.70073 c 0,0 1.62,24.29 51.099997,23.93 49.479998,-0.36 50.199998,-22.67 50.919998,-26.45 0.72,-3.78 -18.529998,-11.34 -54.159998,-9.72 -35.629997,1.62 -49.819997,2.15 -47.859997,12.24 z"
         style="fill:url(#f)"
         inkscape:connector-curvature="0" />
      <path
         id="path24"
         d="m -123.62361,121.58073 c 0,0 -2.88,3.6 -2.52,6.06 0.36,2.46 -1.08,1.14 0,4.55 1.08,3.41 0.18,5.31 4.32,6.82 4.14,1.51 2.16,2.65 6.66,3.98 4.5,1.33 7.2,1.89 10.44,3.6 3.24,1.71 4.5,2.65 8.279997,2.46 3.78,-0.19 8.28,0.19 8.28,0.19 l 7.02,1.14 c 0,0 1.08,0.38 6.12,0.76 5.04,0.38 6.84,-1.33 9.36,-1.52 2.52,-0.19 6.3,0.95 8.46,0.38 2.16,-0.57 7.02,-2.46 7.02,-2.46 0,0 4.5,-3.22 7.02,-3.03 2.52,0.19 6.66,-0.76 8.64,-1.89 1.979998,-1.14 6.479998,-1.52 6.479998,-1.52 0,0 3.06,-1.33 5.94,-2.84 2.88,-1.52 4.32,-1.52 5.58,-2.46 1.26,-0.95 1.81,-1.05 3.06,-3.41 1.05,-2 0.9,-4.74 0,-7.58 -0.9,-2.84 -15.12,-10.23 -15.12,-10.23 l -84.389995,-3.98 z"
         style="fill:url(#e)"
         inkscape:connector-curvature="0" />
      <path
         id="path39"
         d="m -118.92361,115.92073 c 0,0 -6.73,3.33 -5.83,5.13 0.9,1.8 1.45,1.58 1.45,1.58 0,0 9.04,1.9 25.769997,6.16 16.73,4.26 25.07,7.04 29.26,10.14 5.22,3.87 6.55,5.9 9.97,5.25 3.42,-0.65 5.94,-5.24 12.6,-10.15 6.66,-4.91 9.21,-5.59 18.259998,-7.66 8.55,-1.96 12.87,-2.38 13.23,-4.67 0.36,-2.29 -0.9,-7.64 -2.52,-8.46 -1.62,-0.82 -81.509998,-0.49 -81.509998,-0.49 -16.739997,-0.66 -20.679997,3.17 -20.679997,3.17 z"
         style="fill:url(#d)"
         inkscape:connector-curvature="0" />
      <path
         id="path56"
         d="m -112.17361,107.89073 -0.93,5.52 1.37,6.48 c 0.23,1.1 0.9,2.06 1.85,2.64 3.46,2.13 13.289997,6.62 34.049997,5.92 27.09,-0.91 36.7,-4.83 45.149998,-8.53 6.74,-2.95 7.93,-12.68 8.14,-16.5 -26.579998,16.74 -61.819998,17.5 -89.629995,4.47 z"
         style="fill:url(#c)"
         inkscape:connector-curvature="0" />
      <path
         id="path58"
         d="m -26.893615,105.99073 c 0.02,-0.89 0,-1.43 0,-1.43 l -81.979995,-0.38 -1.18,8.17 c 26.149997,11.2 58.869997,9.62 83.159995,-6.36 z"
         style="fill:#972f00"
         inkscape:connector-curvature="0" />
      <path
         id="path77"
         d="m -124.73361,101.92073 c -1.04,1.02 -2.7,0.3 -4.07,-0.14 -1.37,-0.44 -3.06,0.25 -2.87,1.72 0.13,0.98 0.81,1.24 1.68,1.65 0.87,0.4 1.73,0.73 1.13,1.51 -0.62,0.81 -1.39,0.09 -2.44,0.97 -2,1.68 0.48,4.73 1.81,4.69 2.03,-0.06 2.47,-1.19 3.58,-1.94 l 0.03,0.16 c 0.19,0.98 1.33,1.44 2.15,0.87 l 0.07,-0.05 c 0.68,-0.47 1.67,-0.36 2.1,0.35 0.54,0.9 -0.17,2.01 -0.28,3.06 -0.15,1.5 1.28,2.95 2.72,2.76 1.44,-0.19 2.48,-1.95 1.98,-3.37 0,1.63 1.31,3.14 2.87,3.31 1.56,0.17 3.14,-1.03 3.46,-2.63 0.1,0.71 0.39,1.38 0.81,1.95 0.65,0.88 2.04,0.89 2.69,0.01 0.35,-0.48 0.91,-0.79 1.47,-0.64 -1.03,0.74 -0.4,2.61 0.78,3.06 1.18,0.45 2.47,-0.03 3.64,-0.51 2.159997,-0.89 4.329997,-1.78 6.489997,-2.67 1.49,-0.61 2.99,-1.23 4.54,-1.64 3.77,-1 6.14,0.06 9.13,1.79 1.36,0.79 3.04,0.77 4.38,-0.05 0.5,-0.31 0.9,-0.57 0.97,-0.67 1.82,-0.43 1.95,1.74 1.29,2.84 -0.44,0.73 -0.62,1.62 -0.26,2.4 0.79,1.71 3.14,1.04 4.25,-0.33 1.08,-1.32 1.9,-2.03 3.52,-2.44 1.73,-0.44 3.36,0.05 4.93,-0.49 1.26,-0.43 2.14,-1.49 3.47,-1.51 2.28,-0.04 2.4,3.09 4.79,3.06 2.18,-0.03 2.5,-1.87 4.12,-2.42 1.43,-0.48 2.09,0.28 2.17,1.83 0.08,1.55 0.42,2.64 1.76,3.34 2.6,1.36 5.56,-4.01 7.89,-2.2 1.46,1.13 0.72,4.06 2.34,4.93 0.97,0.52 2.16,-0.12 2.94,-0.91 0.779998,-0.79 2.099998,-3.35 3.129998,-3.74 2.24,-0.86 4.5,2.43 6.56,1.19 0.98,-0.59 1.17,-1.1 1.6,-2.19 0.42,-1.09 1.05,-2.26 2.14,-2.55 0.52,-0.14 1.08,0.1 1.45,0.49 0.85,0.88 2.24,1.08 3.25,0.38 2.63,-1.82 3.84,-5.53 3,-9.75 -1.06,-5.32 -7.4,-6.79 -6.86,-9.959999 -3.49,1.84 -4.56,3.469999 -8.25,2.13 -1.77,-0.64 -3.48,-1.66 -5.36,-1.67 -3.189998,-0.01 -5.669998,2.819999 -8.679998,3.909999 -2.83,1.03 -5.98,0.44 -8.78,-0.69 -2.79,-1.129999 -5.36,-2.779999 -8.12,-3.989999 -5.73,-2.51 -12.26,-3.01 -18.28,-1.41 -4.51,1.2 -8.97,3.56 -13.57,2.82 -3.37,-0.54 -6.28,-2.69 -9.47,-3.93 -6.919997,-2.67 -13.539997,3.83 -20.349997,4.2 -2.27,0.12 -4.46,-3.33 -6.74,-1.42 -1.06,0.89 -0.91,2.25 -0.53,3.249999 0.12,0.26 1.42,1.68 1.83,1.28 z"
         style="fill:url(#b)"
         inkscape:connector-curvature="0" />
      <path
         id="path84"
         d="m -102.02361,66.430731 c -8.9,2.81 -19.43,11.52 -21.59,21.83 -2.16,10.31 1.68,14.159999 13.92,17.509999 12.239997,3.35 20.869997,3.36 36.949997,4.56 16.07,1.2 35.51,1.2 45.109998,-3.36 9.6,-4.56 16.55,-3.84 8.4,-23.269999 -8.15,-19.43 -36.699998,-21.9 -50.639998,-22.79 -18.72,-1.2 -27.59,4.08 -32.149997,5.52 z"
         style="fill:url(#a)"
         inkscape:connector-curvature="0" />
      <g
         id="g106"
         style="fill:#fadc8b"
         transform="translate(-135.11361,47.300728)">
        <path
           id="path86"
           d="m 35.73,25.28 c 0.41,1.05 -0.14,1.67 -0.65,1.86 -0.49,0.19 -1.32,0.13 -1.74,-0.94 -0.48,-1.25 -0.39,-2.87 0.18,-3.09 0.57,-0.22 1.73,0.93 2.21,2.17 z"
           inkscape:connector-curvature="0" />
        <path
           id="path88"
           d="m 52.24,30.98 c -1.01,0.5 -1.67,0 -1.91,-0.49 -0.23,-0.47 -0.24,-1.31 0.79,-1.82 1.2,-0.59 2.82,-0.64 3.09,-0.09 0.27,0.56 -0.77,1.81 -1.97,2.4 z"
           inkscape:connector-curvature="0" />
        <path
           id="path90"
           d="m 43.04,33.81 c -0.12,1.12 -0.88,1.42 -1.43,1.36 -0.52,-0.05 -1.24,-0.49 -1.12,-1.63 0.14,-1.33 0.96,-2.73 1.57,-2.67 0.6,0.06 1.11,1.61 0.98,2.94 z"
           inkscape:connector-curvature="0" />
        <path
           id="path92"
           d="m 56.66,22.99 c -0.52,1 -1.34,0.99 -1.83,0.74 -0.46,-0.24 -0.97,-0.91 -0.44,-1.93 0.62,-1.19 1.9,-2.19 2.44,-1.91 0.54,0.29 0.45,1.91 -0.17,3.1 z"
           inkscape:connector-curvature="0" />
        <path
           id="path94"
           d="m 88.26,23.94 c -1.07,-0.34 -1.21,-1.15 -1.04,-1.68 0.16,-0.5 0.73,-1.11 1.82,-0.77 1.27,0.4 2.48,1.49 2.3,2.07 -0.19,0.6 -1.8,0.78 -3.08,0.38 z"
           inkscape:connector-curvature="0" />
        <path
           id="path96"
           d="m 72.98,21.1 c 0.75,0.84 0.45,1.61 0.04,1.97 -0.39,0.35 -1.2,0.58 -1.96,-0.28 -0.89,-1 -1.37,-2.55 -0.91,-2.96 0.45,-0.4 1.94,0.27 2.83,1.27 z"
           inkscape:connector-curvature="0" />
        <path
           id="path98"
           d="m 96.16,29.69 c -0.49,-1.01 0,-1.67 0.49,-1.91 0.47,-0.23 1.31,-0.24 1.81,0.79 0.59,1.2 0.63,2.83 0.08,3.09 -0.54,0.27 -1.79,-0.77 -2.38,-1.97 z"
           inkscape:connector-curvature="0" />
        <path
           id="path100"
           d="m 90.25,40.38 c -1.1,0.22 -1.62,-0.43 -1.72,-0.96 -0.1,-0.51 0.1,-1.33 1.23,-1.55 1.31,-0.26 2.89,0.11 3.01,0.71 0.12,0.59 -1.21,1.54 -2.52,1.8 z"
           inkscape:connector-curvature="0" />
        <path
           id="path102"
           d="m 78.37,31.73 c 1.12,-0.04 1.53,0.68 1.55,1.22 0.02,0.52 -0.31,1.29 -1.46,1.34 -1.34,0.05 -2.84,-0.56 -2.86,-1.17 -0.02,-0.61 1.44,-1.33 2.77,-1.39 z"
           inkscape:connector-curvature="0" />
        <path
           id="path104"
           d="m 66.01,36.4 c -0.36,1.06 -1.18,1.19 -1.7,1.01 -0.5,-0.17 -1.1,-0.75 -0.73,-1.84 0.43,-1.27 1.54,-2.45 2.12,-2.25 0.59,0.19 0.74,1.81 0.31,3.08 z"
           inkscape:connector-curvature="0" />
      </g>
      <g
         id="g110"
         style="opacity:0.2"
         transform="translate(-135.11361,47.300728)">
        <path
           id="path108"
           d="m 59.88,16.55 c 1.67,0 3.4,0.06 5.16,0.17 11.01,0.71 40.26,2.58 47.95,20.89 3.14,7.48 4.07,12.1 2.83,14.13 -0.78,1.28 -0.54,2.94 0.57,3.94 0.28,0.25 0.57,0.51 0.88,0.77 1.49,1.29 2.9,2.5 3.24,4.24 0.56,2.82 -0.07,5.35 -1.61,6.51 -0.02,0.01 -0.05,0.03 -0.07,0.04 -1.16,0.72 -1.73,2.11 -1.39,3.43 0.31,1.21 0.41,2.23 0.41,2.82 -0.54,0.56 -0.86,1.3 -0.88,2.09 -0.02,0.94 0.37,1.83 1.08,2.44 0.39,0.33 0.59,0.55 0.68,0.66 0.63,2.12 0.69,3.91 0.14,4.94 -0.69,1.31 -0.87,1.44 -1.53,1.91 -0.2,0.14 -0.41,0.29 -0.64,0.47 -0.24,0.18 -0.63,0.32 -1.36,0.58 l -0.46,0.16 c -1.07,0.38 -1.85,1.32 -2.03,2.44 -0.18,1.12 0.26,2.26 1.16,2.96 0.03,0.03 0.06,0.05 0.09,0.07 -0.39,2.57 -1.23,7.81 -7.03,12.74 -7.84,6.67 -21.54,10.13 -40.71,10.27 H 65.3 c -13.01,0 -30.61,-1.87 -40.63,-10.76 -5.74,-5.1 -6.26,-10.09 -6.27,-10.26 -0.01,-0.13 -0.03,-0.26 -0.05,-0.39 -0.08,-0.43 -0.12,-0.83 -0.12,-1.19 0.02,-1.1 -0.54,-2.13 -1.47,-2.71 -0.66,-0.41 -1.44,-0.78 -2.38,-1.12 -1.46,-0.53 -1.46,-0.53 -1.78,-2.21 -0.14,-0.72 -0.31,-1.61 -0.63,-2.62 -0.12,-0.37 -0.18,-0.62 -0.22,-0.79 0.33,-0.76 0.56,-1.72 0.33,-3.25 -0.02,-0.31 0.33,-1.52 1.55,-3.24 0.64,-0.9 0.74,-2.05 0.32,-3.03 0.41,-0.32 1.04,-0.75 1.95,-1.29 0.88,-0.52 1.45,-1.44 1.53,-2.46 0.07,-0.92 -0.28,-1.82 -0.93,-2.46 0.02,-0.06 0.03,-0.12 0.05,-0.18 0.27,-0.94 0.77,-2.7 -0.28,-4.46 -0.81,-1.35 -2.25,-2.16 -3.86,-2.16 -0.36,0 -0.72,0.04 -1.07,0.12 -0.26,-0.24 -0.57,-0.44 -0.91,-0.57 -0.32,-0.13 -0.65,-0.21 -0.98,-0.23 0.21,-0.68 0.18,-1.29 0.1,-1.71 1.47,-0.13 2.46,-0.81 3.06,-1.39 1.18,-1.16 1.25,-3.03 0.18,-4.27 0.38,-0.15 0.73,-0.38 1.02,-0.68 0.86,-0.86 1.14,-2.13 0.73,-3.27 -0.61,-1.67 -0.59,-3.97 0.05,-7.03 1.87,-8.94 11.37,-16.94 19.48,-19.5 0.88,-0.28 1.84,-0.66 2.94,-1.09 4.45,-1.78 11.23,-4.47 22.87,-4.47 m 0,-3.12 c -15.1,0 -22.69,4.4 -26.79,5.69 -8.9,2.81 -19.43,11.52 -21.59,21.83 -0.76,3.63 -0.76,6.44 0.07,8.73 -0.33,-0.12 -0.66,-0.2 -1,-0.2 -0.49,0 -0.98,0.16 -1.48,0.58 -1.06,0.89 -0.91,2.25 -0.53,3.25 0.09,0.25 1.1,1.37 1.63,1.37 0.07,0 0.14,-0.02 0.19,-0.07 C 9.99,55 9.51,55.14 9,55.14 8.14,55.14 7.17,54.76 6.31,54.48 6.03,54.39 5.74,54.35 5.46,54.35 c -1.12,0 -2.17,0.68 -2.02,1.85 0.13,0.98 0.81,1.24 1.68,1.65 0.87,0.4 1.73,0.73 1.13,1.51 C 5.63,60.17 4.86,59.45 3.81,60.32 1.83,61.98 4.26,65 5.6,65 h 0.03 c 2.03,0 2.47,-1.19 3.58,-1.94 l 0.03,0.16 c 0.14,0.69 0.73,1.12 1.36,1.12 0.27,0 0.54,-0.08 0.79,-0.25 l 0.07,-0.05 c 0.27,-0.19 0.59,-0.28 0.91,-0.28 0.47,0 0.93,0.21 1.19,0.64 0.54,0.9 -0.17,2.01 -0.27,3.06 -0.08,0.86 0.35,1.69 1,2.21 -1.92,1.13 -4.52,2.93 -3.94,4.09 0.27,0.54 0.5,0.88 0.7,1.12 -0.79,1.12 -2.36,3.62 -2.09,5.48 0.36,2.46 -1.08,1.14 0,4.55 1.08,3.41 0.18,5.31 4.32,6.82 0.8,0.29 1.37,0.57 1.81,0.84 -0.01,0.58 0.05,1.19 0.17,1.85 0,0 1.6,23.94 50.02,23.94 h 1.08 c 49.48,-0.36 50.2,-22.67 50.92,-26.45 0.12,-0.65 -0.35,-1.41 -1.38,-2.21 1.1,-0.4 1.91,-0.63 2.64,-1.18 1.26,-0.95 1.81,-1.05 3.06,-3.41 1.05,-2 0.9,-4.74 0,-7.58 -0.16,-0.49 -0.72,-1.13 -1.54,-1.84 0.46,-0.36 0.74,-0.77 0.82,-1.27 0.17,-1.08 -0.03,-2.85 -0.45,-4.5 0.04,-0.02 0.08,-0.04 0.11,-0.06 2.63,-1.82 3.84,-5.53 3,-9.75 -0.65,-3.26 -3.27,-5.07 -5.09,-6.71 1.74,-2.84 1.35,-7.52 -2.61,-16.96 C 107.68,17.01 79.16,14.54 65.22,13.65 63.35,13.49 61.57,13.43 59.88,13.43 Z"
           inkscape:connector-curvature="0"
           style="fill:#424242" />
      </g>
    </g>
    <g
       transform="matrix(0.76017137,0,0,0.76017137,121.18078,213.00809)"
       id="g161">
      <path
         style="fill:url(#h)"
         inkscape:connector-curvature="0"
         id="path7-2"
         d="m 34.05,19.73 c 0,2.6 -1.27,6.86 0.35,8.33 l 5.07,4.77 c 2.29,2.11 5.25,5.44 0.94,10.12 -4.4,4.78 -8.54,3.26 -10.83,1.15 L 24.57,39.42 C 22.65,37.68 19,38.55 17.32,38.63 c -0.17,0.01 -0.35,0.02 -0.52,0.05 -0.17,0.03 -0.35,0.04 -0.52,0.05 C 12.97,38.89 9.8,37.56 7.6,35.05 4.54,31.59 3.33,25.8 6.45,22.3 c 2.78,-3.11 4.76,-2.14 7.03,-3.01 0.43,-0.15 0.7,-0.47 0.83,-0.91 0.65,-2.35 -1.37,-3.51 2.4,-7.39 3.17,-3.26 9.15,-2.72 12.82,-0.06 2.88,2.06 4.52,5.28 4.52,8.8 z" />
      <g
         style="opacity:0.2"
         id="g11">
        <path
           style="fill:#424242"
           inkscape:connector-curvature="0"
           id="path9"
           d="m 22.65,11.73 c 1.8,0 3.72,0.61 5.13,1.63 2.08,1.49 3.27,3.81 3.27,6.36 0,0.58 -0.1,1.39 -0.2,2.25 -0.34,2.76 -0.75,6.2 1.51,8.29 l 5.08,4.78 c 0.83,0.77 1.82,1.77 2.1,2.72 0.09,0.32 0.38,1.3 -1.33,3.15 -1.34,1.46 -2.64,2.19 -3.86,2.19 -1.24,0 -2.25,-0.76 -2.72,-1.2 l -5.04,-4.71 c -1.38,-1.25 -3.22,-1.86 -5.64,-1.86 -1.05,0 -2.03,0.11 -2.82,0.2 -0.38,0.04 -0.73,0.08 -0.95,0.09 -0.23,0.01 -0.53,0.03 -0.86,0.08 -0.06,0.01 -0.12,0.01 -0.18,0.01 -0.13,0.01 -0.26,0.01 -0.39,0.01 -2.29,0 -4.37,-0.95 -5.89,-2.68 C 7.7,30.6 6.72,26.49 8.7,24.28 c 1.17,-1.31 1.82,-1.4 3.12,-1.58 0.76,-0.1 1.7,-0.23 2.72,-0.62 1.29,-0.47 2.26,-1.52 2.66,-2.87 0,-0.02 0.01,-0.03 0.01,-0.05 0.35,-1.27 0.25,-2.32 0.18,-3.08 -0.09,-0.91 -0.13,-1.36 1.48,-3.02 1.13,-1.16 2.85,-1.33 3.78,-1.33 m 0,-3 c -2.25,0 -4.41,0.69 -5.94,2.25 -3.77,3.88 -1.75,5.04 -2.4,7.39 -0.13,0.44 -0.4,0.76 -0.83,0.91 -2.27,0.88 -4.25,-0.1 -7.03,3.01 -3.12,3.5 -1.91,9.29 1.15,12.75 2.08,2.38 5.02,3.7 8.14,3.7 0.18,0 0.36,0 0.54,-0.01 0.17,-0.01 0.35,-0.02 0.52,-0.05 0.17,-0.03 0.35,-0.04 0.52,-0.05 0.86,-0.04 2.23,-0.29 3.63,-0.29 1.33,0 2.68,0.23 3.62,1.08 l 5.01,4.68 c 1.18,1.08 2.84,2.01 4.77,2.01 1.84,0 3.92,-0.83 6.06,-3.16 4.31,-4.68 1.36,-8 -0.94,-10.12 L 34.4,28.06 c -1.62,-1.47 -0.36,-5.73 -0.35,-8.33 0,-3.52 -1.64,-6.74 -4.51,-8.8 -1.92,-1.39 -4.45,-2.2 -6.89,-2.2 z" />
      </g>
      <path
         style="fill:url(#g)"
         inkscape:connector-curvature="0"
         id="path20"
         d="m 112.56,78.03 c 1.19,-5.77 -1.7,-10.1 -4.55,-16.01 C 103.5,52.67 86.78,46.95 79.83,38.33 72.92,29.75 65.42,26.5 65.42,26.5 c 0,0 -12.01,-7.61 -24.25,1.54 -5.6,4.18 -11.23,8.69 -14.6,14.95 -3.16,5.87 -6.67,10.99 -6.4,17.68 0.45,11.14 9.63,21.86 16.48,29.87 3.66,4.28 8.73,6.68 13.19,10.13 4.43,3.44 7.21,8.78 12,11.67 3.32,2 8.09,2.26 11.97,2.62 2.4,0.22 4.85,-0.02 7.15,-0.76 2.41,-0.78 4.14,-2.36 6.3,-3.52 4.86,-2.59 9.04,-6.77 12.98,-10.57 4.86,-4.7 8.27,-11.12 10.83,-17.31 0.66,-1.61 1.16,-3.2 1.49,-4.77 z" />
      <g
         style="opacity:0.2"
         id="g24">
        <path
           style="fill:#eeeeee"
           inkscape:connector-curvature="0"
           id="path22"
           d="m 54.23,26.53 c 5.48,0 9.55,2.48 9.58,2.5 0.13,0.08 0.27,0.16 0.41,0.22 0.07,0.03 6.89,3.05 13.27,10.96 3.39,4.2 8.69,7.65 13.82,10.98 5.82,3.78 11.85,7.69 13.99,12.13 0.43,0.89 0.86,1.74 1.27,2.57 2.23,4.43 3.84,7.64 3.04,11.53 -0.28,1.36 -0.72,2.78 -1.32,4.22 -3,7.27 -6.32,12.6 -10.14,16.3 l -0.66,0.64 c -3.65,3.54 -7.43,7.2 -11.64,9.44 -0.91,0.48 -1.71,1.01 -2.48,1.51 -1.17,0.77 -2.18,1.43 -3.33,1.8 -1.43,0.46 -2.95,0.69 -4.51,0.69 -0.48,0 -0.96,-0.02 -1.44,-0.07 l -1.04,-0.09 c -3.38,-0.3 -7.22,-0.64 -9.66,-2.11 -2.25,-1.36 -4.09,-3.48 -6.03,-5.73 C 55.65,102.04 53.89,100 51.68,98.29 50.07,97.04 48.4,95.93 46.79,94.86 43.85,92.91 41.07,91.07 38.92,88.55 32.44,81 23.57,70.64 23.17,60.55 c -0.2,-4.91 2.06,-8.96 4.68,-13.66 0.45,-0.81 0.91,-1.64 1.36,-2.47 3.08,-5.71 8.26,-9.87 13.75,-13.97 3.48,-2.6 7.27,-3.92 11.27,-3.92 m 0,-3 c -3.91,0 -8.47,1.07 -13.06,4.5 -5.6,4.18 -11.23,8.69 -14.6,14.95 -3.16,5.87 -6.67,10.99 -6.4,17.68 0.45,11.14 9.63,21.86 16.48,29.87 3.66,4.28 8.73,6.68 13.19,10.13 4.43,3.44 7.21,8.78 12,11.67 3.32,2 8.09,2.26 11.97,2.62 0.57,0.05 1.14,0.08 1.72,0.08 1.84,0 3.68,-0.27 5.43,-0.84 2.41,-0.78 4.14,-2.36 6.3,-3.52 4.86,-2.59 9.04,-6.77 12.98,-10.57 4.86,-4.7 8.27,-11.12 10.83,-17.31 0.66,-1.6 1.16,-3.19 1.49,-4.76 1.19,-5.77 -1.7,-10.1 -4.55,-16.01 C 103.5,52.67 86.78,46.95 79.83,38.33 72.92,29.75 65.42,26.5 65.42,26.5 c 0,0 -4.69,-2.97 -11.19,-2.97 z" />
      </g>
      <path
         style="fill:#ffaba6"
         inkscape:connector-curvature="0"
         id="path26"
         d="m 109.42,77.38 c -0.25,5.61 -4.41,11.22 -10.75,18.51 -6.33,7.29 -12.55,12.47 -20.25,15.36 -6.41,2.4 -15.24,-2.29 -17.37,-7.31 -1.2,-2.82 -1.99,-5.84 -0.13,-11.69 1.45,-4.56 1.91,-10.67 7.63,-16.88 4.37,-4.75 11.07,-7.93 17.99,-11.16 8.8,-4.12 12.68,-4.65 18.12,0.43 4.98,4.67 5.04,6.38 4.76,12.74 z" />
      <path
         style="fill:url(#f-7)"
         inkscape:connector-curvature="0"
         id="path33"
         d="m 92.45,78.25 c 0.18,2.37 -1.18,5.43 -3.33,6.71 -1.22,0.73 -2.76,0.72 -3.82,-0.01 -1.38,-0.96 -1.83,-2.92 -3.23,-3.85 -1.3,-0.86 -3.12,-0.62 -4.68,0.02 -1.56,0.64 -3,1.65 -4.55,2.34 -2.64,1.17 -5.58,1.37 -8.12,0.54 3.22,-4.55 7.05,-9.25 12.15,-10.87 1.28,-0.4 2.62,-0.61 3.81,-1.28 1.57,-0.89 2.67,-2.48 3.8,-3.93 1.13,-1.46 2.48,-2.93 4.18,-3.37 1.13,-0.29 2.36,0.12 3.02,1 0.73,0.97 0.19,2.57 0.13,3.79 -0.15,3.01 0.27,5.78 0.62,8.68 0.01,0.08 0.02,0.16 0.02,0.23 z" />
      <path
         style="fill:url(#e-3)"
         inkscape:connector-curvature="0"
         id="path40"
         d="m 102.42,75.79 c -0.06,0.82 -0.08,1.71 -0.61,2.39 -0.64,0.82 -1.73,0.98 -2.7,1.16 -0.97,0.17 -2.1,0.58 -2.46,1.54 -0.27,-0.43 -0.1,-1.04 0.17,-1.53 0.27,-0.49 0.63,-0.94 0.78,-1.47 0.47,-1.71 -1.54,-3.08 -1.11,-4.79 0.25,-0.99 1.22,-1.66 2.14,-2.1 0.92,-0.44 1.93,-0.81 2.57,-1.63 0.79,-1.01 1.05,-3.05 2.59,-3.17 1.08,-0.08 1.11,0.48 1,1.4 -0.13,1.06 -0.94,2.23 -1.31,3.24 -0.59,1.61 -0.95,3.3 -1.06,4.96 z" />
      <path
         style="fill:url(#d-6)"
         inkscape:connector-curvature="0"
         id="path47"
         d="m 96.15,71.67 c -1.01,1.7 -0.7,3.72 -0.52,5.58 0.18,1.86 0.04,4.09 -1.46,5.36 -0.87,-0.76 -0.81,-2.2 -0.73,-3.45 0.34,-5.25 -0.14,-10.45 -1.43,-15.35 -0.17,-0.66 4.01,-1.29 4.41,-1.27 1.62,0.06 3.51,0.77 4.4,2.15 2.01,3.11 -3.31,4.7 -4.67,6.98 z" />
      <path
         style="fill:url(#c-0)"
         inkscape:connector-curvature="0"
         id="path54"
         d="m 62.05,101.84 c 1.55,-1.66 4.19,-0.12 6.14,-1.17 1.02,-0.55 1.63,-1.7 1.97,-2.82 0.34,-1.11 0.49,-2.27 0.97,-3.35 1.77,-3.95 7.33,-5.48 8.53,-9.6 0.25,-0.86 0.1,-1.99 -0.72,-2.12 -0.43,-0.07 -0.87,0.18 -1.27,0.41 L 65.04,90.6 c -0.49,0.29 -0.99,0.58 -1.39,1 -0.69,0.72 -1,1.72 -1.23,2.67 -0.46,1.88 -0.72,3.79 -0.79,5.68 -0.02,0.52 -0.01,1.09 0.32,1.46 0.33,0.36 1.08,0.31 1.27,-0.2" />
      <path
         style="fill:url(#b-6)"
         inkscape:connector-curvature="0"
         id="path61"
         d="m 66.43,107.78 c 2.42,0.78 4.88,1.57 7.49,1.57 1.83,0 4.05,-0.68 4.79,-2.5 -0.83,0.36 -1.79,0.27 -2.44,-0.25 -0.65,-0.52 -0.96,-1.43 -0.79,-2.33 0.24,-1.28 1.36,-2.68 0.72,-3.7 -0.29,-0.45 -0.86,-0.63 -1.42,-0.6 -2.19,0.11 -3.85,2.76 -6.04,3.1 -1.51,0.23 -2.82,-0.69 -4.29,-0.86 -0.38,-0.04 -0.88,0.02 -1.06,0.4 -0.14,0.29 -0.01,0.6 0.11,0.86 0.97,2.04 2.01,4.18 3.9,5.33" />
      <path
         style="fill:url(#a-1)"
         inkscape:connector-curvature="0"
         id="path68"
         d="m 77.7,96.5 c 0.03,-0.93 -0.19,-1.85 -0.01,-2.78 0.54,-2.76 4.09,-4 5.36,-6.57 0.14,-0.28 0.24,-0.64 0.05,-0.84 -0.24,-0.25 -0.68,-0.04 -0.99,0.17 -3.42,2.33 -6.99,4.82 -9.04,8.46 -0.74,1.31 -1.25,2.73 -2.02,4.03 -0.77,1.3 -1.87,2.52 -3.25,2.95 1.97,-0.62 3.78,-2.24 5.89,-2.82 1.82,-0.49 3.91,0.12 4.01,-2.6 z" />
      <path
         style="fill:url(#p)"
         inkscape:connector-curvature="0"
         id="path75"
         d="m 103.91,88.44 c -0.38,0.82 -0.79,1.67 -1.5,2.23 -0.71,0.56 -1.77,0.72 -2.3,0.12 -0.34,-0.38 -0.39,-0.96 -0.57,-1.45 -0.48,-1.24 -1.81,-1.83 -3.08,-2.15 -1.28,-0.32 -2.66,-0.5 -3.66,-1.31 -1.01,-0.81 -1.44,-2.55 -0.46,-3.63 -0.11,0.88 0.78,1.5 1.64,1.42 0.85,-0.09 1.63,-0.66 2.33,-1.24 0.7,-0.58 1.41,-1.22 2.25,-1.47 0.97,-0.29 1.99,-0.02 2.94,-0.4 1.3,-0.51 2.03,-2.05 2.18,-3.44 0.15,-1.39 -0.11,-2.74 0,-4.13 0.11,-1.39 0.72,-2.94 1.97,-3.59 -0.68,0.35 -0.06,3.88 0.07,4.41 0.36,1.42 1.8,2.56 2.08,3.83 0.27,1.22 -1,3.62 -1.45,4.86 -0.73,2.01 -1.54,3.99 -2.44,5.94 z" />
      <path
         style="fill:url(#o)"
         inkscape:connector-curvature="0"
         id="path82"
         d="m 106.47,69.69 c -0.34,0.64 -0.15,1.38 0.06,2.02 0.36,1.12 0.66,2.3 1.11,3.37 0.47,-0.77 0.17,-1.86 -0.01,-2.65 -0.09,-0.35 -1.22,-2.63 -1.16,-2.74 z" />
      <path
         style="fill:url(#n)"
         inkscape:connector-curvature="0"
         id="path89"
         d="m 84.81,102.73 c -0.6,0.2 -1.23,0.28 -1.82,0.52 -1.01,0.41 -1.83,1.24 -2.79,1.78 -0.96,0.54 -2.27,0.71 -2.85,-0.12 -0.36,-0.51 -0.32,-1.23 -0.27,-1.9 0.17,-2.12 0.36,-4.34 1.49,-6.24 1,-0.27 1.47,1.3 2.47,1.33 0.61,0.01 1.13,-0.55 1.6,-1.01 1.23,-1.21 3.02,-2.08 4.48,-1.54 1.12,0.41 1.82,1.66 1.64,2.94 -0.2,1.55 -2.51,3.76 -3.95,4.24 z" />
      <path
         style="fill:url(#m)"
         inkscape:connector-curvature="0"
         id="path96-0"
         d="m 81.86,69.55 c -0.45,0.48 -0.91,0.98 -1.48,1.28 -0.57,0.3 -1.29,0.35 -1.73,-0.04 -0.37,-0.33 4.53,-4.67 5.73,-4.05 -0.68,1 -1.68,1.9 -2.52,2.81 z" />
      <path
         style="fill:url(#l)"
         inkscape:connector-curvature="0"
         id="path103"
         d="m 92.09,102.88 c -0.41,0.3 -0.94,0.61 -1.35,0.4 -0.25,-0.13 -0.36,-0.41 -0.51,-0.65 -0.43,-0.68 -1.26,-1.04 -2.1,-0.92 0.06,-0.69 0.63,-1.28 1.23,-1.67 0.6,-0.38 1.27,-0.64 1.82,-1.09 1.1,-0.9 1.54,-2.37 2.09,-3.68 0.55,-1.31 1.51,-2.72 2.85,-2.89 0.61,-0.07 1.14,0.19 1.73,0.19 0.86,0 1.12,-0.36 1.87,-0.59 1.85,-0.56 1.39,0.9 0.51,2.29 -2.1,3.34 -5,6.3 -8.14,8.61 z" />
      <path
         style="fill:url(#k)"
         inkscape:connector-curvature="0"
         id="path110"
         d="m 92.26,94.9 c -0.14,0.59 -0.17,1.22 -0.45,1.76 -0.28,0.54 -0.96,0.97 -1.47,0.7 -0.52,-0.28 -0.51,-1.03 -0.61,-1.62 -0.33,-1.91 -2.81,-2.93 -4.49,-1.84 -1.17,0.76 -1.93,2.3 -3.27,2.55 -1.29,0.24 -2.42,-1 -2.48,-2.32 -0.06,-1.32 0.66,-2.6 1.52,-3.65 0.86,-1.05 1.89,-1.96 2.66,-3.08 0.29,-0.42 0.55,-0.88 0.95,-1.18 0.4,-0.31 1.01,-0.4 1.34,-0.06 0.43,0.44 0.16,1.29 0.54,1.78 0.43,0.54 1.38,0.21 1.84,-0.36 0.46,-0.57 0.66,-1.32 1.11,-1.91 0.45,-0.59 1.36,-0.97 1.84,-0.47 0.31,0.32 0.29,0.83 0.42,1.26 0.29,0.97 1.32,1.49 2.31,1.66 0.99,0.17 2.04,0.09 3,0.36 0.67,0.19 2.36,1.25 2.01,2.24 -0.36,1.01 -1.82,0.47 -2.55,0.54 -1.91,0.17 -3.76,1.69 -4.22,3.64 z" />
      <path
         style="fill:url(#j)"
         inkscape:connector-curvature="0"
         id="path117"
         d="m 64.22,89.17 c -0.23,0.12 -0.61,0.16 -0.6,-0.09 0.06,-1.09 0.85,-2.11 1.8,-2.69 0.95,-0.58 2.04,-0.78 3.1,-0.85 0.9,-0.07 2.03,-0.18 2.81,-0.09 -2.36,1.28 -4.75,2.48 -7.11,3.72 z" />
      <path
         style="fill:url(#i)"
         inkscape:connector-curvature="0"
         id="path124"
         d="m 109.97,91.75 c -2.81,0.16 -7.33,1.78 -9.02,0.11 l -6.18,-5.75 c -2.42,-2.35 -6.18,-5.35 -10.98,-0.41 -4.9,5.04 -3.02,9.42 -0.6,11.77 l 6.08,5.69 c 1.99,1.97 1.27,5.97 1.28,7.78 0,0.19 0,0.38 -0.02,0.57 -0.02,0.19 -0.02,0.38 -0.02,0.57 0.02,3.59 1.65,6.93 4.49,9.15 3.91,3.09 10.24,4.06 13.83,0.48 3.2,-3.18 2.03,-5.26 2.84,-7.77 0.14,-0.47 0.47,-0.78 0.94,-0.95 2.5,-0.84 3.87,1.27 7.83,-3.03 3.34,-3.62 2.39,-10.05 -0.7,-13.85 -2.4,-2.99 -5.97,-4.57 -9.77,-4.36 z" />
      <g
         style="opacity:0.2"
         id="g128">
        <path
           style="fill:#424242"
           inkscape:connector-curvature="0"
           id="path126"
           d="m 88.99,86.04 c 1.25,0 2.63,1.19 3.7,2.23 l 0.05,0.05 6.15,5.73 c 1.08,1.04 2.61,1.57 4.54,1.57 1.41,0 2.86,-0.26 4.27,-0.51 0.93,-0.16 1.8,-0.32 2.45,-0.36 0.17,-0.01 0.34,-0.01 0.51,-0.01 2.67,0 5.07,1.16 6.77,3.26 2.21,2.71 3.02,7.53 0.82,9.92 -1.73,1.87 -2.4,1.87 -2.85,1.87 -0.17,0 -0.34,-0.01 -0.51,-0.01 -0.25,-0.01 -0.5,-0.02 -0.75,-0.02 -0.57,0 -1.45,0.04 -2.47,0.38 -0.02,0.01 -0.03,0.01 -0.05,0.02 -1.39,0.5 -2.38,1.52 -2.8,2.88 -0.35,1.1 -0.43,2.11 -0.5,2.92 -0.12,1.42 -0.18,2.21 -1.59,3.61 -1.17,1.17 -2.75,1.42 -3.87,1.42 -2.06,0 -4.3,-0.79 -5.99,-2.14 -2.11,-1.65 -3.32,-4.13 -3.34,-6.81 v -0.2 c 0.04,-0.38 0.04,-0.7 0.04,-0.94 0,-0.25 0.02,-0.64 0.05,-1.05 0.14,-2.36 0.37,-6.3 -2.21,-8.85 l -0.06,-0.06 -6.05,-5.66 c -2.25,-2.2 -2.02,-4.73 0.68,-7.51 1.1,-1.14 2.12,-1.73 3.01,-1.73 m 0,-3 c -1.56,0 -3.29,0.71 -5.19,2.66 -4.9,5.04 -3.02,9.42 -0.6,11.77 l 6.08,5.69 c 1.99,1.97 1.27,5.97 1.28,7.78 0,0.19 0,0.38 -0.02,0.57 -0.02,0.19 -0.02,0.38 -0.02,0.57 0.02,3.59 1.65,6.93 4.49,9.15 2.17,1.71 5.07,2.77 7.84,2.77 2.24,0 4.39,-0.69 5.99,-2.29 3.2,-3.18 2.03,-5.26 2.84,-7.77 0.14,-0.47 0.47,-0.78 0.94,-0.95 0.54,-0.18 1.03,-0.23 1.51,-0.23 0.43,0 0.84,0.03 1.27,0.03 1.29,0 2.73,-0.31 5.06,-2.84 3.34,-3.62 2.39,-10.05 -0.7,-13.85 -2.26,-2.81 -5.56,-4.37 -9.1,-4.37 -0.22,0 -0.45,0.01 -0.67,0.02 -1.87,0.11 -4.5,0.86 -6.55,0.86 -1.03,0 -1.91,-0.19 -2.47,-0.75 l -6.18,-5.75 c -1.48,-1.41 -3.43,-3.07 -5.8,-3.07 z" />
      </g>
    </g>
  </g>
  <g
     inkscape:label="Layer 1"
     inkscape:groupmode="layer"
     id="layer1"
     transform="translate(-0.54368288,98.464137)"
     style="display:inline">
    <g
       id="g4232"
       transform="translate(1.803815,0.07137746)">
      <path
         sodipodi:nodetypes="cccccc"
         inkscape:connector-curvature="0"
         id="path9214"
         d="m 80.736628,33.734694 c -16.264194,4.716165 -25.2732,6.644491 -38.71191,16.838065 -9.545536,7.047537 -19.184571,19.118608 -19.184571,19.118608 0,0 15.137621,-7.743999 27.697432,-10.512703 12.559612,-2.768505 18.36237,-3.078464 22.292744,-2.753156 0.7852,-7.363676 5.89586,-16.228512 7.906305,-22.690814 z"
         style="fill:#bee2e9;fill-opacity:1;stroke:none"
         inkscape:export-filename="/home/bigeagle/workspace/tuna/mirror-web/static/img/logo-small.png"
         inkscape:export-xdpi="19.55286"
         inkscape:export-ydpi="19.55286" />
      <path
         d="m 70.762511,63.054071 c 0,59.745979 46.567009,108.607079 105.385769,112.288419 v 0 C 100.59061,168.47556 99.412461,115.08241 120.29377,92.553731 v 0 C 166.21102,43.010221 261.66056,50.660551 261.66056,-17.66808 v 0 c -20.26214,-19.67766 -47.90328,-31.79883 -78.37911,-31.79883 v 0 c -62.14309,0 -112.518939,50.37688085 -112.518939,112.520981"
         style="fill:url(#radialGradient6635);fill-opacity:1;stroke:none"
         id="path5880"
         inkscape:connector-curvature="0" />
      <path
         sodipodi:nodetypes="csscsc"
         inkscape:connector-curvature="0"
         id="path9200"
         d="m 154.70725,-16.358889 c 0,0 -11.27147,13.1624836 -19.80068,24.435 -6.17322,8.15876 -17.08969,14.32599 -31.12839,19.491446 -12.552043,4.618294 -29.663535,8.123924 -29.663535,8.123924 0,0 2.571184,-11.420189 5.679555,-13.289114 8.201924,-4.931043 74.91305,-38.761256 74.91305,-38.761256 z"
         style="fill:#4f9cc5;fill-opacity:1;stroke:none"
         inkscape:export-filename="/home/bigeagle/workspace/tuna/mirror-web/static/img/logo-small.png"
         inkscape:export-xdpi="19.55286"
         inkscape:export-ydpi="19.55286" />
      <path
         sodipodi:nodetypes="cscscsc"
         inkscape:connector-curvature="0"
         id="path9226"
         d="m 150.12906,67.329374 c -9.94679,9.966537 -11.22814,12.817564 -14.26708,22.188301 -4.16055,12.830515 -2.30905,31.857435 -2.30905,31.857435 0,0 -4.3937,-4.23538 -7.83489,-16.84465 -2.64425,-9.688266 -2.28602,-17.707616 -2.28602,-17.707616 0,0 2.60309,-5.998724 10.59613,-11.871805 7.99284,-5.87328 16.10091,-7.621665 16.10091,-7.621665 z"
         style="fill:#bee2e9;fill-opacity:1;stroke:none"
         inkscape:export-filename="/home/bigeagle/workspace/tuna/mirror-web/static/img/logo-small.png"
         inkscape:export-xdpi="19.55286"
         inkscape:export-ydpi="19.55286" />
      <path
         sodipodi:nodetypes="cscscsc"
         inkscape:connector-curvature="0"
         id="path9240"
         d="m 221.05835,42.729583 c -0.0895,10.14434 0.53594,14.597388 -0.3555,26.848654 -0.83672,11.498592 -5.15084,20.492395 -5.15084,20.492395 0,0 0.17705,-9.254727 -1.24335,-16.729629 -1.421,-7.474903 -10.03551,-21.956878 -10.03551,-21.956878 0,0 1.99254,-0.244579 7.72109,-3.028432 6.55593,-3.186302 9.06411,-5.62611 9.06411,-5.62611 z"
         style="fill:#815cb7;fill-opacity:1;stroke:none"
         inkscape:export-filename="/home/bigeagle/workspace/tuna/mirror-web/static/img/logo-small.png"
         inkscape:export-xdpi="19.55286"
         inkscape:export-ydpi="19.55286" />
      <ellipse
         ry="6.5943527"
         rx="6.8987079"
         cy="-19.521446"
         cx="222.07385"
         inkscape:export-ydpi="19.55286"
         inkscape:export-xdpi="19.55286"
         inkscape:export-filename="/home/bigeagle/workspace/tuna/mirror-web/static/img/logo-small.png"
         id="path5116"
         style="fill:#ffffff;fill-opacity:1;stroke:none" />
      <path
         d="M 4.8730969,63.593279 C 29.674432,13.849842 52.229632,-13.653589 154.70728,-16.370985 c 0,0 -21.46784,23.7139701 -30.16167,29.768947 C 97.063604,32.539076 44.854719,25.659904 4.8730969,63.593279"
         style="fill:#815cb7;fill-opacity:1;fill-rule:nonzero;stroke:none"
         id="path150-3"
         inkscape:connector-curvature="0" />
    </g>
  </g>
  <g
     inkscape:groupmode="layer"
     id="layer3"
     inkscape:label="Rice"
     style="display:none">
    <g
       style="display:inline"
       id="图层_1"
       transform="matrix(1.1836983,0,0,1.1836983,203.60117,128.23753)">
      <g
         id="g141">
        <g
           id="g121">
          <path
             id="path111"
             style="fill:#e0e0e0"
             d="m 40.28,112.82 c 0,-11.08 10.59,-20.06 23.65,-20.06 13.06,0 23.65,8.98 23.65,20.06 0,5.54 -11.83,9.51 -23.65,9.51 -11.83,0 -23.65,-3.97 -23.65,-9.51 z"
             inkscape:connector-curvature="0" />
          <path
             id="path113"
             style="fill:#bdbdbd"
             d="m 87.58,112.82 c 0,-11.08 -10.59,-20.06 -23.65,-20.06 -0.04,0 -0.07,0 -0.11,0 5,8.79 7.39,19.06 6.75,29.15 9.24,-1.14 17.01,-4.6 17.01,-9.09 z"
             inkscape:connector-curvature="0" />
          <path
             id="path115"
             style="fill:#e0e0e0"
             d="m 117.54,63 c 0,25.11 -24,45.46 -53.61,45.46 -29.61,0 -53.61,-20.35 -53.61,-45.46 0,-25.11 107.22,-25.11 107.22,0 z"
             inkscape:connector-curvature="0" />
          <ellipse
             id="ellipse117"
             style="fill:#757576"
             ry="23.73"
             rx="53.610001"
             cy="62.889999"
             cx="63.93" />
          <path
             id="path119"
             style="fill:#bdbdbd"
             d="M 117.54,62.95 C 117.49,72.26 105.32,80.3 87.65,84.17 82.78,88.79 75.51,94.8 67.7,98.25 c -8.49,3.75 -22.37,7.46 -19.64,8.18 5.02,1.32 10.35,2.03 15.88,2.03 29.61,0 53.61,-20.35 53.61,-45.46 -0.01,-0.01 -0.01,-0.03 -0.01,-0.05 z"
             inkscape:connector-curvature="0" />
        </g>
        <g
           id="g139">
          <path
             id="path123"
             style="fill:#edece4"
             d="M 63.19,6.24 H 63.12 C 60.48,6.25 56.55,6.58 53.05,9.29 52.64,9.61 51.3,9.7 50.14,9.78 c -1.94,0.13 -4.36,0.29 -6.84,1.4 -3.01,1.35 -4.54,3.67 -5.56,5.21 -0.3,0.46 -0.72,1.08 -0.91,1.25 0,0 -0.51,0.17 -0.86,0.29 -0.68,0.24 -1.37,0.49 -2.02,0.8 -0.16,0.08 -0.29,0.13 -0.42,0.18 -0.55,0.22 -1.3,0.52 -2.11,1.03 -2.31,1.44 -4.19,4.03 -5.08,6.91 -0.13,0.43 -0.23,0.85 -0.34,1.27 -2.11,0.97 -3.93,2.47 -5.23,4.35 -1.6,2.29 -2.42,4.76 -2.47,7.35 l -0.01,0.52 c 0,0.33 -0.01,0.76 -0.04,1.05 -0.03,0.04 -0.08,0.09 -0.12,0.13 -0.5,0.54 -1.18,1.27 -1.78,2.29 -1.2,2.07 -1.8,4.48 -1.81,7.19 -0.75,1.16 -1.65,2.7 -2.01,4.84 -0.55,3.19 0.6,5.89 1.51,7.64 1.84,3.48 4.87,6.59 8.33,8.57 12.59,7.21 27.02,11.01 41.75,11.01 3.38,0 6.83,-0.2 10.23,-0.59 3.56,-0.42 6.82,-0.92 9.96,-1.53 6.75,-1.33 15.37,-3.49 22.27,-8.52 3.78,-2.77 6.4,-6.06 7.78,-9.77 1.08,-2.88 1.4,-5.56 0.98,-7.99 -0.06,-0.39 -0.06,-0.76 -0.08,-1.14 -0.07,-1.67 -0.17,-4.19 -1.89,-6.7 -0.34,-0.52 -0.81,-1.2 -1.42,-1.9 0,-0.5 -0.02,-1.06 -0.11,-1.65 -0.32,-2.01 -0.98,-3.31 -1.88,-4.64 -0.7,-1.06 -1.45,-1.93 -2.4,-2.77 -0.02,-0.16 -0.03,-0.32 -0.04,-0.46 -0.05,-0.58 -0.11,-1.14 -0.19,-1.66 -0.61,-3.51 -2.03,-6.35 -4.23,-8.46 -1.37,-1.34 -2.89,-1.93 -3.89,-2.33 C 99.13,22.92 99.05,22.89 98.97,22.86 98.58,22.39 98.21,21.81 97.8,21.16 96.5,19.11 94.72,16.31 90.74,14.6 89.31,13.98 87.96,13.81 86.98,13.68 86.81,13.66 86.65,13.64 86.47,13.62 86.4,13.53 86.32,13.43 86.24,13.34 82.02,8.14 76.55,8 72.91,7.9 71.19,7.85 69.71,7.82 68.57,7.37 66.57,6.59 64.88,6.24 63.19,6.24 Z"
             inkscape:connector-curvature="0" />
          <g
             id="g137">
            <path
               id="path125"
               style="fill:#d3d1c5"
               d="m 81.73,25.82 c -0.13,0.08 -0.27,0.19 -0.42,0.34 -0.86,0.87 -0.98,2.43 -1.77,3.4 -0.87,1.05 -2.76,1.24 -3.05,2.72 -0.26,1.32 1.47,2.54 2.65,2.67 1.4,0.16 3.25,-0.89 4.26,-1.77 1.23,-1.09 2.11,-2.99 1.55,-4.59 -0.43,-1.24 -1.72,-3.65 -3.22,-2.77 z"
               inkscape:connector-curvature="0" />
            <path
               id="path127"
               style="fill:#d3d1c5"
               d="m 79.44,44.29 c -0.53,1.06 -0.66,2.65 -1.54,3.21 -0.79,0.52 -1.59,0.87 -2.18,1.64 -0.41,0.54 -0.48,0.78 -0.48,1.45 -0.01,0.9 0.2,0.93 0.85,1.5 1.43,1.22 3.58,0.9 5.07,-0.04 2.33,-1.45 4.01,-8.45 -0.12,-8.78 -0.82,-0.05 -1.28,0.4 -1.6,1.02 z"
               inkscape:connector-curvature="0" />
            <path
               id="path129"
               style="fill:#d3d1c5"
               d="m 62,60.54 c -0.53,1.06 -0.66,2.65 -1.54,3.21 -0.78,0.51 -1.59,0.86 -2.18,1.64 -0.41,0.54 -0.49,0.79 -0.49,1.45 0,0.9 0.2,0.93 0.86,1.5 1.42,1.22 3.58,0.9 5.06,-0.03 2.33,-1.46 4,-8.46 -0.11,-8.78 -0.84,-0.06 -1.28,0.39 -1.6,1.01 z"
               inkscape:connector-curvature="0" />
            <path
               id="path131"
               style="fill:#d3d1c5"
               d="m 97.36,46.86 c 0.54,-0.81 0.85,-1.77 0.87,-2.71 0.02,-1.27 0.18,-3.51 -0.88,-4.48 -0.68,-0.62 -2.28,-0.37 -2.73,0.44 -0.27,0.48 -0.21,1.34 -0.41,1.89 -0.55,1.42 -3.62,3.33 -2.92,4.98 0.38,0.91 1.74,1.58 2.64,1.68 1.41,0.18 2.65,-0.63 3.43,-1.8 z"
               inkscape:connector-curvature="0" />
            <path
               id="path133"
               style="fill:#d3d1c5"
               d="m 96.63,62.98 c 0.54,-0.81 0.86,-1.77 0.87,-2.71 0.02,-1.27 0.19,-3.51 -0.87,-4.48 -0.68,-0.62 -2.28,-0.37 -2.74,0.44 -0.27,0.48 -0.2,1.34 -0.42,1.89 -0.54,1.42 -3.61,3.33 -2.91,4.99 0.39,0.9 1.74,1.57 2.64,1.68 1.42,0.17 2.65,-0.65 3.43,-1.81 z"
               inkscape:connector-curvature="0" />
            <path
               id="path135"
               style="fill:#d3d1c5"
               d="m 81.05,71.94 c 0.14,-0.22 0.25,-0.46 0.34,-0.7 0.66,-1.85 0.47,-5.4 -1.85,-6.06 -1.31,-0.37 -2.43,1.12 -2.8,2.17 -0.3,0.84 -0.47,1.15 -1.02,1.93 -0.63,0.89 -1.13,1.67 -2.04,2.28 -0.5,0.34 -1.87,0.95 -1.63,1.75 0.13,0.44 1.49,0.95 1.89,1.08 2.36,0.77 5.79,-0.2 7.11,-2.45 z"
               inkscape:connector-curvature="0" />
          </g>
        </g>
      </g>
    </g>
  </g>
</svg>
