<svg xmlns="http://www.w3.org/2000/svg" xmlns:xlink="http://www.w3.org/1999/xlink" viewBox="0 0 598.28 832.2545"><defs><style>.cls-1,.cls-2{fill:#fff;}.cls-1{stroke:#000;}.cls-1,.cls-13{stroke-miterlimit:10;}.cls-3{fill:#aed7df;}.cls-4{fill:url(#未命名的渐变_4);}.cls-5{fill:#5296b8;}.cls-6{fill:#7661aa;}.cls-7{fill:#3b516a;}.cls-8{fill:url(#未命名的渐变_4-2);}.cls-9{fill:url(#未命名的渐变_4-3);}.cls-10{fill:url(#未命名的渐变_4-4);}.cls-11{fill:url(#未命名的渐变_4-5);}.cls-12{fill:url(#未命名的渐变_4-6);}.cls-13{fill:none;stroke:#231f20;}.cls-14{fill:url(#未命名的渐变_4-7);}.cls-15{fill:url(#未命名的渐变_4-8);}.cls-16{fill:url(#未命名的渐变_4-9);}.cls-17{fill:url(#未命名的渐变_4-10);}.cls-18{fill:url(#未命名的渐变_4-11);}.cls-19{fill:url(#未命名的渐变_4-12);}</style><radialGradient id="未命名的渐变_4" cx="288.32758" cy="870.37276" r="48.20222" gradientTransform="matrix(0.3943, 1.31129, 1.31712, -0.39604, -926.80728, 230.90419)" gradientUnits="userSpaceOnUse"><stop offset="0" stop-color="#4fc6dd"/><stop offset="1" stop-color="#36abe1"/></radialGradient><radialGradient id="未命名的渐变_4-2" cx="248.89119" cy="739.02367" r="48.20222" xlink:href="#未命名的渐变_4"/><radialGradient id="未命名的渐变_4-3" cx="143.09838" cy="895.51217" r="48.20222" xlink:href="#未命名的渐变_4"/><radialGradient id="未命名的渐变_4-4" cx="103.79278" cy="763.84859" r="48.20222" xlink:href="#未命名的渐变_4"/><radialGradient id="未命名的渐变_4-5" cx="182.79521" cy="1025.42658" r="48.20222" xlink:href="#未命名的渐变_4"/><radialGradient id="未命名的渐变_4-6" cx="328.17229" cy="1001.52433" r="48.20222" xlink:href="#未命名的渐变_4"/><radialGradient id="未命名的渐变_4-7" cx="583.04208" cy="782.14484" r="48.20222" xlink:href="#未命名的渐变_4"/><radialGradient id="未命名的渐变_4-8" cx="543.60569" cy="650.79575" r="48.20222" xlink:href="#未命名的渐变_4"/><radialGradient id="未命名的渐变_4-9" cx="437.81289" cy="807.28425" r="48.20222" xlink:href="#未命名的渐变_4"/><radialGradient id="未命名的渐变_4-10" cx="398.50728" cy="675.62067" r="48.20222" xlink:href="#未命名的渐变_4"/><radialGradient id="未命名的渐变_4-11" cx="477.50971" cy="937.19867" r="48.20222" xlink:href="#未命名的渐变_4"/><radialGradient id="未命名的渐变_4-12" cx="622.88679" cy="913.29641" r="48.20222" xlink:href="#未命名的渐变_4"/></defs><g id="图层_1" data-name="图层 1"><polygon id="polygon5-1" class="cls-1" points="312.419 409.971 221.919 357.671 221.919 253.171 312.419 200.971 402.919 253.171 402.919 357.671 312.419 409.971"/><polygon id="polygon5" class="cls-2" points="232.83 260.076 312.419 214.17 392.008 260.076 392.008 351.977 312.419 397.971 232.83 351.977 232.83 260.076"/><path id="path9214" class="cls-3" d="M265.618,292.25814c-8.2135,2.38168-12.76309,3.3555-19.54971,8.5033a63.45415,63.45415,0,0,0-9.6883,9.655s7.64458-3.91076,13.98734-5.309c6.34267-1.3981,9.27309-1.55463,11.258-1.39035C262.02179,299.99842,264.60269,295.52163,265.618,292.25814Z" transform="translate(3 -5.26951)"/><path id="path5880" class="cls-4" d="M260.581,307.06456a56.823,56.823,0,0,0,53.22033,56.7062h0c-38.157-3.46784-38.752-30.43163-28.2068-41.80872h0c23.18843-25.01972,71.39091-21.15627,71.39091-55.66255h0a56.63273,56.63273,0,0,0-39.58184-16.05857h0A56.82278,56.82278,0,0,0,260.581,307.06456" transform="translate(3 -5.26951)"/><path id="path9200" class="cls-5" d="M302.9735,266.96063s-5.69215,6.64712-9.99944,12.3398c-3.1175,4.12021-8.63037,7.23469-15.72,9.84327a125.19835,125.19835,0,0,1-14.98023,4.10262s1.29846-5.76725,2.8682-6.71106C269.28406,284.04506,302.9735,266.96063,302.9735,266.96063Z" transform="translate(3 -5.26951)"/><path id="path150-3" class="cls-6" d="M230.99105,308.84654c12.5248-25.12068,20.23076-40.51972,71.98246-41.892,0,0-10.84136,11.97566-15.23178,15.03346-13.87855,9.66635-36.55976,7.702-56.75068,26.85855" transform="translate(3 -5.26951)"/><path id="path9226" class="cls-3" d="M300.66149,309.22361c-5.02318,5.03315-5.67026,6.47294-7.20494,11.2052-2.1011,6.47947-1.16608,16.08816-1.16608,16.08816s-2.21885-2.13889-3.95666-8.50663a32.23539,32.23539,0,0,1-1.15445-8.94243,16.71936,16.71936,0,0,1,5.3511-5.99532A23.77855,23.77855,0,0,1,300.66149,309.22361Z" transform="translate(3 -5.26951)"/><path id="path9240" class="cls-6" d="M336.48113,296.8006c-.0452,5.12294.27065,7.37175-.17953,13.5587a31.868,31.868,0,0,1-2.6012,10.34876,48.75655,48.75655,0,0,0-.62789-8.44855c-.71762-3.77486-5.068-11.08833-5.068-11.08833a15.62074,15.62074,0,0,0,3.89918-1.52937A19.023,19.023,0,0,0,336.48113,296.8006Z" transform="translate(3 -5.26951)"/><ellipse id="path5116" class="cls-2" cx="339.99396" cy="260.09402" rx="3.48388" ry="3.33018"/><path id="path24-1" class="cls-7" d="M309.41767,353.80894c0,6.90785,1.83952,9.30113,5.0704,9.30113a13.93705,13.93705,0,0,0,4.23279-.55479v.26838a13.67738,13.67738,0,0,1-4.76029.86593c-2.9563,0-9.73538,0-9.73538-10.16912V331.37h-7.3045v-4.75976h7.3045V316.44164h5.19248v10.16861h9.30319V331.37h-9.30319Z" transform="translate(3 -5.26951)"/><path id="path28-5" class="cls-7" d="M340.75743,327.12542v21.87229c0,10.02436-2.19857,14.69142-9.92135,14.69142-7.47346,0-9.92186-4.66706-9.92186-14.69142V327.12542h5.193v21.1305c0,7.28389.34617,12.66182,4.72887,12.66182,4.5357,0,4.72886-5.37793,4.72886-12.66182v-21.1305Z" transform="translate(3 -5.26951)"/><path id="path32-6" class="cls-7" d="M363.85509,340.70386v22.408h-5.192V336.2536c0-5.49749-1.8112-6.4832-4.44994-6.47528s-4.35925,1.1354-4.35925,6.42514v26.90841h-5.19247V333.60274c0-4.61091,2.96517-7.05224,9.48327-7.12616,6.39059-.07248,9.71034,2.48251,9.71034,6.9579" transform="translate(3 -5.26951)"/><path id="path36-9" class="cls-7" d="M380.98863,343.31071c0-.48437-.10326-.43271-2.29746-.43271-4.32707,0-7.38692,2.56585-7.38692,9.20016,0,6.92176-.1633,7.80933,5.244,7.80933,4.25186,0,4.44039-3.14125,4.44039-7.59348Zm4.67735-1.83437V352.294c0,9.6679-3.235,11.39564-9.11775,11.39564-9.59269,0-9.92134.59033-9.92134-11.61148,0-11.89943,9.3238-11.8268,12.64121-11.8268,3.2453,0,1.6484.36008,1.6484.36008,0-6.77907.613-11.19885-5.37793-11.19885a15.15432,15.15432,0,0,0-7.43843,1.92657v-2.4721a13.1543,13.1543,0,0,1,7.7269-2.39069c10.09649,0,9.83892,7.253,9.83892,15" transform="translate(3 -5.26951)"/><polygon id="polygon5-1-2" data-name="polygon5-1" class="cls-1" points="123.866 410.278 33.366 357.978 33.366 253.478 123.866 201.278 214.366 253.478 214.366 357.978 123.866 410.278"/><polygon id="polygon5-2" data-name="polygon5" class="cls-2" points="44.278 260.383 123.866 214.477 203.455 260.383 203.455 352.284 123.866 398.278 44.278 352.284 44.278 260.383"/><path id="path9214-2" data-name="path9214" class="cls-3" d="M77.06533,292.565c-8.21349,2.38169-12.76308,3.3555-19.5497,8.50331a63.45415,63.45415,0,0,0-9.6883,9.655s7.64457-3.91076,13.98734-5.309c6.34266-1.39811,9.27308-1.55464,11.25794-1.39036C73.46914,300.30524,76.05005,295.82846,77.06533,292.565Z" transform="translate(3 -5.26951)"/><path id="path5880-2" data-name="path5880" class="cls-8" d="M72.02836,307.37139a56.823,56.823,0,0,0,53.22032,56.7062h0c-38.157-3.46784-38.752-30.43164-28.2068-41.80873h0c23.18843-25.01971,71.39091-21.15626,71.39091-55.66255h0A56.63274,56.63274,0,0,0,128.851,250.54775h0a56.82278,56.82278,0,0,0-56.82261,56.82364" transform="translate(3 -5.26951)"/><path id="path9200-2" data-name="path9200" class="cls-5" d="M114.42086,267.26746s-5.69215,6.64712-9.99944,12.33979c-3.11751,4.12022-8.63038,7.2347-15.72,9.84328a125.19782,125.19782,0,0,1-14.98023,4.10262s1.29846-5.76725,2.86821-6.71107C80.73142,284.35188,114.42086,267.26746,114.42086,267.26746Z" transform="translate(3 -5.26951)"/><path id="path150-3-2" data-name="path150-3" class="cls-6" d="M42.43841,309.15336c12.5248-25.12067,20.23076-40.51971,71.98246-41.892,0,0-10.84136,11.97567-15.23179,15.03346-13.87854,9.66636-36.55976,7.702-56.75067,26.85855" transform="translate(3 -5.26951)"/><path id="path9226-2" data-name="path9226" class="cls-3" d="M112.10885,309.53044c-5.02318,5.03315-5.67026,6.47293-7.20494,11.2052-2.1011,6.47947-1.16608,16.08816-1.16608,16.08816s-2.21885-2.13889-3.95666-8.50663a32.23539,32.23539,0,0,1-1.15445-8.94243,16.71939,16.71939,0,0,1,5.35109-5.99532A23.77864,23.77864,0,0,1,112.10885,309.53044Z" transform="translate(3 -5.26951)"/><path id="path9240-2" data-name="path9240" class="cls-6" d="M147.92849,297.10743c-.0452,5.12294.27064,7.37175-.17953,13.5587a31.86793,31.86793,0,0,1-2.6012,10.34875,48.75586,48.75586,0,0,0-.6279-8.44854c-.71761-3.77486-5.068-11.08833-5.068-11.08833a15.62067,15.62067,0,0,0,3.89919-1.52937A19.02329,19.02329,0,0,0,147.92849,297.10743Z" transform="translate(3 -5.26951)"/><ellipse id="path5116-2" data-name="path5116" class="cls-2" cx="151.44132" cy="260.40085" rx="3.48388" ry="3.33018"/><path id="path24-1-2" data-name="path24-1" class="cls-7" d="M120.865,354.11577c0,6.90784,1.83952,9.30113,5.07039,9.30113a13.93743,13.93743,0,0,0,4.2328-.55479v.26838a13.67761,13.67761,0,0,1-4.76029.86593c-2.95631,0-9.73538,0-9.73538-10.16913V331.67684h-7.3045v-4.75976h7.3045V316.74847H120.865v10.16861h9.30319v4.75976H120.865Z" transform="translate(3 -5.26951)"/><path id="path28-5-2" data-name="path28-5" class="cls-7" d="M152.20478,327.43225v21.87228c0,10.02437-2.19856,14.69143-9.92134,14.69143-7.47346,0-9.92186-4.66706-9.92186-14.69143V327.43225h5.193v21.1305c0,7.28389.34617,12.66181,4.72887,12.66181,4.53569,0,4.72886-5.37792,4.72886-12.66181v-21.1305Z" transform="translate(3 -5.26951)"/><path id="path32-6-2" data-name="path32-6" class="cls-7" d="M175.30245,341.01068v22.408h-5.192V336.56043c0-5.49749-1.81119-6.4832-4.44994-6.47528s-4.35924,1.13539-4.35924,6.42514V363.4187h-5.19247V333.90957c0-4.61092,2.96517-7.05224,9.48327-7.12617,6.39059-.07247,9.71034,2.48251,9.71034,6.95791" transform="translate(3 -5.26951)"/><path id="path36-9-2" data-name="path36-9" class="cls-7" d="M192.436,343.61754c0-.48437-.10325-.43271-2.29746-.43271-4.32706,0-7.38691,2.56585-7.38691,9.20016,0,6.92175-.1633,7.80933,5.244,7.80933,4.25185,0,4.44038-3.14125,4.44038-7.59348Zm4.67735-1.83437v10.81767c0,9.66789-3.235,11.39563-9.11775,11.39563-9.59268,0-9.92134.59034-9.92134-11.61147,0-11.89943,9.32381-11.8268,12.64122-11.8268,3.24529,0,1.6484.36008,1.6484.36008,0-6.77907.613-11.19886-5.37793-11.19886a15.15447,15.15447,0,0,0-7.43844,1.92657V329.1739a13.15429,13.15429,0,0,1,7.72691-2.3907c10.09649,0,9.83892,7.253,9.83892,15" transform="translate(3 -5.26951)"/><polygon id="polygon5-1-3" data-name="polygon5-1" class="cls-1" points="288.266 209.577 197.766 157.277 197.766 52.777 288.266 0.577 378.766 52.777 378.766 157.277 288.266 209.577"/><polygon id="polygon5-3" data-name="polygon5" class="cls-2" points="208.678 59.682 288.266 13.776 367.855 59.682 367.855 151.583 288.266 197.577 208.678 151.583 208.678 59.682"/><path id="path9214-3" data-name="path9214" class="cls-3" d="M241.46529,91.86393c-8.2135,2.38169-12.76309,3.35551-19.54971,8.50331a63.45415,63.45415,0,0,0-9.6883,9.655s7.64458-3.91076,13.98734-5.309c6.34266-1.39811,9.27309-1.55464,11.25794-1.39035C237.86909,99.60422,240.45,95.12743,241.46529,91.86393Z" transform="translate(3 -5.26951)"/><path id="path5880-3" data-name="path5880" class="cls-9" d="M236.42831,106.67036a56.823,56.823,0,0,0,53.22033,56.7062h0c-38.157-3.46784-38.752-30.43163-28.2068-41.80873h0c23.18843-25.01971,71.39091-21.15626,71.39091-55.66255h0a56.63279,56.63279,0,0,0-39.58184-16.05856h0a56.82278,56.82278,0,0,0-56.82261,56.82364" transform="translate(3 -5.26951)"/><path id="path9200-3" data-name="path9200" class="cls-5" d="M278.82081,66.56643s-5.69215,6.64712-9.99944,12.3398c-3.1175,4.12021-8.63038,7.23469-15.72,9.84327a125.19782,125.19782,0,0,1-14.98023,4.10262s1.29846-5.76725,2.86821-6.71107C245.13137,83.65085,278.82081,66.56643,278.82081,66.56643Z" transform="translate(3 -5.26951)"/><path id="path150-3-3" data-name="path150-3" class="cls-6" d="M206.83836,108.45233c12.5248-25.12067,20.23076-40.51971,71.98246-41.892,0,0-10.84136,11.97567-15.23179,15.03347-13.87854,9.66635-36.55976,7.702-56.75067,26.85854" transform="translate(3 -5.26951)"/><path id="path9226-3" data-name="path9226" class="cls-3" d="M276.5088,108.82941c-5.02318,5.03315-5.67026,6.47293-7.20494,11.2052-2.1011,6.47947-1.16608,16.08816-1.16608,16.08816s-2.21885-2.13889-3.95666-8.50663a32.23539,32.23539,0,0,1-1.15445-8.94243,16.71936,16.71936,0,0,1,5.3511-5.99532A23.77855,23.77855,0,0,1,276.5088,108.82941Z" transform="translate(3 -5.26951)"/><path id="path9240-3" data-name="path9240" class="cls-6" d="M312.32844,96.4064c-.0452,5.12294.27065,7.37175-.17953,13.5587a31.868,31.868,0,0,1-2.6012,10.34876,48.75655,48.75655,0,0,0-.62789-8.44855c-.71762-3.77486-5.068-11.08833-5.068-11.08833a15.62074,15.62074,0,0,0,3.89918-1.52937A19.02329,19.02329,0,0,0,312.32844,96.4064Z" transform="translate(3 -5.26951)"/><ellipse id="path5116-3" data-name="path5116" class="cls-2" cx="315.84127" cy="59.69982" rx="3.48388" ry="3.33018"/><path id="path24-1-3" data-name="path24-1" class="cls-7" d="M285.265,153.41474c0,6.90784,1.83952,9.30113,5.07039,9.30113a13.93708,13.93708,0,0,0,4.2328-.55479v.26838a13.67761,13.67761,0,0,1-4.76029.86593c-2.9563,0-9.73538,0-9.73538-10.16913V130.97581H272.768v-4.75976h7.3045V116.04744H285.265v10.16861h9.30319v4.75976H285.265Z" transform="translate(3 -5.26951)"/><path id="path28-5-3" data-name="path28-5" class="cls-7" d="M316.60473,126.73122v21.87229c0,10.02436-2.19856,14.69142-9.92134,14.69142-7.47346,0-9.92186-4.66706-9.92186-14.69142V126.73122h5.193v21.1305c0,7.28389.34617,12.66181,4.72887,12.66181,4.53569,0,4.72886-5.37792,4.72886-12.66181v-21.1305Z" transform="translate(3 -5.26951)"/><path id="path32-6-3" data-name="path32-6" class="cls-7" d="M339.7024,140.30965v22.408h-5.192V135.8594c0-5.49749-1.81119-6.4832-4.44993-6.47528s-4.35925,1.13539-4.35925,6.42514v26.90841h-5.19247V133.20854c0-4.61092,2.96517-7.05224,9.48327-7.12617,6.39059-.07247,9.71034,2.48252,9.71034,6.95791" transform="translate(3 -5.26951)"/><path id="path36-9-3" data-name="path36-9" class="cls-7" d="M356.83593,142.91651c0-.48437-.10325-.43271-2.29745-.43271-4.32707,0-7.38692,2.56585-7.38692,9.20016,0,6.92176-.1633,7.80933,5.244,7.80933,4.25185,0,4.44038-3.14125,4.44038-7.59348Zm4.67736-1.83437v10.81767c0,9.66789-3.235,11.39563-9.11776,11.39563-9.59268,0-9.92133.59034-9.92133-11.61147,0-11.89943,9.3238-11.8268,12.64121-11.8268,3.24529,0,1.6484.36008,1.6484.36008,0-6.77907.613-11.19886-5.37793-11.19886a15.15428,15.15428,0,0,0-7.43843,1.92658v-2.4721a13.15431,13.15431,0,0,1,7.7269-2.3907c10.09649,0,9.83892,7.253,9.83892,15" transform="translate(3 -5.26951)"/><polygon id="polygon5-1-4" data-name="polygon5-1" class="cls-1" points="99.351 210.18 8.851 157.88 8.851 53.38 99.351 1.18 189.851 53.38 189.851 157.88 99.351 210.18"/><polygon id="polygon5-4" data-name="polygon5" class="cls-2" points="19.762 60.285 99.351 14.379 178.94 60.285 178.94 152.186 99.351 198.18 19.762 152.186 19.762 60.285"/><path id="path9214-4" data-name="path9214" class="cls-3" d="M52.55,92.4668c-8.2135,2.38169-12.76309,3.35551-19.54971,8.50331a63.45415,63.45415,0,0,0-9.6883,9.655s7.64458-3.91076,13.98734-5.309c6.34267-1.39811,9.27309-1.55464,11.258-1.39035C48.95381,100.20708,51.53471,95.7303,52.55,92.4668Z" transform="translate(3 -5.26951)"/><path id="path5880-4" data-name="path5880" class="cls-10" d="M47.513,107.27323a56.823,56.823,0,0,0,53.22033,56.7062h0c-38.157-3.46784-38.752-30.43163-28.2068-41.80873h0C95.715,97.151,143.91746,101.01444,143.91746,66.50815h0a56.63277,56.63277,0,0,0-39.58184-16.05856h0A56.82278,56.82278,0,0,0,47.513,107.27323" transform="translate(3 -5.26951)"/><path id="path9200-4" data-name="path9200" class="cls-5" d="M89.90552,67.1693s-5.69215,6.64712-9.99944,12.33979c-3.1175,4.12022-8.63038,7.2347-15.72,9.84328A125.19835,125.19835,0,0,1,49.20587,93.455s1.29846-5.76725,2.8682-6.71107C56.21608,84.25372,89.90552,67.1693,89.90552,67.1693Z" transform="translate(3 -5.26951)"/><path id="path150-3-4" data-name="path150-3" class="cls-6" d="M17.92307,109.0552c12.5248-25.12067,20.23076-40.51971,71.98246-41.892,0,0-10.84136,11.97567-15.23178,15.03347C60.7952,91.863,38.114,89.89866,17.92307,109.0552" transform="translate(3 -5.26951)"/><path id="path9226-4" data-name="path9226" class="cls-3" d="M87.59351,109.43228c-5.02318,5.03315-5.67026,6.47293-7.20494,11.2052-2.1011,6.47947-1.16608,16.08816-1.16608,16.08816s-2.21885-2.13889-3.95666-8.50663a32.23539,32.23539,0,0,1-1.15445-8.94243,16.71936,16.71936,0,0,1,5.3511-5.99532A23.77855,23.77855,0,0,1,87.59351,109.43228Z" transform="translate(3 -5.26951)"/><path id="path9240-4" data-name="path9240" class="cls-6" d="M123.41315,97.00927c-.0452,5.12294.27065,7.37175-.17953,13.5587a31.868,31.868,0,0,1-2.6012,10.34876,48.75655,48.75655,0,0,0-.62789-8.44855c-.71762-3.77486-5.068-11.08833-5.068-11.08833a15.62074,15.62074,0,0,0,3.89918-1.52937A19.023,19.023,0,0,0,123.41315,97.00927Z" transform="translate(3 -5.26951)"/><ellipse id="path5116-4" data-name="path5116" class="cls-2" cx="126.92598" cy="60.30269" rx="3.48388" ry="3.33018"/><path id="path24-1-4" data-name="path24-1" class="cls-7" d="M96.34969,154.01761c0,6.90784,1.83952,9.30113,5.07039,9.30113a13.93739,13.93739,0,0,0,4.2328-.55479v.26838a13.67761,13.67761,0,0,1-4.76029.86593c-2.9563,0-9.73538,0-9.73538-10.16913V131.57868h-7.3045v-4.75976h7.3045V116.65031h5.19248v10.16861h9.30319v4.75976H96.34969Z" transform="translate(3 -5.26951)"/><path id="path28-5-4" data-name="path28-5" class="cls-7" d="M127.68945,127.33409v21.87228c0,10.02437-2.19857,14.69143-9.92135,14.69143-7.47346,0-9.92186-4.66706-9.92186-14.69143V127.33409h5.193v21.1305c0,7.28389.34617,12.66181,4.72887,12.66181,4.5357,0,4.72886-5.37792,4.72886-12.66181v-21.1305Z" transform="translate(3 -5.26951)"/><path id="path32-6-4" data-name="path32-6" class="cls-7" d="M150.78711,140.91252v22.408h-5.192V136.46227c0-5.49749-1.8112-6.4832-4.44994-6.47528s-4.35925,1.13539-4.35925,6.42514v26.90841H131.5935V133.81141c0-4.61092,2.96517-7.05224,9.48327-7.12617,6.39059-.07247,9.71034,2.48252,9.71034,6.95791" transform="translate(3 -5.26951)"/><path id="path36-9-4" data-name="path36-9" class="cls-7" d="M167.92065,143.51938c0-.48437-.10326-.43271-2.29746-.43271-4.32707,0-7.38692,2.56585-7.38692,9.20016,0,6.92176-.1633,7.80933,5.244,7.80933,4.25186,0,4.44039-3.14125,4.44039-7.59348ZM172.598,141.685v10.81767c0,9.66789-3.235,11.39563-9.11775,11.39563-9.59269,0-9.92134.59034-9.92134-11.61147,0-11.89943,9.3238-11.8268,12.64121-11.8268,3.2453,0,1.6484.36008,1.6484.36008,0-6.77907.613-11.19886-5.37793-11.19886a15.15443,15.15443,0,0,0-7.43843,1.92657v-2.47209a13.15424,13.15424,0,0,1,7.7269-2.3907c10.09649,0,9.83892,7.253,9.83892,15" transform="translate(3 -5.26951)"/><polygon id="polygon5-1-5" data-name="polygon5-1" class="cls-1" points="475.032 210.18 384.532 157.88 384.532 53.38 475.032 1.18 565.532 53.38 565.532 157.88 475.032 210.18"/><polygon id="polygon5-5" data-name="polygon5" class="cls-2" points="395.443 60.285 475.032 14.379 554.621 60.285 554.621 152.186 475.032 198.18 395.443 152.186 395.443 60.285"/><path id="path9214-5" data-name="path9214" class="cls-3" d="M428.231,92.4668c-8.2135,2.38169-12.76309,3.35551-19.5497,8.50331a63.45362,63.45362,0,0,0-9.6883,9.655s7.64457-3.91076,13.98733-5.309c6.34267-1.39811,9.27309-1.55464,11.258-1.39035C424.63479,100.20708,427.21569,95.7303,428.231,92.4668Z" transform="translate(3 -5.26951)"/><path id="path5880-5" data-name="path5880" class="cls-11" d="M423.194,107.27323a56.823,56.823,0,0,0,53.22033,56.7062h0c-38.157-3.46784-38.752-30.43163-28.2068-41.80873h0C471.396,97.151,519.59844,101.01444,519.59844,66.50815h0A56.63277,56.63277,0,0,0,480.0166,50.44959h0a56.82277,56.82277,0,0,0-56.8226,56.82364" transform="translate(3 -5.26951)"/><path id="path9200-5" data-name="path9200" class="cls-5" d="M465.5865,67.1693s-5.69215,6.64712-9.99944,12.33979c-3.1175,4.12022-8.63037,7.2347-15.72,9.84328A125.19782,125.19782,0,0,1,424.88685,93.455s1.29846-5.76725,2.8682-6.71107C431.89706,84.25372,465.5865,67.1693,465.5865,67.1693Z" transform="translate(3 -5.26951)"/><path id="path150-3-5" data-name="path150-3" class="cls-6" d="M393.60406,109.0552c12.52479-25.12067,20.23075-40.51971,71.98246-41.892,0,0-10.84137,11.97567-15.23179,15.03347-13.87855,9.66635-36.55976,7.702-56.75067,26.85854" transform="translate(3 -5.26951)"/><path id="path9226-5" data-name="path9226" class="cls-3" d="M463.27449,109.43228c-5.02317,5.03315-5.67026,6.47293-7.20494,11.2052-2.1011,6.47947-1.16608,16.08816-1.16608,16.08816s-2.21884-2.13889-3.95666-8.50663a32.23539,32.23539,0,0,1-1.15445-8.94243,16.71936,16.71936,0,0,1,5.3511-5.99532A23.77855,23.77855,0,0,1,463.27449,109.43228Z" transform="translate(3 -5.26951)"/><path id="path9240-5" data-name="path9240" class="cls-6" d="M499.09413,97.00927c-.04519,5.12294.27065,7.37175-.17953,13.5587a31.868,31.868,0,0,1-2.6012,10.34876,48.75655,48.75655,0,0,0-.62789-8.44855c-.71762-3.77486-5.068-11.08833-5.068-11.08833a15.62074,15.62074,0,0,0,3.89918-1.52937A19.023,19.023,0,0,0,499.09413,97.00927Z" transform="translate(3 -5.26951)"/><ellipse id="path5116-5" data-name="path5116" class="cls-2" cx="502.60696" cy="60.30269" rx="3.48388" ry="3.33018"/><path id="path24-1-5" data-name="path24-1" class="cls-7" d="M472.03067,154.01761c0,6.90784,1.83952,9.30113,5.0704,9.30113a13.93737,13.93737,0,0,0,4.23279-.55479v.26838a13.6776,13.6776,0,0,1-4.76028.86593c-2.95631,0-9.73539,0-9.73539-10.16913V131.57868h-7.3045v-4.75976h7.3045V116.65031h5.19248v10.16861h9.30319v4.75976h-9.30319Z" transform="translate(3 -5.26951)"/><path id="path28-5-5" data-name="path28-5" class="cls-7" d="M503.37043,127.33409v21.87228c0,10.02437-2.19857,14.69143-9.92135,14.69143-7.47346,0-9.92185-4.66706-9.92185-14.69143V127.33409h5.193v21.1305c0,7.28389.34616,12.66181,4.72886,12.66181,4.5357,0,4.72886-5.37792,4.72886-12.66181v-21.1305Z" transform="translate(3 -5.26951)"/><path id="path32-6-5" data-name="path32-6" class="cls-7" d="M526.4681,140.91252v22.408h-5.192V136.46227c0-5.49749-1.8112-6.4832-4.44994-6.47528s-4.35924,1.13539-4.35924,6.42514v26.90841h-5.19248V133.81141c0-4.61092,2.96517-7.05224,9.48328-7.12617,6.39058-.07247,9.71034,2.48252,9.71034,6.95791" transform="translate(3 -5.26951)"/><path id="path36-9-5" data-name="path36-9" class="cls-7" d="M543.60163,143.51938c0-.48437-.10326-.43271-2.29746-.43271-4.32706,0-7.38691,2.56585-7.38691,9.20016,0,6.92176-.1633,7.80933,5.244,7.80933,4.25186,0,4.44039-3.14125,4.44039-7.59348ZM548.279,141.685v10.81767c0,9.66789-3.235,11.39563-9.11775,11.39563-9.59269,0-9.92134.59034-9.92134-11.61147,0-11.89943,9.3238-11.8268,12.64121-11.8268,3.2453,0,1.6484.36008,1.6484.36008,0-6.77907.613-11.19886-5.37793-11.19886a15.15443,15.15443,0,0,0-7.43843,1.92657v-2.47209a13.15425,13.15425,0,0,1,7.72691-2.3907c10.09649,0,9.83891,7.253,9.83891,15" transform="translate(3 -5.26951)"/><polygon id="polygon5-1-6" data-name="polygon5-1" class="cls-1" points="500.873 410.278 410.373 357.978 410.373 253.478 500.873 201.278 591.373 253.478 591.373 357.978 500.873 410.278"/><polygon id="polygon5-6" data-name="polygon5" class="cls-2" points="421.284 260.383 500.873 214.477 580.461 260.383 580.461 352.284 500.873 398.278 421.284 352.284 421.284 260.383"/><path id="path9214-6" data-name="path9214" class="cls-3" d="M454.07147,292.565c-8.2135,2.38169-12.76309,3.3555-19.5497,8.50331a63.45415,63.45415,0,0,0-9.6883,9.655s7.64457-3.91076,13.98733-5.309c6.34267-1.39811,9.27309-1.55464,11.25795-1.39036C450.47528,300.30524,453.05619,295.82846,454.07147,292.565Z" transform="translate(3 -5.26951)"/><path id="path5880-6" data-name="path5880" class="cls-12" d="M449.03449,307.37139a56.823,56.823,0,0,0,53.22033,56.7062h0c-38.157-3.46784-38.752-30.43164-28.2068-41.80873h0c23.18843-25.01971,71.39091-21.15626,71.39091-55.66255h0a56.63277,56.63277,0,0,0-39.58184-16.05856h0a56.82277,56.82277,0,0,0-56.8226,56.82364" transform="translate(3 -5.26951)"/><path id="path9200-6" data-name="path9200" class="cls-5" d="M491.427,267.26746s-5.69215,6.64712-9.99944,12.33979c-3.1175,4.12022-8.63037,7.2347-15.72,9.84328a125.19782,125.19782,0,0,1-14.98023,4.10262s1.29846-5.76725,2.8682-6.71107C457.73756,284.35188,491.427,267.26746,491.427,267.26746Z" transform="translate(3 -5.26951)"/><path id="path150-3-6" data-name="path150-3" class="cls-6" d="M419.44455,309.15336c12.52479-25.12067,20.23075-40.51971,71.98246-41.892,0,0-10.84136,11.97567-15.23179,15.03346-13.87855,9.66636-36.55976,7.702-56.75067,26.85855" transform="translate(3 -5.26951)"/><path id="path9226-6" data-name="path9226" class="cls-3" d="M489.115,309.53044c-5.02317,5.03315-5.67026,6.47293-7.20494,11.2052-2.1011,6.47947-1.16608,16.08816-1.16608,16.08816s-2.21884-2.13889-3.95666-8.50663a32.23539,32.23539,0,0,1-1.15445-8.94243,16.71936,16.71936,0,0,1,5.3511-5.99532A23.77855,23.77855,0,0,1,489.115,309.53044Z" transform="translate(3 -5.26951)"/><path id="path9240-6" data-name="path9240" class="cls-6" d="M524.93462,297.10743c-.04519,5.12294.27065,7.37175-.17953,13.5587a31.86777,31.86777,0,0,1-2.60119,10.34875,48.75586,48.75586,0,0,0-.6279-8.44854c-.71762-3.77486-5.068-11.08833-5.068-11.08833a15.62074,15.62074,0,0,0,3.89918-1.52937A19.023,19.023,0,0,0,524.93462,297.10743Z" transform="translate(3 -5.26951)"/><ellipse id="path5116-6" data-name="path5116" class="cls-2" cx="528.44745" cy="260.40085" rx="3.48388" ry="3.33018"/><path id="path24-1-6" data-name="path24-1" class="cls-7" d="M497.87117,354.11577c0,6.90784,1.83952,9.30113,5.07039,9.30113a13.93748,13.93748,0,0,0,4.2328-.55479v.26838a13.67766,13.67766,0,0,1-4.76029.86593c-2.95631,0-9.73539,0-9.73539-10.16913V331.67684h-7.3045v-4.75976h7.3045V316.74847h5.19249v10.16861h9.30319v4.75976h-9.30319Z" transform="translate(3 -5.26951)"/><path id="path28-5-6" data-name="path28-5" class="cls-7" d="M529.21092,327.43225v21.87228c0,10.02437-2.19856,14.69143-9.92135,14.69143-7.47346,0-9.92185-4.66706-9.92185-14.69143V327.43225h5.193v21.1305c0,7.28389.34616,12.66181,4.72886,12.66181,4.5357,0,4.72887-5.37792,4.72887-12.66181v-21.1305Z" transform="translate(3 -5.26951)"/><path id="path32-6-6" data-name="path32-6" class="cls-7" d="M552.30859,341.01068v22.408h-5.192V336.56043c0-5.49749-1.8112-6.4832-4.44994-6.47528s-4.35924,1.13539-4.35924,6.42514V363.4187H533.115V333.90957c0-4.61092,2.96517-7.05224,9.48328-7.12617,6.39059-.07247,9.71034,2.48251,9.71034,6.95791" transform="translate(3 -5.26951)"/><path id="path36-9-6" data-name="path36-9" class="cls-7" d="M569.44212,343.61754c0-.48437-.10326-.43271-2.29746-.43271-4.32706,0-7.38691,2.56585-7.38691,9.20016,0,6.92175-.1633,7.80933,5.244,7.80933,4.25186,0,4.44039-3.14125,4.44039-7.59348Zm4.67735-1.83437v10.81767c0,9.66789-3.235,11.39563-9.11775,11.39563-9.59269,0-9.92134.59034-9.92134-11.61147,0-11.89943,9.3238-11.8268,12.64121-11.8268,3.2453,0,1.6484.36008,1.6484.36008,0-6.77907.613-11.19886-5.37793-11.19886a15.15443,15.15443,0,0,0-7.43843,1.92657V329.1739a13.15425,13.15425,0,0,1,7.72691-2.3907c10.09649,0,9.83891,7.253,9.83891,15" transform="translate(3 -5.26951)"/></g><g id="图层_3" data-name="图层 3"><line class="cls-13" y1="416.06383" x2="598.28" y2="416.06383"/></g><g id="图层_1_复制_2" data-name="图层 1_复制_2"><polygon id="polygon5-1-7" data-name="polygon5-1" class="cls-1" points="312.419 831.37 221.919 779.07 221.919 674.57 312.419 622.37 402.919 674.57 402.919 779.07 312.419 831.37"/><polygon id="polygon5-7" data-name="polygon5" class="cls-2" points="232.83 681.475 312.419 635.569 392.008 681.475 392.008 773.376 312.419 819.37 232.83 773.376 232.83 681.475"/><path id="path9214-7" data-name="path9214" class="cls-3" d="M265.618,713.65691c-8.2135,2.38169-12.76309,3.3555-19.54971,8.5033a63.45464,63.45464,0,0,0-9.6883,9.655s7.64458-3.91075,13.98734-5.309c6.34267-1.39811,9.27309-1.55464,11.258-1.39036C262.02179,721.39719,264.60269,716.9204,265.618,713.65691Z" transform="translate(3 -5.26951)"/><path id="path5880-7" data-name="path5880" class="cls-14" d="M260.581,728.46334a56.823,56.823,0,0,0,53.22033,56.7062h0c-38.157-3.46784-38.752-30.43164-28.2068-41.80873h0c23.18843-25.01972,71.39091-21.15626,71.39091-55.66255h0a56.63273,56.63273,0,0,0-39.58184-16.05857h0A56.82278,56.82278,0,0,0,260.581,728.46334" transform="translate(3 -5.26951)"/><path id="path9200-7" data-name="path9200" class="cls-5" d="M302.9735,688.35941s-5.69215,6.64711-9.99944,12.33979c-3.1175,4.12021-8.63037,7.23469-15.72,9.84327a125.1972,125.1972,0,0,1-14.98023,4.10263s1.29846-5.76725,2.8682-6.71107C269.28406,705.44383,302.9735,688.35941,302.9735,688.35941Z" transform="translate(3 -5.26951)"/><path id="path150-3-7" data-name="path150-3" class="cls-6" d="M230.99105,730.24531c12.5248-25.12068,20.23076-40.51971,71.98246-41.892,0,0-10.84136,11.97567-15.23178,15.03346-13.87855,9.66636-36.55976,7.702-56.75068,26.85855" transform="translate(3 -5.26951)"/><path id="path9226-7" data-name="path9226" class="cls-3" d="M300.66149,730.62239c-5.02318,5.03315-5.67026,6.47293-7.20494,11.2052-2.1011,6.47947-1.16608,16.08816-1.16608,16.08816s-2.21885-2.13889-3.95666-8.50663a32.23544,32.23544,0,0,1-1.15445-8.94244,16.71945,16.71945,0,0,1,5.3511-5.99532A23.77863,23.77863,0,0,1,300.66149,730.62239Z" transform="translate(3 -5.26951)"/><path id="path9240-7" data-name="path9240" class="cls-6" d="M336.48113,718.19937c-.0452,5.12294.27065,7.37175-.17953,13.5587a31.86794,31.86794,0,0,1-2.6012,10.34876,48.75646,48.75646,0,0,0-.62789-8.44854c-.71762-3.77486-5.068-11.08833-5.068-11.08833a15.62121,15.62121,0,0,0,3.89918-1.52938A19.02259,19.02259,0,0,0,336.48113,718.19937Z" transform="translate(3 -5.26951)"/><ellipse id="path5116-7" data-name="path5116" class="cls-2" cx="339.99396" cy="681.49279" rx="3.48388" ry="3.33018"/><path id="path24-1-7" data-name="path24-1" class="cls-7" d="M309.41767,775.20771c0,6.90785,1.83952,9.30113,5.0704,9.30113a13.93705,13.93705,0,0,0,4.23279-.55479v.26839a13.67762,13.67762,0,0,1-4.76029.86592c-2.9563,0-9.73538,0-9.73538-10.16912V752.76879h-7.3045V748.009h7.3045V737.84041h5.19248V748.009h9.30319v4.75977h-9.30319Z" transform="translate(3 -5.26951)"/><path id="path28-5-7" data-name="path28-5" class="cls-7" d="M340.75743,748.5242v21.87228c0,10.02437-2.19857,14.69142-9.92135,14.69142-7.47346,0-9.92186-4.66705-9.92186-14.69142V748.5242h5.193v21.13049c0,7.2839.34617,12.66182,4.72887,12.66182,4.5357,0,4.72886-5.37792,4.72886-12.66182V748.5242Z" transform="translate(3 -5.26951)"/><path id="path32-6-7" data-name="path32-6" class="cls-7" d="M363.85509,762.10263v22.408h-5.192V757.65237c0-5.49749-1.8112-6.48319-4.44994-6.47528s-4.35925,1.1354-4.35925,6.42514v26.90842h-5.19247V755.00152c0-4.61092,2.96517-7.05225,9.48327-7.12617,6.39059-.07248,9.71034,2.48251,9.71034,6.95791" transform="translate(3 -5.26951)"/><path id="path36-9-7" data-name="path36-9" class="cls-7" d="M380.98863,764.70948c0-.48437-.10326-.43271-2.29746-.43271-4.32707,0-7.38692,2.56585-7.38692,9.20017,0,6.92175-.1633,7.80932,5.244,7.80932,4.25186,0,4.44039-3.14124,4.44039-7.59348Zm4.67735-1.83436v10.81766c0,9.6679-3.235,11.39564-9.11775,11.39564-9.59269,0-9.92134.59034-9.92134-11.61148,0-11.89943,9.3238-11.82679,12.64121-11.82679,3.2453,0,1.6484.36007,1.6484.36007,0-6.77907.613-11.19885-5.37793-11.19885a15.15432,15.15432,0,0,0-7.43843,1.92657v-2.47209a13.15424,13.15424,0,0,1,7.7269-2.3907c10.09649,0,9.83892,7.253,9.83892,15" transform="translate(3 -5.26951)"/><polygon id="polygon5-1-8" data-name="polygon5-1" class="cls-1" points="123.866 831.677 33.366 779.377 33.366 674.877 123.866 622.677 214.366 674.877 214.366 779.377 123.866 831.677"/><polygon id="polygon5-8" data-name="polygon5" class="cls-2" points="44.278 681.782 123.866 635.876 203.455 681.782 203.455 773.683 123.866 819.677 44.278 773.683 44.278 681.782"/><path id="path9214-8" data-name="path9214" class="cls-3" d="M77.06533,713.96374c-8.21349,2.38168-12.76308,3.3555-19.5497,8.5033a63.45415,63.45415,0,0,0-9.6883,9.655s7.64457-3.91076,13.98734-5.309c6.34266-1.3981,9.27308-1.55464,11.25794-1.39035C73.46914,721.704,76.05005,717.22723,77.06533,713.96374Z" transform="translate(3 -5.26951)"/><path id="path5880-8" data-name="path5880" class="cls-15" d="M72.02836,728.77016a56.823,56.823,0,0,0,53.22032,56.7062h0c-38.157-3.46784-38.752-30.43163-28.2068-41.80872h0c23.18843-25.01972,71.39091-21.15627,71.39091-55.66255h0A56.63271,56.63271,0,0,0,128.851,671.94652h0a56.82278,56.82278,0,0,0-56.82261,56.82364" transform="translate(3 -5.26951)"/><path id="path9200-8" data-name="path9200" class="cls-5" d="M114.42086,688.66623s-5.69215,6.64712-9.99944,12.3398c-3.11751,4.12021-8.63038,7.23469-15.72,9.84327a125.19782,125.19782,0,0,1-14.98023,4.10262s1.29846-5.76725,2.86821-6.71106C80.73142,705.75066,114.42086,688.66623,114.42086,688.66623Z" transform="translate(3 -5.26951)"/><path id="path150-3-8" data-name="path150-3" class="cls-6" d="M42.43841,730.55214c12.5248-25.12068,20.23076-40.51972,71.98246-41.892,0,0-10.84136,11.97567-15.23179,15.03347-13.87854,9.66635-36.55976,7.702-56.75067,26.85855" transform="translate(3 -5.26951)"/><path id="path9226-8" data-name="path9226" class="cls-3" d="M112.10885,730.92921c-5.02318,5.03315-5.67026,6.47294-7.20494,11.2052-2.1011,6.47947-1.16608,16.08816-1.16608,16.08816s-2.21885-2.13889-3.95666-8.50663a32.23539,32.23539,0,0,1-1.15445-8.94243,16.71939,16.71939,0,0,1,5.35109-5.99532A23.77864,23.77864,0,0,1,112.10885,730.92921Z" transform="translate(3 -5.26951)"/><path id="path9240-8" data-name="path9240" class="cls-6" d="M147.92849,718.5062c-.0452,5.12294.27064,7.37175-.17953,13.5587a31.868,31.868,0,0,1-2.6012,10.34876,48.756,48.756,0,0,0-.6279-8.44855c-.71761-3.77486-5.068-11.08833-5.068-11.08833a15.62067,15.62067,0,0,0,3.89919-1.52937A19.02329,19.02329,0,0,0,147.92849,718.5062Z" transform="translate(3 -5.26951)"/><ellipse id="path5116-8" data-name="path5116" class="cls-2" cx="151.44132" cy="681.79962" rx="3.48388" ry="3.33018"/><path id="path24-1-8" data-name="path24-1" class="cls-7" d="M120.865,775.51454c0,6.90784,1.83952,9.30113,5.07039,9.30113a13.93712,13.93712,0,0,0,4.2328-.55479v.26838a13.67761,13.67761,0,0,1-4.76029.86593c-2.95631,0-9.73538,0-9.73538-10.16912V753.07561h-7.3045v-4.75976h7.3045V738.14724H120.865v10.16861h9.30319v4.75976H120.865Z" transform="translate(3 -5.26951)"/><path id="path28-5-8" data-name="path28-5" class="cls-7" d="M152.20478,748.831v21.87229c0,10.02436-2.19856,14.69142-9.92134,14.69142-7.47346,0-9.92186-4.66706-9.92186-14.69142V748.831h5.193v21.1305c0,7.28389.34617,12.66182,4.72887,12.66182,4.53569,0,4.72886-5.37793,4.72886-12.66182V748.831Z" transform="translate(3 -5.26951)"/><path id="path32-6-8" data-name="path32-6" class="cls-7" d="M175.30245,762.40946v22.408h-5.192V757.9592c0-5.49749-1.81119-6.4832-4.44994-6.47528s-4.35924,1.1354-4.35924,6.42514v26.90841h-5.19247V755.30834c0-4.61091,2.96517-7.05224,9.48327-7.12616,6.39059-.07248,9.71034,2.48251,9.71034,6.9579" transform="translate(3 -5.26951)"/><path id="path36-9-8" data-name="path36-9" class="cls-7" d="M192.436,765.01631c0-.48437-.10325-.43271-2.29746-.43271-4.32706,0-7.38691,2.56585-7.38691,9.20016,0,6.92176-.1633,7.80933,5.244,7.80933,4.25185,0,4.44038-3.14125,4.44038-7.59348Zm4.67735-1.83437v10.81767c0,9.6679-3.235,11.39563-9.11775,11.39563-9.59268,0-9.92134.59034-9.92134-11.61147,0-11.89943,9.32381-11.8268,12.64122-11.8268,3.24529,0,1.6484.36008,1.6484.36008,0-6.77907.613-11.19885-5.37793-11.19885a15.15437,15.15437,0,0,0-7.43844,1.92657v-2.4721a13.15435,13.15435,0,0,1,7.72691-2.39069c10.09649,0,9.83892,7.253,9.83892,15" transform="translate(3 -5.26951)"/><polygon id="polygon5-1-9" data-name="polygon5-1" class="cls-1" points="288.266 630.976 197.766 578.676 197.766 474.176 288.266 421.976 378.766 474.176 378.766 578.676 288.266 630.976"/><polygon id="polygon5-9" data-name="polygon5" class="cls-2" points="208.678 481.081 288.266 435.175 367.855 481.081 367.855 572.982 288.266 618.976 208.678 572.982 208.678 481.081"/><path id="path9214-9" data-name="path9214" class="cls-3" d="M241.46529,513.26271c-8.2135,2.38168-12.76309,3.3555-19.54971,8.5033a63.45415,63.45415,0,0,0-9.6883,9.655s7.64458-3.91076,13.98734-5.309c6.34266-1.39811,9.27309-1.55464,11.25794-1.39036C237.86909,521.003,240.45,516.5262,241.46529,513.26271Z" transform="translate(3 -5.26951)"/><path id="path5880-9" data-name="path5880" class="cls-16" d="M236.42831,528.06913a56.823,56.823,0,0,0,53.22033,56.7062h0c-38.157-3.46783-38.752-30.43163-28.2068-41.80872h0c23.18843-25.01972,71.39091-21.15626,71.39091-55.66255h0a56.63275,56.63275,0,0,0-39.58184-16.05857h0a56.82278,56.82278,0,0,0-56.82261,56.82364" transform="translate(3 -5.26951)"/><path id="path9200-9" data-name="path9200" class="cls-5" d="M278.82081,487.96521s-5.69215,6.64711-9.99944,12.33979c-3.1175,4.12021-8.63038,7.23469-15.72,9.84327a125.19782,125.19782,0,0,1-14.98023,4.10262s1.29846-5.76725,2.86821-6.71106C245.13137,505.04963,278.82081,487.96521,278.82081,487.96521Z" transform="translate(3 -5.26951)"/><path id="path150-3-9" data-name="path150-3" class="cls-6" d="M206.83836,529.85111c12.5248-25.12068,20.23076-40.51972,71.98246-41.892,0,0-10.84136,11.97567-15.23179,15.03346-13.87854,9.66636-36.55976,7.702-56.75067,26.85855" transform="translate(3 -5.26951)"/><path id="path9226-9" data-name="path9226" class="cls-3" d="M276.5088,530.22818c-5.02318,5.03315-5.67026,6.47294-7.20494,11.2052-2.1011,6.47948-1.16608,16.08816-1.16608,16.08816s-2.21885-2.13888-3.95666-8.50663a32.23539,32.23539,0,0,1-1.15445-8.94243,16.71945,16.71945,0,0,1,5.3511-5.99532A23.77878,23.77878,0,0,1,276.5088,530.22818Z" transform="translate(3 -5.26951)"/><path id="path9240-9" data-name="path9240" class="cls-6" d="M312.32844,517.80517c-.0452,5.12294.27065,7.37175-.17953,13.5587a31.868,31.868,0,0,1-2.6012,10.34876,48.75646,48.75646,0,0,0-.62789-8.44854c-.71762-3.77487-5.068-11.08833-5.068-11.08833a15.62121,15.62121,0,0,0,3.89918-1.52938A19.02329,19.02329,0,0,0,312.32844,517.80517Z" transform="translate(3 -5.26951)"/><ellipse id="path5116-9" data-name="path5116" class="cls-2" cx="315.84127" cy="481.09859" rx="3.48388" ry="3.33018"/><path id="path24-1-9" data-name="path24-1" class="cls-7" d="M285.265,574.81351c0,6.90785,1.83952,9.30113,5.07039,9.30113a13.93708,13.93708,0,0,0,4.2328-.55479v.26839a13.67762,13.67762,0,0,1-4.76029.86592c-2.9563,0-9.73538,0-9.73538-10.16912V552.37458H272.768v-4.75976h7.3045V537.44621H285.265v10.16861h9.30319v4.75976H285.265Z" transform="translate(3 -5.26951)"/><path id="path28-5-9" data-name="path28-5" class="cls-7" d="M316.60473,548.13v21.87228c0,10.02436-2.19856,14.69142-9.92134,14.69142-7.47346,0-9.92186-4.66706-9.92186-14.69142V548.13h5.193v21.13049c0,7.2839.34617,12.66182,4.72887,12.66182,4.53569,0,4.72886-5.37792,4.72886-12.66182V548.13Z" transform="translate(3 -5.26951)"/><path id="path32-6-9" data-name="path32-6" class="cls-7" d="M339.7024,561.70843v22.408h-5.192V557.25817c0-5.49749-1.81119-6.48319-4.44993-6.47528s-4.35925,1.1354-4.35925,6.42514v26.90842h-5.19247V554.60731c0-4.61091,2.96517-7.05224,9.48327-7.12616,6.39059-.07248,9.71034,2.48251,9.71034,6.9579" transform="translate(3 -5.26951)"/><path id="path36-9-9" data-name="path36-9" class="cls-7" d="M356.83593,564.31528c0-.48437-.10325-.43271-2.29745-.43271-4.32707,0-7.38692,2.56585-7.38692,9.20016,0,6.92176-.1633,7.80933,5.244,7.80933,4.25185,0,4.44038-3.14124,4.44038-7.59348Zm4.67736-1.83436v10.81766c0,9.6679-3.235,11.39564-9.11776,11.39564-9.59268,0-9.92133.59033-9.92133-11.61148,0-11.89943,9.3238-11.82679,12.64121-11.82679,3.24529,0,1.6484.36007,1.6484.36007,0-6.77907.613-11.19885-5.37793-11.19885a15.15429,15.15429,0,0,0-7.43843,1.92657v-2.4721a13.1543,13.1543,0,0,1,7.7269-2.39069c10.09649,0,9.83892,7.253,9.83892,15" transform="translate(3 -5.26951)"/><polygon id="polygon5-1-10" data-name="polygon5-1" class="cls-1" points="99.351 631.579 8.851 579.279 8.851 474.779 99.351 422.579 189.851 474.779 189.851 579.279 99.351 631.579"/><polygon id="polygon5-10" data-name="polygon5" class="cls-2" points="19.762 481.684 99.351 435.777 178.94 481.684 178.94 573.585 99.351 619.579 19.762 573.585 19.762 481.684"/><path id="path9214-10" data-name="path9214" class="cls-3" d="M52.55,513.86558c-8.2135,2.38168-12.76309,3.3555-19.54971,8.5033a63.45415,63.45415,0,0,0-9.6883,9.655s7.64458-3.91076,13.98734-5.309c6.34267-1.3981,9.27309-1.55463,11.258-1.39035C48.95381,521.60586,51.53471,517.12907,52.55,513.86558Z" transform="translate(3 -5.26951)"/><path id="path5880-10" data-name="path5880" class="cls-17" d="M47.513,528.672a56.823,56.823,0,0,0,53.22033,56.7062h0c-38.157-3.46784-38.752-30.43163-28.2068-41.80872h0c23.18843-25.01972,71.39091-21.15626,71.39091-55.66255h0a56.63273,56.63273,0,0,0-39.58184-16.05857h0A56.82278,56.82278,0,0,0,47.513,528.672" transform="translate(3 -5.26951)"/><path id="path9200-10" data-name="path9200" class="cls-5" d="M89.90552,488.56807s-5.69215,6.64712-9.99944,12.3398c-3.1175,4.12021-8.63038,7.23469-15.72,9.84327a125.19835,125.19835,0,0,1-14.98023,4.10262s1.29846-5.76725,2.8682-6.71106C56.21608,505.6525,89.90552,488.56807,89.90552,488.56807Z" transform="translate(3 -5.26951)"/><path id="path150-3-10" data-name="path150-3" class="cls-6" d="M17.92307,530.454c12.5248-25.12068,20.23076-40.51972,71.98246-41.892,0,0-10.84136,11.97567-15.23178,15.03346-13.87855,9.66635-36.55976,7.702-56.75068,26.85855" transform="translate(3 -5.26951)"/><path id="path9226-10" data-name="path9226" class="cls-3" d="M87.59351,530.83105c-5.02318,5.03315-5.67026,6.47294-7.20494,11.2052-2.1011,6.47947-1.16608,16.08816-1.16608,16.08816s-2.21885-2.13889-3.95666-8.50663a32.23539,32.23539,0,0,1-1.15445-8.94243,16.71936,16.71936,0,0,1,5.3511-5.99532A23.77878,23.77878,0,0,1,87.59351,530.83105Z" transform="translate(3 -5.26951)"/><path id="path9240-10" data-name="path9240" class="cls-6" d="M123.41315,518.408c-.0452,5.12294.27065,7.37175-.17953,13.5587a31.868,31.868,0,0,1-2.6012,10.34876,48.75655,48.75655,0,0,0-.62789-8.44855c-.71762-3.77486-5.068-11.08833-5.068-11.08833a15.62074,15.62074,0,0,0,3.89918-1.52937A19.023,19.023,0,0,0,123.41315,518.408Z" transform="translate(3 -5.26951)"/><ellipse id="path5116-10" data-name="path5116" class="cls-2" cx="126.92598" cy="481.70146" rx="3.48388" ry="3.33018"/><path id="path24-1-10" data-name="path24-1" class="cls-7" d="M96.34969,575.41638c0,6.90785,1.83952,9.30113,5.07039,9.30113a13.93708,13.93708,0,0,0,4.2328-.55479v.26838a13.67738,13.67738,0,0,1-4.76029.86593c-2.9563,0-9.73538,0-9.73538-10.16912V552.97745h-7.3045v-4.75976h7.3045V538.04908h5.19248v10.16861h9.30319v4.75976H96.34969Z" transform="translate(3 -5.26951)"/><path id="path28-5-10" data-name="path28-5" class="cls-7" d="M127.68945,548.73287v21.87228c0,10.02436-2.19857,14.69142-9.92135,14.69142-7.47346,0-9.92186-4.66706-9.92186-14.69142V548.73287h5.193v21.13049c0,7.2839.34617,12.66182,4.72887,12.66182,4.5357,0,4.72886-5.37792,4.72886-12.66182V548.73287Z" transform="translate(3 -5.26951)"/><path id="path32-6-10" data-name="path32-6" class="cls-7" d="M150.78711,562.3113v22.408h-5.192V557.861c0-5.49749-1.8112-6.4832-4.44994-6.47528s-4.35925,1.1354-4.35925,6.42514v26.90842H131.5935V555.21018c0-4.61091,2.96517-7.05224,9.48327-7.12616,6.39059-.07248,9.71034,2.48251,9.71034,6.9579" transform="translate(3 -5.26951)"/><path id="path36-9-10" data-name="path36-9" class="cls-7" d="M167.92065,564.91815c0-.48437-.10326-.43271-2.29746-.43271-4.32707,0-7.38692,2.56585-7.38692,9.20016,0,6.92176-.1633,7.80933,5.244,7.80933,4.25186,0,4.44039-3.14125,4.44039-7.59348Zm4.67735-1.83437v10.81767c0,9.6679-3.235,11.39564-9.11775,11.39564-9.59269,0-9.92134.59033-9.92134-11.61148,0-11.89943,9.3238-11.8268,12.64121-11.8268,3.2453,0,1.6484.36008,1.6484.36008,0-6.77907.613-11.19885-5.37793-11.19885a15.15432,15.15432,0,0,0-7.43843,1.92657v-2.4721a13.1543,13.1543,0,0,1,7.7269-2.39069c10.09649,0,9.83892,7.253,9.83892,15" transform="translate(3 -5.26951)"/><polygon id="polygon5-1-11" data-name="polygon5-1" class="cls-1" points="475.032 631.579 384.532 579.279 384.532 474.779 475.032 422.579 565.532 474.779 565.532 579.279 475.032 631.579"/><polygon id="polygon5-11" data-name="polygon5" class="cls-2" points="395.443 481.684 475.032 435.777 554.621 481.684 554.621 573.585 475.032 619.579 395.443 573.585 395.443 481.684"/><path id="path9214-11" data-name="path9214" class="cls-3" d="M428.231,513.86558c-8.2135,2.38168-12.76309,3.3555-19.5497,8.5033a63.45362,63.45362,0,0,0-9.6883,9.655s7.64457-3.91076,13.98733-5.309c6.34267-1.3981,9.27309-1.55463,11.258-1.39035C424.63479,521.60586,427.21569,517.12907,428.231,513.86558Z" transform="translate(3 -5.26951)"/><path id="path5880-11" data-name="path5880" class="cls-18" d="M423.194,528.672a56.823,56.823,0,0,0,53.22033,56.7062h0c-38.157-3.46784-38.752-30.43163-28.2068-41.80872h0c23.18843-25.01972,71.39091-21.15626,71.39091-55.66255h0a56.63273,56.63273,0,0,0-39.58184-16.05857h0A56.82277,56.82277,0,0,0,423.194,528.672" transform="translate(3 -5.26951)"/><path id="path9200-11" data-name="path9200" class="cls-5" d="M465.5865,488.56807s-5.69215,6.64712-9.99944,12.3398c-3.1175,4.12021-8.63037,7.23469-15.72,9.84327a125.19782,125.19782,0,0,1-14.98023,4.10262s1.29846-5.76725,2.8682-6.71106C431.89706,505.6525,465.5865,488.56807,465.5865,488.56807Z" transform="translate(3 -5.26951)"/><path id="path150-3-11" data-name="path150-3" class="cls-6" d="M393.60406,530.454c12.52479-25.12068,20.23075-40.51972,71.98246-41.892,0,0-10.84137,11.97567-15.23179,15.03346-13.87855,9.66635-36.55976,7.702-56.75067,26.85855" transform="translate(3 -5.26951)"/><path id="path9226-11" data-name="path9226" class="cls-3" d="M463.27449,530.83105c-5.02317,5.03315-5.67026,6.47294-7.20494,11.2052-2.1011,6.47947-1.16608,16.08816-1.16608,16.08816s-2.21884-2.13889-3.95666-8.50663a32.23539,32.23539,0,0,1-1.15445-8.94243,16.71936,16.71936,0,0,1,5.3511-5.99532A23.77878,23.77878,0,0,1,463.27449,530.83105Z" transform="translate(3 -5.26951)"/><path id="path9240-11" data-name="path9240" class="cls-6" d="M499.09413,518.408c-.04519,5.12294.27065,7.37175-.17953,13.5587a31.868,31.868,0,0,1-2.6012,10.34876,48.75655,48.75655,0,0,0-.62789-8.44855c-.71762-3.77486-5.068-11.08833-5.068-11.08833a15.62074,15.62074,0,0,0,3.89918-1.52937A19.023,19.023,0,0,0,499.09413,518.408Z" transform="translate(3 -5.26951)"/><ellipse id="path5116-11" data-name="path5116" class="cls-2" cx="502.60696" cy="481.70146" rx="3.48388" ry="3.33018"/><path id="path24-1-11" data-name="path24-1" class="cls-7" d="M472.03067,575.41638c0,6.90785,1.83952,9.30113,5.0704,9.30113a13.93705,13.93705,0,0,0,4.23279-.55479v.26838a13.67737,13.67737,0,0,1-4.76028.86593c-2.95631,0-9.73539,0-9.73539-10.16912V552.97745h-7.3045v-4.75976h7.3045V538.04908h5.19248v10.16861h9.30319v4.75976h-9.30319Z" transform="translate(3 -5.26951)"/><path id="path28-5-11" data-name="path28-5" class="cls-7" d="M503.37043,548.73287v21.87228c0,10.02436-2.19857,14.69142-9.92135,14.69142-7.47346,0-9.92185-4.66706-9.92185-14.69142V548.73287h5.193v21.13049c0,7.2839.34616,12.66182,4.72886,12.66182,4.5357,0,4.72886-5.37792,4.72886-12.66182V548.73287Z" transform="translate(3 -5.26951)"/><path id="path32-6-11" data-name="path32-6" class="cls-7" d="M526.4681,562.3113v22.408h-5.192V557.861c0-5.49749-1.8112-6.4832-4.44994-6.47528s-4.35924,1.1354-4.35924,6.42514v26.90842h-5.19248V555.21018c0-4.61091,2.96517-7.05224,9.48328-7.12616,6.39058-.07248,9.71034,2.48251,9.71034,6.9579" transform="translate(3 -5.26951)"/><path id="path36-9-11" data-name="path36-9" class="cls-7" d="M543.60163,564.91815c0-.48437-.10326-.43271-2.29746-.43271-4.32706,0-7.38691,2.56585-7.38691,9.20016,0,6.92176-.1633,7.80933,5.244,7.80933,4.25186,0,4.44039-3.14125,4.44039-7.59348Zm4.67735-1.83437v10.81767c0,9.6679-3.235,11.39564-9.11775,11.39564-9.59269,0-9.92134.59033-9.92134-11.61148,0-11.89943,9.3238-11.8268,12.64121-11.8268,3.2453,0,1.6484.36008,1.6484.36008,0-6.77907.613-11.19885-5.37793-11.19885a15.15432,15.15432,0,0,0-7.43843,1.92657v-2.4721a13.15431,13.15431,0,0,1,7.72691-2.39069c10.09649,0,9.83891,7.253,9.83891,15" transform="translate(3 -5.26951)"/><polygon id="polygon5-1-12" data-name="polygon5-1" class="cls-1" points="500.873 831.677 410.373 779.377 410.373 674.877 500.873 622.677 591.373 674.877 591.373 779.377 500.873 831.677"/><polygon id="polygon5-12" data-name="polygon5" class="cls-2" points="421.284 681.782 500.873 635.876 580.461 681.782 580.461 773.683 500.873 819.677 421.284 773.683 421.284 681.782"/><path id="path9214-12" data-name="path9214" class="cls-3" d="M454.07147,713.96374c-8.2135,2.38168-12.76309,3.3555-19.5497,8.5033a63.45415,63.45415,0,0,0-9.6883,9.655s7.64457-3.91076,13.98733-5.309c6.34267-1.3981,9.27309-1.55464,11.25795-1.39035C450.47528,721.704,453.05619,717.22723,454.07147,713.96374Z" transform="translate(3 -5.26951)"/><path id="path5880-12" data-name="path5880" class="cls-19" d="M449.03449,728.77016a56.823,56.823,0,0,0,53.22033,56.7062h0c-38.157-3.46784-38.752-30.43163-28.2068-41.80872h0c23.18843-25.01972,71.39091-21.15627,71.39091-55.66255h0a56.63273,56.63273,0,0,0-39.58184-16.05857h0a56.82277,56.82277,0,0,0-56.8226,56.82364" transform="translate(3 -5.26951)"/><path id="path9200-12" data-name="path9200" class="cls-5" d="M491.427,688.66623s-5.69215,6.64712-9.99944,12.3398c-3.1175,4.12021-8.63037,7.23469-15.72,9.84327a125.19782,125.19782,0,0,1-14.98023,4.10262s1.29846-5.76725,2.8682-6.71106C457.73756,705.75066,491.427,688.66623,491.427,688.66623Z" transform="translate(3 -5.26951)"/><path id="path150-3-12" data-name="path150-3" class="cls-6" d="M419.44455,730.55214c12.52479-25.12068,20.23075-40.51972,71.98246-41.892,0,0-10.84136,11.97567-15.23179,15.03347-13.87855,9.66635-36.55976,7.702-56.75067,26.85855" transform="translate(3 -5.26951)"/><path id="path9226-12" data-name="path9226" class="cls-3" d="M489.115,730.92921c-5.02317,5.03315-5.67026,6.47294-7.20494,11.2052-2.1011,6.47947-1.16608,16.08816-1.16608,16.08816s-2.21884-2.13889-3.95666-8.50663a32.23539,32.23539,0,0,1-1.15445-8.94243,16.71936,16.71936,0,0,1,5.3511-5.99532A23.77855,23.77855,0,0,1,489.115,730.92921Z" transform="translate(3 -5.26951)"/><path id="path9240-12" data-name="path9240" class="cls-6" d="M524.93462,718.5062c-.04519,5.12294.27065,7.37175-.17953,13.5587a31.86788,31.86788,0,0,1-2.60119,10.34876,48.756,48.756,0,0,0-.6279-8.44855c-.71762-3.77486-5.068-11.08833-5.068-11.08833a15.62074,15.62074,0,0,0,3.89918-1.52937A19.023,19.023,0,0,0,524.93462,718.5062Z" transform="translate(3 -5.26951)"/><ellipse id="path5116-12" data-name="path5116" class="cls-2" cx="528.44745" cy="681.79962" rx="3.48388" ry="3.33018"/><path id="path24-1-12" data-name="path24-1" class="cls-7" d="M497.87117,775.51454c0,6.90784,1.83952,9.30113,5.07039,9.30113a13.93717,13.93717,0,0,0,4.2328-.55479v.26838a13.67766,13.67766,0,0,1-4.76029.86593c-2.95631,0-9.73539,0-9.73539-10.16912V753.07561h-7.3045v-4.75976h7.3045V738.14724h5.19249v10.16861h9.30319v4.75976h-9.30319Z" transform="translate(3 -5.26951)"/><path id="path28-5-12" data-name="path28-5" class="cls-7" d="M529.21092,748.831v21.87229c0,10.02436-2.19856,14.69142-9.92135,14.69142-7.47346,0-9.92185-4.66706-9.92185-14.69142V748.831h5.193v21.1305c0,7.28389.34616,12.66182,4.72886,12.66182,4.5357,0,4.72887-5.37793,4.72887-12.66182V748.831Z" transform="translate(3 -5.26951)"/><path id="path32-6-12" data-name="path32-6" class="cls-7" d="M552.30859,762.40946v22.408h-5.192V757.9592c0-5.49749-1.8112-6.4832-4.44994-6.47528s-4.35924,1.1354-4.35924,6.42514v26.90841H533.115V755.30834c0-4.61091,2.96517-7.05224,9.48328-7.12616,6.39059-.07248,9.71034,2.48251,9.71034,6.9579" transform="translate(3 -5.26951)"/><path id="path36-9-12" data-name="path36-9" class="cls-7" d="M569.44212,765.01631c0-.48437-.10326-.43271-2.29746-.43271-4.32706,0-7.38691,2.56585-7.38691,9.20016,0,6.92176-.1633,7.80933,5.244,7.80933,4.25186,0,4.44039-3.14125,4.44039-7.59348Zm4.67735-1.83437v10.81767c0,9.6679-3.235,11.39563-9.11775,11.39563-9.59269,0-9.92134.59034-9.92134-11.61147,0-11.89943,9.3238-11.8268,12.64121-11.8268,3.2453,0,1.6484.36008,1.6484.36008,0-6.77907.613-11.19885-5.37793-11.19885a15.15432,15.15432,0,0,0-7.43843,1.92657v-2.4721a13.15431,13.15431,0,0,1,7.72691-2.39069c10.09649,0,9.83891,7.253,9.83891,15" transform="translate(3 -5.26951)"/></g></svg>