<svg id="图层_1" data-name="图层 1" xmlns="http://www.w3.org/2000/svg" xmlns:xlink="http://www.w3.org/1999/xlink" viewBox="0 0 585.98398 412.01431"><defs><style>.cls-1{fill:#525151;}.cls-12,.cls-2,.cls-4{fill:#fff;}.cls-3{fill:#218bc3;}.cls-4{fill-opacity:0.16568;}.cls-5{fill:url(#未命名的渐变_32);}.cls-6{fill:#010100;}.cls-7{fill:#c8194d;}.cls-8{stroke-width:13.33817px;fill:url(#未命名的渐变_2);stroke:url(#未命名的渐变_3);}.cls-9{fill:#264c69;}.cls-10{fill:url(#未命名的渐变_24);}.cls-11{fill:url(#未命名的渐变_25);}.cls-12{stroke:#000;stroke-miterlimit:10;}.cls-13{fill:#bbdee5;}.cls-14{fill:url(#未命名的渐变_4);}.cls-15{fill:#5095ba;}.cls-16{fill:#7859a3;}.cls-17{fill:#2e4a66;}.cls-18{fill:#d14a19;}.cls-19{fill:none;}</style><linearGradient id="未命名的渐变_32" x1="-202.03312" y1="1750.17881" x2="5.37372" y2="1121.94493" gradientTransform="translate(131.30133 387.90611) rotate(180) scale(0.11674 0.11674)" gradientUnits="userSpaceOnUse"><stop offset="0" stop-color="#fff" stop-opacity="0"/><stop offset="1" stop-color="#fff" stop-opacity="0.27451"/></linearGradient><linearGradient id="未命名的渐变_2" x1="381.8976" y1="104.59181" x2="548.8976" y2="104.59181" gradientUnits="userSpaceOnUse"><stop offset="0" stop-color="#7e7dba"/><stop offset="0.56639" stop-color="#7454a0" stop-opacity="0.99608"/><stop offset="1" stop-color="#824396" stop-opacity="0.99216"/></linearGradient><linearGradient id="未命名的渐变_3" x1="375.22852" y1="104.59365" x2="555.56669" y2="104.59365" gradientUnits="userSpaceOnUse"><stop offset="0" stop-color="#3e2657"/><stop offset="1" stop-color="#582a7e"/></linearGradient><linearGradient id="未命名的渐变_24" x1="1691.06867" y1="2005.30254" x2="1954.75173" y2="1778.43871" gradientTransform="matrix(0.17845, 0, 0, -0.18018, 153.88335, 599.2374)" gradientUnits="userSpaceOnUse"><stop offset="0" stop-color="#5997c8"/><stop offset="1" stop-color="#316591"/></linearGradient><linearGradient id="未命名的渐变_25" x1="2056.69298" y1="1641.13094" x2="1962.53192" y2="1774.35262" gradientTransform="matrix(0.17845, 0, 0, -0.18018, 153.88335, 599.2374)" gradientUnits="userSpaceOnUse"><stop offset="0" stop-color="#f5cd43"/><stop offset="1" stop-color="#f6e174"/></linearGradient><radialGradient id="未命名的渐变_4" cx="436.49919" cy="615.86443" r="48.20222" gradientTransform="matrix(0.3943, 1.31129, 1.31712, -0.39604, -648.89459, -63.66023)" gradientUnits="userSpaceOnUse"><stop offset="0" stop-color="#5ac2de"/><stop offset="1" stop-color="#3da9e1"/></radialGradient></defs><polygon id="polygon5-1" class="cls-1" points="117.045 411.734 26.545 359.434 26.545 254.934 117.045 202.734 207.545 254.934 207.545 359.434 117.045 411.734"/><g id="g24840"><g id="g24842"><path id="path24844" class="cls-2" d="M61.40877,344.79357a20.18581,20.18581,0,0,0-6.08626.89216l-.93493,5.04744c-.00227.01859,4.653-1.24141,6.70344-1.16714,3.39492.122,3.70738,1.2975,3.64808,2.88425.05788.0928-.8759-1.4337-3.81307-1.4849-3.70546-.06392-8.93489,1.312-8.92774,6.90509-.09989,6.2914,4.69959,8.14215,7.96836,8.17611a7.77035,7.77035,0,0,0,5.07188-1.68044c.99164-1.03684,2.12614-2.07949,3.20811-3.33033a20.05542,20.05542,0,0,1-2.83536,4.13083v.83106l4.46692-.75162.03055-12.142C69.8635,351.38562,70.89453,344.80955,61.40877,344.79357Zm-.64162,10.57151c1.85157.02541,3.975.938,3.97806,3.13479.00959,1.99809-2.50295,3.07233-4.13694,3.05535-1.63469-.017-3.80348-1.28468-3.81308-3.23256C56.82651,356.58146,58.84048,355.32026,60.76715,355.36508Z" transform="translate(-4.76906 -4.3315)"/><path id="path24846" class="cls-2" d="M72.85432,345.91553l-.03032,20.107L78.0278,365.02l.00878-11.40043c.00117-1.69748,2.42581-3.681,5.46789-3.64938.64569-1.16819,1.85935-4.15375,2.15505-4.83286-6.79637-.01629-6.88289,1.95345-8.06495,2.92241-.01234-1.84843-.00416-2.95805-.00416-2.95805Z" transform="translate(-4.76906 -4.3315)"/><path id="path24848" class="cls-2" d="M102.14026,348.55518a11.12775,11.12775,0,0,0-8.06933-3.14019c-5.01615-.08338-10.64254,1.86136-10.7326,10.27239.04391,7.39512,5.40483,10.28515,10.761,10.3415a9.62363,9.62363,0,0,0,8.14946-3.67448c-.68393-.5929-3.24559-3.13124-3.24559-3.13124a6.07125,6.07125,0,0,1-4.70436,2.30723,5.77455,5.77455,0,0,1-5.84243-5.78982c-.03979-3.38991,2.4812-5.2265,5.86574-5.37485a6.52828,6.52828,0,0,1,4.6206,1.89155Z" transform="translate(-4.76906 -4.3315)"/><path id="path24850" class="cls-2" d="M108.69948,338.87841l-4.913,1.15492.03667,26.19046,4.83967-.87383.055-12.32528c.01035-1.29239,1.86963-3.27712,4.97411-3.21423,2.96828.03085,3.63169,1.97844,3.62364,2.2243l.08555,14.26848,4.77246-.84327.01832-15.1301c.03142-1.45589-3.189-4.53063-8.36555-4.55247a8.754,8.754,0,0,0-4.51581.9716c-1.18627.91624-2.542,1.79419-3.87418,2.91481a20.74393,20.74393,0,0,1,3.27534-3.48921Z" transform="translate(-4.76906 -4.3315)"/></g><g id="g24852"><path id="path24854" class="cls-2" d="M126.33718,339.558l2.216-.55461.10486,26.4044-2.25142.38338Z" transform="translate(-4.76906 -4.3315)"/><path id="path24856" class="cls-2" d="M132.36221,347.43857l1.942-.86463.01662,18.93288-1.87561.38769Zm-.46155-6.82724,1.56594-1.27822,1.30082,1.44734-1.5666,1.31206Z" transform="translate(-4.76906 -4.3315)"/><path id="path24858" class="cls-2" d="M137.95621,347.09365l2.21623-.4522.01047,3.958c.00039.17,1.21684-4.42166,7.08511-4.31957,5.69771.0317,6.62982,4.44271,6.599,5.43165l.07028,13.91852-1.94247.42159-.01125-13.74791a4.68845,4.68845,0,0,0-4.91429-3.80907c-4.02564-.01169-6.815,2.92406-6.81,4.79967l.03206,12.111-2.25088.58806Z" transform="translate(-4.76906 -4.3315)"/><path id="path24860" class="cls-2" d="M173.27519,365.73027l-2.21624.45216-.01046-3.958c-.00038-.17005-1.21758,4.42166-7.08512,4.31953-5.6977-.03168-6.62981-4.44269-6.599-5.43161l-.07029-13.9186,2.35463-.47544.03635,13.74817a4.1823,4.1823,0,0,0,4.477,3.86263c4.02564.01174,6.84594-2.42413,6.86591-6.09222l-.02872-10.84715,2.19162-.5593Z" transform="translate(-4.76906 -4.3315)"/><path id="path24862" class="cls-2" d="M177.6185,346.93752l-1.55393,1.21594,5.95786,7.7971-6.35463,9.00805,1.64863,1.22341,5.97368-8.36551,6.16526,8.56378,1.525-1.21619-6.60729-9.15639,5.27107-7.40461-1.62087-1.37057-4.80164,6.85175Z" transform="translate(-4.76906 -4.3315)"/></g></g><g id="g24830"><path id="path24832" class="cls-3" d="M122.45708,227.399c-4.82226,11.8229-7.73416,19.56677-13.10311,31.03821a84.61,84.61,0,0,0,13.89411,12.123c-7.05468-2.903-11.86272-5.797-15.45892-8.82139-6.87124,14.33789-17.65233,34.73993-39.49848,73.99305,17.16727-9.911,30.48351-16.01495,42.886-18.3478a31.51179,31.51179,0,0,1-.8082-7.35975l.01717-.53307c.27246-11.00058,5.99754-19.47244,12.77639-18.898s12.05149,9.97814,11.779,20.97873a31.00716,31.00716,0,0,1-.68783,5.89812c12.26514,2.40237,25.43962,8.48751,42.37017,18.26182-3.33984-6.14891-6.33565-11.676-9.1825-16.95495-4.48424-3.47559-9.15092-7.9998-18.6917-12.89676a55.94654,55.94654,0,0,1,14.92585,5.86373C134.73048,257.85387,132.38285,250.69191,122.45708,227.399Z" transform="translate(-4.76906 -4.3315)"/><path id="path24834" class="cls-4" d="M153.41612,292.14358c-23.48178-31.87155-28.92461-57.559-30.30326-63.69177C135.63873,257.3432,135.55318,257.6975,153.41612,292.14358Z" transform="translate(-4.76906 -4.3315)"/><path id="path24836" class="cls-5" d="M123.12232,228.23225c-.59967,1.4742-1.18259,2.90315-1.73677,4.26454-.61647,1.51437-1.22289,2.96753-1.80554,4.3849s-1.14713,2.79609-1.71957,4.16135c-.57248,1.36533-1.1508,2.71723-1.73677,4.07538-.58593,1.35809-1.18247,2.73117-1.80554,4.127s-1.25929,2.8205-1.94312,4.29892c-.68388,1.47844-1.41562,3.00256-2.18385,4.60844-.10378.21692-.22116.46813-.32672.68783A84.47268,84.47268,0,0,0,123.707,270.91194c-7.04289-2.89811-11.84749-5.78529-15.44172-8.80419-.18686.38145-.34056.72711-.53307,1.11772-.4136.83927-.8825,1.78034-1.32407,2.66533-3.38916,6.909-7.71456,15.27773-13.5502,26.189,13.7387-7.74092,28.57226-18.89731,55.49047-9.28567-1.34971-2.55633-2.60051-4.95108-3.76585-7.205-1.16533-2.254-2.24466-4.36641-3.25-6.3624-1.00525-1.996-1.93341-3.8749-2.8029-5.65738s-1.68385-3.4764-2.44179-5.08993c-.758-1.6135-1.46156-3.15379-2.13226-4.64284-.67077-1.489-1.30091-2.92429-1.90872-4.3333-.60788-1.40909-1.202-2.7879-1.77116-4.16136s-1.11323-2.74448-1.668-4.127c-.19055-.47478-.39389-.96509-.58465-1.44444C126.49689,236.18974,124.93235,232.48423,123.12232,228.23225Z" transform="translate(-4.76906 -4.3315)"/></g><polygon id="polygon5-1-2" data-name="polygon5-1" class="cls-6" points="277.731 209 187.231 156.7 187.231 52.2 277.731 0 368.231 52.2 368.231 156.7 277.731 209"/><g id="g13297"><g id="g13299"><g id="g13301"><path id="path13303" class="cls-7" d="M291.02279,84.41042c-1.63986-.01506.29067.8513,2.42326,1.22981.60273-.44852,1.149-.90106,1.63748-1.344a12.2657,12.2657,0,0,1-4.06072.11421" transform="translate(-4.76906 -4.3315)"/><path id="path13305" class="cls-7" d="M299.8123,82.258a10.37985,10.37985,0,0,0,1.93816-4.34583,10.551,10.551,0,0,1-1.36511,3.01547c-3.0642,1.92854-.28834-1.14528-.00182-2.31336-3.29416,4.14615-.4526,2.48569-.57123,3.64372" transform="translate(-4.76906 -4.3315)"/><path id="path13307" class="cls-7" d="M303.06082,73.81066c.19892-2.95074-.58127-2.0179-.84315-.89179.3057.15866.5475,2.07992.84315.89179" transform="translate(-4.76906 -4.3315)"/><path id="path13309" class="cls-7" d="M284.79247,33.47985c.8751.15685,1.89254.2772,1.74836.486.95721-.20971,1.17529-.403-1.74836-.486" transform="translate(-4.76906 -4.3315)"/><path id="path13311" class="cls-7" d="M286.54083,33.96587l-.61777.12764.57579-.05106.042-.07658" transform="translate(-4.76906 -4.3315)"/><path id="path13313" class="cls-7" d="M313.8293,74.92949c.09764,2.64982-.77472,3.93551-1.56311,6.21149l-1.41712.70759c-1.15888,2.25042.11315,1.42976-.71816,3.21972-1.81042,1.60848-5.49327,5.03246-6.67133,5.34613-.86232-.01915.58217-1.01487.77106-1.40514-2.42362,1.6632-1.94547,2.49661-5.652,3.50694l-.10767-.24072c-9.14239,4.29751-21.84082-4.2191-21.67383-15.83962-.09764.73769-.2774.55349-.48.85167a14.63111,14.63111,0,0,1,8.21894-14.43631,13.87688,13.87688,0,0,1,15.41586,2.00332,13.74513,13.74513,0,0,0-11.232-5.389c-4.85179.07658-9.39059,3.15771-10.90535,6.50236-2.48567,1.56381-2.774,6.02821-3.85717,6.84522-1.45818,10.70231,2.74026,15.32535,9.84321,20.76449,1.1169.75318.3139.86716.46539,1.44072a19.2693,19.2693,0,0,1-6.2972-4.8118,16.909,16.909,0,0,0,3.275,3.77139c-2.22468-.75318-5.19672-5.38718-6.06451-5.57591,3.83526,6.86253,15.55913,12.03359,21.70029,9.46767a25.63208,25.63208,0,0,1-9.64243-1.12066c-1.34138-.68844-3.16456-2.11729-2.8379-2.38446,8.37771,3.12763,17.03373,2.369,24.28266-3.43855,1.84509-1.43524,3.85991-3.87716,4.44207-3.91089-.87692,1.31761.14964.63373-.52377,1.79633,1.83686-2.96167-.79845-1.20546,1.89892-5.11454l.99645,1.37142c-.37048-2.45924,3.056-5.44462,2.7074-9.33273.78659-1.189.87693,1.27932.04288,4.01485,1.15705-3.03462.3057-3.52244.60227-6.02638a22.749,22.749,0,0,1,.96,2.62429c-.75464-2.93248.772-4.93854,1.15068-6.64279-.37322-.165-1.16344,1.29664-1.3432-2.16745.02555-1.50454.41885-.78874.5694-1.15895-.29565-.16962-1.07128-1.32309-1.543-3.53522.34128-.51975.91433,1.34771,1.37881,1.42431a34.67655,34.67655,0,0,1-.83585-4.44978c-1.35962-2.83949-.48089.37841-1.58412-1.21914-1.44633-4.51091,1.20085-1.0468,1.37972-3.09662,2.19458,3.176,3.44471,8.09809,4.01959,10.137a41.44,41.44,0,0,0-2.01208-7.22365c.668.27992-1.07219-5.11451.86779-1.54194-2.07229-7.61571-8.865-14.73174-15.11564-18.07092.76378.69937,1.73011,1.57747,1.38335,1.71518-3.108-1.8492-2.56232-1.99328-3.00761-2.77476-2.53129-1.02947-2.69737.083-4.37454.00183-4.77241-2.52948-5.6922-2.26046-10.0841-3.84524l.19983.93282c-3.16182-1.05227-3.68468.39937-7.10112.00365-.20805-.16229,1.09409-.58722,2.1672-.74315-3.05689.403-2.91362-.60182-5.90482.11127a25.43635,25.43635,0,0,1,2.30316-1.29849c-2.493.15138-5.95135,1.44982-4.88373.269C273.37157,34.988,266.15,37.533,262.09756,41.32993l-.12774-.85075c-1.857,2.22765-8.09757,6.6528-8.59489,9.53789l-.49639.1158a53.453,53.453,0,0,0-2.35792,5.17017c-1.26383,2.152-1.85239.828-1.67263,1.16532a78.60881,78.60881,0,0,0-4.787,12.73844c.76012,1.13524.01824,6.83427.3057,11.39531-1.24831,22.52709,15.821,44.39855,34.479,49.44744,2.73477.97749,6.8009.94011,10.2602,1.0404-4.08163-1.16716-4.60907-.61823-8.58394-2.00423-2.868-1.34953-3.49673-2.89054-5.528-4.65131l.80392,1.41883c-3.984-1.40788-2.31684-1.74345-5.55806-2.76928l.85866-1.11974c-1.29118-.09849-3.42007-2.17476-4.00226-3.32549l-1.41255.05563c-1.69727-2.09268-2.60156-3.60087-2.53586-4.76986l-.45625.81245c-.51738-.88723-6.24427-7.84825-3.27317-6.2279a6.6941,6.6941,0,0,1-2.08143-2.26594l.605-.69027c-1.42989-1.83827-2.63167-4.19448-2.54042-4.97958a3.23217,3.23217,0,0,0,1.81588,1.39786c-3.61079-8.95247-3.81337-.4933-6.54814-9.113l.57853-.0465a19.13251,19.13251,0,0,1-1.06945-2.10363l.25185-2.50757c-2.5979-2.999-.72543-12.76672-.35041-18.1238.26008-2.17838,2.16994-4.49722,3.62265-8.13364l-.88513-.15227c1.69179-2.94888,9.65979-11.843,13.35-11.38526,1.7876-2.244-.355-.00819-.70446-.57355,3.92652-4.06042,5.16114-2.86866,7.81106-3.59907,2.858-1.6951-2.4528.66109-1.09775-.64648,4.9403-1.26109,3.5013-2.86683,9.94631-3.50694.67981.38664-1.57773.59723-2.14439,1.09875,4.11632-2.01242,13.026-1.55468,18.8122,1.117,6.716,3.13584,14.25972,12.40561,14.5572,21.1274l.33945.09118c-.17065,3.46683.53109,7.47621-.6862,11.15913l.82856-1.74345" transform="translate(-4.76906 -4.3315)"/><path id="path13315" class="cls-7" d="M273.11332,86.69957l-.22995,1.14893a22.1029,22.1029,0,0,0,3.30874,4.18992c-.99008-1.93037-1.72554-2.72823-3.07879-5.33885" transform="translate(-4.76906 -4.3315)"/><path id="path13317" class="cls-7" d="M275.661,86.60017a9.14833,9.14833,0,0,1-1.28573-2.14466,14.91379,14.91379,0,0,0,1.79034,3.631l-.50461-1.48631" transform="translate(-4.76906 -4.3315)"/><path id="path13319" class="cls-7" d="M320.74244,76.8079l-.24.60365a29.12606,29.12606,0,0,1-2.85706,9.11295,28.65676,28.65676,0,0,0,3.097-9.7166" transform="translate(-4.76906 -4.3315)"/><path id="path13321" class="cls-7" d="M285.11822,32.69383c1.10869-.40579,2.72475-.22249,3.901-.48967-1.533.12858-3.0578.20516-4.56618.39937l.66522.0903" transform="translate(-4.76906 -4.3315)"/><path id="path13323" class="cls-7" d="M246.19441,53.37624c.25551,2.36349-1.77938,3.28081.45078,1.72248,1.19539-2.69082-.46722-.74314-.45078-1.72248" transform="translate(-4.76906 -4.3315)"/><path id="path13325" class="cls-7" d="M243.5737,64.31473a25.651,25.651,0,0,0,.803-3.434c-1.41986,1.81364-.65335,2.20026-.803,3.434" transform="translate(-4.76906 -4.3315)"/></g></g></g><g id="g13327"><path id="path13329" class="cls-2" d="M241.607,158.664c-.04372.04574-.04372,7.30515-.13425,9.20007-.08958,1.53186-.22573,4.8244-3.47265,4.8244-3.3372,0-4.14887-3.83357-4.41951-5.50075a23.57427,23.57427,0,0,1-.31531-4.05846c0-2.16545.1352-8.21032,5.23119-8.21032a5.85289,5.85289,0,0,1,3.06657.81167l.04372,2.93339Zm-13.07748,5.32266c0,12.71644,6.76494,12.71644,7.75671,12.71644a5.24831,5.24831,0,0,0,5.36639-4.19367l.09052,4.01273c.85753-.04574,1.71387-.13532,3.11148-.13532a10.47959,10.47959,0,0,1,1.26337.04574,10.12744,10.12744,0,0,1,1.127.08958c-.72114-1.4424-1.26241-4.68908-1.26241-11.72656,0-6.85452,0-18.44392.58594-21.96218a15.5158,15.5158,0,0,1-6.08871,1.53382c1.21751,1.308,1.21751,1.98444,1.21751,7.93587a11.39383,11.39383,0,0,0-3.78795-.58594c-8.072.001-9.38006,7.03653-9.38006,12.26973" transform="translate(-4.76906 -4.3315)"/><path id="path13331" class="cls-2" d="M252.98726,161.68383c.04586-3.743.81262-7.08036,4.01368-7.08036,3.51826,0,3.787,3.87741,3.69742,7.08036Zm12.17528.45253c0-5.27692-1.03645-10.46427-7.7111-10.46427-9.199,0-9.199,10.1947-9.199,12.35729,0,9.15433,4.10326,12.76218,11.0034,12.76218a17.52872,17.52872,0,0,0,5.36638-.67635,16.38054,16.38054,0,0,1,.45264-4.05847,8.0109,8.0109,0,0,1-4.87215,1.35377c-7.03558,0-7.12611-6.40592-7.12611-8.6152h11.998l.08767-2.659" transform="translate(-4.76906 -4.3315)"/><path id="path13333" class="cls-2" d="M279.83413,164.07512c0,4.19367-.766,9.83176-5.99723,9.83176a11.02259,11.02259,0,0,1-2.20928-.27159c-.09053-1.62334-.09053-4.41951-.09053-7.66619a23.74933,23.74933,0,0,1,.72209-6.90026c.94592-3.20094,3.06563-3.24478,3.47051-3.24478,3.42774,0,4.10421,4.73482,4.10421,8.25118ZM266.89185,168.991c0,3.33828,0,5.23118-.541,6.67358a19.01808,19.01808,0,0,0,6.90038,1.127,9.80863,9.80863,0,0,0,9.60484-5.63607,21.00033,21.00033,0,0,0,1.75853-8.79518c0-1.62334-.18105-5.18545-1.48814-7.44142a6.2623,6.2623,0,0,0-5.455-3.20094c-4.32993,0-5.59234,3.60785-6.26762,5.457,0-2.29981.04372-10.327.40393-14.43125a17.85428,17.85428,0,0,1-6.67346,1.75866c1.75853.72019,1.75853,3.69932,1.75853,13.39575v11.093" transform="translate(-4.76906 -4.3315)"/><path id="path13335" class="cls-2" d="M293.28442,176.522a16.107,16.107,0,0,0-2.84393-.22585,24.98711,24.98711,0,0,0-3.47051.22585c.45051-.85741.63062-1.26419.76605-4.19366.18106-4.01463.22573-14.74858-.08958-17.00348-.22572-1.71482-.63061-1.98439-1.26241-2.435,3.69742-.36105,4.73482-.63062,6.44774-1.4424a27.74729,27.74729,0,0,0-.40679,5.99711c-.08863,15.5612-.13425,17.22837.85943,19.07756" transform="translate(-4.76906 -4.3315)"/><path id="path13337" class="cls-2" d="M307.7253,163.75792c-.08958,2.84191-.1352,4.82629-.90315,6.40389a4.07451,4.07451,0,0,1-3.69742,2.61607c-2.7085,0-3.29254-2.25407-3.29254-4.46335,0-4.23846,3.7889-4.55673,5.50087-4.55673h2.39224Zm-12.40291,5.5485c0,2.84192.85752,5.68181,3.384,6.90026a6.534,6.534,0,0,0,2.61607.49637c4.14983,0,5.54649-3.06764,6.404-4.96162a39.50248,39.50248,0,0,0,.1352,4.78056c.81167-.04574,1.62334-.13532,2.97723-.13532.76605,0,1.48814.08958,2.254.13532a5.02132,5.02132,0,0,1-.90315-2.97711c-.08958-1.71292-.08958-3.42679-.08958-5.81712l.04586-9.20008c0-3.42868-.90315-6.8108-7.66809-6.8108a16.8941,16.8941,0,0,0-8.38639,2.03025,11.69287,11.69287,0,0,1,1.39762,3.78878,9.757,9.757,0,0,1,6.404-2.34555c3.74494,0,3.74494,2.48075,3.74494,5.99711-.85752-.04384-1.57961-.1333-2.79807-.1333-5.72945.00095-9.5174,2.20726-9.5174,8.25214" transform="translate(-4.76906 -4.3315)"/><path id="path13339" class="cls-2" d="M333.7011,172.05769a11.21851,11.21851,0,0,0,.67647,4.46525,26.12391,26.12391,0,0,0-3.42679-.22585,13.90447,13.90447,0,0,0-2.52648.22585,6.83166,6.83166,0,0,0,.36116-1.57962c.1352-1.03549.22573-4.50909.22573-5.72754v-4.87014c0-2.1197,0-5.18734-.13734-6.2687a2.74621,2.74621,0,0,0-2.93137-2.83989c-2.57045,0-3.42679,1.8929-3.743,3.42678-.359,1.5776-.359,3.29254-.359,9.966.04372,5.77329.04372,6.31242.49446,7.892a24.93822,24.93822,0,0,0-3.06562-.179,16.65127,16.65127,0,0,0-2.70469.179c.31531-.72209.49636-1.08325.58594-3.60784.09148-2.48075.27159-14.65805-.13734-17.54273-.22382-1.76056-.67647-2.16544-1.17069-2.61607,3.65346-.18106,4.82439-.76783,5.95327-1.35187V156.182c.54008-1.39952,1.66706-4.511,6.178-4.511,5.638,0,5.68169,4.1042,5.72755,6.80878v13.57776" transform="translate(-4.76906 -4.3315)"/><path id="path13341" class="cls-2" d="M293.66483,145.0648l-3.7352,3.73342-3.7333-3.73336,3.7333-3.73336,3.7352,3.73336" transform="translate(-4.76906 -4.3315)"/></g><polygon id="polygon5" class="cls-8" points="381.898 56.337 465.398 8.175 548.898 56.337 548.898 152.754 465.398 201.009 381.898 152.754 381.898 56.337"/><path id="path4237" class="cls-2" d="M447.72575,163.24576a100.10249,100.10249,0,0,0,14.263-.266,230.04961,230.04961,0,0,0,24.81407-3.52154s11.24765-2.40714,17.265-4.62465c6.29619-2.32028,9.72237-4.28955,11.26452-7.07995-.06725-.57173.47481-2.59918-2.42873-3.817-7.42324-3.11357-16.03244-2.55039-33.06791-2.91158-18.89166-.64911-25.17617-3.81129-28.5239-6.35811-3.21025-2.58364-1.596-9.73151,12.15918-16.0277,6.92888-3.3528,34.09083-9.54013,34.09083-9.54013-9.14766-4.52159-26.20516-12.47039-29.7115-14.18687-3.07527-1.50542-7.99662-3.77217-9.0634-6.51464-1.20949-2.63285,2.85642-4.90083,5.1276-5.55031,7.31456-2.10986,17.64049-3.4212,27.03829-3.56842,4.72384-.074,5.4906-.37793,5.4906-.37793,6.518-1.08121,10.80884-5.54065,9.02108-12.60308-1.60492-7.20889-10.0694-11.44476-18.11315-9.97835-7.57479,1.38093-25.832,6.68415-25.832,6.68415,22.56725-.19531,26.3444.18134,28.03133,2.5399.99624,1.3929-.45269,3.30278-6.47129,4.28574-6.55235,1.07015-20.17288,2.35888-20.17288,2.35888-13.06642.776-22.27039.82793-25.03089,6.67249-1.80345,3.81832,1.9232,7.194,3.55659,9.307,6.90242,7.67618,16.87252,11.81616,23.29011,14.86486,2.41467,1.14709,9.49956,3.31333,9.49956,3.31333-20.8198-1.1451-35.83843,5.24792-44.64824,12.60859-9.9642,9.21639-5.55634,20.202,14.85755,26.96622,12.05726,3.99519,18.03689,5.87412,36.02211,4.25456,10.59348-.571,12.26344-.23119,12.36906.638.14869,1.22381-11.76632,4.26383-15.01923,5.20212C469.5277,158.40242,447.83435,163.22237,447.72575,163.24576Z" transform="translate(-4.76906 -4.3315)"/><polygon id="polygon5-1-3" data-name="polygon5-1" class="cls-9" points="495.484 410.378 404.984 358.078 404.984 253.578 495.484 201.378 585.984 253.578 585.984 358.078 495.484 410.378"/><g id="g115147"><g id="g115137"><path id="path113371" class="cls-2" d="M461.45455,352.27316q0-7.65657-4.36634-7.86829a8.20261,8.20261,0,0,0-3.38922.55695,4.97634,4.97634,0,0,0-1.78.93954v12.18341a8.65041,8.65041,0,0,0,4.95743,1.62628Q461.45283,359.40885,461.45455,352.27316Zm3.59077.212a10.828,10.828,0,0,1-1.83126,6.45719,6.75246,6.75246,0,0,1-5.66806,2.98944,10.05451,10.05451,0,0,1-5.6271-1.7083v11.07307l-3.12273-1.11374V345.60416a6.97674,6.97674,0,0,1,1.97135-1.62628,13.52927,13.52927,0,0,1,6.77505-1.66729l.04443.0444a6.215,6.215,0,0,1,5.6168,2.98943,12.70605,12.70605,0,0,1,1.84152,7.14054Z" transform="translate(-4.76906 -4.3315)"/><path id="path113373" class="cls-2" d="M484.13018,359.75205q0,5.21714-1.04545,7.22594a7.36753,7.36753,0,0,1-4.00081,3.20478,15.3152,15.3152,0,0,1-5.17266,1.02834l-.51586-1.96788a24.85227,24.85227,0,0,0,3.97684-.76875,5.25572,5.25572,0,0,0,3.12273-2.35063,11.79742,11.79742,0,0,0,.68331-4.91647v-.81314a16.04291,16.04291,0,0,1-6.71354,1.4521,6.17136,6.17136,0,0,1-4.06228-1.4521,4.94057,4.94057,0,0,1-1.968-4.01792V343.37978l3.12273-1.06934v13.08194a3.97512,3.97512,0,0,0,1.353,3.22867,5.11255,5.11255,0,0,0,3.502,1.08985,8.75817,8.75817,0,0,0,4.59525-1.66729V342.78183h3.12274v16.97022Z" transform="translate(-4.76906 -4.3315)"/><path id="path113375" class="cls-2" d="M496.32044,361.76094c-.37239.03083-.71406.04439-1.02837.04439a6.146,6.146,0,0,1-4.12722-1.26418,4.36791,4.36791,0,0,1-1.47252-3.495V344.74647h-2.13879V342.782h2.13879v-5.217l3.11931-1.11035v6.3274h3.5088v1.96449h-3.5088V356.9607a2.95756,2.95756,0,0,0,.943,2.48722,4.7687,4.7687,0,0,0,2.56583.68673Z" transform="translate(-4.76906 -4.3315)"/><path id="path113377" class="cls-2" d="M515.22764,361.50474h-3.12273V349.45113a5.69889,5.69889,0,0,0-.85754-3.16378,3.12069,3.12069,0,0,0-2.75031-1.49648q-2.14727,0-5.37082,2.26523v14.44864h-3.12273V332.693l3.12273-.98394v13.123a10.88052,10.88052,0,0,1,6.54271-2.17983,5.21472,5.21472,0,0,1,4.01788,1.66728,5.87189,5.87189,0,0,1,1.54089,4.14772v13.03755h-.00008Z" transform="translate(-4.76906 -4.3315)"/><path id="path113379" class="cls-2" d="M531.82525,351.78126a9.59509,9.59509,0,0,0-1.11378-4.86174,4.66265,4.66265,0,0,0-4.10328-2.4701q-5.1351.29736-5.13165,7.35234a12.09437,12.09437,0,0,0,1.0728,5.40158,4.31274,4.31274,0,0,0,4.12036,2.71951q5.15556-.04092,5.15558-8.14159Zm3.42133.06209a11.1074,11.1074,0,0,1-2.17282,6.95921,7.69188,7.69188,0,0,1-6.51344,3.08759,7.53781,7.53781,0,0,1-6.40094-3.15069,11.25586,11.25586,0,0,1-2.06029-6.97989,9.9504,9.9504,0,0,1,2.29751-6.617,7.8052,7.8052,0,0,1,6.30039-2.83228,7.93552,7.93552,0,0,1,6.3168,2.89393A9.95011,9.95011,0,0,1,535.24658,351.84335Z" transform="translate(-4.76906 -4.3315)"/><path id="path113381" class="cls-2" d="M553.148,361.50474h-3.12274v-12.737a4.26008,4.26008,0,0,0-1.26071-3.27307,4.57876,4.57876,0,0,0-3.35847-1.13084,7.50489,7.50489,0,0,0-4.23312,1.45209v15.68878h-3.12273V345.42982a15.38112,15.38112,0,0,1,4.96082-2.56244,15.13394,15.13394,0,0,1,3.765-.55694,9.776,9.776,0,0,1,2.09436.21519,6.02746,6.02746,0,0,1,2.9929,1.58189,4.18588,4.18588,0,0,1,1.28461,3.07838v14.31869Z" transform="translate(-4.76906 -4.3315)"/></g></g><g id="g24414"><path id="path24416" class="cls-10" d="M499.89189,235.4743a58.65019,58.65019,0,0,0-9.83095.83924c-8.7059,1.53806-10.28653,4.75731-10.28653,10.69417v7.84079H500.3475v2.61356h-28.294c-5.97911,0-11.21459,3.59376-12.85217,10.43038-1.88894,7.83637-1.97274,12.72637,0,20.90877,1.46238,6.09069,4.9548,10.43038,10.93391,10.43038h7.07351v-9.39934A13.07387,13.07387,0,0,1,490.06094,277.052h20.54912a10.365,10.365,0,0,0,10.28653-10.45436v-19.59c0-5.57541-4.70351-9.76363-10.28653-10.69417a64.16373,64.16373,0,0,0-10.71814-.83923Zm-11.12577,6.30623a3.92084,3.92084,0,1,1-3.86043,3.93236A3.9034,3.9034,0,0,1,488.76612,241.78053Z" transform="translate(-4.76906 -4.3315)"/><path id="path24418" class="cls-11" d="M523.4622,257.46212v9.13562a13.19517,13.19517,0,0,1-12.85217,13.044H490.06091a10.49482,10.49482,0,0,0-10.28653,10.45435v19.59c0,5.5754,4.84821,8.85483,10.28653,10.45441a34.42036,34.42036,0,0,0,20.54912,0c5.17934-1.49961,10.28653-4.51749,10.28653-10.45441v-7.8408H500.34747v-2.61356h30.83562c5.97911,0,8.20715-4.17057,10.28653-10.43038,2.14791-6.4444,2.05653-12.6418,0-20.90877-1.47764-5.95227-4.29983-10.43038-10.28653-10.43038H523.4622Zm-11.55738,49.61033a3.92084,3.92084,0,1,1-3.86043,3.90838A3.88273,3.88273,0,0,1,511.90482,307.07245Z" transform="translate(-4.76906 -4.3315)"/></g><polygon id="polygon5-1-4" data-name="polygon5-1" class="cls-12" points="305.769 411.437 215.269 359.137 215.269 254.637 305.769 202.437 396.269 254.637 396.269 359.137 305.769 411.437"/><polygon id="polygon5-2" data-name="polygon5" class="cls-2" points="226.18 261.542 305.769 215.635 385.357 261.542 383.357 355.443 305.769 399.437 224.18 355.443 226.18 261.542"/><path id="path9214" class="cls-13" d="M266.73677,292.78554c-8.2135,2.38169-12.76309,3.3555-19.5497,8.50331-4.82055,3.559-11.68831,11.655-11.68831,11.655s9.64458-5.91075,15.98734-7.309c6.34267-1.39811,9.27309-1.55464,11.258-1.39036C263.14058,300.52582,265.72148,296.049,266.73677,292.78554Z" transform="translate(-4.76906 -4.3315)"/><path id="path5880" class="cls-14" d="M261.69979,307.592a56.823,56.823,0,0,0,53.22033,56.7062h0c-38.157-3.46784-38.752-30.43164-28.2068-41.80873h0c23.18843-25.01971,71.39091-21.15626,71.39091-55.66255h0a56.63277,56.63277,0,0,0-39.58184-16.05856h0A56.82277,56.82277,0,0,0,261.69978,307.592" transform="translate(-4.76906 -4.3315)"/><path id="path9200" class="cls-15" d="M304.09229,267.488s-5.69215,6.64712-9.99944,12.33979c-3.1175,4.12021-8.63037,7.23469-15.72,9.84328a125.19835,125.19835,0,0,1-14.98023,4.10262s1.29846-5.76725,2.8682-6.71107C270.40285,284.57246,304.09229,267.488,304.09229,267.488Z" transform="translate(-4.76906 -4.3315)"/><path id="path150-3" class="cls-16" d="M230.10984,311.37394c12.5248-25.12068,22.23076-42.51971,73.98246-43.892,0,0-10.84136,11.97567-15.23178,15.03346-13.87855,9.66636-38.55976,9.702-58.75068,28.85855" transform="translate(-4.76906 -4.3315)"/><path id="path9226" class="cls-13" d="M301.78028,309.751c-5.02318,5.03315-5.67026,6.47293-7.20494,11.2052-2.1011,6.47947-1.16608,16.08816-1.16608,16.08816s-2.21884-2.13889-3.95666-8.50663a32.23544,32.23544,0,0,1-1.15445-8.94244,16.71939,16.71939,0,0,1,5.3511-5.99531A23.77855,23.77855,0,0,1,301.78028,309.751Z" transform="translate(-4.76906 -4.3315)"/><path id="path9240" class="cls-16" d="M337.59992,297.328c-.0452,5.12294.27065,7.37175-.17953,13.5587a31.86794,31.86794,0,0,1-2.6012,10.34876,48.75646,48.75646,0,0,0-.62789-8.44854c-.71762-3.77486-5.068-11.08833-5.068-11.08833a15.62133,15.62133,0,0,0,3.89918-1.52937A19.02276,19.02276,0,0,0,337.59992,297.328Z" transform="translate(-4.76906 -4.3315)"/><ellipse id="path5116" class="cls-2" cx="333.34369" cy="261.55943" rx="3.48388" ry="3.33018"/><path id="path24-1" class="cls-17" d="M310.53646,354.33634c0,6.90785,1.83952,9.30114,5.0704,9.30114a13.937,13.937,0,0,0,4.23279-.5548v.26839a13.6776,13.6776,0,0,1-4.76028.86593c-2.95631,0-9.73539,0-9.73539-10.16913V331.89742h-7.3045v-4.75977h7.3045V316.969h5.19248v10.16861h9.30319v4.75977h-9.30319Z" transform="translate(-4.76906 -4.3315)"/><path id="path28-5" class="cls-17" d="M341.87622,327.65283v21.87228c0,10.02437-2.19857,14.69142-9.92135,14.69142-7.47346,0-9.92186-4.667-9.92186-14.69142V327.65283h5.193v21.13049c0,7.2839.34617,12.66182,4.72887,12.66182,4.5357,0,4.72886-5.37792,4.72886-12.66182V327.65283Z" transform="translate(-4.76906 -4.3315)"/><path id="path32-6" class="cls-17" d="M364.97388,341.23126v22.408h-5.192V336.781c0-5.4975-1.8112-6.4832-4.44994-6.47529s-4.35925,1.1354-4.35925,6.42514v26.90842h-5.19247V334.13015c0-4.61092,2.96517-7.05224,9.48327-7.12617,6.39059-.07248,9.71034,2.48251,9.71034,6.95791" transform="translate(-4.76906 -4.3315)"/><path id="path36-9" class="cls-17" d="M382.10742,343.83811c0-.48437-.10326-.43271-2.29746-.43271-4.32706,0-7.38692,2.56585-7.38692,9.20017,0,6.92175-.1633,7.80932,5.244,7.80932,4.25186,0,4.44039-3.14124,4.44039-7.59348Zm2.67735.16564v10.81766c0,9.6679-1.235,9.39564-7.11775,9.39564-9.59269,0-9.92134.59034-9.92134-11.61148,0-11.89943,9.3238-11.82679,12.64121-11.82679,3.2453,0,1.6484.36007,1.6484.36007,0-6.77906.613-11.19885-5.37793-11.19885a15.15432,15.15432,0,0,0-7.43843,1.92657v-2.47209a13.15424,13.15424,0,0,1,7.7269-2.3907c10.09649,0,7.83892,9.253,7.83892,17" transform="translate(-4.76906 -4.3315)"/><polygon id="polygon3" class="cls-18" points="181 156.702 90.5 209.002 0 156.702 0 52.202 90.5 0.002 181 52.202 181 156.702"/><circle class="cls-19" cx="90.5" cy="104.50183" r="78.8659"/><circle class="cls-2" cx="35.98027" cy="100.98742" r="19.59748"/><circle class="cls-2" cx="117.5965" cy="58.01534" r="19.59748"/><path class="cls-2" d="M84.94843,155.755A47.72781,47.72781,0,0,1,52.401,130.932a28.21135,28.21135,0,0,1-16.756,2.05962,63.79925,63.79925,0,0,0,45.93255,38.49586,64.56822,64.56822,0,0,0,13.91607,1.43207,28.04146,28.04146,0,0,1-5.738-16.385C88.14154,156.35526,86.5294,156.09332,84.94843,155.755Z" transform="translate(-4.76906 -4.3315)"/><circle class="cls-2" cx="113.18127" cy="151.53156" r="19.59749"/><path class="cls-2" d="M145.22114,148.66482a64.11656,64.11656,0,0,0,3.213-75.22833A28.24644,28.24644,0,0,1,137.41377,86.343a48.04568,48.04568,0,0,1-1.57044,47.72127A28.103,28.103,0,0,1,145.22114,148.66482Z" transform="translate(-4.76906 -4.3315)"/><path class="cls-2" d="M39.23728,77.21427q.74606-.04092,1.49287-.04053A28.28288,28.28288,0,0,1,55.59223,81.406a47.79642,47.79642,0,0,1,38.48568-20.583,28.41634,28.41634,0,0,1,5.94538-15.89345A64.41741,64.41741,0,0,0,39.23728,77.21427Z" transform="translate(-4.76906 -4.3315)"/></svg>